<svg xmlns="http://www.w3.org/2000/svg" width="101" height="11" viewBox="0 0 101 11">
    <g fill="none" fill-rule="evenodd">
        <g fill="#FFF">
            <path d="M578.404 106.053c.049.154.08.275.092.365.012.09-.004.157-.05.204-.044.043-.125.068-.24.077-.115.013-.273.02-.474.02-.21 0-.374-.005-.493-.014-.116-.004-.204-.015-.266-.032-.061-.02-.104-.049-.129-.083-.025-.034-.045-.078-.062-.134l-.536-1.662h-2.996l-.505 1.617c-.017.06-.04.111-.068.154-.025.038-.068.07-.13.096-.057.021-.141.036-.252.044-.107.009-.25.013-.426.013-.189 0-.337-.006-.444-.019-.106-.013-.18-.043-.222-.09-.04-.05-.055-.12-.043-.21.013-.09.043-.21.093-.358l2.46-7.338c.024-.072.053-.13.086-.172.033-.047.084-.081.154-.103.074-.025.174-.04.302-.045.127-.008.296-.012.505-.012.243 0 .436.004.58.012.144.005.255.02.333.045.082.022.14.056.172.103.037.046.068.11.093.191l2.466 7.331zm-3.662-6.065l-1.134 3.515h2.262l-1.128-3.515zm7.496 6.692l-.666 2.02c-.037.106-.137.183-.302.23-.164.047-.405.07-.721.07-.164 0-.296-.009-.395-.026-.098-.012-.172-.036-.222-.07-.049-.034-.076-.077-.08-.128-.004-.05.009-.113.037-.185l.734-1.911c-.054-.026-.103-.064-.148-.115-.041-.056-.072-.113-.093-.173l-1.892-5.24c-.053-.15-.08-.263-.08-.34 0-.08.024-.142.074-.185.05-.047.131-.079.246-.096.12-.017.276-.025.469-.025.177 0 .316.004.419.012.103.005.183.02.24.045.058.026.101.066.13.121.029.052.057.126.086.224l1.295 3.816h.018l1.184-3.893c.025-.11.055-.183.092-.217.041-.038.107-.066.198-.083.09-.017.248-.025.474-.025.177 0 .323.008.438.025.12.017.205.05.259.096.057.047.086.11.086.192 0 .076-.016.168-.05.275l-1.83 5.586zm7.724-3.234c0 .196-.043.34-.13.434-.081.094-.197.14-.345.14h-3.347c0 .244.027.465.08.666.058.196.146.364.265.505.124.136.28.24.469.313.193.072.423.108.69.108.272 0 .51-.019.715-.057.206-.043.383-.087.53-.134.153-.051.278-.096.377-.135.098-.042.178-.063.24-.063.037 0 .068.008.092.025.025.013.046.038.062.077.017.038.027.094.03.166.01.068.013.156.013.262 0 .094-.002.175-.006.243-.004.064-.01.12-.018.166-.009.047-.021.087-.037.122-.017.03-.04.06-.068.089-.025.03-.097.07-.216.121-.12.052-.271.103-.456.154-.185.047-.397.087-.635.121-.238.039-.493.058-.764.058-.49 0-.919-.064-1.289-.192-.366-.128-.672-.322-.918-.582-.247-.26-.432-.588-.555-.984-.12-.396-.179-.86-.179-1.393 0-.507.064-.963.191-1.368.128-.41.312-.754.555-1.035.242-.286.536-.503.881-.652.35-.15.742-.224 1.178-.224.46 0 .853.07 1.177.21.33.141.598.337.808.589.21.247.364.541.462.882.099.34.148.711.148 1.112v.256zm-1.504-.46c.012-.452-.076-.806-.265-1.062-.185-.26-.473-.39-.863-.39-.197 0-.37.039-.518.116-.144.076-.265.18-.364.313-.094.128-.168.281-.222.46-.049.175-.078.362-.086.562h2.318zm6.319-1.694c0 .153-.004.279-.013.377-.008.098-.02.175-.037.23-.016.055-.039.094-.067.115-.025.021-.058.032-.1.032-.032 0-.069-.006-.11-.02-.041-.016-.088-.033-.142-.05-.05-.017-.105-.032-.166-.045-.062-.017-.13-.026-.204-.026-.086 0-.172.02-.259.058-.086.034-.176.09-.27.166-.091.077-.188.179-.29.307-.1.128-.206.285-.321.473v3.554c0 .042-.012.08-.037.115-.025.03-.068.055-.13.076-.057.022-.135.036-.234.045-.098.013-.224.02-.376.02s-.277-.007-.376-.02c-.099-.009-.179-.023-.24-.045-.058-.021-.099-.047-.124-.076-.024-.035-.037-.073-.037-.115v-5.702c0-.042.01-.079.031-.108.02-.035.058-.062.111-.084.054-.02.121-.036.204-.044.086-.013.193-.02.32-.02.132 0 .24.007.327.02.086.008.152.023.197.044.05.022.084.05.105.084.02.03.03.066.03.108v.71c.145-.213.28-.388.408-.524.127-.141.248-.252.363-.333.115-.08.23-.136.346-.166.115-.034.23-.051.345-.051.053 0 .11.004.172.013.062.004.126.015.191.032.066.012.124.03.173.05.05.018.084.037.105.058.025.022.041.045.05.07.012.026.022.062.03.11.008.042.014.108.019.197.004.09.006.211.006.365zm1.67 4.467c0 .397-.068.663-.203.8-.132.136-.37.204-.715.204s-.584-.066-.715-.198c-.132-.137-.198-.392-.198-.767 0-.4.066-.67.198-.806.135-.136.378-.204.727-.204.341 0 .577.068.709.204.132.133.197.388.197.767zm10.733.69c0 .043-.015.082-.043.116-.025.034-.068.062-.13.083-.062.021-.144.038-.246.051-.103.013-.233.02-.389.02-.16 0-.294-.007-.4-.02-.103-.013-.185-.03-.247-.051-.058-.021-.1-.05-.13-.083-.024-.034-.037-.073-.037-.115v-3.343h-2.983v3.343c0 .042-.012.08-.037.115-.025.034-.068.062-.13.083-.061.021-.143.038-.246.051-.103.013-.234.02-.395.02-.156 0-.287-.007-.394-.02-.103-.013-.185-.03-.247-.051-.061-.021-.107-.05-.135-.083-.025-.034-.037-.073-.037-.115v-7.81c0-.043.012-.082.037-.116.028-.034.074-.062.135-.083.062-.021.144-.038.247-.051.107-.013.238-.02.394-.02.16 0 .292.007.395.02.103.013.185.03.246.051.062.021.105.049.13.083.025.034.037.073.037.115v3.036h2.983V98.64c0-.042.013-.08.037-.115.03-.034.072-.062.13-.083.062-.021.144-.038.246-.051.107-.013.24-.02.401-.02.156 0 .286.007.389.02.102.013.184.03.246.051.062.021.105.049.13.083.028.034.043.073.043.115v7.81zm7.206-2.895c0 .486-.062.93-.185 1.33s-.31.745-.56 1.035c-.251.29-.566.514-.944.671-.378.158-.82.237-1.325.237-.49 0-.915-.07-1.276-.211-.362-.14-.662-.345-.9-.614-.239-.268-.416-.598-.53-.99-.116-.392-.173-.84-.173-1.343 0-.485.061-.929.185-1.33.127-.404.316-.749.567-1.035.25-.29.563-.513.937-.67.378-.158.82-.237 1.325-.237.493 0 .92.07 1.282.21.362.137.66.34.894.608.239.268.415.599.53.99.116.393.173.842.173 1.35zm-1.597.064c0-.281-.022-.539-.067-.773-.041-.239-.113-.445-.216-.62s-.24-.311-.413-.41c-.169-.097-.382-.146-.641-.146-.23 0-.432.045-.604.134-.173.085-.315.213-.426.384-.11.166-.195.368-.252.607-.054.234-.08.503-.08.805 0 .281.022.541.067.78.045.234.117.439.216.613.103.175.24.312.413.41.173.093.386.14.641.14.234 0 .438-.042.61-.128.173-.09.315-.217.426-.383.11-.166.193-.367.246-.601.054-.239.08-.51.08-.812zm5.943 3.062l-.666 2.02c-.037.106-.137.183-.302.23-.164.047-.405.07-.721.07-.164 0-.296-.009-.395-.026-.098-.012-.172-.036-.221-.07-.05-.034-.076-.077-.08-.128-.005-.05.008-.113.036-.185l.734-1.911c-.053-.026-.103-.064-.148-.115-.041-.056-.072-.113-.092-.173l-1.893-5.24c-.053-.15-.08-.263-.08-.34 0-.08.025-.142.074-.185.05-.047.131-.079.246-.096.12-.017.276-.025.469-.025.177 0 .316.004.42.012.102.005.182.02.24.045.057.026.1.066.13.121.028.052.057.126.085.224l1.295 3.816h.018l1.184-3.893c.025-.11.055-.183.092-.217.042-.038.107-.066.198-.083.09-.017.248-.025.474-.025.177 0 .323.008.438.025.12.017.206.05.259.096.058.047.086.11.086.192 0 .076-.016.168-.049.275l-1.83 5.586zm3.84-.92c0 .396-.067.662-.203.798-.131.137-.37.205-.715.205s-.583-.066-.715-.198c-.131-.137-.197-.392-.197-.767 0-.4.066-.67.197-.806.136-.136.378-.204.727-.204.342 0 .578.068.71.204.13.133.197.388.197.767zm9.235-1.56c0 .435-.078.816-.234 1.144-.156.328-.368.603-.635.825-.267.217-.58.38-.937.492-.358.11-.74.166-1.147.166-.275 0-.532-.024-.77-.07-.235-.047-.442-.103-.623-.167-.18-.068-.333-.138-.456-.21-.12-.073-.206-.137-.259-.192-.053-.056-.092-.135-.117-.237-.02-.106-.03-.258-.03-.454 0-.132.003-.242.011-.332.009-.09.021-.162.037-.217.021-.056.046-.094.074-.115.033-.026.07-.039.111-.039.058 0 .138.037.24.109.108.068.243.145.408.23.164.085.36.164.585.237.23.068.495.102.795.102.198 0 .374-.024.53-.07.157-.052.288-.122.395-.211.111-.09.195-.2.253-.333.057-.132.086-.279.086-.44 0-.188-.05-.348-.148-.48-.098-.137-.228-.256-.388-.358-.156-.107-.335-.205-.536-.294-.202-.094-.41-.192-.623-.294-.214-.102-.421-.217-.623-.345-.201-.132-.382-.288-.542-.467-.156-.183-.284-.398-.382-.645-.099-.248-.148-.544-.148-.889 0-.396.07-.743.21-1.042.143-.302.334-.552.573-.748.242-.2.526-.349.85-.447.33-.098.676-.147 1.042-.147.19 0 .378.015.567.045.19.03.366.07.53.121.165.051.31.109.438.173.127.064.212.117.253.16.04.042.068.078.08.108.016.03.029.07.037.122.012.047.02.108.025.185.004.072.006.164.006.275 0 .123-.004.228-.013.313-.004.085-.014.156-.03.211-.013.055-.033.096-.062.121-.025.026-.06.039-.105.039s-.117-.03-.216-.09c-.098-.06-.22-.123-.363-.191-.144-.073-.31-.137-.5-.192-.189-.06-.396-.09-.622-.09-.177 0-.331.024-.463.07-.131.043-.242.105-.332.186-.087.077-.153.17-.198.281-.04.111-.061.228-.061.352 0 .183.047.343.141.48.1.131.229.25.389.357.164.102.35.2.555.294.205.09.415.185.628.288.214.102.424.22.63.351.205.128.388.284.548.467.16.179.29.392.388.639.099.243.148.53.148.863zm2.7 2.263c0 .042-.012.08-.037.115-.024.03-.068.055-.13.076-.057.022-.135.036-.233.045-.1.013-.224.02-.377.02-.152 0-.277-.007-.376-.02-.098-.009-.178-.023-.24-.045-.058-.021-.099-.047-.123-.076-.025-.035-.037-.073-.037-.115v-5.689c0-.043.012-.079.037-.109.024-.034.065-.061.123-.083.062-.025.142-.045.24-.057.1-.013.224-.02.376-.02.153 0 .278.007.377.02.098.012.176.032.234.057.061.022.105.05.13.083.024.03.036.066.036.109v5.689zm.117-7.632c0 .324-.063.547-.19.671-.128.124-.364.185-.71.185-.349 0-.585-.06-.709-.179-.119-.119-.178-.334-.178-.645 0-.324.061-.548.185-.671.127-.128.365-.192.715-.192.345 0 .58.062.702.185.124.12.185.335.185.646zm6.516 4.615c0 .196-.043.34-.13.434-.081.094-.196.14-.344.14h-3.348c0 .244.027.465.08.666.058.196.146.364.265.505.124.136.28.24.469.313.193.072.423.108.69.108.272 0 .51-.019.715-.057.206-.043.383-.087.53-.134.153-.051.278-.096.377-.135.098-.042.178-.063.24-.063.037 0 .068.008.093.025.024.013.045.038.061.077.017.038.027.094.031.166.008.068.012.156.012.262 0 .094-.002.175-.006.243-.004.064-.01.12-.018.166-.009.047-.02.087-.037.122-.017.03-.04.06-.068.089-.025.03-.097.07-.216.121-.119.052-.271.103-.456.154-.185.047-.397.087-.635.121-.238.039-.493.058-.764.058-.49 0-.919-.064-1.289-.192-.366-.128-.672-.322-.918-.582-.247-.26-.432-.588-.555-.984-.12-.396-.179-.86-.179-1.393 0-.507.064-.963.191-1.368.128-.41.313-.754.555-1.035.242-.286.536-.503.882-.652.349-.15.741-.224 1.177-.224.46 0 .853.07 1.177.21.33.141.598.337.808.589.21.247.364.541.462.882.099.34.148.711.148 1.112v.256zm-1.504-.46c.012-.452-.076-.806-.265-1.062-.185-.26-.473-.39-.863-.39-.197 0-.37.039-.518.116-.144.076-.265.18-.364.313-.094.128-.168.281-.221.46-.05.175-.079.362-.087.562h2.318zm11.534 3.477c0 .042-.012.08-.037.115-.025.03-.066.055-.123.076-.058.022-.136.036-.235.045-.098.013-.224.02-.376.02-.156 0-.283-.007-.382-.02-.098-.009-.179-.023-.24-.045-.058-.021-.099-.047-.123-.076-.021-.035-.031-.073-.031-.115v-3.382c0-.191-.019-.366-.056-.524-.033-.157-.086-.292-.16-.402-.07-.115-.16-.203-.271-.262-.107-.064-.237-.096-.389-.096-.185 0-.372.074-.56.223-.19.15-.395.367-.617.652v3.79c0 .043-.012.081-.037.116-.025.03-.068.055-.13.076-.057.022-.135.036-.234.045-.098.013-.222.02-.37.02-.152 0-.277-.007-.376-.02-.098-.009-.178-.023-.24-.045-.058-.021-.099-.047-.123-.076-.025-.035-.037-.073-.037-.115v-3.382c0-.191-.019-.366-.056-.524-.033-.157-.084-.292-.154-.402-.07-.115-.16-.203-.271-.262-.111-.064-.24-.096-.389-.096-.189 0-.378.074-.567.223-.189.15-.392.367-.61.652v3.79c0 .043-.012.081-.037.116-.025.03-.068.055-.13.076-.057.022-.135.036-.234.045-.098.013-.224.02-.376.02s-.277-.007-.376-.02c-.098-.009-.179-.023-.24-.045-.058-.021-.099-.047-.124-.076-.024-.035-.037-.073-.037-.115v-5.702c0-.042.01-.079.031-.108.02-.035.058-.062.111-.084.054-.02.122-.036.204-.044.086-.013.193-.02.32-.02.132 0 .24.007.327.02.086.008.152.023.197.044.05.022.084.05.105.084.02.03.03.066.03.108v.659c.305-.341.607-.597.907-.767.304-.17.62-.256.95-.256.225 0 .429.025.61.077.18.046.34.117.48.21.144.09.268.199.37.326.103.128.19.271.26.429.164-.184.324-.341.48-.473.16-.132.317-.239.469-.32.156-.085.31-.147.462-.185.156-.043.314-.064.475-.064.365 0 .674.064.924.192.251.127.452.302.604.524.157.217.268.473.333.767.066.294.099.605.099.933v3.65zm7.058-2.934c0 .507-.053.965-.16 1.374-.103.405-.255.75-.456 1.035-.201.286-.452.505-.752.659-.3.153-.643.23-1.03.23-.16 0-.308-.017-.443-.051-.132-.03-.261-.077-.389-.14-.123-.07-.246-.152-.37-.25-.123-.098-.25-.213-.382-.345v2.684c0 .043-.012.081-.037.115-.025.034-.068.062-.13.083-.057.026-.135.045-.234.058-.098.013-.224.019-.376.019s-.277-.006-.376-.02c-.098-.012-.178-.031-.24-.057-.058-.021-.099-.049-.123-.083-.025-.034-.037-.072-.037-.115v-7.964c0-.042.01-.079.03-.108.021-.035.056-.062.105-.084.054-.02.121-.036.204-.044.086-.013.193-.02.32-.02.124 0 .226.007.308.02.087.008.155.023.204.044.053.022.09.05.11.084.021.03.032.066.032.108v.671c.16-.17.316-.32.468-.447.156-.132.315-.24.475-.326.16-.09.325-.156.493-.198.173-.043.356-.064.549-.064.402 0 .746.083 1.03.25.283.161.513.385.69.67.18.286.312.618.394.997.082.38.123.784.123 1.215zm-1.615.115c0-.243-.018-.475-.055-.697-.033-.226-.093-.426-.179-.6-.082-.175-.193-.314-.333-.416-.135-.107-.306-.16-.512-.16-.102 0-.205.017-.308.051-.098.03-.201.081-.308.154-.103.072-.21.166-.32.28-.111.116-.229.259-.352.43v1.878c.218.286.425.507.623.665.197.153.402.23.616.23.202 0 .372-.053.512-.16.144-.106.26-.245.351-.415.09-.175.156-.37.197-.588.046-.218.068-.435.068-.652zm6.393-2.352c0 .153-.004.279-.012.377-.009.098-.021.175-.037.23-.017.055-.04.094-.068.115-.025.021-.058.032-.099.032-.033 0-.07-.006-.11-.02-.042-.016-.09-.033-.143-.05-.049-.017-.104-.032-.166-.045-.062-.017-.13-.026-.203-.026-.087 0-.173.02-.26.058-.086.034-.176.09-.27.166-.091.077-.188.179-.29.307-.099.128-.206.285-.32.473v3.554c0 .042-.013.08-.038.115-.025.03-.068.055-.13.076-.057.022-.135.036-.234.045-.098.013-.224.02-.376.02s-.277-.007-.376-.02c-.098-.009-.178-.023-.24-.045-.058-.021-.099-.047-.123-.076-.025-.035-.037-.073-.037-.115v-5.702c0-.042.01-.079.03-.108.021-.035.058-.062.111-.084.054-.02.122-.036.204-.044.086-.013.193-.02.32-.02.132 0 .24.007.327.02.086.008.152.023.197.044.05.022.085.05.105.084.02.03.031.066.031.108v.71c.144-.213.28-.388.407-.524.127-.141.249-.252.364-.333.115-.08.23-.136.345-.166.115-.034.23-.051.345-.051.053 0 .111.004.173.013.061.004.125.015.19.032.066.012.124.03.173.05.05.018.085.037.105.058.025.022.041.045.05.07.012.026.022.062.03.11.008.042.015.108.019.197.004.09.006.211.006.365zm5.887 2.154c0 .196-.043.34-.13.434-.082.094-.197.14-.345.14h-3.347c0 .244.027.465.08.666.058.196.146.364.265.505.124.136.28.24.469.313.193.072.423.108.69.108.271 0 .51-.019.715-.057.206-.043.382-.087.53-.134.152-.051.278-.096.376-.135.1-.042.18-.063.24-.063.038 0 .069.008.093.025.025.013.046.038.062.077.016.038.027.094.03.166.009.068.013.156.013.262 0 .094-.002.175-.006.243-.004.064-.01.12-.019.166-.008.047-.02.087-.036.122-.017.03-.04.06-.068.089-.025.03-.097.07-.216.121-.12.052-.271.103-.456.154-.185.047-.397.087-.635.121-.239.039-.493.058-.765.058-.489 0-.918-.064-1.288-.192-.366-.128-.672-.322-.919-.582-.246-.26-.431-.588-.554-.984-.12-.396-.18-.86-.18-1.393 0-.507.065-.963.192-1.368.127-.41.312-.754.555-1.035.242-.286.536-.503.881-.652.35-.15.742-.224 1.178-.224.46 0 .853.07 1.177.21.329.141.598.337.808.589.21.247.363.541.462.882.099.34.148.711.148 1.112v.256zm-1.504-.46c.012-.452-.076-.806-.265-1.062-.185-.26-.473-.39-.863-.39-.197 0-.37.039-.518.116-.144.076-.265.18-.364.313-.094.128-.168.281-.222.46-.049.175-.078.362-.086.562h2.318zm4.611 2.773c0 .397-.068.663-.203.8-.132.136-.37.204-.716.204-.345 0-.583-.066-.715-.198-.131-.137-.197-.392-.197-.767 0-.4.066-.67.197-.806.136-.136.378-.204.728-.204.34 0 .577.068.709.204.131.133.197.388.197.767z" transform="translate(-571 -98)"/>
        </g>
    </g>
</svg>
