<svg width="19" height="19" viewBox="0 0 19 19" fill="none" xmlns="http://www.w3.org/2000/svg">
<g clip-path="url(#clip0)">
<path d="M18.5251 8.22699C18.5246 8.22656 18.5241 8.22598 18.5237 8.22554L10.7732 0.47532C10.4428 0.144814 10.0036 -0.0371094 9.5364 -0.0371094C9.0692 -0.0371094 8.62997 0.144814 8.29947 0.47532L0.553014 8.22163C0.550405 8.22424 0.547651 8.22699 0.545186 8.2296C-0.133221 8.91192 -0.132061 10.019 0.548521 10.6996C0.859457 11.0106 1.26998 11.1907 1.70906 11.2097C1.72704 11.2114 1.74501 11.2123 1.76313 11.2123H2.07189V16.9158C2.07189 18.0446 2.99035 18.9629 4.11914 18.9629H7.15139C7.45885 18.9629 7.70803 18.7136 7.70803 18.4063V13.9346C7.70803 13.4196 8.12711 13.0006 8.64215 13.0006H10.4306C10.9457 13.0006 11.3646 13.4196 11.3646 13.9346V18.4063C11.3646 18.7136 11.6138 18.9629 11.9213 18.9629H14.9535C16.0824 18.9629 17.0008 18.0446 17.0008 16.9158V11.2123H17.2872C17.7543 11.2123 18.1935 11.0303 18.5241 10.6997C19.2054 10.0181 19.2057 8.90902 18.5251 8.22699ZM17.7369 9.91257C17.6167 10.0327 17.4569 10.099 17.2872 10.099H16.4441C16.1367 10.099 15.8875 10.3482 15.8875 10.6556V16.9158C15.8875 17.4307 15.4685 17.8496 14.9535 17.8496H12.4779V13.9346C12.4779 12.8058 11.5596 11.8873 10.4306 11.8873H8.64215C7.51321 11.8873 6.59475 12.8058 6.59475 13.9346V17.8496H4.11914C3.60425 17.8496 3.18518 17.4307 3.18518 16.9158V10.6556C3.18518 10.3482 2.93599 10.099 2.62853 10.099H1.79995C1.79125 10.0984 1.7827 10.098 1.77386 10.0978C1.60802 10.0949 1.45248 10.0291 1.33594 9.91243C1.08806 9.66455 1.08806 9.26113 1.33594 9.0131C1.33608 9.0131 1.33608 9.01296 1.33623 9.01281L1.33666 9.01238L9.08688 1.26245C9.20691 1.14228 9.36651 1.07617 9.5364 1.07617C9.70615 1.07617 9.86575 1.14228 9.98592 1.26245L17.7344 9.01078C17.7356 9.01194 17.7369 9.0131 17.738 9.01426C17.9846 9.26258 17.9842 9.66513 17.7369 9.91257Z" fill="white"/>
</g>
<defs>
<clipPath id="clip0">
<rect width="19" height="19" fill="white"/>
</clipPath>
</defs>
</svg>
