<svg width="45" height="45" viewBox="0 0 45 45" fill="none" xmlns="http://www.w3.org/2000/svg">
<g clip-path="url(#clip0)">
<path d="M39.375 9.49796C39.375 9.09056 39.0447 8.76025 38.6373 8.76025H6.3627C5.95531 8.76025 5.625 9.09056 5.625 9.49796V29.416C5.625 29.8234 5.95531 30.1537 6.3627 30.1537H38.6373C39.0447 30.1537 39.375 29.8234 39.375 29.416V9.49796ZM37.8996 28.6783H7.10041V10.2357H37.8996V28.6783Z" fill="#00AE99"/>
<path d="M44.2911 32.0902H43.0636V9.25737C43.0542 6.78598 41.045 4.78935 38.5736 4.79512H6.42649C3.95511 4.78935 1.94587 6.78598 1.93651 9.25737V32.0902H0.708918C0.301523 32.0902 2.97518e-05 32.459 2.97518e-05 32.8661V35.7427C-0.00429274 36.9256 0.462536 38.0614 1.29786 38.8988C2.13282 39.7363 3.26747 40.2064 4.45003 40.2049H40.55C41.7326 40.2064 42.8672 39.7363 43.7022 38.8988C44.5375 38.0614 45.0047 36.9256 45 35.7427V32.8661C45 32.459 44.6985 32.0902 44.2911 32.0902ZM3.41192 9.25737C3.42056 7.60041 4.7699 6.26368 6.42649 6.27053H38.5736C40.2305 6.26368 41.5795 7.60041 41.5881 9.25737V32.0902H27.9885C27.78 32.0974 27.5836 32.1903 27.446 32.347L26.6867 33.1611C26.1165 33.7745 25.3158 34.1218 24.4783 34.1189H20.5221C19.6857 34.1254 18.885 33.7814 18.3137 33.1705L17.5544 32.3373C17.4157 32.1831 17.219 32.0938 17.0119 32.0902H3.41192V9.25737ZM43.5246 35.7427C43.5297 36.5344 43.2181 37.2952 42.6598 37.856C42.1011 38.4169 41.3414 38.7313 40.55 38.7295H4.45003C3.65866 38.7313 2.89898 38.4169 2.34066 37.856C1.78198 37.2952 1.4704 36.5344 1.47544 35.7427V33.5656H16.6884L17.2288 34.1513C18.0774 35.0702 19.2711 35.5929 20.5218 35.5943H24.4779C25.7286 35.5929 26.9223 35.0702 27.7713 34.1513L28.3116 33.5656H43.5246V35.7427Z" fill="#00AE99"/>
<path d="M20.9772 17.3864C20.9772 18.8047 19.8274 19.9545 18.409 19.9545C16.9906 19.9545 15.8408 18.8047 15.8408 17.3864C15.8408 15.968 16.9906 14.8182 18.409 14.8182C19.8274 14.8182 20.9772 15.968 20.9772 17.3864Z" stroke="#00AE99"/>
<circle cx="26.5906" cy="17.3864" r="2.56818" stroke="#00AE99"/>
<line x1="15.8408" y1="24.0455" x2="29.159" y2="24.0455" stroke="#00AE99" stroke-linecap="round" stroke-linejoin="round"/>
<path d="M32.7268 15.3409C31.9551 16.7045 30.8746 19.4318 32.7268 19.4318C34.5791 19.4318 33.4986 16.7045 32.7268 15.3409Z" stroke="#00AE99"/>
</g>
<defs>
<clipPath id="clip0">
<rect width="45" height="45" fill="white"/>
</clipPath>
</defs>
</svg>
