<svg width="18" height="10" viewBox="0 0 18 10" fill="none" xmlns="http://www.w3.org/2000/svg">
<path d="M8.314 8.74644C8.40406 8.82684 8.511 8.89063 8.62871 8.93414C8.74642 8.97766 8.8726 9.00006 9.00002 9.00006C9.12745 9.00006 9.25362 8.97766 9.37133 8.93414C9.48905 8.89063 9.59598 8.82684 9.68604 8.74644L16.7159 2.47703C16.8978 2.31477 17 2.0947 17 1.86523C17 1.63575 16.8978 1.41568 16.7159 1.25342C16.5339 1.09116 16.2872 1 16.0299 1C15.7726 1 15.5258 1.09116 15.3439 1.25342L9.00002 6.91102L2.65619 1.25342C2.5661 1.17308 2.45915 1.10934 2.34144 1.06586C2.22374 1.02238 2.09758 1 1.97017 1C1.84277 1 1.71661 1.02238 1.5989 1.06586C1.4812 1.10934 1.37425 1.17308 1.28416 1.25342C1.19407 1.33376 1.12261 1.42914 1.07385 1.53412C1.02509 1.63909 1 1.7516 1 1.86523C1 1.97885 1.02509 2.09136 1.07385 2.19633C1.12261 2.30131 1.19407 2.39669 1.28416 2.47703L8.314 8.74644Z" fill="#00A499" stroke="#00A499" stroke-width="1.20161"/>
</svg>
