<svg width="21" height="12" viewBox="0 0 21 12" fill="none" xmlns="http://www.w3.org/2000/svg">
<path fill-rule="evenodd" clip-rule="evenodd" d="M19.2486 0.495004L10.3207 9.42284L7.17611 6.28725C7.00728 6.11805 6.77808 6.02295 6.53905 6.02295C6.30003 6.02295 6.07082 6.11805 5.902 6.28725C5.54958 6.63967 5.54958 7.20895 5.902 7.56137L9.67916 11.3385C10.0316 11.6909 10.6009 11.6909 10.9533 11.3385L20.5227 1.77815C20.8751 1.42574 20.8751 0.856454 20.5227 0.50404H20.5136C20.1703 0.142589 19.601 0.142589 19.2486 0.495004ZM15.4157 0.504052C15.2469 0.334845 15.0177 0.239754 14.7786 0.239754C14.5396 0.239754 14.3104 0.334845 14.1416 0.504052L9.04511 5.60051L10.3192 6.87462L15.4157 1.76913C15.7591 1.42575 15.7591 0.84743 15.4157 0.504052ZM4.57272 11.3476L0.795561 7.57047C0.443146 7.21806 0.443146 6.63974 0.795561 6.28732C0.964387 6.11812 1.19359 6.02303 1.43262 6.02303C1.67164 6.02303 1.90085 6.11812 2.06968 6.28732L6.47937 10.7151L5.84684 11.3476C5.49442 11.7001 4.92514 11.7001 4.57272 11.3476Z" fill="#FF4F00"/>
</svg>