<svg width="299" height="4" viewBox="0 0 299 4" fill="none" xmlns="http://www.w3.org/2000/svg">
<path d="M297 3.5C297.828 3.5 298.5 2.82843 298.5 2C298.5 1.17157 297.828 0.5 297 0.5V3.5ZM0 3.5H2.00676V0.5H0V3.5ZM6.02027 3.5H10.0338V0.5H6.02027V3.5ZM14.0473 3.5H18.0608V0.5H14.0473V3.5ZM22.0743 3.5H26.0878V0.5H22.0743V3.5ZM30.1014 3.5H34.1149V0.5H30.1014V3.5ZM38.1284 3.5H42.1419V0.5H38.1284V3.5ZM46.1554 3.5H50.1689V0.5H46.1554V3.5ZM54.1824 3.5H58.1959V0.5H54.1824V3.5ZM62.2094 3.5H66.223V0.5H62.2094V3.5ZM70.2365 3.5H74.25V0.5H70.2365V3.5ZM78.2635 3.5H82.277V0.5H78.2635V3.5ZM86.2905 3.5H90.304V0.5H86.2905V3.5ZM94.3175 3.5H98.3311V0.5H94.3175V3.5ZM102.345 3.5H106.358V0.5H102.345V3.5ZM110.372 3.5H114.385V0.5H110.372V3.5ZM118.399 3.5H122.412V0.5H118.399V3.5ZM126.426 3.5H130.439V0.5H126.426V3.5ZM134.453 3.5H138.466V0.5H134.453V3.5ZM142.48 3.5H146.493V0.5H142.48V3.5ZM150.507 3.5H154.52V0.5H150.507V3.5ZM158.534 3.5H162.547V0.5H158.534V3.5ZM166.561 3.5H170.574V0.5H166.561V3.5ZM174.588 3.5H178.601V0.5H174.588V3.5ZM182.615 3.5H186.628V0.5H182.615V3.5ZM190.642 3.5H194.655V0.5H190.642V3.5ZM198.669 3.5H202.682V0.5H198.669V3.5ZM206.696 3.5H210.71V0.5H206.696V3.5ZM214.723 3.5H218.737V0.5H214.723V3.5ZM222.75 3.5H226.764V0.5H222.75V3.5ZM230.777 3.5H234.791V0.5H230.777V3.5ZM238.804 3.5H242.818V0.5H238.804V3.5ZM246.831 3.5H250.845V0.5H246.831V3.5ZM254.858 3.5H258.872V0.5H254.858V3.5ZM262.885 3.5H266.899V0.5H262.885V3.5ZM270.912 3.5H274.926V0.5H270.912V3.5ZM278.939 3.5H282.953V0.5H278.939V3.5ZM286.966 3.5H290.98V0.5H286.966V3.5ZM294.993 3.5H297V0.5H294.993V3.5Z" fill="black" fill-opacity="0.1"/>
</svg>
