<svg width="11" height="10" viewBox="0 0 11 10" fill="none" xmlns="http://www.w3.org/2000/svg">
<path d="M6.59695 5.22026L10.0301 2.01182C10.3039 1.75586 10.3039 1.34071 10.0301 1.08475C9.75593 0.828522 9.31203 0.828522 9.03816 1.08475L5.60503 4.29319L2.17218 1.08475C1.89832 0.828522 1.45385 0.828522 1.18026 1.08475C0.906117 1.34071 0.906117 1.75586 1.18026 2.01182L4.61311 5.22026L1.17241 8.43631C0.898261 8.69253 0.898261 9.10742 1.17241 9.36338C1.30934 9.49136 1.48892 9.55535 1.66851 9.55535C1.84809 9.55535 2.02767 9.49136 2.1646 9.36338L5.60531 6.14734L9.03816 9.35578C9.17509 9.48376 9.35468 9.54775 9.53426 9.54775C9.71384 9.54775 9.89315 9.48376 10.0304 9.35578C10.3042 9.09955 10.3042 8.68466 10.0304 8.4287L6.59695 5.22026Z" fill="#FF651D"/>
</svg>
