<svg width="16" height="11" viewBox="0 0 16 11" fill="none" xmlns="http://www.w3.org/2000/svg">
<path fill-rule="evenodd" clip-rule="evenodd" d="M7.068 0.779171H8.56054C8.97099 0.779171 9.30682 1.08585 9.30682 1.46068C9.30682 1.83552 8.97099 2.1422 8.56054 2.1422H1.09783C0.687384 2.1422 0.351562 1.83552 0.351562 1.46068C0.351562 1.08585 0.687384 0.779171 1.09783 0.779171H2.59038L3.12023 0.295295C3.25456 0.172623 3.44859 0.0976562 3.64262 0.0976562H6.01576C6.20979 0.0976562 6.40382 0.172623 6.53815 0.295295L7.068 0.779171ZM1.09784 9.63697C1.09784 10.3866 1.76948 11 2.59038 11H7.06801C7.88891 11 8.56055 10.3866 8.56055 9.63697V2.82183H1.09784V9.63697ZM10.7994 2.82183H14.5308C14.9412 2.82183 15.277 3.12851 15.277 3.50334C15.277 3.87818 14.9412 4.18486 14.5308 4.18486H10.7994C10.389 4.18486 10.0531 3.87818 10.0531 3.50334C10.0531 3.12851 10.389 2.82183 10.7994 2.82183ZM10.7994 8.27522H12.2919C12.7024 8.27522 13.0382 8.5819 13.0382 8.95673C13.0382 9.33156 12.7024 9.63825 12.2919 9.63825H10.7994C10.389 9.63825 10.0531 9.33156 10.0531 8.95673C10.0531 8.5819 10.389 8.27522 10.7994 8.27522ZM13.7845 5.5504H10.7994C10.389 5.5504 10.0531 5.85708 10.0531 6.23192C10.0531 6.60675 10.389 6.91343 10.7994 6.91343H13.7845C14.1949 6.91343 14.5308 6.60675 14.5308 6.23192C14.5308 5.85708 14.1949 5.5504 13.7845 5.5504Z" fill="#696158"/>
</svg>
