<svg width="27" height="27" viewBox="0 0 27 27" fill="none" xmlns="http://www.w3.org/2000/svg">
<path d="M13.0712 15.8415C13.1275 15.8917 13.1944 15.9316 13.2679 15.9588C13.3415 15.986 13.4204 16 13.5 16C13.5796 16 13.6585 15.986 13.7321 15.9588C13.8056 15.9316 13.8725 15.8917 13.9288 15.8415L18.3224 11.9231C18.4361 11.8217 18.5 11.6842 18.5 11.5408C18.5 11.3973 18.4361 11.2598 18.3224 11.1584C18.2087 11.057 18.0545 11 17.8936 11C17.7328 11 17.5786 11.057 17.4649 11.1584L13.5 14.6944L9.53512 11.1584C9.47881 11.1082 9.41197 11.0683 9.3384 11.0412C9.26483 11.014 9.18598 11 9.10636 11C9.02673 11 8.94788 11.014 8.87431 11.0412C8.80075 11.0683 8.7339 11.1082 8.6776 11.1584C8.62129 11.2086 8.57663 11.2682 8.54616 11.3338C8.51568 11.3994 8.5 11.4697 8.5 11.5408C8.5 11.6118 8.51568 11.6821 8.54616 11.7477C8.57663 11.8133 8.62129 11.8729 8.6776 11.9231L13.0712 15.8415Z" fill="#FF4F00" stroke="#FF4F00" stroke-width="0.751"/>
<circle cx="13.5" cy="13.5" r="12.5" stroke="#FF4F00" stroke-width="2"/>
</svg>
