<svg width="138" height="15" viewBox="0 0 138 15" fill="none" xmlns="http://www.w3.org/2000/svg">
<path fill-rule="evenodd" clip-rule="evenodd" d="M10.5531 10.982C10.6201 11.1912 10.6619 11.3568 10.6786 11.4788C10.6954 11.6008 10.6731 11.6938 10.6117 11.7577C10.5503 11.8158 10.4415 11.8507 10.2852 11.8623C10.129 11.8797 9.91414 11.8884 9.6407 11.8884C9.3561 11.8884 9.13289 11.8826 8.97106 11.871C8.81481 11.8652 8.69483 11.8507 8.61113 11.8274C8.52742 11.7984 8.46883 11.7606 8.43534 11.7141C8.40186 11.6676 8.37396 11.6066 8.35164 11.5311L7.6234 9.26496H3.55532L2.86894 11.4701C2.84662 11.5514 2.81592 11.6212 2.77686 11.6793C2.74338 11.7316 2.68479 11.7751 2.60108 11.81C2.52295 11.839 2.40856 11.8594 2.25789 11.871C2.1128 11.8826 1.92028 11.8884 1.68032 11.8884C1.42362 11.8884 1.22273 11.8797 1.07764 11.8623C0.932552 11.8449 0.832106 11.8042 0.776303 11.7403C0.720499 11.6705 0.700968 11.5747 0.717709 11.4526C0.734449 11.3306 0.776303 11.1679 0.843267 10.9646L4.18311 0.958745C4.21659 0.859964 4.25566 0.781523 4.3003 0.723415C4.34494 0.659499 4.4147 0.613015 4.50956 0.583961C4.61001 0.549099 4.74673 0.528761 4.91972 0.522952C5.09271 0.511331 5.3215 0.50552 5.6061 0.50552C5.93534 0.50552 6.19762 0.511331 6.39293 0.522952C6.58825 0.528761 6.73892 0.549099 6.84494 0.583961C6.95655 0.613015 7.03467 0.659499 7.07932 0.723415C7.12954 0.787332 7.17139 0.874491 7.20487 0.984893L10.5531 10.982ZM5.58099 2.71063L4.04081 7.50436H7.1128L5.58099 2.71063ZM15.7596 11.8361L14.8555 14.5904C14.8053 14.7356 14.6686 14.8402 14.4454 14.9041C14.2222 14.968 13.8957 15 13.466 15C13.2428 15 13.0642 14.9884 12.9303 14.9651C12.7964 14.9477 12.6959 14.9157 12.629 14.8693C12.562 14.8228 12.5257 14.7647 12.5202 14.6949C12.5146 14.6252 12.5313 14.541 12.5704 14.4422L13.5665 11.8361C13.4939 11.8013 13.427 11.749 13.3656 11.6793C13.3098 11.6037 13.2679 11.5253 13.24 11.4439L10.6703 4.29692C10.5977 4.09355 10.5615 3.93957 10.5615 3.83498C10.5615 3.72458 10.5949 3.64032 10.6619 3.58222C10.7289 3.5183 10.8405 3.47472 10.9967 3.45148C11.1586 3.42824 11.3706 3.41662 11.6329 3.41662C11.8728 3.41662 12.0626 3.42243 12.2021 3.43405C12.3416 3.43986 12.4504 3.4602 12.5285 3.49506C12.6067 3.52992 12.6653 3.58512 12.7043 3.66066C12.7434 3.73039 12.7824 3.83207 12.8215 3.96571L14.5793 9.16909H14.6044L16.2116 3.86113C16.2451 3.71005 16.2869 3.61127 16.3371 3.56479C16.3929 3.51249 16.4822 3.47472 16.605 3.45148C16.7278 3.42824 16.9426 3.41662 17.2495 3.41662C17.4895 3.41662 17.6876 3.42824 17.8438 3.45148C18.0057 3.47472 18.1228 3.5183 18.1954 3.58222C18.2735 3.64613 18.3126 3.73329 18.3126 3.84369C18.3126 3.94828 18.2903 4.07321 18.2456 4.21848L15.7596 11.8361ZM26.2478 7.42592C26.2478 7.6932 26.1892 7.89076 26.0721 8.01859C25.9605 8.14643 25.8042 8.21034 25.6033 8.21034H21.0581C21.0581 8.54155 21.0944 8.8437 21.1669 9.11679C21.2451 9.38408 21.365 9.6136 21.5269 9.80535C21.6943 9.99129 21.9063 10.1336 22.163 10.2324C22.4253 10.3312 22.7378 10.3806 23.1005 10.3806C23.4688 10.3806 23.7925 10.3544 24.0715 10.3022C24.3505 10.244 24.5905 10.183 24.7914 10.1191C24.9978 10.0494 25.168 9.98838 25.302 9.93608C25.4359 9.87798 25.5447 9.84893 25.6284 9.84893C25.6786 9.84893 25.7205 9.86055 25.754 9.88379C25.7875 9.90122 25.8154 9.93608 25.8377 9.98838C25.86 10.0407 25.874 10.1162 25.8795 10.215C25.8907 10.308 25.8963 10.4271 25.8963 10.5723C25.8963 10.7002 25.8935 10.8106 25.8879 10.9035C25.8823 10.9907 25.874 11.0662 25.8628 11.1302C25.8516 11.1941 25.8349 11.2493 25.8126 11.2958C25.7903 11.3364 25.7596 11.3771 25.7205 11.4178C25.687 11.4585 25.5894 11.5137 25.4275 11.5834C25.2657 11.6531 25.0592 11.7228 24.8081 11.7926C24.557 11.8565 24.2696 11.9117 23.9459 11.9582C23.6223 12.0105 23.2763 12.0366 22.908 12.0366C22.2439 12.0366 21.6608 11.9494 21.1586 11.7751C20.6619 11.6008 20.2462 11.3364 19.9113 10.982C19.5765 10.6275 19.3254 10.1801 19.158 9.63974C18.9962 9.09936 18.9153 8.46601 18.9153 7.73969C18.9153 7.04823 19.0017 6.4265 19.1747 5.87449C19.3477 5.31668 19.5988 4.84602 19.9281 4.46252C20.2573 4.07321 20.6563 3.77687 21.1251 3.5735C21.5994 3.37013 22.1323 3.26845 22.7238 3.26845C23.3488 3.26845 23.8818 3.36432 24.3226 3.55607C24.769 3.74782 25.1346 4.01511 25.4192 4.35793C25.7038 4.69495 25.913 5.09588 26.0469 5.56072C26.1809 6.02557 26.2478 6.53109 26.2478 7.07728V7.42592ZM24.2054 6.79837C24.2222 6.18245 24.1022 5.70018 23.8455 5.35154C23.5944 4.9971 23.2038 4.81987 22.6736 4.81987C22.4058 4.81987 22.1714 4.87217 21.9705 4.97676C21.7752 5.08135 21.6106 5.22371 21.4766 5.40384C21.3483 5.57815 21.2478 5.78733 21.1753 6.03138C21.1083 6.26961 21.0693 6.52528 21.0581 6.79837H24.2054ZM32.7852 4.48867C32.7852 4.69785 32.7796 4.86926 32.7685 5.00291C32.7573 5.13655 32.7406 5.24114 32.7183 5.31668C32.6959 5.39222 32.6653 5.44451 32.6262 5.47356C32.5927 5.50262 32.5481 5.51714 32.4923 5.51714C32.4476 5.51714 32.3974 5.50843 32.3416 5.49099C32.2858 5.46775 32.2216 5.44451 32.1491 5.42127C32.0821 5.39803 32.0068 5.37769 31.9231 5.36026C31.8394 5.33701 31.7473 5.32539 31.6468 5.32539C31.5296 5.32539 31.4125 5.35154 31.2953 5.40384C31.1781 5.45032 31.0553 5.52586 30.927 5.63045C30.8042 5.73504 30.6731 5.87449 30.5336 6.04881C30.3996 6.22313 30.2545 6.43812 30.0983 6.69378V11.5398C30.0983 11.5979 30.0815 11.6502 30.0481 11.6967C30.0146 11.7374 29.956 11.7722 29.8723 11.8013C29.7942 11.8303 29.6881 11.8507 29.5542 11.8623C29.4203 11.8797 29.2501 11.8884 29.0436 11.8884C28.8371 11.8884 28.6669 11.8797 28.533 11.8623C28.3991 11.8507 28.2902 11.8303 28.2065 11.8013C28.1284 11.7722 28.0726 11.7374 28.0391 11.6967C28.0057 11.6502 27.9889 11.5979 27.9889 11.5398V3.76525C27.9889 3.70715 28.0029 3.65776 28.0308 3.61708C28.0587 3.5706 28.1089 3.53283 28.1814 3.50378C28.254 3.47473 28.3461 3.45439 28.4577 3.44277C28.5748 3.42534 28.7199 3.41662 28.8929 3.41662C29.0715 3.41662 29.2194 3.42534 29.3366 3.44277C29.4538 3.45439 29.543 3.47473 29.6044 3.50378C29.6714 3.53283 29.7188 3.5706 29.7467 3.61708C29.7746 3.65776 29.7886 3.70715 29.7886 3.76525V4.73271C29.9839 4.44219 30.168 4.20395 30.341 4.01801C30.514 3.82626 30.6786 3.67519 30.8349 3.56479C30.9911 3.45439 31.1474 3.37885 31.3036 3.33818C31.4599 3.29169 31.6161 3.26845 31.7724 3.26845C31.8449 3.26845 31.9231 3.27426 32.0068 3.28588C32.0905 3.29169 32.177 3.30622 32.2663 3.32946C32.3555 3.34689 32.4337 3.37013 32.5006 3.39919C32.5676 3.42243 32.615 3.44858 32.6429 3.47763C32.6764 3.50668 32.6987 3.53864 32.7099 3.5735C32.7266 3.60837 32.7406 3.65776 32.7517 3.72167C32.7629 3.77978 32.7713 3.86984 32.7769 3.99187C32.7824 4.11389 32.7852 4.27949 32.7852 4.48867ZM35.0536 10.5811C35.0536 11.1214 34.9616 11.4846 34.7774 11.6705C34.5989 11.8565 34.2752 11.9494 33.8064 11.9494C33.3377 11.9494 33.014 11.8594 32.8355 11.6793C32.6569 11.4933 32.5676 11.1447 32.5676 10.6334C32.5676 10.0872 32.6569 9.72109 32.8355 9.53516C33.0196 9.34922 33.3488 9.25625 33.8232 9.25625C34.2863 9.25625 34.6072 9.34922 34.7858 9.53516C34.9644 9.71528 35.0536 10.0639 35.0536 10.5811ZM49.6267 11.5224C49.6267 11.5805 49.6072 11.6328 49.5682 11.6793C49.5347 11.7257 49.4761 11.7635 49.3924 11.7926C49.3087 11.8216 49.1971 11.8449 49.0576 11.8623C48.918 11.8797 48.7423 11.8884 48.5302 11.8884C48.3126 11.8884 48.1312 11.8797 47.9861 11.8623C47.8466 11.8449 47.735 11.8216 47.6513 11.7926C47.5732 11.7635 47.5146 11.7257 47.4755 11.6793C47.442 11.6328 47.4253 11.5805 47.4253 11.5224V6.96398H43.374V11.5224C43.374 11.5805 43.3572 11.6328 43.3237 11.6793C43.2902 11.7257 43.2317 11.7635 43.1479 11.7926C43.0642 11.8216 42.9526 11.8449 42.8131 11.8623C42.6736 11.8797 42.495 11.8884 42.2774 11.8884C42.0654 11.8884 41.8868 11.8797 41.7417 11.8623C41.6022 11.8449 41.4906 11.8216 41.4069 11.7926C41.3232 11.7635 41.2618 11.7257 41.2227 11.6793C41.1892 11.6328 41.1725 11.5805 41.1725 11.5224V0.871587C41.1725 0.81348 41.1892 0.761185 41.2227 0.714701C41.2618 0.668215 41.3232 0.630447 41.4069 0.601394C41.4906 0.572342 41.6022 0.549099 41.7417 0.531667C41.8868 0.514236 42.0654 0.50552 42.2774 0.50552C42.495 0.50552 42.6736 0.514236 42.8131 0.531667C42.9526 0.549099 43.0642 0.572342 43.1479 0.601394C43.2317 0.630447 43.2902 0.668215 43.3237 0.714701C43.3572 0.761185 43.374 0.81348 43.374 0.871587V5.01162H47.4253V0.871587C47.4253 0.81348 47.442 0.761185 47.4755 0.714701C47.5146 0.668215 47.5732 0.630447 47.6513 0.601394C47.735 0.572342 47.8466 0.549099 47.9861 0.531667C48.1312 0.514236 48.3126 0.50552 48.5302 0.50552C48.7423 0.50552 48.918 0.514236 49.0576 0.531667C49.1971 0.549099 49.3087 0.572342 49.3924 0.601394C49.4761 0.630447 49.5347 0.668215 49.5682 0.714701C49.6072 0.761185 49.6267 0.81348 49.6267 0.871587V11.5224ZM59.4119 7.57409C59.4119 8.23649 59.3282 8.84079 59.1608 9.38698C58.9934 9.93318 58.7395 10.4038 58.3991 10.799C58.0587 11.1941 57.6318 11.4991 57.1184 11.7141C56.605 11.9291 56.0051 12.0366 55.3187 12.0366C54.6546 12.0366 54.0771 11.9407 53.586 11.749C53.0949 11.5572 52.6876 11.2783 52.3639 10.9123C52.0403 10.5462 51.8003 10.0959 51.6441 9.5613C51.4878 9.02673 51.4097 8.41662 51.4097 7.73097C51.4097 7.06857 51.4934 6.46427 51.6608 5.91807C51.8338 5.36607 52.0905 4.89541 52.4309 4.5061C52.7713 4.11098 53.1954 3.80593 53.7032 3.59094C54.2166 3.37594 54.8165 3.26845 55.5029 3.26845C56.1725 3.26845 56.7529 3.36432 57.2439 3.55607C57.735 3.74201 58.1396 4.01801 58.4577 4.38408C58.7813 4.75015 59.0213 5.20047 59.1775 5.73504C59.3338 6.26961 59.4119 6.88263 59.4119 7.57409ZM57.2439 7.66124C57.2439 7.27775 57.2132 6.92621 57.1519 6.60662C57.0961 6.28123 56.9984 5.99942 56.8589 5.76119C56.7194 5.52295 56.5324 5.33701 56.2981 5.20337C56.0693 5.06973 55.7791 5.00291 55.4275 5.00291C55.115 5.00291 54.8416 5.06392 54.6072 5.18594C54.3728 5.30215 54.1803 5.47647 54.0296 5.70889C53.879 5.9355 53.7646 6.2115 53.6865 6.5369C53.6139 6.85648 53.5776 7.22255 53.5776 7.6351C53.5776 8.01859 53.6083 8.37304 53.6697 8.69843C53.7311 9.01801 53.8288 9.29692 53.9627 9.53515C54.1022 9.77339 54.2891 9.95933 54.5235 10.093C54.7579 10.2208 55.0481 10.2847 55.3941 10.2847C55.7121 10.2847 55.9884 10.2266 56.2227 10.1104C56.4571 9.98838 56.6496 9.81406 56.8003 9.58745C56.951 9.36084 57.0626 9.08774 57.1351 8.76816C57.2077 8.44276 57.2439 8.07379 57.2439 7.66124ZM65.3131 11.8361L64.4091 14.5904C64.3589 14.7356 64.2222 14.8402 63.999 14.9041C63.7757 14.968 63.4493 15 63.0196 15C62.7964 15 62.6178 14.9884 62.4839 14.9651C62.35 14.9477 62.2495 14.9157 62.1826 14.8693C62.1156 14.8228 62.0793 14.7647 62.0737 14.6949C62.0682 14.6252 62.0849 14.541 62.124 14.4422L63.12 11.8361C63.0475 11.8013 62.9805 11.749 62.9192 11.6793C62.8634 11.6037 62.8215 11.5253 62.7936 11.4439L60.2238 4.29692C60.1513 4.09355 60.115 3.93957 60.115 3.83498C60.115 3.72458 60.1485 3.64032 60.2155 3.58222C60.2824 3.5183 60.3941 3.47472 60.5503 3.45148C60.7121 3.42824 60.9242 3.41662 61.1865 3.41662C61.4264 3.41662 61.6161 3.42243 61.7557 3.43405C61.8952 3.43986 62.004 3.4602 62.0821 3.49506C62.1602 3.52992 62.2188 3.58512 62.2579 3.66066C62.2969 3.73039 62.336 3.83207 62.3751 3.96571L64.1329 9.16909H64.158L65.7651 3.86113C65.7986 3.71005 65.8405 3.61127 65.8907 3.56479C65.9465 3.51249 66.0358 3.47472 66.1586 3.45148C66.2813 3.42824 66.4962 3.41662 66.8031 3.41662C67.043 3.41662 67.2411 3.42824 67.3974 3.45148C67.5592 3.47472 67.6764 3.5183 67.7489 3.58222C67.8271 3.64613 67.8661 3.73329 67.8661 3.84369C67.8661 3.94828 67.8438 4.07321 67.7992 4.21848L65.3131 11.8361ZM70.528 10.5811C70.528 11.1214 70.4359 11.4846 70.2517 11.6705C70.0732 11.8565 69.7495 11.9494 69.2808 11.9494C68.812 11.9494 68.4883 11.8594 68.3098 11.6793C68.1312 11.4933 68.0419 11.1447 68.0419 10.6334C68.0419 10.0872 68.1312 9.72109 68.3098 9.53516C68.4939 9.34922 68.8232 9.25625 69.2975 9.25625C69.7607 9.25625 70.0815 9.34922 70.2601 9.53516C70.4387 9.71528 70.528 10.0639 70.528 10.5811ZM83.067 8.45439C83.067 9.04707 82.961 9.56711 82.749 10.0145C82.5369 10.4619 82.2495 10.8367 81.8868 11.1389C81.5241 11.4352 81.1 11.6589 80.6145 11.81C80.129 11.9611 79.61 12.0366 79.0575 12.0366C78.6837 12.0366 78.3349 12.0046 78.0112 11.9407C77.6931 11.8768 77.4113 11.8013 77.1658 11.7141C76.9203 11.6212 76.7138 11.5253 76.5464 11.4265C76.3846 11.3277 76.2674 11.2406 76.1948 11.165C76.1223 11.0895 76.0693 10.982 76.0358 10.8425C76.0079 10.6973 75.9939 10.491 75.9939 10.2237C75.9939 10.0436 75.9995 9.8925 76.0107 9.77048C76.0218 9.64846 76.0386 9.54968 76.0609 9.47414C76.0888 9.39861 76.1223 9.34631 76.1613 9.31726C76.206 9.28239 76.2562 9.26496 76.312 9.26496C76.3901 9.26496 76.4989 9.31435 76.6385 9.41313C76.7835 9.5061 76.9677 9.61069 77.1909 9.7269C77.4141 9.84311 77.6792 9.95061 77.9861 10.0494C78.2986 10.1424 78.6586 10.1888 79.0659 10.1888C79.3338 10.1888 79.5737 10.1569 79.7858 10.093C79.9978 10.0232 80.1764 9.92737 80.3215 9.80535C80.4722 9.68332 80.5866 9.53225 80.6647 9.35212C80.7428 9.17199 80.7819 8.97153 80.7819 8.75073C80.7819 8.49506 80.7149 8.27716 80.581 8.09704C80.4471 7.9111 80.2713 7.7484 80.0536 7.60895C79.8416 7.46368 79.5988 7.33004 79.3254 7.20802C79.052 7.08019 78.7702 6.94654 78.48 6.80709C78.1898 6.66763 77.908 6.51075 77.6346 6.33643C77.3611 6.1563 77.1156 5.94422 76.8979 5.70017C76.6859 5.45032 76.5129 5.15689 76.379 4.81987C76.245 4.48286 76.1781 4.07902 76.1781 3.60837C76.1781 3.06798 76.2729 2.59442 76.4627 2.18768C76.658 1.77513 76.9175 1.43521 77.2411 1.16793C77.5704 0.894829 77.9554 0.691459 78.3963 0.557814C78.8427 0.424172 79.3142 0.35735 79.8109 0.35735C80.0676 0.35735 80.3243 0.377686 80.581 0.418363C80.8377 0.459036 81.0776 0.514236 81.3008 0.583962C81.5241 0.65369 81.7222 0.732132 81.8952 0.819291C82.0682 0.90645 82.1825 0.979081 82.2383 1.03719C82.2942 1.09529 82.3304 1.14468 82.3472 1.18536C82.3695 1.22603 82.3862 1.28123 82.3974 1.35096C82.4141 1.41487 82.4253 1.49913 82.4309 1.60372C82.4365 1.7025 82.4392 1.82743 82.4392 1.9785C82.4392 2.14701 82.4337 2.28937 82.4225 2.40558C82.4169 2.52179 82.403 2.61766 82.3806 2.6932C82.3639 2.76874 82.336 2.82394 82.2969 2.8588C82.2635 2.89367 82.216 2.9111 82.1546 2.9111C82.0933 2.9111 81.9956 2.87042 81.8617 2.78908C81.7277 2.70773 81.5631 2.62057 81.3678 2.5276C81.1725 2.42882 80.9465 2.34166 80.6898 2.26612C80.4331 2.18478 80.1513 2.1441 79.8444 2.1441C79.6044 2.1441 79.3951 2.17606 79.2166 2.23998C79.038 2.29808 78.8873 2.38234 78.7646 2.49274C78.6474 2.59733 78.5581 2.72516 78.4967 2.87624C78.4409 3.02731 78.413 3.1871 78.413 3.35561C78.413 3.60546 78.4772 3.82336 78.6055 4.0093C78.7395 4.18942 78.9152 4.35212 79.1329 4.49739C79.3561 4.63684 79.6072 4.77048 79.8862 4.89831C80.1652 5.02034 80.4498 5.15107 80.74 5.29053C81.0302 5.42998 81.3148 5.58977 81.5938 5.7699C81.8728 5.94422 82.1212 6.1563 82.3388 6.40616C82.5564 6.6502 82.7322 6.94073 82.8661 7.27775C83.0001 7.60895 83.067 8.00116 83.067 8.45439ZM86.7333 11.5398C86.7333 11.5979 86.7166 11.6502 86.6831 11.6967C86.6496 11.7374 86.591 11.7722 86.5073 11.8013C86.4292 11.8303 86.3232 11.8507 86.1892 11.8623C86.0553 11.8797 85.8851 11.8884 85.6786 11.8884C85.4722 11.8884 85.302 11.8797 85.168 11.8623C85.0341 11.8507 84.9253 11.8303 84.8416 11.8013C84.7635 11.7722 84.7077 11.7374 84.6742 11.6967C84.6407 11.6502 84.624 11.5979 84.624 11.5398V3.78268C84.624 3.72458 84.6407 3.67519 84.6742 3.63451C84.7077 3.58803 84.7635 3.55026 84.8416 3.52121C84.9253 3.48634 85.0341 3.4602 85.168 3.44276C85.302 3.42533 85.4722 3.41662 85.6786 3.41662C85.8851 3.41662 86.0553 3.42533 86.1892 3.44276C86.3232 3.4602 86.4292 3.48634 86.5073 3.52121C86.591 3.55026 86.6496 3.58803 86.6831 3.63451C86.7166 3.67519 86.7333 3.72458 86.7333 3.78268V11.5398ZM86.8924 1.13306C86.8924 1.57467 86.8059 1.87972 86.6329 2.04823C86.4599 2.21673 86.139 2.30099 85.6703 2.30099C85.1959 2.30099 84.8751 2.21964 84.7077 2.05694C84.5458 1.89425 84.4649 1.60081 84.4649 1.17664C84.4649 0.735036 84.5486 0.429982 84.716 0.261474C84.889 0.0871591 85.2127 0 85.687 0C86.1558 0 86.4738 0.0842523 86.6413 0.25276C86.8087 0.415455 86.8924 0.708888 86.8924 1.13306ZM95.74 7.42592C95.74 7.6932 95.6814 7.89076 95.5642 8.01859C95.4526 8.14643 95.2964 8.21034 95.0955 8.21034H90.5503C90.5503 8.54155 90.5866 8.8437 90.6591 9.11679C90.7372 9.38408 90.8572 9.6136 91.019 9.80535C91.1865 9.99129 91.3985 10.1336 91.6552 10.2324C91.9175 10.3312 92.23 10.3806 92.5927 10.3806C92.961 10.3806 93.2847 10.3544 93.5637 10.3022C93.8427 10.244 94.0827 10.183 94.2836 10.1191C94.49 10.0494 94.6602 9.98838 94.7942 9.93608C94.9281 9.87798 95.0369 9.84893 95.1206 9.84893C95.1708 9.84893 95.2127 9.86055 95.2462 9.88379C95.2797 9.90122 95.3076 9.93608 95.3299 9.98838C95.3522 10.0407 95.3661 10.1162 95.3717 10.215C95.3829 10.308 95.3885 10.4271 95.3885 10.5723C95.3885 10.7002 95.3857 10.8106 95.3801 10.9035C95.3745 10.9907 95.3661 11.0662 95.355 11.1302C95.3438 11.1941 95.3271 11.2493 95.3048 11.2958C95.2824 11.3364 95.2517 11.3771 95.2127 11.4178C95.1792 11.4585 95.0815 11.5137 94.9197 11.5834C94.7579 11.6531 94.5514 11.7228 94.3003 11.7926C94.0492 11.8565 93.7618 11.9117 93.4381 11.9582C93.1145 12.0105 92.7685 12.0366 92.4002 12.0366C91.7361 12.0366 91.153 11.9494 90.6507 11.7751C90.1541 11.6008 89.7383 11.3364 89.4035 10.982C89.0687 10.6275 88.8176 10.1801 88.6502 9.63974C88.4883 9.09936 88.4074 8.46601 88.4074 7.73969C88.4074 7.04823 88.4939 6.4265 88.6669 5.87449C88.8399 5.31668 89.091 4.84602 89.4203 4.46252C89.7495 4.07321 90.1485 3.77687 90.6173 3.5735C91.0916 3.37013 91.6245 3.26845 92.216 3.26845C92.841 3.26845 93.374 3.36432 93.8148 3.55607C94.2612 3.74782 94.6267 4.01511 94.9113 4.35793C95.1959 4.69495 95.4052 5.09588 95.5391 5.56072C95.6731 6.02557 95.74 6.53109 95.74 7.07728V7.42592ZM93.6976 6.79837C93.7144 6.18245 93.5944 5.70018 93.3377 5.35154C93.0866 4.9971 92.6959 4.81987 92.1658 4.81987C91.8979 4.81987 91.6636 4.87217 91.4627 4.97676C91.2674 5.08135 91.1028 5.22371 90.9688 5.40384C90.8405 5.57815 90.74 5.78733 90.6675 6.03138C90.6005 6.26961 90.5615 6.52528 90.5503 6.79837H93.6976ZM109.359 11.5398C109.359 11.5979 109.342 11.6502 109.309 11.6967C109.275 11.7374 109.219 11.7722 109.141 11.8013C109.063 11.8303 108.957 11.8507 108.823 11.8623C108.689 11.8797 108.519 11.8884 108.313 11.8884C108.101 11.8884 107.928 11.8797 107.794 11.8623C107.66 11.8507 107.551 11.8303 107.467 11.8013C107.389 11.7722 107.333 11.7374 107.3 11.6967C107.272 11.6502 107.258 11.5979 107.258 11.5398V6.92911C107.258 6.66764 107.233 6.4294 107.183 6.21441C107.138 5.99942 107.065 5.81639 106.965 5.66531C106.87 5.50843 106.747 5.38931 106.597 5.30796C106.452 5.2208 106.276 5.17722 106.069 5.17722C105.818 5.17722 105.564 5.27891 105.308 5.48228C105.051 5.68565 104.772 5.98199 104.47 6.3713V11.5398C104.47 11.5979 104.454 11.6502 104.42 11.6967C104.387 11.7374 104.328 11.7722 104.244 11.8013C104.166 11.8303 104.06 11.8507 103.926 11.8623C103.792 11.8797 103.625 11.8884 103.424 11.8884C103.218 11.8884 103.048 11.8797 102.914 11.8623C102.78 11.8507 102.671 11.8303 102.587 11.8013C102.509 11.7722 102.453 11.7374 102.42 11.6967C102.386 11.6502 102.369 11.5979 102.369 11.5398V6.92911C102.369 6.66764 102.344 6.4294 102.294 6.21441C102.25 5.99942 102.18 5.81639 102.085 5.66531C101.99 5.50843 101.867 5.38931 101.717 5.30796C101.566 5.2208 101.39 5.17722 101.189 5.17722C100.933 5.17722 100.676 5.27891 100.419 5.48228C100.162 5.68565 99.8862 5.98199 99.5905 6.3713V11.5398C99.5905 11.5979 99.5737 11.6502 99.5402 11.6967C99.5068 11.7374 99.4482 11.7722 99.3645 11.8013C99.2863 11.8303 99.1803 11.8507 99.0464 11.8623C98.9125 11.8797 98.7423 11.8884 98.5358 11.8884C98.3293 11.8884 98.1591 11.8797 98.0252 11.8623C97.8913 11.8507 97.7824 11.8303 97.6987 11.8013C97.6206 11.7722 97.5648 11.7374 97.5313 11.6967C97.4978 11.6502 97.4811 11.5979 97.4811 11.5398V3.76525C97.4811 3.70715 97.495 3.65776 97.5229 3.61708C97.5508 3.5706 97.6011 3.53283 97.6736 3.50378C97.7462 3.47473 97.8382 3.45439 97.9499 3.44277C98.067 3.42534 98.2121 3.41662 98.3851 3.41662C98.5637 3.41662 98.7116 3.42534 98.8288 3.44277C98.9459 3.45439 99.0352 3.47473 99.0966 3.50378C99.1636 3.53283 99.211 3.5706 99.2389 3.61708C99.2668 3.65776 99.2808 3.70715 99.2808 3.76525V4.66299C99.6937 4.19814 100.104 3.84951 100.511 3.61708C100.924 3.38466 101.354 3.26845 101.8 3.26845C102.107 3.26845 102.383 3.30331 102.629 3.37304C102.875 3.43696 103.092 3.53283 103.282 3.66066C103.477 3.78269 103.645 3.93086 103.784 4.10517C103.924 4.27949 104.041 4.47414 104.136 4.68913C104.359 4.43928 104.577 4.22429 104.789 4.04416C105.006 3.86403 105.218 3.71877 105.425 3.60837C105.637 3.49216 105.846 3.4079 106.053 3.35561C106.265 3.2975 106.479 3.26845 106.697 3.26845C107.194 3.26845 107.612 3.35561 107.953 3.52993C108.293 3.70424 108.566 3.94248 108.773 4.24463C108.985 4.54097 109.136 4.8896 109.225 5.29053C109.314 5.69146 109.359 6.11563 109.359 6.56305V11.5398ZM118.943 7.53922C118.943 8.23068 118.871 8.85532 118.726 9.41313C118.586 9.96514 118.38 10.4358 118.106 10.8251C117.833 11.2144 117.492 11.5137 117.085 11.7228C116.678 11.932 116.212 12.0366 115.687 12.0366C115.469 12.0366 115.268 12.0134 115.084 11.9669C114.906 11.9262 114.73 11.8623 114.557 11.7751C114.39 11.6822 114.222 11.5689 114.055 11.4352C113.887 11.3016 113.714 11.1447 113.536 10.9646V14.6252C113.536 14.6833 113.519 14.7356 113.486 14.7821C113.452 14.8286 113.393 14.8664 113.31 14.8954C113.232 14.9303 113.126 14.9564 112.992 14.9739C112.858 14.9913 112.688 15 112.481 15C112.275 15 112.104 14.9913 111.97 14.9739C111.837 14.9564 111.728 14.9303 111.644 14.8954C111.566 14.8664 111.51 14.8286 111.477 14.7821C111.443 14.7356 111.426 14.6833 111.426 14.6252V3.76525C111.426 3.70715 111.44 3.65776 111.468 3.61708C111.496 3.5706 111.544 3.53283 111.611 3.50378C111.683 3.47473 111.775 3.45439 111.887 3.44277C112.004 3.42534 112.149 3.41662 112.322 3.41662C112.489 3.41662 112.629 3.42534 112.741 3.44277C112.858 3.45439 112.95 3.47473 113.017 3.50378C113.089 3.53283 113.14 3.5706 113.167 3.61708C113.195 3.65776 113.209 3.70715 113.209 3.76525V4.68042C113.427 4.448 113.639 4.24463 113.845 4.07031C114.058 3.89018 114.272 3.74201 114.49 3.6258C114.708 3.50378 114.931 3.41371 115.16 3.35561C115.394 3.2975 115.642 3.26845 115.905 3.26845C116.452 3.26845 116.917 3.38176 117.303 3.60837C117.688 3.82917 118 4.13423 118.24 4.52353C118.486 4.91284 118.664 5.36607 118.776 5.88321C118.887 6.40035 118.943 6.95235 118.943 7.53922ZM116.75 7.69611C116.75 7.3649 116.725 7.04823 116.675 6.74608C116.63 6.43812 116.549 6.16502 116.432 5.92679C116.32 5.68855 116.17 5.49971 115.98 5.36026C115.796 5.21499 115.564 5.14236 115.285 5.14236C115.146 5.14236 115.006 5.1656 114.867 5.21209C114.733 5.25276 114.593 5.32249 114.448 5.42127C114.309 5.52005 114.164 5.64788 114.013 5.80476C113.862 5.96165 113.703 6.1563 113.536 6.38873V8.95119C113.832 9.3405 114.113 9.64265 114.381 9.85764C114.649 10.0668 114.928 10.1714 115.218 10.1714C115.492 10.1714 115.723 10.0988 115.913 9.95352C116.108 9.80825 116.267 9.61941 116.39 9.38698C116.513 9.14875 116.602 8.88146 116.658 8.58512C116.719 8.28879 116.75 7.99245 116.75 7.69611ZM125.43 4.48867C125.43 4.69785 125.425 4.86926 125.414 5.00291C125.402 5.13655 125.386 5.24114 125.363 5.31668C125.341 5.39222 125.31 5.44451 125.271 5.47356C125.238 5.50262 125.193 5.51714 125.137 5.51714C125.093 5.51714 125.042 5.50843 124.987 5.49099C124.931 5.46775 124.867 5.44451 124.794 5.42127C124.727 5.39803 124.652 5.37769 124.568 5.36026C124.484 5.33701 124.392 5.32539 124.292 5.32539C124.175 5.32539 124.058 5.35154 123.94 5.40384C123.823 5.45032 123.7 5.52586 123.572 5.63045C123.449 5.73504 123.318 5.87449 123.179 6.04881C123.045 6.22313 122.9 6.43812 122.743 6.69378V11.5398C122.743 11.5979 122.727 11.6502 122.693 11.6967C122.66 11.7374 122.601 11.7722 122.517 11.8013C122.439 11.8303 122.333 11.8507 122.199 11.8623C122.065 11.8797 121.895 11.8884 121.689 11.8884C121.482 11.8884 121.312 11.8797 121.178 11.8623C121.044 11.8507 120.935 11.8303 120.852 11.8013C120.773 11.7722 120.718 11.7374 120.684 11.6967C120.651 11.6502 120.634 11.5979 120.634 11.5398V3.76525C120.634 3.70715 120.648 3.65776 120.676 3.61708C120.704 3.5706 120.754 3.53283 120.827 3.50378C120.899 3.47473 120.991 3.45439 121.103 3.44277C121.22 3.42534 121.365 3.41662 121.538 3.41662C121.717 3.41662 121.864 3.42534 121.982 3.44277C122.099 3.45439 122.188 3.47473 122.25 3.50378C122.316 3.53283 122.364 3.5706 122.392 3.61708C122.42 3.65776 122.434 3.70715 122.434 3.76525V4.73271C122.629 4.44219 122.813 4.20395 122.986 4.01801C123.159 3.82626 123.324 3.67519 123.48 3.56479C123.636 3.45439 123.792 3.37885 123.949 3.33818C124.105 3.29169 124.261 3.26845 124.417 3.26845C124.49 3.26845 124.568 3.27426 124.652 3.28588C124.736 3.29169 124.822 3.30622 124.911 3.32946C125.001 3.34689 125.079 3.37013 125.146 3.39919C125.213 3.42243 125.26 3.44858 125.288 3.47763C125.321 3.50668 125.344 3.53864 125.355 3.5735C125.372 3.60837 125.386 3.65776 125.397 3.72167C125.408 3.77978 125.416 3.86984 125.422 3.99187C125.428 4.11389 125.43 4.27949 125.43 4.48867ZM133.424 7.42592C133.424 7.6932 133.366 7.89076 133.248 8.01859C133.137 8.14643 132.981 8.21034 132.78 8.21034H128.234C128.234 8.54155 128.271 8.8437 128.343 9.11679C128.421 9.38408 128.541 9.6136 128.703 9.80535C128.871 9.99129 129.083 10.1336 129.339 10.2324C129.602 10.3312 129.914 10.3806 130.277 10.3806C130.645 10.3806 130.969 10.3544 131.248 10.3022C131.527 10.244 131.767 10.183 131.968 10.1191C132.174 10.0494 132.344 9.98838 132.478 9.93608C132.612 9.87798 132.721 9.84893 132.805 9.84893C132.855 9.84893 132.897 9.86055 132.93 9.88379C132.964 9.90122 132.992 9.93608 133.014 9.98838C133.036 10.0407 133.05 10.1162 133.056 10.215C133.067 10.308 133.073 10.4271 133.073 10.5723C133.073 10.7002 133.07 10.8106 133.064 10.9035C133.059 10.9907 133.05 11.0662 133.039 11.1302C133.028 11.1941 133.011 11.2493 132.989 11.2958C132.967 11.3364 132.936 11.3771 132.897 11.4178C132.863 11.4585 132.766 11.5137 132.604 11.5834C132.442 11.6531 132.236 11.7228 131.984 11.7926C131.733 11.8565 131.446 11.9117 131.122 11.9582C130.799 12.0105 130.453 12.0366 130.084 12.0366C129.42 12.0366 128.837 11.9494 128.335 11.7751C127.838 11.6008 127.423 11.3364 127.088 10.982C126.753 10.6275 126.502 10.1801 126.334 9.63974C126.173 9.09936 126.092 8.46601 126.092 7.73969C126.092 7.04823 126.178 6.4265 126.351 5.87449C126.524 5.31668 126.775 4.84602 127.104 4.46252C127.434 4.07321 127.833 3.77687 128.301 3.5735C128.776 3.37013 129.309 3.26845 129.9 3.26845C130.525 3.26845 131.058 3.36432 131.499 3.55607C131.945 3.74782 132.311 4.01511 132.596 4.35793C132.88 4.69495 133.089 5.09588 133.223 5.56072C133.357 6.02557 133.424 6.53109 133.424 7.07728V7.42592ZM131.382 6.79837C131.399 6.18245 131.279 5.70018 131.022 5.35154C130.771 4.9971 130.38 4.81987 129.85 4.81987C129.582 4.81987 129.348 4.87217 129.147 4.97676C128.952 5.08135 128.787 5.22371 128.653 5.40384C128.525 5.57815 128.424 5.78733 128.352 6.03138C128.285 6.26961 128.246 6.52528 128.234 6.79837H131.382ZM137.643 10.5811C137.643 11.1214 137.551 11.4846 137.367 11.6705C137.188 11.8565 136.864 11.9494 136.396 11.9494C135.927 11.9494 135.603 11.8594 135.425 11.6793C135.246 11.4933 135.157 11.1447 135.157 10.6334C135.157 10.0872 135.246 9.72109 135.425 9.53516C135.609 9.34922 135.938 9.25625 136.412 9.25625C136.876 9.25625 137.197 9.34922 137.375 9.53516C137.554 9.71528 137.643 10.0639 137.643 10.5811Z" fill="white"/>
</svg>
