<svg width="17" height="21" viewBox="0 0 17 21" fill="none" xmlns="http://www.w3.org/2000/svg">
<path d="M16.0391 4.09979C16.0391 3.86119 15.9371 3.63237 15.7556 3.46366C15.5741 3.29495 15.328 3.20017 15.0713 3.20017H11.7254V1.89796C11.7254 1.59972 11.5979 1.31369 11.371 1.1028C11.1442 0.891914 10.8365 0.773438 10.5157 0.773438H6.56245C6.24162 0.773438 5.93394 0.891914 5.70708 1.1028C5.48022 1.31369 5.35277 1.59972 5.35277 1.89796V3.20017H2.0068C1.75014 3.20017 1.50399 3.29495 1.32251 3.46366C1.14102 3.63237 1.03906 3.86119 1.03906 4.09979V5.4942C1.03906 5.73279 1.14102 5.96162 1.32251 6.13033C1.50399 6.29904 1.75014 6.39382 2.0068 6.39382H2.52213V17.5244C2.52213 18.1209 2.77702 18.6929 3.23074 19.1147C3.68446 19.5365 4.29983 19.7734 4.94148 19.7734H12.1366C12.7783 19.7734 13.3937 19.5365 13.8474 19.1147C14.3011 18.6929 14.556 18.1209 14.556 17.5244V6.39382H15.0713C15.328 6.39382 15.5741 6.29904 15.7556 6.13033C15.9371 5.96162 16.0391 5.73279 16.0391 5.4942V4.09979ZM6.32051 1.89796C6.32051 1.83832 6.346 1.78111 6.39138 1.73893C6.43675 1.69675 6.49828 1.67306 6.56245 1.67306H10.5157C10.5798 1.67306 10.6414 1.69675 10.6867 1.73893C10.7321 1.78111 10.7576 1.83832 10.7576 1.89796V3.20017H6.32051V1.89796ZM13.5786 17.5244C13.5786 17.8823 13.4256 18.2255 13.1534 18.4786C12.8812 18.7316 12.512 18.8738 12.127 18.8738H4.93906C4.55407 18.8738 4.18485 18.7316 3.91262 18.4786C3.64039 18.2255 3.48745 17.8823 3.48745 17.5244V6.39382H13.5883L13.5786 17.5244ZM15.0713 5.4942H2.0068V4.09979H15.0713V5.4942Z" fill="#696158" stroke="#696158" stroke-width="0.5"/>
<path d="M10.1456 16.6085C10.2877 16.6085 10.4239 16.5616 10.5244 16.478C10.6249 16.3944 10.6813 16.2811 10.6813 16.1629V8.60968C10.6813 8.49149 10.6249 8.37815 10.5244 8.29458C10.4239 8.21101 10.2877 8.16406 10.1456 8.16406C10.0035 8.16406 9.86724 8.21101 9.76677 8.29458C9.6663 8.37815 9.60986 8.49149 9.60986 8.60968V16.1629C9.60986 16.2811 9.6663 16.3944 9.76677 16.478C9.86724 16.5616 10.0035 16.6085 10.1456 16.6085Z" fill="#696158" stroke="#696158" stroke-width="0.5"/>
<path d="M6.93098 16.6085C7.07306 16.6085 7.20932 16.5616 7.30979 16.478C7.41025 16.3944 7.46669 16.2811 7.46669 16.1629V8.60968C7.46669 8.49149 7.41025 8.37815 7.30979 8.29458C7.20932 8.21101 7.07306 8.16406 6.93098 8.16406C6.7889 8.16406 6.65264 8.21101 6.55217 8.29458C6.4517 8.37815 6.39526 8.49149 6.39526 8.60968V16.1629C6.39526 16.2811 6.4517 16.3944 6.55217 16.478C6.65264 16.5616 6.7889 16.6085 6.93098 16.6085Z" fill="#696158" stroke="#696158" stroke-width="0.5"/>
</svg>