<svg width="27" height="27" viewBox="0 0 27 27" fill="none" xmlns="http://www.w3.org/2000/svg">
<path d="M13.9288 15.8415C13.8725 15.8917 13.8056 15.9316 13.7321 15.9588C13.6585 15.986 13.5796 16 13.5 16C13.4204 16 13.3415 15.986 13.2679 15.9588C13.1944 15.9316 13.1275 15.8917 13.0712 15.8415L8.6776 11.9231C8.56388 11.8217 8.5 11.6842 8.5 11.5408C8.5 11.3973 8.56388 11.2598 8.6776 11.1584C8.79131 11.057 8.94554 11 9.10636 11C9.26717 11 9.4214 11.057 9.53512 11.1584L13.5 14.6944L17.4649 11.1584C17.5212 11.1082 17.588 11.0683 17.6616 11.0412C17.7352 11.014 17.814 11 17.8936 11C17.9733 11 18.0521 11.014 18.1257 11.0412C18.1993 11.0683 18.2661 11.1082 18.3224 11.1584C18.3787 11.2086 18.4234 11.2682 18.4538 11.3338C18.4843 11.3994 18.5 11.4697 18.5 11.5408C18.5 11.6118 18.4843 11.6821 18.4538 11.7477C18.4234 11.8133 18.3787 11.8729 18.3224 11.9231L13.9288 15.8415Z" fill="#00A499" stroke="#00A499" stroke-width="0.751"/>
<circle r="12.5" transform="matrix(-1 8.74228e-08 8.74228e-08 1 13.5 13.5)" stroke="#00A499" stroke-width="2"/>
</svg>
