<svg width="27" height="27" viewBox="0 0 27 27" fill="none" xmlns="http://www.w3.org/2000/svg">
<path d="M13.9288 11.1585C13.8725 11.1083 13.8056 11.0684 13.7321 11.0412C13.6585 11.014 13.5796 11 13.5 11C13.4204 11 13.3415 11.014 13.2679 11.0412C13.1944 11.0684 13.1275 11.1083 13.0712 11.1585L8.6776 15.0769C8.56388 15.1783 8.5 15.3158 8.5 15.4592C8.5 15.6027 8.56388 15.7402 8.6776 15.8416C8.79131 15.943 8.94554 16 9.10636 16C9.26717 16 9.4214 15.943 9.53512 15.8416L13.5 12.3056L17.4649 15.8416C17.5212 15.8918 17.588 15.9317 17.6616 15.9588C17.7352 15.986 17.814 16 17.8936 16C17.9733 16 18.0521 15.986 18.1257 15.9588C18.1993 15.9317 18.2661 15.8918 18.3224 15.8416C18.3787 15.7914 18.4234 15.7318 18.4538 15.6662C18.4843 15.6006 18.5 15.5303 18.5 15.4592C18.5 15.3882 18.4843 15.3179 18.4538 15.2523C18.4234 15.1867 18.3787 15.1271 18.3224 15.0769L13.9288 11.1585Z" fill="#00A499" stroke="#00A499" stroke-width="0.751"/>
<circle cx="13.5" cy="13.5" r="12.5" transform="rotate(-180 13.5 13.5)" stroke="#00A499" stroke-width="2"/>
</svg>
