<svg width="14" height="19" viewBox="0 0 14 19" fill="none" xmlns="http://www.w3.org/2000/svg">
<path d="M12.182 6.29249H11.694V4.88359C11.6937 2.19061 9.58817 0 6.99982 0C4.41146 0 2.30596 2.19061 2.30596 4.88359V6.29249H1.81799C0.81389 6.29249 0 7.13928 0 8.18397V16.4277C0 17.4724 0.81389 18.3192 1.81799 18.3192H12.182C13.1861 18.3192 14 17.4724 14 16.4277V8.18397C13.9996 7.13928 13.1857 6.29249 12.182 6.29249ZM4.0464 5.00157C4.0464 3.30723 5.37131 1.92839 7.00018 1.92839C8.62906 1.92839 9.95396 3.30685 9.95396 5.00157V6.29211H4.0464V5.00157ZM12.6118 15.4062C12.6118 16.1837 12.0061 16.814 11.2587 16.814H2.74125C1.99394 16.814 1.38818 16.1837 1.38818 15.4062V9.20506C1.38818 8.42754 1.99394 7.7973 2.74125 7.7973H11.2584C12.0057 7.7973 12.6114 8.42754 12.6114 9.20506V15.4062H12.6118Z" fill="#9F9F9F"/>
<path d="M6.99585 15.9891C7.55295 15.9891 8.00617 15.5176 8.00617 14.938V13.0777C8.51206 12.7295 8.81859 12.1434 8.81859 11.5017C8.81859 10.4586 8.00288 9.60986 7.00024 9.60986C5.9976 9.60986 5.18188 10.4586 5.18188 11.5017C5.18188 12.1388 5.48513 12.7222 5.98553 13.0716V14.938C5.9859 15.518 6.43875 15.9891 6.99585 15.9891Z" fill="#9F9F9F"/>
</svg>
