<svg width="39" height="42" viewBox="0 0 39 42" fill="none" xmlns="http://www.w3.org/2000/svg">
<mask id="path-1-outside-1" maskUnits="userSpaceOnUse" x="24.2734" y="26.7305" width="10" height="10" fill="black">
<rect fill="white" x="24.2734" y="26.7305" width="10" height="10"/>
<path fill-rule="evenodd" clip-rule="evenodd" d="M28.9775 27.7305C28.7915 27.7305 28.6407 27.8813 28.6407 28.0673V31.0793H25.6085C25.4234 31.0793 25.2734 31.2293 25.2734 31.4143C25.2734 31.5994 25.4234 31.7494 25.6085 31.7494H28.6407V34.7642C28.6407 34.9502 28.7915 35.1009 28.9775 35.1009C29.1635 35.1009 29.3143 34.9502 29.3143 34.7642V31.7494H32.3479C32.5329 31.7494 32.6829 31.5994 32.6829 31.4143C32.6829 31.2293 32.5329 31.0793 32.3479 31.0793H29.3143V28.0673C29.3143 27.8813 29.1635 27.7305 28.9775 27.7305Z"/>
</mask>
<path fill-rule="evenodd" clip-rule="evenodd" d="M28.9775 27.7305C28.7915 27.7305 28.6407 27.8813 28.6407 28.0673V31.0793H25.6085C25.4234 31.0793 25.2734 31.2293 25.2734 31.4143C25.2734 31.5994 25.4234 31.7494 25.6085 31.7494H28.6407V34.7642C28.6407 34.9502 28.7915 35.1009 28.9775 35.1009C29.1635 35.1009 29.3143 34.9502 29.3143 34.7642V31.7494H32.3479C32.5329 31.7494 32.6829 31.5994 32.6829 31.4143C32.6829 31.2293 32.5329 31.0793 32.3479 31.0793H29.3143V28.0673C29.3143 27.8813 29.1635 27.7305 28.9775 27.7305Z" fill="#00AE99"/>
<path d="M28.6407 31.0793V31.9696H29.5309V31.0793H28.6407ZM28.6407 31.7494H29.5309V30.8591H28.6407V31.7494ZM29.3143 31.7494V30.8591H28.424V31.7494H29.3143ZM29.3143 31.0793H28.424V31.9696H29.3143V31.0793ZM29.5309 28.0673C29.5309 28.3729 29.2832 28.6207 28.9775 28.6207V26.8402C28.2998 26.8402 27.7505 27.3896 27.7505 28.0673H29.5309ZM29.5309 31.0793V28.0673H27.7505V31.0793H29.5309ZM25.6085 31.9696H28.6407V30.1891H25.6085V31.9696ZM26.1637 31.4143C26.1637 31.721 25.9151 31.9696 25.6085 31.9696V30.1891C24.9318 30.1891 24.3832 30.7377 24.3832 31.4143H26.1637ZM25.6085 30.8591C25.9151 30.8591 26.1637 31.1077 26.1637 31.4143H24.3832C24.3832 32.091 24.9318 32.6396 25.6085 32.6396V30.8591ZM28.6407 30.8591H25.6085V32.6396H28.6407V30.8591ZM29.5309 34.7642V31.7494H27.7505V34.7642H29.5309ZM28.9775 34.2107C29.2832 34.2107 29.5309 34.4585 29.5309 34.7642H27.7505C27.7505 35.4418 28.2998 35.9912 28.9775 35.9912V34.2107ZM28.424 34.7642C28.424 34.4585 28.6718 34.2107 28.9775 34.2107V35.9912C29.6552 35.9912 30.2045 35.4418 30.2045 34.7642H28.424ZM28.424 31.7494V34.7642H30.2045V31.7494H28.424ZM32.3479 30.8591H29.3143V32.6396H32.3479V30.8591ZM31.7926 31.4143C31.7926 31.1077 32.0412 30.8591 32.3479 30.8591V32.6396C33.0246 32.6396 33.5731 32.091 33.5731 31.4143H31.7926ZM32.3479 31.9696C32.0412 31.9696 31.7926 31.721 31.7926 31.4143H33.5731C33.5731 30.7377 33.0246 30.1891 32.3479 30.1891V31.9696ZM29.3143 31.9696H32.3479V30.1891H29.3143V31.9696ZM28.424 28.0673V31.0793H30.2045V28.0673H28.424ZM28.9775 28.6207C28.6718 28.6207 28.424 28.3729 28.424 28.0673H30.2045C30.2045 27.3896 29.6552 26.8402 28.9775 26.8402V28.6207Z" fill="#00AE99" mask="url(#path-1-outside-1)"/>
<path d="M37.3893 27.1307C36.4659 25.2449 34.9421 23.7179 33.0578 22.7852V9.56046C33.0578 9.43665 33.0333 9.31407 32.9857 9.19975C32.9381 9.08543 32.8683 8.98166 32.7805 8.89432L32.6043 9.07146L32.7805 8.89431L24.8368 0.992352L24.8368 0.992347C24.749 0.90501 24.6448 0.835811 24.5303 0.788628C24.4158 0.741446 24.2931 0.717183 24.1692 0.717188L4.30989 0.717188L4.30958 0.717188C3.35762 0.718251 2.44467 1.09488 1.77108 1.76492C1.09745 2.43502 0.718259 3.34387 0.717188 4.29216V4.29248L0.717188 37.2173L0.717188 37.2176C0.718259 38.1659 1.09745 39.0748 1.77108 39.7449C2.44467 40.4149 3.35762 40.7915 4.30958 40.7926L4.30989 40.5099V40.7926H28.8031C30.9711 40.7928 33.0748 40.0591 34.7682 38.7118C36.4616 37.3646 37.644 35.4839 38.1204 33.3789C38.5969 31.274 38.339 29.0704 37.3893 27.1307ZM23.2245 2.59981L23.2245 6.92647L23.2245 6.92679C23.2255 7.87509 23.6047 8.78394 24.2783 9.45403C24.9519 10.1241 25.8649 10.5007 26.8168 10.5018H26.8172H31.1682V22.0847C29.0445 21.5442 26.7939 21.7463 24.7969 22.6642C22.6855 23.6346 21.0024 25.3384 20.0639 27.4562C19.1255 29.574 18.9963 31.9598 19.7008 34.1656C20.309 36.0699 21.5022 37.7267 23.1003 38.91H4.31022C3.85812 38.9095 3.42498 38.7306 3.10575 38.413C2.78662 38.0956 2.60735 37.6655 2.60677 37.2172V4.29262C2.60735 3.84432 2.78662 3.41424 3.10575 3.09678C3.42494 2.77927 3.85799 2.60038 4.31002 2.59981H23.2245ZM36.464 31.2912C36.464 32.7976 36.0149 34.2704 35.1733 35.5232C34.3317 36.7762 33.1353 37.753 31.7353 38.3298C30.3353 38.9067 28.7946 39.0576 27.3082 38.7635C25.8219 38.4694 24.4568 37.7435 23.3855 36.6779C22.3142 35.6122 21.5848 34.2547 21.2893 32.777C20.9938 31.2993 21.1455 29.7676 21.7251 28.3756C22.3048 26.9836 23.2865 25.7935 24.5463 24.9561C25.8061 24.1188 27.2874 23.6718 28.8028 23.6717C30.8344 23.674 32.7819 24.4778 34.2181 25.9064C35.6542 27.335 36.4617 29.2715 36.464 31.2912ZM25.114 3.92842L29.8296 8.61915L26.8175 8.61915L26.8172 8.61915L25.114 3.92842Z" fill="#00AE99" stroke="#00AE99" stroke-width="0.565624"/>
<rect x="5.2793" y="6.96094" width="9.41529" height="2.5543" rx="1.27715" fill="#00AE99"/>
<rect x="5.2793" y="23.1387" width="12.839" height="2.5543" rx="1.27715" fill="#00AE99"/>
<rect x="5.2793" y="29.0977" width="9.41529" height="2.5543" rx="1.27715" fill="#00AE99"/>
<rect x="5.2793" y="12.0684" width="17.1187" height="2.5543" rx="1.27715" fill="#00AE99"/>
<rect x="5.2793" y="18.0293" width="17.1187" height="2.5543" rx="1.27715" fill="#00AE99"/>
</svg>
