<?xml version="1.0" encoding="UTF-8" standalone="no"?>
<svg
   xmlns="http://www.w3.org/2000/svg"
   width="18"
   height="18"
   viewBox="0 0 18 18"
   fill="none"
   version="1.1"
   id="svg4">
  <path
     d="M17.84 5.36C17.76 5.16 17.62 4.98 17.48 4.82L13.18 0.52C13.02 0.36 12.84 0.24 12.66 0.16C12.42 0.06 12.16 0 11.9 0H7.2C6.2 0 5.4 0.8 5.4 1.8V2.2H1.8C0.8 2.2 0 3 0 4V16.2C0 17.2 0.8 18 1.8 18H10.8C11.8 18 12.6 17.2 12.6 16.2V15.8H16.2C17.2 15.8 18 15 18 14V6.1C18 5.84 17.94 5.58 17.84 5.36ZM13 2.04L15.96 5H13.6C13.26 5 13 4.74 13 4.4V2.04ZM7.6 4.24L10.56 7.2H8.2C7.86 7.2 7.6 6.94 7.6 6.6V4.24ZM10.8 16.8H1.8C1.46 16.8 1.2 16.54 1.2 16.2V4C1.2 3.66 1.46 3.4 1.8 3.4H6.4V6.6C6.4 7.6 7.2 8.4 8.2 8.4H11.4V16.2C11.4 16.54 11.14 16.8 10.8 16.8ZM16.2 14.6H12.6V8.3C12.6 7.82 12.42 7.36 12.08 7.02L7.78 2.72C7.46 2.4 7.04 2.22 6.6 2.2V1.8C6.6 1.46 6.86 1.2 7.2 1.2H11.8V4.4C11.8 5.4 12.6 6.2 13.6 6.2H16.8V14C16.8 14.34 16.54 14.6 16.2 14.6Z"
     fill="#FF4F00"
     id="path2"
     style="fill:#696158;fill-opacity:1" />
</svg>
