<svg width="99" height="116" viewBox="0 0 99 116" fill="none" xmlns="http://www.w3.org/2000/svg">
<path d="M0.00488201 14.3769C0.279837 11.2645 0.804751 8.20359 2.01205 5.28714C2.40199 4.34682 2.74443 3.40405 3.5418 2.66208C4.87908 1.42057 7.23119 1.12672 8.69345 2.236C11.323 4.23418 14.2975 4.85371 17.562 4.80474C21.0814 4.75086 24.3359 3.7028 27.5879 2.59107C33.2594 0.654111 39.0885 -0.200502 45.0875 0.0394755C50.5816 0.259863 55.7857 1.61647 60.7699 3.84238C61.4223 4.13378 62.0372 4.51333 62.6346 4.90513C63.3245 5.35815 63.5369 6.01931 63.3995 6.8225C63.2845 7.5008 62.7571 7.71385 62.2272 7.96851C61.8297 8.15952 61.5148 7.99545 61.1723 7.83139C58.0278 6.33275 54.8634 4.8733 51.3914 4.23663C47.4921 3.52159 43.5827 3.23754 39.5909 3.49955C34.5542 3.82769 29.8725 5.40713 25.1558 6.90576C21.5588 8.04688 17.8794 8.3799 14.1551 8.04687C11.593 7.81914 9.23337 6.90086 7.15121 5.3704C6.29885 4.74352 6.03889 4.81698 5.60646 5.76709C4.41416 8.37501 3.82425 11.1323 3.5368 13.9581C3.49431 14.3744 3.45931 14.7932 3.38183 15.207C3.17936 16.2991 2.61195 16.7767 1.60962 16.7252C0.644777 16.6763 0.0823693 16.0763 0.0073816 15.0062C-0.00761594 14.7981 0.00488201 14.5875 0.00488201 14.3769Z" fill="#00AE99"/>
<path d="M95.3718 9.79117C92.3873 5.49852 88.018 3.00325 82.7764 2.53799C75.85 1.9209 70.071 4.24476 65.9517 9.97238C62.3823 14.9335 61.8024 20.3281 63.707 25.97C64.6194 28.6735 66.2591 31.0365 68.4538 32.9661C68.8762 33.3383 69.0787 33.7032 68.9037 34.2664C67.9938 37.1633 67.1015 40.0675 66.2041 42.9692C66.1591 43.1137 66.1416 43.2851 65.8342 43.2533C65.7442 42.6852 65.6542 42.0975 65.5617 41.5122C64.9968 37.942 64.3169 34.4011 63.1671 30.9557C62.3673 28.5559 60.935 26.5577 58.9378 25.0836C55.8083 22.7793 52.4114 22.9703 49.0445 24.6918C47.0798 25.6958 45.1701 26.8026 43.1854 27.7601C41.1408 28.7469 38.9861 29.1657 36.7515 28.3551C35.2992 27.8286 33.892 27.2067 32.5672 26.4084C31.1574 25.5586 29.7002 24.7922 28.1629 24.1776C24.4335 22.6912 21.1941 23.5948 18.357 26.1806C15.9549 28.3698 15.0601 31.3303 14.3352 34.3203C13.6953 36.9649 13.2079 39.6438 12.6305 42.4134C12.533 42.095 12.453 41.8746 12.4005 41.6494C11.7881 39.0219 11.2032 36.3895 10.4833 33.7864C10.3583 33.3334 10.1584 32.9808 9.82593 32.6576C7.5388 30.4243 5.80909 27.8531 4.79675 24.824C4.43181 23.727 4.24684 22.5883 3.85691 21.5035C3.44698 20.3624 2.59962 19.9584 1.54229 20.3747C0.707428 20.7028 0.402478 21.4056 0.679933 22.7132C1.60728 27.1038 3.41948 31.0634 6.67644 34.3031C6.9389 34.5651 7.15887 34.832 7.27135 35.2092C7.89874 37.32 8.29118 39.4847 8.85359 41.6102C9.21853 42.9913 9.51598 42.9349 7.82126 43.4957C3.70943 44.8597 1.29733 48.7385 1.84224 52.8034C2.37215 56.7459 6.09154 60.1962 10.3108 60.1913C11.0457 60.1913 11.3107 60.512 11.2882 61.2001C11.2482 62.4588 11.2232 63.7175 11.2332 64.9761C11.2532 66.9988 11.5956 68.9872 12.7479 70.6817C14.4827 73.2284 16.8173 75.1678 19.6343 76.5195C22.4288 77.8614 25.3434 78.8458 28.4129 79.3796C28.7603 79.4409 29.1402 79.4041 29.1777 79.9673C29.2502 81.084 29.2877 81.0938 28.1229 81.0815C26.1907 81.0619 24.256 81.1427 22.4039 81.7059C15.3775 83.8437 10.9257 88.4155 9.09855 95.4018C8.54614 97.5077 8.25618 99.6553 8.19369 101.837C8.12121 104.342 8.43865 106.808 8.87358 109.262C9.13854 110.755 9.44849 112.244 9.93341 113.689C10.3858 115.036 10.7533 115.29 12.1605 115.29C30.315 115.29 48.4721 115.283 66.6266 115.31C67.4814 115.313 67.9788 115.004 68.3213 114.318C68.4613 114.039 68.5987 113.75 68.6837 113.451C69.4461 110.746 70.016 107.993 70.201 105.194C70.4034 102.136 70.3834 99.0798 69.6061 96.0629C69.0387 93.8664 68.2488 91.7776 67.0465 89.8407C66.744 89.3534 66.3466 88.9738 65.7317 88.9126C65.0768 88.8489 64.4994 89.013 64.117 89.5738C63.6346 90.2766 63.7995 90.9696 64.2095 91.6405C65.7842 94.2068 66.5641 97.0253 66.809 99.9736C67.129 103.816 66.6941 107.609 65.7442 111.348C65.6342 111.784 65.4268 111.975 64.9743 111.963C64.252 111.943 63.5296 111.958 62.8072 111.931C61.5499 111.884 61.21 111.578 61.26 110.359C61.3274 108.708 61.2824 107.06 61.2525 105.41C61.2325 104.347 60.5651 103.603 59.5927 103.595C58.5879 103.59 57.853 104.359 57.8505 105.447C57.8505 107.046 57.8655 108.647 57.8755 110.246C57.8855 112.266 57.963 111.938 56.1908 111.936C44.9726 111.914 33.7545 111.899 22.5363 111.882C20.5667 111.879 20.5992 111.882 20.6366 109.911C20.6691 108.26 20.6516 106.607 20.5817 104.957C20.5492 104.19 19.9243 103.683 19.1594 103.6C18.392 103.517 17.6371 103.963 17.3922 104.678C17.2647 105.05 17.2197 105.439 17.2222 105.841C17.2322 107.572 17.1847 109.303 17.2447 111.032C17.2722 111.838 16.9597 112.041 16.2224 111.968C15.6925 111.916 15.1525 111.933 14.6176 111.936C12.9879 111.946 12.9779 111.95 12.618 110.449C11.4007 105.376 11.1357 100.321 12.678 95.2377C14.6526 88.729 21.0916 83.9221 28.5878 84.4118C29.0753 84.4436 29.2277 84.713 29.2252 85.1415C29.2177 85.8247 29.2552 86.5006 29.3977 87.174C30.1976 90.9181 32.4272 93.5505 36.0966 94.7406C40.1109 96.0434 43.6953 95.0296 46.6549 92.0641C48.4621 90.2521 49.2244 87.9992 49.3019 85.504C49.3219 84.8771 49.4769 84.429 50.2368 84.4094C52.124 84.3628 53.9662 84.5783 55.7809 85.1097C57.2306 85.5358 58.4529 86.41 59.8277 86.9756C60.7625 87.3601 61.4174 87.2475 61.9273 86.6304C62.4773 85.9668 62.4448 85.2983 61.8324 84.4804C61.6049 84.1767 61.3124 83.9637 60.9825 83.78C57.5831 81.8847 53.9587 80.8807 50.0218 81.0864C49.7718 81.0987 49.4794 81.2113 49.3444 80.8562C49.0645 80.102 49.3669 79.5462 50.1693 79.36C53.5562 78.5764 56.8857 77.6288 59.9127 75.8853C62.8772 74.1761 65.3818 72.0383 66.6166 68.757C67.4714 66.4821 67.349 64.1239 67.2215 61.7707C67.1515 60.4802 67.3339 60.1741 68.6312 60.1692C69.7411 60.1668 70.7309 59.8191 71.6982 59.366C76.375 57.1793 77.9397 51.6549 75.7176 47.7174C74.5403 45.6286 72.8505 44.1642 70.5034 43.4516C70.121 43.3365 69.6261 43.2925 69.8385 42.6338C70.5184 40.5156 71.1708 38.3876 71.8207 36.2597C71.9932 35.6989 72.3081 35.6377 72.7756 35.9242C73.253 36.218 73.7754 36.409 74.3078 36.5878C75.0927 36.8523 75.1427 37.1412 74.5703 37.773C74.3053 38.0668 74.0278 38.3509 73.7504 38.635C72.7781 39.634 72.5281 40.6062 73.043 41.62C73.5979 42.7121 74.5528 43.1235 75.7601 43.0305C79.7519 42.7317 82.9389 40.9662 85.3785 37.893C85.9409 37.1853 86.6008 36.7078 87.4631 36.387C90.6726 35.1896 93.3397 33.1938 95.2718 30.4561C99.8411 23.9817 99.9561 16.3856 95.3718 9.79117ZM11.4782 56.5426C11.4657 56.8757 11.2057 56.8512 10.9557 56.8683C7.84625 57.0985 4.99922 54.3559 5.27917 51.6819C5.28917 49.1229 6.79393 47.2031 9.27102 46.5517C9.86592 46.395 10.1759 46.5468 10.3108 47.1468C10.7308 49.0078 11.1657 50.864 11.6106 52.7177C11.9231 54.0082 11.5231 55.2668 11.4782 56.5426ZM45.665 86.9683C44.9001 90.2423 41.5332 92.3653 38.1388 91.7972C34.9418 91.2634 32.4397 88.3298 32.6172 85.0975C32.6497 84.4975 32.6222 83.8927 32.6222 83.2903C32.6147 83.2903 32.6047 83.2903 32.5972 83.2903C32.5972 82.5312 32.6272 81.7696 32.5872 81.0105C32.5522 80.32 32.8096 80.0579 33.5245 80.1436C35.8666 80.4204 38.2212 80.4057 40.5734 80.3959C41.9606 80.391 43.3429 80.3298 44.7152 80.0996C45.57 79.9551 45.905 80.1706 45.9 81.0203C45.89 83.0038 46.1299 84.9873 45.665 86.9683ZM58.7679 72.7068C55.6309 74.563 52.1714 75.5914 48.567 76.2428C43.2304 77.2052 37.8988 77.3227 32.5247 76.6052C28.5078 76.0665 24.5935 75.229 20.9641 73.3876C19.4318 72.6089 18.0721 71.5853 16.8823 70.3707C15.1101 68.5611 14.5002 66.3474 14.6426 63.8791C14.7051 62.7845 14.6526 61.6825 14.6526 60.5831C14.9601 56.3198 15.14 52.0541 15.61 47.808C16.1899 42.5529 16.8023 37.3004 18.492 32.2413C18.9394 30.9018 19.5943 29.697 20.6066 28.6832C22.5713 26.712 24.581 26.3031 27.1606 27.3903C28.8803 28.1151 30.495 29.0432 32.0998 29.9786C36.844 32.7408 41.5657 32.7873 46.3324 30.0252C47.8472 29.1485 49.3844 28.3086 50.9591 27.5323C54.716 25.6835 57.643 27.6058 59.2503 30.5027C60.5676 32.8804 61.05 35.5275 61.5249 38.1525C62.8047 45.2 63.4696 52.3112 63.6771 59.4664C63.727 61.1659 63.8595 62.8628 63.882 64.5647C63.932 68.3456 61.8624 70.8751 58.7679 72.7068ZM70.111 46.8162C72.0132 47.5851 73.368 49.7106 73.268 51.7627C73.1455 54.2506 71.7982 55.9133 69.2986 56.6724C67.5164 57.2136 67.2265 57.0544 66.909 55.2815C66.8065 54.7183 66.784 54.1404 66.7266 53.5674C66.749 51.9953 67.2165 50.5236 67.6989 49.0544C67.8539 48.5818 68.0263 48.1165 68.1888 47.6463C68.6412 46.3289 68.7687 46.2726 70.111 46.8162ZM95.1769 22.0912C94.2995 27.6107 91.0375 31.4552 85.6784 33.4852C84.5136 33.9285 83.5788 34.548 82.8939 35.5936C81.9165 37.0849 80.5518 38.1599 78.8746 38.8382C78.5621 38.9655 78.2447 39.1394 77.7822 39.0316C78.4596 38.1942 78.9395 37.3224 79.2645 36.3772C79.6169 35.361 79.2695 34.6288 78.2647 34.2223C77.9222 34.0827 77.5548 33.9921 77.1948 33.8991C70.116 32.0943 66.3466 26.7291 66.1192 20.5338C65.8092 12.1273 72.6606 6.67882 78.3196 5.98582C82.7164 5.4471 86.6783 6.28457 90.0077 9.07369C94.042 12.4579 96.0067 16.8754 95.1769 22.0912Z" fill="#00AE99"/>
<path d="M25.5865 40.383C27.3051 39.3477 28.9836 39.019 30.7609 39.1331C31.5709 39.1843 32.3067 39.4576 32.5672 40.3282C32.9174 41.4969 32.1665 42.4421 30.7944 42.5076C29.9357 42.5484 29.0894 42.605 28.2744 42.8818C26.7792 43.386 25.8374 44.4795 25.0202 45.7132C24.1786 46.9831 22.9066 46.9845 21.9685 45.7405C21.4598 45.0669 21.7354 44.4305 22.0482 43.8414C22.8873 42.2648 24.1449 41.0724 25.5865 40.383Z" fill="#00AE99"/>
<path d="M53.1519 40.4512C54.7436 42.0532 55.4945 43.5122 55.9439 45.1283C56.1969 46.0466 55.714 47.0234 54.8794 47.3124C53.8693 47.6614 52.9686 47.2497 52.5558 46.2437C52.467 46.0302 52.4104 45.8027 52.3448 45.5804C51.7425 43.5611 50.3651 42.2897 48.2865 41.6988C48.1833 41.6689 48.08 41.6459 47.9768 41.616C46.7436 41.2623 46.1666 40.4379 46.4639 39.4594C46.7668 38.4553 47.8047 38.0014 49.0275 38.3278C50.7593 38.7933 52.2679 39.6262 53.1519 40.4512Z" fill="#00AE99"/>
<path d="M28.4379 49.3629C28.4379 49.8331 28.4704 50.3057 28.4304 50.7734C28.3554 51.6647 27.688 52.272 26.8082 52.299C25.8533 52.3283 25.2034 51.8557 25.0484 50.9497C24.866 49.8649 24.901 48.7654 25.0434 47.6806C25.1634 46.755 25.8133 46.2971 26.7832 46.3191C27.6955 46.3387 28.2979 46.8236 28.4104 47.7222C28.4779 48.2634 28.4229 48.8168 28.4229 49.3654C28.4279 49.3629 28.4329 49.3629 28.4379 49.3629Z" fill="#00AE99"/>
<path d="M49.8853 49.4427C49.8853 49.8345 49.8853 50.2288 49.8853 50.6206C49.8828 51.4115 49.2204 52.2245 48.543 52.2686C47.3607 52.3445 46.6433 51.8646 46.5109 50.8532C46.3784 49.837 46.3659 48.8134 46.4934 47.7972C46.6158 46.8226 47.3257 46.2667 48.3181 46.3133C49.2654 46.3573 49.8478 46.945 49.9003 47.949C49.9253 48.4461 49.9053 48.9457 49.9053 49.4427C49.9003 49.4427 49.8928 49.4427 49.8853 49.4427Z" fill="#00AE99"/>
<path d="M78.0915 22.5427C78.0915 22.0701 78.0715 21.5975 78.094 21.1273C78.174 19.494 79.0813 18.5953 80.756 18.4582C81.1535 18.4264 81.5559 18.3872 81.9458 18.3088C83.2706 18.0395 84.0605 17.1285 84.113 15.8454C84.163 14.6186 83.3656 13.497 82.1933 13.1493C81.031 12.804 79.7262 13.3011 79.0713 14.3565C78.9038 14.6235 78.7914 14.9222 78.6239 15.1891C78.1315 15.9703 77.2416 16.22 76.3868 15.8307C75.5869 15.4683 75.2444 14.6675 75.5069 13.8129C76.3768 10.9871 79.6362 8.81993 83.2681 9.89982C86.5226 10.8671 88.3723 14.2831 87.3549 17.535C86.74 19.5014 85.4553 20.8849 83.3531 21.4261C83.1981 21.4652 83.0407 21.4995 82.8882 21.5436C81.4909 21.933 81.5234 21.9305 81.5834 23.3459C81.6184 24.1883 81.5734 25.0576 80.6261 25.5008C79.4188 26.0664 78.1815 25.3539 78.0965 24.0389C78.064 23.5418 78.0915 23.0398 78.0915 22.5427Z" fill="#00AE99"/>
<path d="M79.7842 26.877C80.929 26.8697 81.6264 27.5969 81.5989 28.7772C81.5764 29.7151 80.7565 30.4522 79.7442 30.4448C78.9018 30.4399 78.097 29.6245 78.0845 28.7625C78.067 27.3741 78.5069 26.8844 79.7842 26.877Z" fill="#00AE99"/>
<path d="M51.3796 63.5273L42.2836 67.509C41.3062 67.9375 40.1614 67.5066 39.724 66.5515C39.2866 65.5941 39.7265 64.4725 40.7013 64.044L49.7973 60.0623C50.7747 59.6338 51.9195 60.0648 52.3569 61.0198C52.7944 61.9773 52.3544 63.1012 51.3796 63.5273Z" fill="#00AE99"/>
</svg>
