<svg width="30" height="39" viewBox="0 0 30 39" fill="none" xmlns="http://www.w3.org/2000/svg">
<path opacity="0.8" d="M28.2227 8.98653L20.3452 1.10196C20.1003 0.896634 19.8146 0.773438 19.5289 0.773438H3.20233C2.01865 0.773438 1.03906 1.75901 1.03906 2.94991V35.597C1.03906 36.7879 2.01865 37.7734 3.20233 37.7734H26.8758C28.0595 37.7734 29.0391 36.7879 29.0391 35.597V11.0398C29.0391 10.2596 28.7533 9.56145 28.2227 8.98653ZM26.9166 10.0132H20.386C20.1003 10.0132 19.8554 9.76678 19.8554 9.47932V2.90884L26.9166 10.0132ZM26.8758 36.2951H3.20233C2.79416 36.2951 2.46763 35.9666 2.46763 35.5559V2.94991C2.46763 2.53925 2.79416 2.21073 3.20233 2.21073H18.4676V9.52039C18.4676 10.5881 19.3248 11.4505 20.386 11.4505H27.6105V35.597C27.6105 35.9666 27.284 36.2951 26.8758 36.2951Z" fill="#00A499" stroke="#00A499" stroke-width="0.5"/>
</svg>

