<svg xmlns="http://www.w3.org/2000/svg" viewBox="0 0 23 20"><defs><style>.cls-1{fill:#00a499;}</style></defs><title>Asset 1</title><g id="Layer_2" data-name="Layer 2"><g id="Layer_1-2" data-name="Layer 1"><path class="cls-1" d="M9.69,17.86H22.16a.84.84,0,1,0,0-1.67H9.69a3,3,0,0,0-2.9-2.14,3,3,0,0,0-2.87,2.14H.84a.84.84,0,1,0,0,1.67H3.92a3,3,0,0,0,5.77,0ZM5.51,17a1.32,1.32,0,1,1,1.31,1.31A1.31,1.31,0,0,1,5.51,17Z"/><path class="cls-1" d="M19.83,11.17h2.33a.84.84,0,1,0,0-1.67H19.83a3,3,0,0,0-2.91-2.14A3,3,0,0,0,14.05,9.5H.84a.84.84,0,1,0,0,1.67H14.05a3,3,0,0,0,5.78,0Zm-4.19-.83A1.32,1.32,0,1,1,17,11.64,1.31,1.31,0,0,1,15.64,10.34Z"/><path class="cls-1" d="M13.75,3.81h8.41a.84.84,0,1,0,0-1.67H13.75A3,3,0,0,0,10.84,0,3,3,0,0,0,8,2.14H.84a.84.84,0,1,0,0,1.67H8a3,3,0,0,0,5.78,0ZM9.56,3a1.32,1.32,0,1,1,1.32,1.3A1.32,1.32,0,0,1,9.56,3Z"/></g></g></svg>