<svg width="22" height="24" viewBox="0 0 22 24" fill="none" xmlns="http://www.w3.org/2000/svg">
<path d="M12.8633 10.2727V21.8416L15.8807 18.8654L18.0709 23.0353L19.6623 22.2211L17.5536 18.2099H21.6241L12.8633 10.2727Z" fill="#00A499"/>
<path d="M21.8812 12.4001C21.9021 12.2483 21.9278 12.0965 21.9441 11.9401C21.979 11.5928 22 11.2501 22 10.8867C22 10.5233 21.9814 10.1967 21.9487 9.86089C21.9324 9.68149 21.9021 9.50669 21.8765 9.33189C21.8579 9.20769 21.8462 9.08119 21.8252 8.9593C21.4255 6.7863 20.3637 4.78538 18.7817 3.22372C17.1996 1.66205 15.1726 0.613965 12.9712 0.219398C12.8128 0.184899 12.666 0.171099 12.5215 0.150399C12.377 0.129699 12.2069 0.1021 12.0555 0.0859998C11.7013 0.0538002 11.3542 0.0354004 11.0023 0.0354004C10.6505 0.0354004 10.3033 0.0538002 9.95848 0.0859998C9.79771 0.1021 9.6416 0.127399 9.49248 0.150399C9.34336 0.173399 9.1989 0.182599 9.05677 0.207898C6.85539 0.602466 4.82834 1.65055 3.24627 3.21222C1.66421 4.77388 0.602432 6.7748 0.202711 8.9478C0.179411 9.07889 0.167761 9.21459 0.146791 9.34799C0.125821 9.48139 0.0722305 9.69529 0.0512603 9.86318C0.0186401 10.2013 0 10.5532 0 10.8913C0 11.2294 0.0186401 11.5813 0.0512603 11.9171C0.0675704 12.0942 0.0978606 12.2644 0.123491 12.4392C0.142131 12.5657 0.153781 12.6945 0.177081 12.821C0.576802 14.9939 1.63858 16.9949 3.22064 18.5565C4.80271 20.1182 6.82976 21.1663 9.03114 21.5608C9.16628 21.5838 9.30375 21.5976 9.43889 21.616C9.57403 21.6344 9.77441 21.6666 9.94683 21.6827C10.2893 21.7149 10.6458 21.7333 10.986 21.7333H11.0186V19.2034H11.0023C10.5194 19.2005 10.0377 19.1567 9.56238 19.0723C9.12312 17.6765 8.82498 16.2412 8.67232 14.7874C9.42957 14.8334 10.2101 14.861 11.0023 14.861H11.035V13.4143H11.0023C10.1239 13.4143 9.29909 13.3844 8.52785 13.3338C8.47426 12.5726 8.43931 11.7653 8.43931 10.8913C8.43931 10.0173 8.4696 9.20999 8.52086 8.4464C9.29443 8.3958 10.1193 8.3659 10.9977 8.3659C11.8761 8.3659 12.6986 8.3958 13.4698 8.4464C13.4698 8.4901 13.4698 8.5315 13.4698 8.5775C13.6985 8.65707 13.9085 8.78146 14.0873 8.9432L14.989 9.75969C14.9773 9.35949 14.954 8.9708 14.9284 8.5821C16.4138 8.73252 17.8804 9.02837 19.3065 9.46529C19.3908 9.93456 19.4345 10.4101 19.437 10.8867C19.4365 11.3624 19.3944 11.8372 19.3112 12.3058C18.964 12.4185 18.5958 12.5358 18.1788 12.6324L19.0409 13.412L21.0727 15.252C21.4152 14.4747 21.6639 13.6603 21.8136 12.8256C21.8486 12.6853 21.8625 12.5381 21.8812 12.4001ZM7.90108 3.15876C7.56144 4.45907 7.32309 5.78312 7.1881 7.11932C5.83527 7.25178 4.49469 7.48629 3.17814 7.82081C3.60331 6.76929 4.24031 5.81392 5.05053 5.01256C5.86076 4.2112 6.82735 3.58053 7.89176 3.15876H7.90108ZM7.90108 18.6261C6.83294 18.2063 5.86254 17.5762 5.04898 16.7743C4.23541 15.9724 3.59571 15.0155 3.16882 13.9617C4.48531 14.2971 5.82588 14.5323 7.17878 14.6655C7.31328 16.0009 7.55086 17.3241 7.88943 18.6238L7.90108 18.6261ZM7.05528 13.2004C5.57683 13.0482 4.11731 12.7516 2.69816 12.315C2.52192 11.3746 2.52192 10.4103 2.69816 9.46989C4.11731 9.03328 5.57683 8.73667 7.05528 8.5844C7.00868 9.33189 6.98072 10.1024 6.98072 10.8844C6.98072 11.6664 7.00868 12.4553 7.05528 13.2004ZM11.0023 6.92152C10.2031 6.92152 9.42258 6.94682 8.67232 6.99282C8.82647 5.53341 9.12696 4.0927 9.56937 2.69187C10.5212 2.51772 11.4974 2.51772 12.4493 2.69187C12.8869 4.09396 13.1827 5.53543 13.3323 6.99512C12.5821 6.94682 11.8015 6.92152 11.0023 6.92152ZM14.8212 7.11702C14.6868 5.7809 14.4493 4.45687 14.1106 3.15646C15.1774 3.57707 16.1465 4.20747 16.9588 5.00931C17.7711 5.81116 18.4097 6.76771 18.8358 7.82081C17.5178 7.48522 16.1757 7.24993 14.8212 7.11702Z" fill="#00A499"/>
</svg>

