<svg
            width="17"
            height="11"
            viewBox="0 0 11 17"
            fill="none"
            xmlns="http://www.w3.org/2000/svg"
          >
            <path
              d="M7.60446 8.76904L1.29281 14.8326C0.904213 15.206 0.903653 15.81 1.29107 16.1822C1.6812 16.5569 2.3074 16.5536 2.69578 16.1805L9.70719 9.44462C9.70748 9.44434 9.70777 9.44407 9.70806 9.44379C9.70835 9.44351 9.70864 9.44323 9.70893 9.44296C9.9037 9.25584 10.0004 9.01219 10 8.76866C9.99906 8.52453 9.90235 8.28094 9.70893 8.09511C9.70864 8.09484 9.70835 8.09456 9.70806 8.09428C9.70777 8.094 9.70748 8.09373 9.70719 8.09345L2.69578 1.35758C2.30719 0.984255 1.67849 0.983717 1.29107 1.35591C0.900951 1.7307 0.904429 2.3323 1.29281 2.70542L7.60446 8.76904Z"
              fill="white"
              stroke="white"
            />
          </svg>
