<svg
            width="17"
            height="11"
            viewBox="0 0 11 17"
            fill="none"
            xmlns="http://www.w3.org/2000/svg"
          >
            <path
              d="M3.39554 8.50044L9.70719 2.58841C10.0958 2.22442 10.0963 1.63554 9.70893 1.27264C9.3188 0.907224 8.6926 0.910481 8.30422 1.27427L1.29281 7.84174C1.29252 7.84201 1.29223 7.84228 1.29194 7.84255C1.29165 7.84282 1.29136 7.84309 1.29107 7.84337C1.0963 8.0258 0.999639 8.26336 1 8.5008C1.00094 8.73883 1.09765 8.97634 1.29107 9.15751C1.29136 9.15778 1.29165 9.15805 1.29194 9.15832C1.29223 9.15859 1.29252 9.15886 1.29281 9.15913L8.30421 15.7266C8.69281 16.0906 9.3215 16.0911 9.70892 15.7282C10.099 15.3628 10.0956 14.7763 9.70719 14.4125L3.39554 8.50044Z"
              fill="white"
              stroke="white"
            />
          </svg>
