<svg width="128" height="47" viewBox="0 0 128 47" fill="none" xmlns="http://www.w3.org/2000/svg">
<g clip-path="url(#clip0)">
<path d="M3.69202 38.4116H6.83447L6.3229 41.6697C6.03058 43.3711 4.78822 43.4797 3.03429 43.4797C0.768807 43.4797 0.00146484 42.6471 0.00146484 40.8008C0.00146484 40.294 0.074545 39.7148 0.184165 39.0632C0.695727 35.95 1.60923 34.6467 4.4959 34.6467C5.48248 34.6467 6.39598 34.7191 7.27295 34.9363L6.83447 36.493C6.10366 36.3844 5.29978 36.3482 4.53244 36.3482C2.74197 36.3482 2.48619 37.5066 2.23041 39.0994C2.15733 39.6062 2.08425 40.0406 2.08425 40.4388C2.08425 41.3077 2.41311 41.8507 3.65548 41.8507C4.42282 41.8507 4.56898 41.6335 4.64206 41.0905L4.82476 40.0406H3.43623L3.69202 38.4116Z" fill="white"/>
<path d="M9.28371 43.3698H7.42017L8.18751 38.5913C8.26059 38.1207 8.33367 37.7225 8.44329 37.2881C9.24717 36.8175 10.3434 36.6365 11.2569 36.6365C11.5127 36.6365 11.7684 36.6365 11.9877 36.6727L11.5857 38.2293C11.4761 38.2293 11.2934 38.1931 11.1473 38.1931C10.8184 38.1931 10.3799 38.2655 10.1607 38.3741C10.0876 38.6275 10.0145 38.9533 9.97797 39.2791L9.28371 43.3698Z" fill="white"/>
<path d="M14.5793 36.7437L13.9216 40.7981C13.885 40.9791 13.885 41.1239 13.885 41.2687C13.885 41.7393 14.1043 41.9566 14.7985 41.9566C15.0909 41.9566 15.3832 41.9204 15.6024 41.8118C15.6755 41.5583 15.7486 41.2325 15.7851 40.9067L16.4428 36.7437H18.3064L17.539 41.5221C17.466 41.9928 17.3929 42.391 17.2833 42.8254C16.4063 43.296 15.3466 43.477 14.287 43.477C12.3869 43.477 11.9119 42.8254 11.9119 41.848C11.9119 41.5945 11.9484 41.2687 11.9849 40.9791L12.6427 36.7799H14.5793V36.7437Z" fill="white"/>
<path d="M20.2079 45.7953H18.3079L19.4406 38.5913C19.5137 38.1207 19.5868 37.7225 19.6964 37.2881C20.5003 36.8175 21.5965 36.6365 22.51 36.6365C24.3735 36.6365 25.2505 37.1795 25.2505 38.8809C25.2505 39.2067 25.2139 39.6049 25.1409 40.0393C24.7389 42.6096 23.6427 43.4422 21.633 43.4422C21.3042 43.4422 20.9022 43.406 20.5733 43.3336L20.2079 45.7953ZM23.2773 40.0393C23.3139 39.7497 23.3869 39.4601 23.3869 39.2067C23.3869 38.6275 23.1677 38.1569 22.3273 38.1569C22.035 38.1569 21.7061 38.1931 21.4869 38.2655C21.4138 38.5189 21.3407 38.8447 21.3042 39.1705L20.9022 41.8132C21.0849 41.8856 21.3772 41.9218 21.5965 41.9218C22.9119 41.9218 23.0946 41.1254 23.2773 40.0393Z" fill="white"/>
<path d="M26.0539 40.0393C26.4559 37.5777 27.3694 36.6365 29.5618 36.6365C31.3522 36.6365 32.083 37.2881 32.083 38.8447C32.083 39.2067 32.0465 39.6049 31.9734 40.0393C31.5715 42.501 30.658 43.4422 28.4656 43.4422C26.6751 43.4422 25.9443 42.8268 25.9443 41.234C25.9077 40.9082 25.9808 40.51 26.0539 40.0393ZM28.6848 41.9218C29.5618 41.9218 29.8541 41.5236 30.0733 40.0755C30.1464 39.6773 30.1829 39.3515 30.1829 39.0981C30.1829 38.4465 29.9272 38.2293 29.306 38.2293C28.429 38.2293 28.1732 38.6275 27.9175 40.0755C27.8444 40.51 27.8078 40.8358 27.8078 41.0892C27.8078 41.7046 28.0636 41.9218 28.6848 41.9218Z" fill="white"/>
<path d="M53.0582 43.4465C50.7927 43.4465 50.0254 42.6139 50.0254 40.7677C50.0254 40.2608 50.0985 39.6816 50.2081 39.03C50.7197 35.953 51.6332 34.6135 54.5198 34.6135C55.4699 34.6135 56.2737 34.7221 56.8218 34.9031L56.3834 36.496C55.7987 36.3874 55.2141 36.3512 54.5564 36.3512C52.7659 36.3512 52.5101 37.5096 52.2543 39.0662C52.1813 39.573 52.1082 40.0074 52.1082 40.4057C52.1082 41.2383 52.437 41.7813 53.6794 41.7813C54.3006 41.7813 54.9583 41.7089 55.5429 41.6003L55.4699 43.1931C54.8487 43.3379 54.0083 43.4465 53.0582 43.4465Z" fill="white"/>
<path d="M58.1734 43.3708H56.3098L57.0772 38.5923C57.1502 38.1217 57.2233 37.7235 57.3329 37.2891C58.1368 36.8185 59.233 36.6375 60.1465 36.6375C60.4023 36.6375 60.6581 36.6375 60.8773 36.6737L60.4754 38.2303C60.3658 38.2303 60.1831 38.1941 60.0369 38.1941C59.708 38.1941 59.2696 38.2665 59.0503 38.3751C58.9772 38.6285 58.9042 38.9543 58.8676 39.2801L58.1734 43.3708Z" fill="white"/>
<path d="M64.2754 36.6382C66.1755 36.6382 66.7602 37.4346 66.7602 38.774C66.7602 39.136 66.7236 39.5342 66.6505 39.9686C66.614 40.1496 66.5775 40.3668 66.5409 40.5478C65.7736 40.6927 64.4216 40.8375 63.5081 40.8737L62.485 40.9461C62.485 41.0185 62.485 41.0909 62.485 41.1271C62.485 41.7425 62.8869 41.9235 63.6908 41.9235C64.6043 41.9235 65.4082 41.8149 66.1024 41.7425L66.0294 43.1905C65.3351 43.2991 64.3485 43.4439 63.0696 43.4439C61.2791 43.4439 60.658 42.5027 60.658 41.1271C60.658 40.8013 60.6945 40.403 60.7676 40.041C61.1695 37.6518 62.083 36.6382 64.2754 36.6382ZM63.5812 39.5704C63.9466 39.5342 64.5312 39.498 64.8235 39.4618C64.8235 39.3894 64.8601 39.317 64.8601 39.2446C64.8966 39.136 64.8966 38.9912 64.8966 38.8826C64.8966 38.3758 64.6408 38.1224 64.0197 38.1224C62.9965 38.1224 62.7773 38.7378 62.6311 39.6066L63.5812 39.5704ZM65.0428 35.9503H63.6177L65.0793 33.9231H66.9429L65.0428 35.9503Z" fill="white"/>
<path d="M72.4974 34.176H74.3975L73.2282 41.5248C73.1551 41.9954 73.082 42.3936 72.9724 42.828C72.1685 43.2986 71.0723 43.4796 70.1588 43.4796C68.2953 43.4796 67.4548 42.9366 67.4548 41.2352C67.4548 40.9094 67.4914 40.5111 67.5644 40.0767C67.9664 37.5065 69.0261 36.6739 71.0723 36.6739C71.4012 36.6739 71.8031 36.7101 72.0954 36.7825L72.4974 34.176ZM69.428 40.0405C69.3915 40.3301 69.3549 40.6197 69.3549 40.9094C69.3549 41.4886 69.5742 41.9592 70.4146 41.9592C70.7069 41.9592 71.0358 41.923 71.255 41.8144C71.3281 41.561 71.4012 41.2352 71.4377 40.9094L71.8762 38.2667C71.6935 38.1943 71.4012 38.1581 71.1819 38.1581C69.7569 38.1581 69.5742 38.9907 69.428 40.0405Z" fill="white"/>
<path d="M75.3841 36.7459H77.2842L76.2246 43.3706H74.3245L75.3841 36.7459ZM77.6862 35.1169C77.5766 35.8409 77.2477 36.1305 76.4438 36.1305C75.7495 36.1305 75.4938 35.9495 75.4938 35.4427C75.4938 35.3341 75.4938 35.2255 75.5303 35.1169C75.6399 34.3929 75.9688 34.1033 76.7727 34.1033C77.4669 34.1033 77.7227 34.3205 77.7227 34.7911C77.7227 34.8635 77.7227 34.9721 77.6862 35.1169Z" fill="white"/>
<path d="M81.3057 34.8623L81.0134 36.7447H82.2923L82.073 38.229H80.7941L80.2826 41.3422C80.2826 41.4146 80.2826 41.487 80.2826 41.5232C80.2826 41.849 80.4653 42.0301 80.8672 42.0301C81.0499 42.0301 81.2691 42.0301 81.4884 41.9939L81.4153 43.3333C81.0134 43.4057 80.5383 43.4781 80.1364 43.4781C78.894 43.4781 78.3459 43.0075 78.3459 42.0663C78.3459 41.9214 78.3459 41.7404 78.3825 41.5594L78.9306 38.229H77.9075L78.1267 36.7447H79.1498L79.4056 35.1881L81.3057 34.8623Z" fill="white"/>
<path d="M82.4724 40.0403C82.8744 37.5787 83.7878 36.6375 85.9802 36.6375C87.7707 36.6375 88.5015 37.2891 88.5015 38.8457C88.5015 39.2077 88.4649 39.6059 88.3919 40.0403C87.9899 42.502 87.0764 43.4432 84.884 43.4432C83.0936 43.4432 82.3628 42.8278 82.3628 41.2349C82.3628 40.9091 82.3993 40.5109 82.4724 40.0403ZM85.1398 41.9228C86.0168 41.9228 86.3091 41.5246 86.5283 40.0765C86.6014 39.6783 86.638 39.3525 86.638 39.0991C86.638 38.4475 86.3822 38.2303 85.761 38.2303C84.884 38.2303 84.6283 38.6285 84.3725 40.0765C84.2994 40.5109 84.2629 40.8367 84.2629 41.0901C84.2629 41.7056 84.5186 41.9228 85.1398 41.9228Z" fill="white"/>
<path d="M40.0119 38.6997C40.962 36.4191 40.8889 33.7402 39.61 32.8352C39.5369 32.799 39.4638 32.7266 39.3542 32.6904C37.9657 32.0388 36.6868 33.4144 36.2848 33.9574C35.8829 34.5004 35.4444 35.3331 35.3713 35.4779C36.2848 35.9123 38.3311 36.8897 40.0119 38.6997Z" fill="white"/>
<path d="M45.5656 36.9558C45.7483 37.2092 47.1733 38.9831 45.8213 41.0465C44.4694 43.1099 41.2904 45.4992 39.171 46.4404C37.0517 47.3816 35.3709 45.7888 34.6035 44.4494C34.567 44.5218 38.6229 42.7117 40.4134 39.9605C42.0577 37.4626 42.2039 33.8425 40.6692 32.7927C41.3269 33.1547 42.4596 33.9874 43.3366 34.7114C44.3232 35.544 45.3829 36.7024 45.5656 36.9558Z" fill="white"/>
<path d="M0 0H8.69655C13.4102 0 16.6623 2.17205 16.6623 7.13155C16.6623 12.2359 13.8852 14.4803 8.91579 14.4803H5.70026V21.6842H0V0ZM5.70026 9.9552H6.6503C8.69655 9.9552 10.7428 9.95521 10.7428 7.31255C10.7428 4.5975 8.84271 4.56129 6.6503 4.56129H5.70026V9.9552Z" fill="white"/>
<path d="M37.1257 21.685H30.0369L24.6655 13.3588H24.5924V21.685H18.9287V0.000732422H27.4426C31.7543 0.000732422 35.0429 2.02797 35.0429 6.66167C35.0429 9.66633 33.3621 12.2366 30.2562 12.7796L37.1257 21.685ZM24.629 9.70253H25.1771C27.0406 9.70253 29.1234 9.34052 29.1234 6.98748C29.1234 4.63443 27.0406 4.27242 25.1771 4.27242H24.629V9.70253Z" fill="white"/>
<path d="M45.0538 21.685H39.3535V0.000732422H45.0538V21.685Z" fill="white"/>
<path d="M51.2305 0.000732422H56.8212L61.2791 11.585L65.9927 0.000732422H71.6199L74.9451 21.685H69.2448L67.6371 9.19572H67.6005L62.3387 21.685H60.0732L55.0672 9.19572H54.9942L53.1671 21.685H47.5034L51.2305 0.000732422Z" fill="white"/>
<path d="M83.7145 17.9201L82.2164 21.685H76.1873L84.5915 0.000732422H90.8033L99.0248 21.685H92.9591L91.5341 17.9201H83.7145ZM87.6608 6.69787H87.5878L85.2492 13.6122H89.9629L87.6608 6.69787Z" fill="white"/>
<path d="M102.787 8.94678L102.02 10.8292H99.0237L103.226 -0.0310059H106.332L110.461 10.8292H107.428L106.734 8.94678H102.787ZM104.797 3.37187L103.591 6.81094H105.966L104.797 3.37187Z" fill="white"/>
<path d="M114.408 2.39267V4.2027H117.514V6.59195H114.408V10.8636H111.558V0.00341797H117.843V2.39267H114.408Z" fill="white"/>
<path d="M119.669 0.00341797H124.017C126.356 0.00341797 128 1.08944 128 3.58729C128 6.15754 126.612 7.27977 124.127 7.27977H122.519V10.8636H119.669V0.00341797ZM122.519 4.96292H122.994C124.017 4.96292 125.041 4.96292 125.041 3.62349C125.041 2.24786 124.091 2.24786 122.994 2.24786H122.519V4.96292Z" fill="white"/>
</g>
<defs>
<clipPath id="clip0">
<rect width="128" height="46.7352" fill="white"/>
</clipPath>
</defs>
</svg>
