
<svg width="14" height="18" viewBox="0 0 14 18" fill="none" xmlns="http://www.w3.org/2000/svg">
<path d="M10.5211 10.7113H2.92105C2.6587 10.7113 2.44604 10.9239 2.44604 11.1863C2.44604 11.4486 2.6587 11.6612 2.92105 11.6612H10.5211C10.7834 11.6612 10.9961 11.4486 10.9961 11.1863C10.9961 10.9239 10.7834 10.7113 10.5211 10.7113Z" fill="#696158"/>
<path d="M2.92105 8.8112H6.95853C7.22088 8.8112 7.43354 8.59854 7.43354 8.3362C7.43354 8.07386 7.22088 7.8612 6.95853 7.8612H2.92105C2.6587 7.8612 2.44604 8.07386 2.44604 8.3362C2.44604 8.59854 2.6587 8.8112 2.92105 8.8112Z" fill="#696158"/>
<path d="M10.5211 13.5612H2.92105C2.6587 13.5612 2.44604 13.7739 2.44604 14.0363C2.44604 14.2986 2.6587 14.5113 2.92105 14.5113H10.5211C10.7834 14.5113 10.9961 14.2986 10.9961 14.0363C10.9961 13.7739 10.7834 13.5612 10.5211 13.5612Z" fill="#696158"/>
<path d="M13.4188 4.93998L8.33627 0.142514C8.25749 0.0543689 8.14571 0.002773 8.02751 0H1.97124C0.905907 0.0120012 0.0380037 0.858993 0 1.92373V15.6987C0.0385947 16.7556 0.913726 17.5886 1.97124 17.5749H11.7087C12.7187 17.5753 13.5378 16.7568 13.5381 15.7468C13.5381 15.7308 13.5379 15.7147 13.5375 15.6987V5.29625C13.5458 5.16655 13.5032 5.03872 13.4188 4.93998ZM8.3125 1.49624L12.1362 4.98749H8.85873C8.58689 5.00235 8.34918 4.80602 8.3125 4.53622V1.49624ZM11.7576 16.6237C11.7413 16.6246 11.7251 16.625 11.7088 16.625H1.97124C1.43791 16.639 0.987915 16.2309 0.950002 15.6988V1.92373C0.986779 1.38364 1.43 0.961049 1.97124 0.950002H7.36249V4.53626C7.40086 5.33084 8.06338 5.95126 8.85873 5.93749H12.5875V15.6988C12.6137 16.1834 12.2422 16.5975 11.7576 16.6237Z" fill="#696158"/>
</svg>