<svg width="34" height="34" viewBox="0 0 34 34" fill="none" xmlns="http://www.w3.org/2000/svg">
<rect x="1" y="1" width="32" height="32" rx="5" fill="none" stroke="#D0D0D0" stroke-width="1.5"/>
<path d="M21.2169 8.89498C17.7518 7.26175 13.6022 7.95955 10.8617 10.7001C9.02513 12.5366 8.09001 15.0105 8.19356 17.5266H6.23866L9.51047 23.6057L12.7826 17.5266H10.6369C10.5387 15.6517 11.2321 13.7868 12.5903 12.4287C14.5924 10.4265 17.642 9.9069 20.176 11.1011L21.2169 8.89498ZM25.138 10.7199L28.4102 16.7989H26.4553C26.5594 19.3047 25.6334 21.7792 23.7871 23.6255C21.0721 26.3409 16.9876 27.0506 13.5374 25.4781L14.5496 23.2626C17.0688 24.4102 20.0819 23.8732 22.0585 21.8969C23.4179 20.5375 24.1088 18.666 24.0131 16.7989H21.8659L25.138 10.7199Z" fill="#D0D0D0"/>
</svg>
