<svg width="34" height="34" viewBox="0 0 34 34" fill="none" xmlns="http://www.w3.org/2000/svg">
<rect x="1" y="1" width="32" height="32" rx="5" fill="white" stroke="#00A499" stroke-width="1.5"/>
<path fill-rule="evenodd" clip-rule="evenodd" d="M22.3194 20.4331C23.5664 18.8255 24.1541 16.8031 23.9629 14.7776C23.7717 12.752 22.8161 10.8753 21.2904 9.52936C19.7646 8.18339 17.7834 7.46922 15.7498 7.53215C13.7162 7.59508 11.783 8.43037 10.3434 9.8681C8.90256 11.3068 8.06454 13.2408 8.0001 15.276C7.93567 17.3111 8.64968 19.2942 9.99663 20.8212C11.3436 22.3482 13.2221 23.3041 15.2494 23.4942C17.2767 23.6842 19.3001 23.0941 20.9074 21.8441L20.9504 21.8891L25.1924 26.1321C25.2853 26.225 25.3956 26.2987 25.517 26.349C25.6384 26.3993 25.7685 26.4252 25.8999 26.4252C26.0313 26.4252 26.1614 26.3993 26.2828 26.349C26.4042 26.2987 26.5145 26.225 26.6074 26.1321C26.7003 26.0392 26.774 25.9289 26.8243 25.8075C26.8746 25.6861 26.9005 25.556 26.9005 25.4246C26.9005 25.2932 26.8746 25.1631 26.8243 25.0417C26.774 24.9203 26.7003 24.81 26.6074 24.7171L22.3644 20.4751C22.3498 20.4607 22.3348 20.4467 22.3194 20.4331ZM20.2434 11.2831C20.808 11.8386 21.257 12.5004 21.5646 13.2302C21.8722 13.9601 22.0322 14.7437 22.0354 15.5357C22.0386 16.3278 21.885 17.1126 21.5834 17.845C21.2818 18.5773 20.8382 19.2427 20.2781 19.8028C19.718 20.3629 19.0526 20.8065 18.3203 21.1081C17.5879 21.4097 16.8031 21.5633 16.011 21.5601C15.219 21.5569 14.4354 21.3969 13.7055 21.0893C12.9757 20.7817 12.3139 20.3327 11.7584 19.7681C10.6483 18.6398 10.0291 17.1185 10.0355 15.5357C10.042 13.9529 10.6736 12.4367 11.7928 11.3175C12.912 10.1983 14.4282 9.56665 16.011 9.5602C17.5938 9.55376 19.1151 10.173 20.2434 11.2831Z" fill="#00A499"/>
</svg>

