<svg xmlns="http://www.w3.org/2000/svg" xmlns:xlink="http://www.w3.org/1999/xlink" width="24" height="24" viewBox="0 0 24 24">
    <defs>
        <path id="yyylvlmbna" d="M0 0L24 0 24 24 0 24z"/>
    </defs>
    <g fill="none" fill-rule="evenodd">
        <g>
            <g>
                <g>
                    <g transform="translate(-360 -608) translate(320 590) translate(40 18)">
                        <mask id="69jnnsg8gb" fill="#fff">
                            <use xlink:href="#yyylvlmbna"/>
                        </mask>
                        <path fill="#00A499" d="M12 4.07c-2.521 0-4.565 2.044-4.565 4.566 0 2.52 2.044 4.565 4.565 4.565 2.521 0 4.565-2.044 4.565-4.565 0-2.522-2.044-4.566-4.565-4.566m7.5 16.095v-.703c0-6.615-15-6.615-15 0v.703C2.295 18.14.913 15.231.913 12 .913 5.877 5.877.913 12 .913 18.124.913 23.087 5.877 23.087 12c0 3.23-1.382 6.139-3.587 8.165M12 0C5.383 0 0 5.36 0 12c0 3.415 1.43 6.585 3.883 8.838 4.585 4.213 11.641 4.22 16.235 0C22.568 18.585 24 15.417 24 12c0-6.63-5.373-12-12-12" mask="url(#69jnnsg8gb)"/>
                    </g>
                </g>
            </g>
        </g>
    </g>
</svg>
