<svg width="18" height="10" viewBox="0 0 18 10" fill="none" xmlns="http://www.w3.org/2000/svg">
<path d="M9.686 1.25356C9.59594 1.17316 9.489 1.10937 9.37129 1.06585C9.25358 1.02234 9.1274 0.999939 8.99998 0.999939C8.87255 0.999939 8.74638 1.02234 8.62867 1.06585C8.51096 1.10937 8.40402 1.17316 8.31396 1.25356L1.28411 7.52296C1.10217 7.68523 0.999956 7.9053 0.999956 8.13477C0.999956 8.36424 1.10217 8.58432 1.28411 8.74658C1.46606 8.90884 1.71282 9 1.97013 9C2.22744 9 2.47421 8.90884 2.65615 8.74658L8.99998 3.08898L15.3438 8.74658C15.4339 8.82692 15.5409 8.89066 15.6586 8.93414C15.7763 8.97762 15.9024 9 16.0298 9C16.1572 9 16.2834 8.97762 16.4011 8.93414C16.5188 8.89066 16.6258 8.82692 16.7158 8.74658C16.8059 8.66624 16.8774 8.57086 16.9261 8.46588C16.9749 8.36091 17 8.2484 17 8.13477C17 8.02115 16.9749 7.90864 16.9262 7.80367C16.8774 7.69869 16.8059 7.60331 16.7158 7.52297L9.686 1.25356Z" fill="#00A499" stroke="#00A499" stroke-width="1.20161"/>
</svg>
