<?xml version="1.0" encoding="iso-8859-1"?>
<!-- Generator: Adobe Illustrator 19.0.0, SVG Export Plug-In . SVG Version: 6.00 Build 0)  -->
<svg version="1.1" id="Capa_1" xmlns="http://www.w3.org/2000/svg" xmlns:xlink="http://www.w3.org/1999/xlink" x="0px" y="0px"
	 viewBox="0 0 431.388 431.388" style="enable-background:new 0 0 431.388 431.388;" xml:space="preserve">
<g id="XMLID_11_" >
	<path id="XMLID_823_" d="M430.031,211.283c-0.449-1.46-11.37-36.156-43.314-70.763c-28.96-31.373-81.357-68.652-167.079-69.773
		c-1.283-0.033-2.568-0.054-3.856-0.054c-0.022,0-0.045,0.001-0.067,0.001c-0.007,0-0.014,0-0.02,0
		c-88.079,0-141.618,37.972-171.022,69.826c-31.945,34.606-42.866,69.303-43.315,70.763L0,215.694l1.357,4.411
		c0.449,1.46,11.37,36.156,43.315,70.763c28.96,31.373,81.356,68.652,167.079,69.773c1.283,0.033,2.568,0.054,3.856,0.054
		c0.022,0,0.045-0.001,0.067-0.001c0.007,0,0.014,0,0.021,0c88.079,0,141.618-37.972,171.023-69.826
		c31.944-34.606,42.865-69.303,43.314-70.763l1.357-4.411L430.031,211.283z M135.974,298.579
		c-21.591-20.762-34.093-48.686-35.202-78.629c-1.137-30.696,9.748-59.998,30.65-82.508c20.902-22.51,49.318-35.532,80.015-36.669
		c1.443-0.053,2.904-0.08,4.344-0.08c29.814,0,58.094,11.405,79.632,32.116c21.592,20.761,34.093,48.685,35.202,78.627
		c1.137,30.697-9.749,60-30.65,82.51c-20.902,22.51-49.318,35.532-80.016,36.669c-1.442,0.053-2.903,0.08-4.343,0.08
		C185.793,330.695,157.512,319.289,135.974,298.579z"/>
	<path id="XMLID_826_" d="M218.91,302.525c23.193-0.858,44.664-10.698,60.458-27.706c15.792-17.008,24.017-39.148,23.157-62.341
		c-0.837-22.624-10.283-43.724-26.599-59.412c-16.272-15.646-37.647-24.264-60.185-24.264c-1.083,0-2.173,0.02-3.264,0.061
		c-23.193,0.858-44.665,10.697-60.458,27.706c-15.793,17.008-24.017,39.148-23.158,62.34c0.838,22.625,10.284,43.725,26.6,59.413
		c16.272,15.646,37.646,24.264,60.184,24.264C216.729,302.586,217.819,302.566,218.91,302.525z M215.694,200.694
		c0-8.284,6.716-15,15-15s15,6.716,15,15c0,8.284-6.716,15-15,15S215.694,208.978,215.694,200.694z"/>
</g>
<g>
</g>
<g>
</g>
<g>
</g>
<g>
</g>
<g>
</g>
<g>
</g>
<g>
</g>
<g>
</g>
<g>
</g>
<g>
</g>
<g>
</g>
<g>
</g>
<g>
</g>
<g>
</g>
<g>
</g>
</svg>
