<svg width="87" height="84" viewBox="0 0 87 84" fill="none" xmlns="http://www.w3.org/2000/svg">
<path d="M37.9428 77.56C58.8981 77.56 75.8857 60.1976 75.8857 38.78C75.8857 17.3624 58.8981 0 37.9428 0C16.9876 0 0 17.3624 0 38.78C0 60.1976 16.9876 77.56 37.9428 77.56Z" fill="#E1F3F2"/>
<path d="M38.0259 55.8906C39.0286 55.3725 40.2298 55.7611 40.7642 56.7691L44.5494 63.9321C44.8414 64.484 45.4613 64.7627 46.0563 64.6079C46.6514 64.453 47.0674 63.9068 47.0674 63.2789V52.8215C47.0674 52.0641 46.4668 51.4531 45.7257 51.4531C44.9847 51.4531 44.3869 52.0669 44.3869 52.8215V57.8616L43.1224 55.4682C41.8937 53.1453 39.1251 52.2556 36.8192 53.4466C34.844 54.4659 33.8274 56.71 34.3481 58.9062L36.8027 69.3016C37.3757 71.7315 38.3978 73.9868 39.8413 76.0056L44.6486 82.7294C44.9103 83.0954 45.318 83.2925 45.7312 83.2925C46.0067 83.2925 46.2822 83.2053 46.5219 83.0279C47.1197 82.5802 47.2492 81.7242 46.8139 81.1132L42.0067 74.3894C40.7725 72.6634 39.8992 70.7375 39.4088 68.6596L36.9542 58.2642C36.7283 57.3097 37.1691 56.3327 38.0259 55.8906Z" fill="#00A499"/>
<path d="M68.2844 50.0529C67.4938 50.0529 66.7499 50.2612 66.0998 50.6244C65.4414 48.8731 63.7802 47.6258 61.838 47.6258C61.0005 47.6258 60.2154 47.8595 59.5405 48.2621C58.8187 46.6572 57.2319 45.5394 55.3944 45.5394C54.7222 45.5394 54.0858 45.6886 53.5128 45.9561V39.4069C53.5128 36.8362 51.4659 34.7441 48.9507 34.7441C46.4355 34.7441 44.3887 36.8362 44.3887 39.4069V41.7805C44.3887 42.5379 44.9892 43.1489 45.7275 43.1489C46.4686 43.1489 47.0664 42.5351 47.0664 41.7805V39.4069C47.0664 38.3454 47.9121 37.4838 48.948 37.4838C49.9866 37.4838 50.8296 38.3482 50.8296 39.4069V58.7363C50.8296 59.4937 51.4301 60.1047 52.1684 60.1047C52.9095 60.1047 53.5073 59.4909 53.5073 58.7363V50.2021C53.5073 49.1406 54.3503 48.279 55.3889 48.279C56.4274 48.279 57.2704 49.1434 57.2704 50.2021V58.7363C57.2704 59.4937 57.871 60.1047 58.6093 60.1047C59.3476 60.1047 59.9482 59.4909 59.9482 58.7363V52.2885C59.9482 51.227 60.7912 50.3654 61.8297 50.3654C62.8683 50.3654 63.7113 51.2298 63.7113 52.2885V58.7363C63.7113 59.4937 64.3119 60.1047 65.0502 60.1047C65.7913 60.1047 66.3891 59.4909 66.3891 58.7363V54.7156C66.3891 53.6541 67.2348 52.7925 68.2706 52.7925C69.3092 52.7925 70.1522 53.6569 70.1522 54.7156V66.2738C70.1522 69.3542 69.6949 72.4063 68.7941 75.3431L66.9042 81.5037C66.6838 82.2245 67.075 82.9932 67.783 83.2213C67.9153 83.2635 68.0502 83.2832 68.1852 83.2832C68.7555 83.2832 69.2844 82.9087 69.4635 82.3231L71.3533 76.1624C72.3368 72.9582 72.8355 69.6301 72.8355 66.271V54.7128C72.8465 52.1449 70.7996 50.0529 68.2844 50.0529Z" fill="#00A499"/>
<path d="M86.373 20.4178C86.1058 19.5759 85.406 18.9762 84.552 18.8495L80.4473 18.2413L78.6098 14.4402C78.2268 13.6462 77.4527 13.1562 76.5877 13.1562C75.7227 13.1562 74.9485 13.649 74.5656 14.443L72.7309 18.2441L68.6261 18.8551C67.7693 18.9818 67.0724 19.5844 66.8051 20.4263C66.5379 21.2681 66.7583 22.172 67.3754 22.7886L70.3451 25.7479L69.6454 29.9263C69.4994 30.7991 69.8438 31.6607 70.5435 32.1816C70.9402 32.4744 71.4003 32.6237 71.8658 32.6237C72.224 32.6237 72.5849 32.5364 72.9182 32.3562L76.5904 30.3824L80.2627 32.3534C81.0285 32.7645 81.9376 32.6969 82.6374 32.176C83.3371 31.6551 83.6815 30.7907 83.5355 29.9207L82.833 25.7422L85.8027 22.783C86.4198 22.1635 86.6402 21.2569 86.373 20.4178Z" fill="#00A499"/>
<path d="M80.8009 23.9365C80.2692 24.4658 80.0268 25.2288 80.1535 25.9778L80.7486 29.5143L77.6411 27.8446C76.9827 27.4898 76.1975 27.4926 75.5419 27.8446L72.4344 29.5143L73.0267 25.9778C73.1506 25.2288 72.9082 24.4658 72.3765 23.9365L69.8613 21.4333L73.3352 20.9153C74.0708 20.8054 74.7044 20.3352 75.0322 19.6538L76.586 16.4355L78.1397 19.6538C78.4675 20.3352 79.1039 20.8054 79.8395 20.9153L83.3134 21.4305L80.8009 23.9365Z" fill="white"/>
<path d="M56.3849 23.9365C55.8532 24.4658 55.6108 25.2288 55.7375 25.9778L56.3326 29.5143L53.2251 27.8446C52.5667 27.4898 51.7815 27.4926 51.1259 27.8446L48.0184 29.5143L48.6107 25.9778C48.7346 25.2288 48.4922 24.4658 47.9605 23.9365L45.4453 21.4333L48.9192 20.9153C49.6548 20.8054 50.2884 20.3352 50.6162 19.6538L52.17 16.4355L53.7237 19.6538C54.0515 20.3352 54.6879 20.8054 55.4235 20.9153L58.8974 21.4305L56.3849 23.9365Z" fill="white"/>
<path d="M31.9767 23.9365C31.445 24.4658 31.2026 25.2288 31.3293 25.9778L31.9244 29.5143L28.8169 27.8446C28.1584 27.4898 27.3733 27.4926 26.7177 27.8446L23.6102 29.5143L24.2025 25.9778C24.3264 25.2288 24.084 24.4658 23.5523 23.9365L21.0371 21.4333L24.511 20.9153C25.2466 20.8054 25.8802 20.3352 26.208 19.6538L27.7617 16.4355L29.3155 19.6538C29.6433 20.3352 30.2797 20.8054 31.0153 20.9153L34.4891 21.4305L31.9767 23.9365Z" fill="white"/>
<path d="M61.9589 20.4178C61.6917 19.5759 60.9947 18.9762 60.1379 18.8495L56.0332 18.2413L54.1957 14.4402C53.8128 13.6462 53.0387 13.1562 52.1736 13.1562C51.3086 13.1562 50.5345 13.649 50.1515 14.443L48.3168 18.2441L44.212 18.8551C43.3553 18.9818 42.6583 19.5844 42.3911 20.4263C42.1239 21.2681 42.3442 22.172 42.9613 22.7886L45.9311 25.7479L45.2313 29.9263C45.0853 30.7991 45.4297 31.6607 46.1294 32.1816C46.5261 32.4744 46.9862 32.6237 47.4518 32.6237C47.8099 32.6237 48.1708 32.5364 48.5041 32.3562L52.1764 30.3796L55.8486 32.3506C56.6145 32.7616 57.5236 32.6941 58.2233 32.1732C58.923 31.6523 59.2674 30.7879 59.1214 29.9178L58.4189 25.7394L61.3887 22.7802C62.0085 22.1635 62.2261 21.2569 61.9589 20.4178ZM56.3886 23.9374C55.8569 24.4667 55.6145 25.2298 55.7412 25.9787L56.3362 29.5152L53.2287 27.8455C52.5703 27.4936 51.7852 27.4936 51.1295 27.8455L48.022 29.5152L48.6143 25.9787C48.7383 25.2298 48.4959 24.4667 47.9642 23.9374L45.449 21.4343L48.9229 20.9162C49.6584 20.8064 50.292 20.3362 50.6226 19.6548L52.1764 16.4365L53.7301 19.6548C54.058 20.3362 54.6943 20.8064 55.4299 20.9162L58.9038 21.4315L56.3886 23.9374Z" fill="#00A499"/>
<path d="M37.5473 20.4178C37.2801 19.5759 36.5803 18.9762 35.7263 18.8495L31.6216 18.2413L29.7841 14.4402C29.4011 13.6462 28.627 13.1562 27.762 13.1562C26.897 13.1562 26.1228 13.649 25.7399 14.443L23.9052 18.2441L19.8004 18.8551C18.9436 18.9818 18.2467 19.5844 17.9794 20.4263C17.7122 21.2681 17.9299 22.172 18.5497 22.7914L21.5194 25.7507L20.8197 29.9291C20.6737 30.802 21.0181 31.6635 21.7178 32.1844C22.1145 32.4773 22.5746 32.6265 23.0401 32.6265C23.3983 32.6265 23.7592 32.5392 24.0925 32.359L27.7647 30.3796L31.437 32.3506C32.2028 32.7617 33.1119 32.6941 33.8117 32.1732C34.5114 31.6523 34.8558 30.7879 34.7098 29.9178L34.0073 25.7394L36.977 22.7802C37.5969 22.1635 37.8145 21.2569 37.5473 20.4178ZM31.9769 23.9374C31.4453 24.4667 31.2028 25.2298 31.3295 25.9787L31.9246 29.5152L28.8171 27.8455C28.1587 27.4936 27.3735 27.4936 26.7179 27.8455L23.6104 29.518L24.2027 25.9816C24.3294 25.2326 24.0842 24.4695 23.5525 23.9402L21.0373 21.4343L24.5112 20.9162C25.2468 20.8064 25.8804 20.3362 26.2082 19.6548L27.762 16.4365L29.3157 19.6548C29.6436 20.3362 30.2799 20.8064 31.0155 20.9162L34.4921 21.4315L31.9769 23.9374Z" fill="#00A499"/>
<path d="M46.678 46.4573C46.43 46.2011 46.0829 46.0547 45.7303 46.0547C45.3777 46.0547 45.0333 46.2011 44.7826 46.4573C44.5319 46.7136 44.3887 47.0655 44.3887 47.4259C44.3887 47.7863 44.5319 48.1383 44.7826 48.3945C45.0306 48.6479 45.3777 48.7971 45.7303 48.7971C46.0829 48.7971 46.4273 48.6507 46.678 48.3945C46.9259 48.1411 47.0719 47.7863 47.0719 47.4259C47.0692 47.0655 46.9259 46.7107 46.678 46.4573Z" fill="#00A499"/>
</svg>
