<svg xmlns="http://www.w3.org/2000/svg" xmlns:xlink="http://www.w3.org/1999/xlink" width="329" height="245" viewBox="0 0 329 245">
    <defs>
        <path id="pstxc1xb1a" d="M0 245L329 245 329 0.257 0 0.257z"/>
    </defs>
    <g fill="none" fill-rule="evenodd">
        <g>
            <g>
                <g>
                    <path fill="#ECECEC" d="M0 215.625L329 215.625 329 215.375 0 215.375z" transform="translate(-838 -100) translate(838 100)"/>
                    <g transform="translate(-838 -100) translate(838 100)">
                        <path fill="#ECECEC" d="M28.896.421c-1.98 0-3.591 1.608-3.591 3.585v178.286c0 1.977 1.611 3.585 3.59 3.585h127.06c1.98 0 3.59-1.608 3.59-3.585V4.006c0-1.977-1.61-3.585-3.59-3.585H28.895zm127.06 185.62H28.895c-2.07 0-3.756-1.681-3.756-3.75V4.007c0-2.067 1.685-3.75 3.756-3.75h127.06c2.07 0 3.754 1.683 3.754 3.75v178.286c0 2.068-1.684 3.75-3.755 3.75zM171.22.421c-1.98 0-3.591 1.608-3.591 3.585v178.286c0 1.977 1.61 3.585 3.59 3.585h127.059c1.98 0 3.592-1.608 3.592-3.585V4.006c0-1.977-1.611-3.585-3.592-3.585H171.22zm127.058 185.62H171.22c-2.071 0-3.756-1.681-3.756-3.75V4.007c0-2.067 1.685-3.75 3.756-3.75h127.058c2.071 0 3.757 1.683 3.757 3.75v178.286c0 2.068-1.686 3.75-3.757 3.75z"/>
                        <mask id="sx0n155jab" fill="#fff">
                            <use xlink:href="#pstxc1xb1a"/>
                        </mask>
                        <path fill="#ECECEC" d="M275.263 221.755L296.035 221.755 296.035 221.591 275.263 221.591zM198.667 219.973L220.65 219.973 220.65 219.808 198.667 219.808zM260.954 227.855L302.035 227.855 302.035 227.69 260.954 227.69zM34.518 226.751L47.174 226.751 47.174 226.587 34.518 226.587zM53.033 226.751L72.965 226.751 72.965 226.587 53.033 226.587zM124.742 223.977L160.64 223.977 160.64 223.813 124.742 223.813z" mask="url(#sx0n155jab)"/>
                        <path fill="#E7E7E7" d="M182.429 126.947L280.066 126.947 280.066 24.099 182.429 24.099zM171.966 20.77h114.42c.535 0 .97.433.97.968 0 .535-.435.967-.97.967h-114.42c-.535 0-.969-.432-.969-.967 0-.535.434-.968.97-.968" mask="url(#sx0n155jab)"/>
                        <path fill="#F0F0F0" d="M178.286 126.947L278.13 126.947 278.13 24.099 178.286 24.099z" mask="url(#sx0n155jab)"/>
                        <path fill="#E7E7E7" d="M182.429 130.79L280.066 130.79 280.066 126.947 182.429 126.947z" mask="url(#sx0n155jab)"/>
                        <path fill="#F0F0F0" d="M171.385 130.79L271.228 130.79 271.228 126.947 171.385 126.947z" mask="url(#sx0n155jab)"/>
                        <path fill="#FAFAFA" d="M184.087 121.158L272.33 121.158 272.33 29.889 184.087 29.889z" mask="url(#sx0n155jab)"/>
                        <path fill="#FFF" d="M252.298 121.158L218.256 29.888 202.186 29.888 236.229 121.158zM232.776 121.158L198.734 29.888 192.469 29.888 226.511 121.158z" mask="url(#sx0n155jab)"/>
                        <path fill="#E7E7E7" d="M184.086 121.158L184.823 121.158 184.823 29.889 184.086 29.889z" mask="url(#sx0n155jab)"/>
                        <g mask="url(#sx0n155jab)">
                            <g>
                                <path fill="#F0F0F0" d="M33.308 93.678L0.079 93.68 1.966 0.52 35.195 0.518z" transform="translate(173.712 18.391)"/>
                                <path fill="#E7E7E7" d="M46.252 93.677L20.363 93.679 22.251 0.518 48.14 0.517z" transform="translate(173.712 18.391)"/>
                                <path fill="#F0F0F0" d="M66.537 93.676L33.308 93.678 35.195 0.518 68.425 0.516z" transform="translate(173.712 18.391)"/>
                                <path fill="#E7E7E7" d="M79.481 93.675L53.592 93.677 55.48 0.516 81.369 0.515z" transform="translate(173.712 18.391)"/>
                                <path fill="#F0F0F0" d="M99.766 93.674L66.537 93.676 68.425 0.515 101.654 0.514z" transform="translate(173.712 18.391)"/>
                            </g>
                        </g>
                        <path fill="#FFF" d="M103.559 108.907L124.868 108.907 124.868 79.131 103.559 79.131zM77.92 111.508L99.229 111.508 100.761 81.732 79.452 81.732z" mask="url(#sx0n155jab)"/>
                        <path fill="#F0F0F0" d="M41.093 215.335L77.622 215.335 77.622 124.43 41.093 124.43z" mask="url(#sx0n155jab)"/>
                        <path fill="#E7E7E7" d="M43.099 153.469L75.617 153.469 75.617 126.71 43.099 126.71zM43.099 182.631L75.617 182.631 75.617 155.871 43.099 155.871zM43.099 211.792L75.617 211.792 75.617 185.033 43.099 185.033z" mask="url(#sx0n155jab)"/>
                        <path fill="#E1E1E1" d="M43.098 153.469L55.889 153.469 55.889 126.71 43.098 126.71zM43.098 182.631L55.889 182.631 55.889 155.871 43.098 155.871zM43.098 211.792L55.889 211.792 55.889 185.033 43.098 185.033z" mask="url(#sx0n155jab)"/>
                        <path fill="#F5F5F5" d="M77.622 215.335L87.541 215.335 87.541 124.43 77.622 124.43z" mask="url(#sx0n155jab)"/>
                        <path fill="#F0F0F0" d="M80.146 215.335L116.675 215.335 116.675 124.43 80.146 124.43z" mask="url(#sx0n155jab)"/>
                        <path fill="#E7E7E7" d="M82.152 153.469L114.67 153.469 114.67 126.71 82.152 126.71zM82.152 182.631L114.67 182.631 114.67 155.871 82.152 155.871zM82.152 211.792L114.67 211.792 114.67 185.033 82.152 185.033z" mask="url(#sx0n155jab)"/>
                        <path fill="#E1E1E1" d="M82.152 153.469L94.942 153.469 94.942 126.71 82.152 126.71zM82.152 182.631L94.942 182.631 94.942 155.871 82.152 155.871zM82.152 211.792L94.942 211.792 94.942 185.033 82.152 185.033z" mask="url(#sx0n155jab)"/>
                        <path fill="#F5F5F5" d="M116.675 215.335L126.593 215.335 126.593 124.43 116.675 124.43z" mask="url(#sx0n155jab)"/>
                        <path fill="#F0F0F0" d="M69.765 177.373c0 2.904-3.76 5.258-8.397 5.258-4.638 0-8.397-2.354-8.397-5.258h16.794z" mask="url(#sx0n155jab)"/>
                        <path fill="#F0F0F0" d="M69.765 173.443c0 2.904-3.76 5.258-8.397 5.258-4.638 0-8.397-2.354-8.397-5.258h16.794z" mask="url(#sx0n155jab)"/>
                        <path fill="#FAFAFA" d="M109.884 148.212c0 2.904-4.7 5.258-10.5 5.258-5.798 0-10.498-2.354-10.498-5.258h20.998z" mask="url(#sx0n155jab)"/>
                        <path fill="#FAFAFA" d="M109.884 144.281c0 2.904-4.7 5.258-10.5 5.258-5.798 0-10.498-2.354-10.498-5.258h20.998z" mask="url(#sx0n155jab)"/>
                        <path fill="#F0F0F0" d="M84.359 211.792L110.763 211.792 110.763 188.89 84.359 188.89z" mask="url(#sx0n155jab)"/>
                        <path fill="#E1E1E1" d="M110.763 211.792L114.67 211.792 114.67 188.89 110.763 188.89z" mask="url(#sx0n155jab)"/>
                        <path fill="#F0F0F0" d="M45.306 153.469L71.71 153.469 71.71 130.567 45.306 130.567z" mask="url(#sx0n155jab)"/>
                        <path fill="#E1E1E1" d="M71.71 153.469L75.617 153.469 75.617 130.567 71.71 130.567z" mask="url(#sx0n155jab)"/>
                        <path fill="#E7E7E7" d="M176.096 215.335L181.219 215.335 181.219 167.218 176.096 167.218z" mask="url(#sx0n155jab)"/>
                        <path fill="#F0F0F0" d="M174.725 215.335L177.742 215.335 177.742 167.218 174.725 167.218z" mask="url(#sx0n155jab)"/>
                        <path fill="#F0F0F0" d="M173.79 172.547L246.547 172.547 246.547 167.217 173.79 167.217z" mask="url(#sx0n155jab)"/>
                        <path fill="#E7E7E7" d="M279.08 215.335L284.203 215.335 284.203 167.218 279.08 167.218z" mask="url(#sx0n155jab)"/>
                        <path fill="#F0F0F0" d="M278.119 215.335L281.137 215.335 281.137 167.218 278.119 167.218z" mask="url(#sx0n155jab)"/>
                        <path fill="#E7E7E7" d="M248.74 172.547L285.119 172.547 285.119 167.217 248.74 167.217z" mask="url(#sx0n155jab)"/>
                        <path fill="#E7E7E7" d="M246.984 215.335L252.107 215.335 252.107 167.218 246.984 167.218z" mask="url(#sx0n155jab)"/>
                        <path fill="#F0F0F0" d="M245.613 215.335L248.631 215.335 248.631 167.218 245.613 167.218z" mask="url(#sx0n155jab)"/>
                        <path fill="#F5F5F5" d="M292.08 237.562c0 4.108-57.12 7.438-127.58 7.438-70.46 0-127.579-3.33-127.579-7.438 0-4.107 57.12-7.437 127.58-7.437 70.46 0 127.578 3.33 127.578 7.437" mask="url(#sx0n155jab)"/>
                        <path fill="#1A2E35" d="M196.618 230.598L187.31 229.526 187.31 176.25 179.339 176.25 179.339 229.526 170.032 230.598 169.224 233.24 197.426 233.24z" mask="url(#sx0n155jab)"/>
                        <path fill="#00A499" d="M196.618 230.598L187.31 229.526 187.31 176.25 179.339 176.25 179.339 229.526 170.032 230.598 169.224 233.24 197.426 233.24z" mask="url(#sx0n155jab)"/>
                        <path fill="#007CFF" d="M180.917 104.559h41.449c-7.105 22.439-10.715 45.297-10.7 67.736H170.22c-.017-22.439 3.594-45.297 10.698-67.736" mask="url(#sx0n155jab)"/>
                        <path fill="#007069" d="M180.917 104.559h41.449c-7.105 22.439-10.715 45.297-10.7 67.736H170.22c-.017-22.439 3.594-45.297 10.698-67.736" mask="url(#sx0n155jab)"/>
                        <path fill="#00A499" d="M178.429 104.559h41.448c-7.105 22.439-10.714 45.297-10.699 67.736H167.73c-.016-22.439 3.594-45.297 10.699-67.736" mask="url(#sx0n155jab)"/>
                        <path fill="#007CFF" d="M202.184 178.651h-58.68c2.465-5.357 6.952-8.644 11.799-8.644h42.904l3.977 8.644z" mask="url(#sx0n155jab)"/>
                        <path fill="#007CFF" d="M214.104 178.651h-28.333c2.465-5.357 6.952-8.644 11.799-8.644h10.027c4.847 0 7.248 2.796 6.507 8.644" mask="url(#sx0n155jab)"/>
                        <path fill="#000" d="M214.104 178.651h-28.333c2.465-5.357 6.952-8.644 11.799-8.644h10.027c4.847 0 7.248 2.796 6.507 8.644" mask="url(#sx0n155jab)"/>
                        <path fill="#FFC4BE" d="M156.239 227.758L150.93 228.454 147.476 216.446 152.785 215.75z" mask="url(#sx0n155jab)"/>
                        <path fill="#007069" d="M150.264 227.069l5.959-.781c.217-.029.4.1.44.31l.909 4.668c.095.484-.303 1.006-.805 1.063-2.078.237-3.086.245-5.707.588-1.611.212-7.156.984-9.401.997-2.197.012-2.194-2.204-1.243-2.41 4.262-.924 7.635-2.62 8.978-3.99.242-.247.553-.404.87-.445M152.787 215.754L147.476 216.45 149.259 222.639 154.57 221.942z" mask="url(#sx0n155jab)"/>
                        <path fill="#007069" d="M173.662 150.77s-41.624 2.976-39.945 18.197c2.414 21.878 11.87 50.606 11.87 50.606l9.657-1.656s-4.069-26.504-6.215-43.551c10.386-4.299 38.545-.182 41.853-9.134 2.706-7.323 1.243-14.461 1.243-14.461h-18.463z" mask="url(#sx0n155jab)"/>
                        <path fill="#000" d="M153.382 163.443s1.01 4.523 1.703 9.436c-.03.007-.066.007-.095.014-.36.05-.72.109-1.067.166-.18.036-.368.065-.541.1-.21.037-.412.08-.614.116-.887.18-1.717.39-2.474.634-.195.057-.376.122-.556.187-.246.08-.483.173-.707.266.245 1.953 1.086 4.539 1.092 6.786-9.26-10.92-1.626-17.705 3.259-17.705" mask="url(#sx0n155jab)"/>
                        <path fill="#00A499" d="M156.728 220.108L145.406 221.592 143.876 217.526 155.218 214.99z" mask="url(#sx0n155jab)"/>
                        <path fill="#007CFF" d="M149.53 227.729c-.923.313-1.626.375-1.906.162-.116-.089-.163-.23-.146-.43.009-.092.045-.153.114-.19.331-.183 1.272.147 1.939.458m-1.026.509c.49-.065 1.02-.236 1.389-.375.047-.017.077-.06.08-.109.003-.05-.023-.095-.066-.118-.185-.095-1.822-.923-2.436-.584-.142.078-.226.212-.242.387-.026.289.056.507.243.65.238.18.622.203 1.032.149" mask="url(#sx0n155jab)"/>
                        <path fill="#007CFF" d="M148.86 225.819c.102-.014.194.01.279.073.36.266.518 1.131.57 1.637-.512-.329-1.15-1.1-1.119-1.489.005-.074.035-.165.212-.21.02-.005.039-.01.057-.011m1.008 2.051c.019-.003.038-.01.054-.022.035-.024.056-.065.053-.107-.003-.065-.084-1.604-.687-2.048-.162-.12-.346-.155-.546-.104-.24.061-.383.215-.4.432-.046.593.89 1.595 1.46 1.84.02.01.044.012.066.01" mask="url(#sx0n155jab)"/>
                        <path fill="#FFC4BE" d="M179.424 109.684c-.465 2.06-1.017 3.978-1.577 5.95-.577 1.953-1.196 3.895-1.875 5.824-.668 1.931-1.403 3.848-2.19 5.754-.783 1.91-1.657 3.798-2.598 5.674l-.167.333-.07.097c-.711 1.003-1.407 1.59-2.075 2.09-.67.492-1.311.87-1.945 1.212-1.265.686-2.514 1.173-3.752 1.625-1.244.433-2.482.798-3.73 1.105-1.257.302-2.482.56-3.798.735l-1.22-3.82 3.122-1.752c1.034-.588 2.056-1.172 3.031-1.78.98-.592 1.914-1.228 2.724-1.847.404-.309.775-.626 1.047-.917.27-.283.464-.56.426-.583l-.236.43c.712-1.747 1.371-3.536 2.01-5.348.618-1.822 1.22-3.658 1.792-5.511.56-1.857 1.12-3.72 1.653-5.591.547-1.855 1.05-3.778 1.547-5.583l7.881 1.903z" mask="url(#sx0n155jab)"/>
                        <path fill="#007CFF" d="M170.725 108.26c-4.35 4.983-7.227 11.956-7.227 11.956l11.37 6.839c3.286-3.995 7.382-14.565 7.55-18.132.259-5.48-7.006-6.032-11.693-.662" mask="url(#sx0n155jab)"/>
                        <path fill="#FFF" d="M170.725 108.26c-4.35 4.983-7.227 11.956-7.227 11.956l11.37 6.839c3.286-3.995 7.382-14.565 7.55-18.132.259-5.48-7.006-6.032-11.693-.662" mask="url(#sx0n155jab)"/>
                        <path fill="#007CFF" d="M174.732 113.345c-2.482 2.082-4.243 6.41-5.015 10.61l5.152 3.098c1.624-1.974 3.45-5.554 4.9-9.113-1.162-3.529-2.844-6.44-5.037-4.595" mask="url(#sx0n155jab)"/>
                        <path fill="#FFC4BE" d="M173.124 230.954L167.774 230.954 165.324 218.587 170.673 218.587z" mask="url(#sx0n155jab)"/>
                        <path fill="#007069" d="M167.608 229.655h6.01c.219 0 .384.151.397.365l.291 4.747c.03.492-.433.958-.937.95-2.091-.037-3.09-.16-5.734-.16-1.626 0-7.142.169-9.387.169-2.196 0-2.181-2.216-1.23-2.417 4.267-.9 8.158-2.142 9.669-3.325.272-.214.601-.329.921-.329M170.675 218.591L165.323 218.591 166.589 224.965 171.941 224.965z" mask="url(#sx0n155jab)"/>
                        <path fill="#007069" d="M184.142 150.77s-35.272 2.974-34.404 18.264c.95 16.742 14.529 54.392 14.529 54.392h9.798s-4.43-34.064-6.577-51.11c9.942 0 30.567 1.868 33.874-7.084 2.707-7.323.943-14.188.943-14.188l-18.163-.273z" mask="url(#sx0n155jab)"/>
                        <path fill="#00A499" d="M174.626 223.581L162.873 224.113 161.969 219.071 174.266 219.116z" mask="url(#sx0n155jab)"/>
                        <path fill="#007CFF" d="M166.795 230.214c-.958.19-1.662.16-1.912-.087-.104-.103-.132-.248-.089-.445.022-.09.065-.146.139-.175.351-.137 1.241.313 1.862.707m-1.083.371c.494 0 1.04-.101 1.426-.19.048-.012.084-.05.094-.098.009-.048-.011-.097-.052-.125-.17-.119-1.685-1.152-2.338-.897-.152.06-.252.182-.29.353-.064.283-.012.51.156.675.212.211.59.282 1.004.282" mask="url(#sx0n155jab)"/>
                        <path fill="#007CFF" d="M166.378 228.233c.104 0 .192.036.268.11.322.31.366 1.189.351 1.696-.465-.392-.996-1.239-.915-1.621.015-.073.057-.16.238-.182l.058-.003m.731 2.164c.02 0 .04-.004.057-.013.039-.02.064-.057.067-.1.006-.065.125-1.6-.414-2.12-.145-.14-.323-.199-.528-.174-.247.03-.407.163-.452.377-.124.582.674 1.697 1.206 2.013.02.012.042.017.064.017" mask="url(#sx0n155jab)"/>
                        <path fill="#FFC4BE" d="M156.958 136.396l-5.979-1.496.418 6.385s5.91.015 6.427-1.739l-.866-3.15z" mask="url(#sx0n155jab)"/>
                        <path fill="#FFC4BE" d="M146.431 138.014L147.841 142.021 151.397 141.284 150.979 134.9z" mask="url(#sx0n155jab)"/>
                        <path fill="#007CFF" d="M173.694 151.044h28.611c.202-2.55-.39-10.848.051-21.415.295-7.095 1.06-15.213 2.843-23.295.13-.576.26-1.145.396-1.721 0 0-1.45-.296-3.528-.599-1.724-.252-3.89-.51-6.01-.612-3.652-.173-8.942-.288-12.16 0-1.869.174-3.694.483-5.152.764-1.862.374-2.958.695-2.958.695s-7.05 16.153-2.093 46.183" mask="url(#sx0n155jab)"/>
                        <path fill="#BDDEDC" d="M202.305 151.044c.202-2.55-.39-10.848.051-21.415.295-7.095 1.06-15.213 2.843-23.295.13-.576.26-1.145.396-1.721 0 0-1.45-.296-3.528-.599-1.724-.252-3.89-.51-6.01-.612-3.652-.173-8.942-.288-12.16 0-1.869.174-3.694.483-5.152.764-1.862.374-2.958.695-2.958.695s-7.05 16.153-2.093 46.183h28.611z" mask="url(#sx0n155jab)"/>
                        <path fill="#007069" d="M202.355 129.631c.296-7.095 1.061-15.213 2.844-23.294-1.913-.166-5.181.021-5.722 3.104-.585 3.313-.626 11.052 2.878 20.19" mask="url(#sx0n155jab)"/>
                        <path fill="#FFC4BE" d="M207.416 108.309c.272.506.465.889.682 1.327.21.426.401.855.593 1.282.381.856.743 1.716 1.087 2.585.679 1.739 1.277 3.514 1.77 5.335.5 1.818.904 3.68 1.173 5.588.279 1.91.413 3.868.349 5.872l-.005.188-.02.371c-.015.266-.06.525-.109.783-.106.51-.272.997-.475 1.422-.409.86-.927 1.515-1.438 2.03-1.033 1.018-2.042 1.612-3.006 2.116-1.931.986-3.785 1.51-5.617 1.981-1.835.439-3.65.753-5.464.976-1.823.22-3.601.37-5.471.395l-.541-3.974c3.252-.959 6.59-1.974 9.617-3.213 1.508-.605 2.966-1.316 4.095-2.062.556-.366 1.013-.777 1.188-1.04.083-.128.085-.194.036-.135-.02.027-.057.092-.08.172-.017.041-.019.084-.031.13-.005.012-.005.07-.006.044l-.01-.142c-.176-3.014-.915-6.149-1.894-9.237-.5-1.544-1.054-3.085-1.665-4.609-.3-.763-.617-1.52-.947-2.268l-.504-1.11-.48-1.034 7.173-3.773z" mask="url(#sx0n155jab)"/>
                        <path fill="#007CFF" d="M205.596 104.613c-5.208-1.643-8.542 2.515-7.1 9.724 1.44 7.21 3.293 9.891 3.293 9.891l12.186-1.721c-1.002-7.068-3.046-16.213-8.38-17.894" mask="url(#sx0n155jab)"/>
                        <path fill="#BDDEDC" d="M198.495 114.337c1.441 7.21 3.294 9.891 3.294 9.891l12.186-1.721c-1.002-7.068-3.046-16.213-8.38-17.894-5.207-1.643-8.54 2.515-7.1 9.724z" mask="url(#sx0n155jab)"/>
                        <path fill="#FFC4BE" d="M195.797 89.788l-3.255 2.695-4.43 3.673c.13.597.23 1.203.281 1.786.238 2.4-.383 4.582-3.919 5.417 0 0-3.475 3.244 3.48 3.342 6.954.097 8.571-3.27 8.571-3.27-2.648-2.607-1.63-9.731-.728-13.643" mask="url(#sx0n155jab)"/>
                        <path fill="#FFF" d="M196.034 101.487s-3.638 3.792-8.428 5.216c1.849.333 3.107 2.03 3.137 3.668 3.44-1.02 7.525-6.185 7.415-7.144-1.041-.719-2.124-1.74-2.124-1.74M186.065 102.556s-3.25 2.723 1.54 4.147c-1.848.334-3.086 1.283-3.718 3.308-2.597-3.09-1.105-6.225-.532-7.002 1.262-.106 2.71-.453 2.71-.453" mask="url(#sx0n155jab)"/>
                        <path fill="#004944" d="M188.111 96.156c.13.598.231 1.203.282 1.786 1.652-.331 3.86-2.088 4.091-3.774.087-.634.101-1.246.058-1.686l-4.43 3.674zM183.868 77.791c-2.19 1.8-1.79 8.79.303 8.147 2.094-.642 3.3-11.11-.303-8.147" mask="url(#sx0n155jab)"/>
                        <path fill="#FFC4BE" d="M197.138 84.163c-1.13 5.193-1.528 8.28-4.601 10.65-4.622 3.564-10.747.398-11.196-4.973-.404-4.834 1.514-12.514 6.987-13.985 5.391-1.449 9.941 3.115 8.81 8.308" mask="url(#sx0n155jab)"/>
                        <path fill="#004944" d="M195.404 87.726c-.842-1.035-.902-3.676-.3-4.516-.903-.72-1.801-3.03-1.103-3.931-1.765-.12-10.892 2.07-12.712-4.473.946.3 2.861 0 2.861 0s-1.855-3.082 1.432-4.002c.482 1.56 4.45 1.718 6.414 1.64 4.038-.16 8.637 1.517 6.776 4.643 2.966 1.28 3.447 6.991-3.368 10.639" mask="url(#sx0n155jab)"/>
                        <path fill="#004944" d="M198.07 76.877s2.015.42 1.624-2.146c1.638 1.41.586 3.976-1.624 2.146" mask="url(#sx0n155jab)"/>
                        <path fill="#FFC4BE" d="M197.985 88.977c-.763 1-1.879 1.595-2.856 1.767-1.472.258-1.919-1.092-1.268-2.403.585-1.181 2.055-2.738 3.415-2.4 1.34.33 1.582 1.893.709 3.036" mask="url(#sx0n155jab)"/>
                        <path fill="#004944" d="M194.953 85.893s-.902 3.23-2.656 5.3-3.483 2.477-5.372 2.441c-1.888-.036-1.6-2.64-1.6-2.64l-.926-.211s.096 3.207-1.743 1.85c-.401-.295-.783-1.24-1.034-1.982-.192-.569-.303-1.16-.332-1.76-.448.708-.613 3.85.073 5.348.481 1.05 1.77 1.955 2.947 2.327 1.964.62 4.819.59 6.917-.24 3.36-1.328 3.846-4.545 3.967-6.385.12-1.84.63-4.048.63-4.048h-.871z" mask="url(#sx0n155jab)"/>
                        <path fill="#1A2E35" d="M188.229 84.638c-.066.426-.346.744-.626.711-.28-.033-.454-.406-.388-.831.066-.427.346-.744.626-.712.28.034.454.406.388.832M183.386 84.063c-.066.426-.346.744-.627.712-.28-.034-.453-.406-.387-.832.066-.426.346-.744.626-.711.28.033.454.406.388.831" mask="url(#sx0n155jab)"/>
                        <path fill="#FF857F" d="M184.862 84.234s-1.016 2.067-2.023 3.038c.597.636 1.725.417 1.725.417l.298-3.455z" mask="url(#sx0n155jab)"/>
                        <path fill="#1A2E35" d="M184.57 89.792c1.685.231 2.771-.687 2.82-.73.054-.046.059-.126.013-.179-.046-.052-.125-.058-.179-.012-.011.01-1.247 1.057-3.082.578-.069-.019-.137.022-.155.09-.018.067.023.136.09.154.17.044.335.077.494.099M190.978 81.999c.04-.01.079-.028.112-.058.105-.093.115-.253.021-.357-.92-1.033-2.08-.845-2.13-.836-.131.01-.23.154-.205.292.023.138.154.23.292.206.048-.008.942-.137 1.664.675.064.07.16.098.246.078M181.79 80.964c.078.022.166.006.233-.049.886-.735 1.797-.492 1.805-.49.135.038.276-.04.313-.174.038-.135-.04-.274-.174-.312h-.002c-.048-.014-1.178-.316-2.266.587-.108.09-.123.25-.033.356.033.041.077.068.125.082" mask="url(#sx0n155jab)"/>
                        <path fill="#FFC4BE" d="M191.923 136.358l-4.937-.003 2.391 5.254s4.861-.072 4.616-2.571l-2.07-2.68z" mask="url(#sx0n155jab)"/>
                        <path fill="#FFC4BE" d="M182.274 139.742L184.804 143.153 189.377 141.609 186.986 136.354z" mask="url(#sx0n155jab)"/>
                        <path fill="#00A499" d="M228.557 236.676L230.961 236.676 230.961 145.207 228.557 145.207z" mask="url(#sx0n155jab)"/>
                        <path fill="#007CFF" d="M242.739 236.676L245.143 236.676 245.143 145.207 242.739 145.207z" mask="url(#sx0n155jab)"/>
                        <path fill="#007069" d="M242.739 236.676L245.143 236.676 245.143 145.207 242.739 145.207z" mask="url(#sx0n155jab)"/>
                        <path fill="#00A499" d="M92.086 236.676L94.489 236.676 94.489 145.207 92.086 145.207z" mask="url(#sx0n155jab)"/>
                        <path fill="#007069" d="M92.086 145.207L94.489 145.207 94.489 206.663 92.086 201.301z" mask="url(#sx0n155jab)"/>
                        <path fill="#00A499" d="M77.903 236.676L80.307 236.676 80.307 145.207 77.903 145.207z" mask="url(#sx0n155jab)"/>
                        <path fill="#00A499" d="M77.903 198.712L230.961 198.712 230.961 145.207 77.903 145.207zM76.369 145.207L230.961 145.207 230.961 141.302 76.369 141.302z" mask="url(#sx0n155jab)"/>
                        <path fill="#007CFF" d="M230.961 198.712L245.143 198.712 245.143 145.207 230.961 145.207z" mask="url(#sx0n155jab)"/>
                        <path fill="#007069" d="M230.961 198.712L245.143 198.712 245.143 145.207 230.961 145.207z" mask="url(#sx0n155jab)"/>
                        <path fill="#007CFF" d="M230.961 145.207L246.677 145.207 246.677 141.302 230.961 141.302z" mask="url(#sx0n155jab)"/>
                        <path fill="#007069" d="M230.961 145.207L246.677 145.207 246.677 141.302 230.961 141.302zM77.903 147.928L245.143 147.928 245.143 145.207 77.903 145.207z" mask="url(#sx0n155jab)"/>
                        <path fill="#00A499" d="M173.63 130.801h-56.883c-2.165 0-4.017-1.769-4.116-3.93l-1.504-33c-.098-2.16 1.593-3.93 3.758-3.93h56.884c2.165 0 4.017 1.77 4.116 3.93l1.504 33c.098 2.161-1.593 3.93-3.758 3.93" mask="url(#sx0n155jab)"/>
                        <path fill="#007CFF" d="M172.867 130.801h-56.884c-2.165 0-4.017-1.769-4.116-3.93l-1.504-33c-.098-2.16 1.593-3.93 3.758-3.93h56.884c2.165 0 4.017 1.77 4.116 3.93l1.504 33c.098 2.161-1.593 3.93-3.758 3.93" mask="url(#sx0n155jab)"/>
                        <path fill="#64D4CC" d="M172.867 130.801h-56.884c-2.165 0-4.017-1.769-4.116-3.93l-1.504-33c-.098-2.16 1.593-3.93 3.758-3.93h56.884c2.165 0 4.017 1.77 4.116 3.93l1.504 33c.098 2.161-1.593 3.93-3.758 3.93" mask="url(#sx0n155jab)"/>
                        <path fill="#00A499" d="M138.673 130.801L149.538 130.801 149.538 110.862 138.673 110.862z" mask="url(#sx0n155jab)"/>
                        <path fill="#007CFF" d="M145.234 119.077l-.777 5.261c-.118.808-.81 1.406-1.625 1.406h-1.77c-1.007 0-1.777-.893-1.632-1.885l.777-5.261c.118-.808.809-1.406 1.625-1.406h1.77c1.007 0 1.776.893 1.632 1.885zm-6.903-10.345l-4.797 32.56h11.752l4.797-32.56h-11.752z" mask="url(#sx0n155jab)"/>
                        <path fill="#64D4CC" d="M145.234 119.077l-.777 5.261c-.118.808-.81 1.406-1.625 1.406h-1.77c-1.007 0-1.777-.893-1.632-1.885l.777-5.261c.118-.808.809-1.406 1.625-1.406h1.77c1.007 0 1.776.893 1.632 1.885zm-6.903-10.345l-4.797 32.56h11.752l4.797-32.56h-11.752z" mask="url(#sx0n155jab)"/>
                        <path fill="#007CFF" d="M151.983 138.914L131.418 138.914 128.892 141.302 157.455 141.302z" mask="url(#sx0n155jab)"/>
                        <path fill="#64D4CC" d="M151.983 138.914L131.418 138.914 128.892 141.302 157.455 141.302z" mask="url(#sx0n155jab)"/>
                        <path fill="#007CFF" d="M91.239 133.998c-1.161-.634-.764-6.974-.255-10.587.616-4.369 2.461-12.1 8.313-16.382 2.789-2.042 5.456-3.778 5.923-5.978.854 1.953 5.72 15.925-1.217 22.196-5.868 5.303-10.216 4.12-12.764 10.751" mask="url(#sx0n155jab)"/>
                        <path fill="#007069" d="M91.239 133.998c-1.161-.634-.764-6.974-.255-10.587.616-4.369 2.461-12.1 8.313-16.382 2.789-2.042 5.456-3.778 5.923-5.978.854 1.953 5.72 15.925-1.217 22.196-5.868 5.303-10.216 4.12-12.764 10.751" mask="url(#sx0n155jab)"/>
                        <path fill="#00A499" d="M92.762 130.413c1.353-.753-.192-8.116-1.43-12.31-1.495-5.069-5.088-14.03-13.142-18.93-3.84-2.336-7.475-4.318-8.425-6.87-.75 2.282-3.153 20.234 6.593 27.43 8.244 6.087 12.109 3.006 16.404 10.68" mask="url(#sx0n155jab)"/>
                        <path fill="#FFF" d="M92.086 128.77c-.079 0-.15-.052-.173-.13-.022-.075-2.206-7.57-7.524-18.007-4.939-9.693-11.571-11.266-11.638-11.28-.097-.022-.158-.118-.137-.215.021-.098.115-.159.215-.138.068.015 6.86 1.613 11.882 11.47 5.334 10.47 7.527 17.995 7.548 18.07.028.095-.027.195-.123.222-.017.005-.034.007-.05.007" mask="url(#sx0n155jab)"/>
                        <path fill="#FFF" d="M71.13 105.72c-.044 0-.09-.017-.123-.05-.073-.068-.076-.182-.008-.255.039-.04 3.908-4.028 9.31-1.375.089.044.126.152.082.24-.044.09-.152.126-.241.083-5.16-2.534-8.852 1.262-8.889 1.3-.035.037-.083.056-.13.056M78.086 117.705c-.032 0-.064-.008-.093-.025-.085-.051-.113-.161-.063-.247.033-.055 3.305-5.478 8.109-4.146.095.026.152.125.126.221-.027.096-.129.152-.223.125-4.545-1.256-7.67 3.93-7.701 3.983-.034.057-.094.089-.155.089M83.301 108.498c-.08 0-.153-.053-.174-.134-.012-.045-.293-1.124.17-1.864.206-.332.525-.543.947-.627.104-.019.194.044.212.141.02.098-.044.193-.141.212-.325.065-.558.216-.712.463-.38.608-.13 1.573-.127 1.583.025.096-.032.194-.129.22-.015.004-.03.006-.046.006" mask="url(#sx0n155jab)"/>
                        <path fill="#007CFF" d="M101.616 127.053L84.959 127.053 86.492 141.284 100.083 141.284z" mask="url(#sx0n155jab)"/>
                        <path fill="#BDDEDC" d="M101.616 127.053L84.959 127.053 86.492 141.284 100.083 141.284z" mask="url(#sx0n155jab)"/>
                        <path fill="#007CFF" d="M233.597 138.261v-8.432c1.383 0 2.551 1.93 2.551 4.216 0 2.286-1.168 4.216-2.551 4.216m0-9.873v-.885c0-.395-.32-.715-.716-.715h-8.86c-.395 0-.716.32-.716.715v13.799h10.292v-1.6c2.24 0 3.994-2.485 3.994-5.657s-1.755-5.657-3.994-5.657" mask="url(#sx0n155jab)"/>
                        <path fill="#FFF" d="M233.597 138.261v-8.432c1.383 0 2.551 1.93 2.551 4.216 0 2.286-1.168 4.216-2.551 4.216m0-9.873v-.885c0-.395-.32-.715-.716-.715h-8.86c-.395 0-.716.32-.716.715v13.799h10.292v-1.6c2.24 0 3.994-2.485 3.994-5.657s-1.755-5.657-3.994-5.657" mask="url(#sx0n155jab)"/>
                        <path fill="#007069" d="M233.597 129.829L232.425 129.829 233.597 133.071zM233.597 139.702L232.425 139.702 233.597 140.244z" mask="url(#sx0n155jab)"/>
                    </g>
                </g>
            </g>
        </g>
    </g>
</svg>
