<svg width="14" height="14" viewBox="0 0 14 14" fill="none" xmlns="http://www.w3.org/2000/svg">
<path d="M5.8425 9.96655C6.135 10.2591 6.6075 10.2591 6.9 9.96655L9.5925 7.27405C9.885 6.98155 9.885 6.50905 9.5925 6.21655L6.9 3.52405C6.75988 3.38361 6.56964 3.30469 6.37125 3.30469C6.17286 3.30469 5.98262 3.38361 5.8425 3.52405C5.55 3.81655 5.55 4.28905 5.8425 4.58155L7.2525 5.99905H0.75C0.3375 5.99905 0 6.33655 0 6.74905C0 7.16155 0.3375 7.49905 0.75 7.49905H7.2525L5.8425 8.90905C5.55 9.20155 5.5575 9.68155 5.8425 9.96655Z" fill="#DADADA"/>
<path d="M12 0H1.5C0.6675 0 0 0.675 0 1.5V3.75C0 4.1625 0.3375 4.5 0.75 4.5C1.1625 4.5 1.5 4.1625 1.5 3.75V2.25C1.5 1.8375 1.8375 1.5 2.25 1.5H11.25C11.6625 1.5 12 1.8375 12 2.25V11.25C12 11.6625 11.6625 12 11.25 12H2.25C1.8375 12 1.5 11.6625 1.5 11.25V9.75C1.5 9.3375 1.1625 9 0.75 9C0.3375 9 0 9.3375 0 9.75V12C0 12.825 0.675 13.5 1.5 13.5H12C12.825 13.5 13.5 12.825 13.5 12V1.5C13.5 0.675 12.825 0 12 0Z" fill="#DADADA"/>
</svg>
