<svg width="11" height="11" viewBox="0 0 11 11" fill="none" xmlns="http://www.w3.org/2000/svg">
<circle cx="5.5" cy="5.5" r="5.5" fill="#00AE99"/>
<path d="M7.41913 3.87037C7.41913 4.09557 7.38617 4.2988 7.32026 4.48006C7.25709 4.66132 7.16647 4.81786 7.04837 4.94968C6.93303 5.0815 6.79297 5.18724 6.62819 5.26688C6.46615 5.34652 6.28627 5.39733 6.08853 5.4193L6.05558 6.2226C6.05283 6.27204 6.01301 6.30911 5.93611 6.33383C5.86196 6.35855 5.75348 6.3709 5.61067 6.3709C5.52004 6.3709 5.44315 6.36953 5.37998 6.36678C5.31956 6.36129 5.2715 6.35305 5.2358 6.34207C5.2001 6.33108 5.17401 6.31598 5.15753 6.29675C5.14105 6.27753 5.13144 6.25281 5.12869 6.2226L5.09162 5.2504C5.08887 5.16252 5.09299 5.09112 5.10397 5.03619C5.11496 4.98126 5.13418 4.93732 5.16165 4.90437C5.19186 4.87141 5.22893 4.84944 5.27287 4.83845C5.31682 4.82472 5.369 4.81786 5.42941 4.81786H5.48709C5.63264 4.81786 5.7576 4.79451 5.86196 4.74783C5.96907 4.70114 6.05695 4.63935 6.12561 4.56245C6.19427 4.48555 6.2437 4.39492 6.27391 4.29056C6.30687 4.1862 6.32334 4.07498 6.32334 3.95688C6.32334 3.82506 6.30412 3.70422 6.26567 3.59437C6.22997 3.48452 6.17367 3.38977 6.09677 3.31012C6.02262 3.23048 5.92787 3.17006 5.81253 3.12887C5.69993 3.08492 5.56673 3.06295 5.41294 3.06295C5.27287 3.06295 5.14929 3.07669 5.04218 3.10415C4.93508 3.13161 4.84307 3.16182 4.76618 3.19478C4.68928 3.22773 4.62474 3.25794 4.57256 3.28541C4.52313 3.31287 4.48468 3.3266 4.45722 3.3266C4.43799 3.3266 4.42014 3.32111 4.40366 3.31012C4.38718 3.29639 4.37345 3.27305 4.36247 3.24009C4.35148 3.20714 4.34187 3.16045 4.33363 3.10003C4.32814 3.03961 4.32539 2.96271 4.32539 2.86934C4.32539 2.77322 4.32951 2.70319 4.33775 2.65924C4.34599 2.6153 4.36384 2.5796 4.3913 2.55214C4.41877 2.52467 4.47095 2.49309 4.54784 2.45739C4.62474 2.41894 4.71674 2.38461 4.82385 2.3544C4.93096 2.32145 5.05042 2.29398 5.18225 2.27201C5.31407 2.25004 5.45139 2.23906 5.59419 2.23906C5.91826 2.23906 6.19564 2.28437 6.42633 2.375C6.65702 2.46288 6.84515 2.58235 6.9907 2.7334C7.139 2.88444 7.24748 3.05746 7.31614 3.25245C7.3848 3.44744 7.41913 3.65341 7.41913 3.87037ZM6.19976 7.40078C6.19976 7.51338 6.19015 7.60812 6.17092 7.68502C6.15444 7.76192 6.12286 7.82371 6.07617 7.8704C6.03223 7.91709 5.97181 7.95004 5.89492 7.96927C5.82077 7.99124 5.72876 8.00222 5.61891 8.00222C5.50357 8.00222 5.40882 7.99124 5.33467 7.96927C5.26052 7.95004 5.2001 7.91709 5.15341 7.8704C5.10947 7.82371 5.07788 7.76192 5.05866 7.68502C5.04218 7.60812 5.03394 7.51338 5.03394 7.40078C5.03394 7.28543 5.04218 7.18931 5.05866 7.11241C5.07788 7.03277 5.10947 6.9696 5.15341 6.92292C5.2001 6.87348 5.26052 6.83915 5.33467 6.81993C5.40882 6.79796 5.50357 6.78697 5.61891 6.78697C5.72876 6.78697 5.82077 6.79796 5.89492 6.81993C5.97181 6.83915 6.03223 6.87348 6.07617 6.92292C6.12286 6.9696 6.15444 7.03277 6.17092 7.11241C6.19015 7.18931 6.19976 7.28543 6.19976 7.40078Z" fill="#F7F7F8"/>
</svg>
