<svg width="49" height="49" viewBox="0 0 49 49" fill="none" xmlns="http://www.w3.org/2000/svg">
<circle cx="24.5" cy="24.5" r="24.5" fill="#F04444"/>
<g clip-path="url(#clip0)">
<path d="M25.6839 40C25.7933 39.9286 25.9216 39.957 26.0395 39.9476C29.3193 39.6865 32.2609 38.5904 34.8387 36.6416C37.715 34.4676 39.5911 31.6606 40.5041 28.2679C40.8721 26.901 41.0402 25.5095 40.9919 24.0989C40.8678 20.4613 39.581 17.2415 37.1302 14.4569C35.4411 12.5378 33.3671 11.1113 30.9392 10.1582C29.5858 9.62682 28.1837 9.26552 26.7288 9.10952C22.2 8.62405 18.1542 9.75568 14.5766 12.4407C14.1485 12.7621 13.7427 13.1091 13.3616 13.4806C13.2705 13.5696 13.2202 13.578 13.119 13.4906C12.1303 12.6364 11.1374 11.7865 10.1428 10.9382C9.72654 10.5831 9.14306 10.7447 9.01736 11.247C9.00136 11.3116 8.9994 11.3809 8.9994 11.448C9.00201 14.4691 9.0056 17.4905 9.00919 20.5116C9.00985 21.0363 9.30534 21.3015 9.85454 21.2454C10.8546 21.1434 11.8538 21.0289 12.8532 20.9203C13.869 20.8101 14.8851 20.7019 15.9009 20.5917C16.9004 20.4835 17.8998 20.3743 18.8993 20.2654C19.0289 20.2514 19.1582 20.2348 19.2882 20.2226C19.5827 20.1946 19.7871 20.0492 19.8805 19.7827C19.9729 19.5194 19.8926 19.2898 19.6797 19.106C19.1791 18.6736 18.6756 18.2446 18.1731 17.8143C17.6109 17.3326 17.0483 16.8509 16.4802 16.3638C17.0411 15.8487 17.6442 15.3988 18.2923 15.0041C19.8093 14.0803 21.4605 13.5028 23.2459 13.3C28.695 12.6804 33.9271 15.6612 35.8346 20.7215C37.4179 24.9217 36.2702 29.6135 32.9041 32.6986C30.9927 34.4508 28.7107 35.486 26.0787 35.793C20.5978 36.4323 15.3667 33.3301 13.5092 28.3449C13.4145 28.0913 13.3322 27.833 13.2519 27.5746C12.9522 26.6118 11.9726 25.9922 10.952 26.1232C9.90449 26.2577 9.14078 27.0782 9.10192 28.0922C9.08723 28.476 9.19335 28.831 9.31383 29.1873C10.2653 31.9982 11.9057 34.3743 14.2556 36.2944C16.2963 37.962 18.6414 39.0571 21.2587 39.6225C22.1354 39.8119 23.0232 39.9286 23.9211 39.9704C23.9469 39.9716 23.9766 39.9657 23.9857 40C24.0403 40 24.0945 40 24.149 40C24.1709 39.9804 24.1924 39.9804 24.2143 40C24.3015 40 24.3883 40 24.4755 40C24.6551 39.9632 24.837 39.9938 25.0172 39.9838C25.073 39.9838 25.1292 39.9838 25.185 39.9838C25.2392 39.9838 25.2934 39.9838 25.3473 39.9838C25.4155 39.9919 25.4867 39.966 25.5527 40C25.5968 40 25.6405 40 25.6839 40Z" fill="white"/>
</g>
<defs>
<clipPath id="clip0">
<rect width="32" height="31" fill="white" transform="matrix(-1 0 0 1 41 9)"/>
</clipPath>
</defs>
</svg>
