<svg width="72" height="72" viewBox="0 0 72 72" fill="none" xmlns="http://www.w3.org/2000/svg">
<path d="M69.9338 9.84471C68.8752 8.78614 67.1613 8.78614 66.1027 9.84471L33.5557 42.3077L21.8105 29.5544C20.8024 28.4454 19.0717 28.3782 17.9795 29.4032C16.8705 30.4113 16.8033 32.142 17.8283 33.2342L31.489 48.0711C31.993 48.6088 32.682 48.928 33.4213 48.9448C33.4381 48.9448 33.4549 48.9448 33.4717 48.9448C34.1942 48.9448 34.8831 48.6592 35.3872 48.1551L69.9338 13.6758C70.9923 12.6172 70.9923 10.9033 69.9338 9.84471Z" fill="#343A40"/>
<path d="M69.2779 33.2891C67.7825 33.2891 66.5727 34.4989 66.5727 35.9943C66.5727 52.8475 52.8616 66.5586 36.0084 66.5586C19.1552 66.5586 5.44411 52.8475 5.44411 35.9943C5.44411 19.1411 19.1552 5.43005 36.0084 5.43005C37.5039 5.43005 38.7137 4.22024 38.7137 2.72479C38.7137 1.22935 37.5039 0.0195444 36.0084 0.0195444C16.1475 0.00274155 0 16.1502 0 35.9943C0 55.8384 16.1475 71.9859 35.9916 71.9859C55.8357 71.9859 71.9832 55.8384 71.9832 35.9943C72 34.4989 70.7734 33.2891 69.2779 33.2891Z" fill="#007BFF"/>
</svg>
