<svg xmlns="http://www.w3.org/2000/svg" width="72" height="66" fill="none" viewBox="0 0 72 66">
    <g clip-path="url(#clip0)">
        <path fill="#007BFF" stroke="#007BFF" stroke-miterlimit="10" stroke-width="2.3" d="M61.79 16.11c-.303.09-.63.091-.934.005-.305-.086-.572-.257-.766-.487-3.872-4.613-9.228-8.013-15.32-9.727-6.094-1.715-12.623-1.659-18.68.16-6.554 1.937-12.173 5.872-15.91 11.141-.11.154-.251.287-.418.392-.166.104-.353.177-.55.216-.197.038-.401.041-.6.008-.198-.033-.387-.102-.557-.202-.17-.1-.315-.229-.43-.38-.114-.151-.195-.321-.237-.501-.043-.18-.046-.365-.01-.546.037-.18.113-.353.222-.507C11.72 9.88 17.91 5.545 25.13 3.412c6.663-1.999 13.844-2.06 20.546-.174 6.702 1.885 12.593 5.624 16.854 10.697.233.292.333.655.279 1.013-.054.358-.258.683-.569.907-.133.107-.285.193-.45.255z"/>
        <path fill="#007BFF" stroke="#007BFF" stroke-miterlimit="10" stroke-width="2.3" d="M62.58 17.494c-.259.063-.531.063-.79 0l-9-1.712c-.214-.021-.42-.083-.606-.181-.185-.099-.346-.231-.473-.39-.126-.158-.214-.338-.259-.53-.044-.191-.045-.389 0-.58.044-.192.131-.372.257-.531.125-.159.286-.292.471-.39.186-.1.392-.162.605-.184.214-.022.43-.003.635.056l7.52 1.42 1.53-6.809c.114-.332.36-.614.69-.79.331-.176.721-.233 1.096-.162.374.072.706.268.93.55.225.282.326.63.284.976l-1.88 8.191c-.053.239-.173.46-.348.644s-.4.323-.652.403l-.01.018zM10.21 50.189c.303-.09.63-.092.934-.005.305.086.573.256.766.487 3.873 4.613 9.228 8.012 15.321 9.727 6.094 1.714 12.622 1.658 18.68-.16 6.553-1.937 12.172-5.872 15.91-11.142.109-.154.25-.287.417-.391.166-.104.353-.178.55-.216.198-.039.402-.041.6-.008.198.033.388.101.557.201.17.1.316.23.43.38.115.152.195.322.238.502.042.18.045.365.008.545-.036.18-.111.353-.22.508-4.12 5.803-10.311 10.136-17.53 12.27-6.663 1.998-13.844 2.06-20.547.174-6.702-1.886-12.593-5.624-16.854-10.697-.233-.292-.332-.655-.278-1.013.054-.358.257-.683.568-.907.134-.108.286-.194.45-.255z"/>
        <path fill="#007BFF" stroke="#007BFF" stroke-miterlimit="10" stroke-width="2.3" d="M9.42 48.805c.258-.063.531-.063.79 0l9 1.711c.213.022.42.084.605.182.186.098.347.23.473.39.126.157.215.338.26.53.044.19.044.388 0 .58-.044.191-.131.372-.257.53-.126.16-.286.292-.472.391-.185.1-.391.162-.605.184-.213.022-.43.003-.634-.056l-7.48-1.456-1.57 6.845c-.115.332-.361.613-.691.79-.33.175-.72.233-1.095.161-.374-.071-.706-.267-.93-.549-.225-.282-.326-.63-.284-.976l1.88-8.192c.052-.238.172-.46.348-.644.175-.183.4-.322.652-.403l.01-.018z"/>
        <path fill="#343A40" d="M28.337 44.982c1.493.004 2.97-.274 4.338-.815 3.732-1.362 4.844-3.605 5.106-4.771.255-.837.288-1.717.095-2.567-.194-.85-.607-1.647-1.206-2.326l-.109-.114c-.678-.702-2.711-2.846-8.848-3.564-2.792-.326-3.235-1.525-3.244-2.21V28.444c.13-.442.373-.85.71-1.19.338-.34.76-.603 1.233-.768 2.567-.815 5.929.058 7.348.653.512.21 1.095.23 1.624.058.529-.174.961-.527 1.205-.985.243-.457.278-.983.098-1.464-.181-.48-.564-.878-1.066-1.108-.578-.252-5.829-2.446-10.691-.815-1.242.41-2.338 1.114-3.175 2.038-.836.924-1.382 2.034-1.579 3.214-.253 1.883.904 5.66 6.968 6.369l.66.073c1.263.053 2.506.299 3.678.726.434.195.82.468 1.13.804.311.335.542.725.678 1.145.175.548.164 1.132-.033 1.674s-.57 1.02-1.07 1.368c-.318.201-.664.363-1.03.481l-.2.074c-1.435.495-3.012.546-4.484.146-1.471-.4-2.755-1.228-3.649-2.356-.36-.4-.88-.656-1.448-.71-.568-.053-1.136.1-1.58.424-.443.325-.725.794-.784 1.307-.06.512.109 1.025.468 1.425 1.037 1.232 2.377 2.23 3.914 2.917 1.536.686 3.229 1.042 4.943 1.038z"/>
        <path stroke="#343A40" stroke-linecap="round" stroke-miterlimit="10" stroke-width="4.5" d="M50 24.047L40 46.803"/>
    </g>
    <defs>
        <clipPath id="clip0">
            <path fill="#fff" d="M0 0H72V65.536H0z" transform="translate(0 .381)"/>
        </clipPath>
    </defs>
</svg>
