<svg xmlns="http://www.w3.org/2000/svg" width="80" height="80" fill="none" viewBox="0 0 80 80">
    <g clip-path="url(#clip0)">
        <path fill="#CEE8FA" d="M57.4 64.016V41.993L39.8 35.516l-16.203 6.856-1.973 17.26 17.598 18.973L57.4 64.015z"/>
        <path fill="#007BFF" d="M70.832 73.323h-6.039c-1.375 0-2.491-1.116-2.491-2.49 0-1.376 1.116-2.492 2.491-2.492h6.04c2.291 0 4.165-1.874 4.165-4.166V9.168c0-2.292-1.874-4.166-4.166-4.166H9.168c-2.292 0-4.166 1.874-4.166 4.166v55.007c0 2.292 1.874 4.166 4.166 4.166h6.039c1.375 0 2.491 1.116 2.491 2.491s-1.116 2.491-2.491 2.491h-6.04C4.107 73.323 0 69.218 0 64.156V9.168C0 4.106 4.106 0 9.168 0h61.664C75.894 0 80 4.106 80 9.168v55.007c0 5.043-4.106 9.148-9.168 9.148z"/>
        <path fill="#007BFF" d="M77.489 16.662H2.49C1.116 16.662 0 15.546 0 14.171s1.116-2.491 2.491-2.491H77.49c1.375 0 2.491 1.116 2.491 2.491s-1.096 2.491-2.491 2.491zM40.002 80c-.34 0-.658-.06-.977-.2-.777-.338-19.013-8.27-19.013-24.613V41.794c0-1.077.677-2.013 1.694-2.372l17.499-5.96c.518-.179 1.096-.179 1.614 0l17.499 5.96c1.016.339 1.694 1.295 1.694 2.372v13.393c0 16.342-18.256 24.295-19.014 24.614-.338.139-.657.199-.996.199zM24.994 43.567v11.6c0 11.16 11.52 17.797 14.988 19.551 3.468-1.754 15.007-8.43 15.007-19.551v-11.6l-14.987-5.102-15.008 5.102z"/>
        <path fill="#007BFF" d="M39.163 64.992c-.658 0-1.295-.26-1.774-.738l-6.657-6.657c-.976-.976-.976-2.55 0-3.527.977-.977 2.551-.977 3.528 0l4.624 4.624 8.271-11.022c.817-1.096 2.392-1.335 3.508-.498 1.096.837 1.335 2.392.498 3.508L41.156 64.015c-.438.578-1.096.937-1.814.996-.06-.02-.12-.02-.18-.02z"/>
    </g>
    <defs>
        <clipPath id="clip0">
            <path fill="#fff" d="M0 0H80V80H0z"/>
        </clipPath>
    </defs>
</svg>
