<svg xmlns="http://www.w3.org/2000/svg" width="24" height="24" fill="none" viewBox="0 0 24 24">
    <g fill="#007BFF" clip-path="url(#clip0)">
        <path d="M13.5 9.734c-.596 0-1.02.252-1.02.623v5.047c0 .318.424.636 1.02.636.57 0 1.034-.318 1.034-.636v-5.047c0-.37-.464-.623-1.034-.623zM13.5 6.621c-.609 0-1.086.437-1.086.94 0 .504.477.954 1.086.954.597 0 1.073-.45 1.073-.953 0-.504-.476-.94-1.073-.94z"/>
        <path d="M24 12c0-5.7-4.61-10.313-10.306-10.313-4.652 0-8.514 3.063-9.826 7.192L.411 11.224C.154 11.4 0 11.69 0 12c0 .31.154.601.411.776l3.457 2.345c1.312 4.13 5.176 7.191 9.825 7.191C19.393 22.313 24 17.697 24 12zM5.573 14.28c-.06-.213-.193-.399-.376-.523L2.607 12l2.59-1.757c.183-.124.317-.31.376-.523.983-3.515 4.215-6.158 8.12-6.158 4.65 0 8.432 3.786 8.432 8.438 0 4.652-3.782 8.438-8.431 8.438-3.91 0-7.139-2.647-8.12-6.158z"/>
    </g>
    <defs>
        <clipPath id="clip0">
            <path fill="#fff" d="M0 0H24V24H0z"/>
        </clipPath>
    </defs>
</svg>
