<svg xmlns="http://www.w3.org/2000/svg" width="95" height="93" fill="none" viewBox="0 0 95 93">
    <g clip-path="url(#clip0)">
        <path fill="#CCE6FF" d="M43.11 34.92c8.775 0 15.888-7.105 15.888-15.869 0-8.763-7.113-15.867-15.888-15.867-8.774 0-15.887 7.104-15.887 15.867 0 8.764 7.113 15.868 15.887 15.868z"/>
        <path fill="#007BFF" d="M73.408 49.617c-.884 0-1.595.71-1.595 1.593 0 1.113-.903 2.014-2.017 2.014-1.114 0-2.017-.901-2.017-2.014 0-.883-.71-1.593-1.595-1.593-.883 0-1.594.71-1.594 1.593 0 2.859 2.324 5.18 5.187 5.18 2.862 0 5.187-2.321 5.187-5.18.038-.883-.672-1.593-1.556-1.593z"/>
        <path fill="#007BFF" d="M90.754 49.388l-3.842-1.228c-.5-.153-.884-.556-1.038-1.055-.806-2.571-2.036-4.97-3.63-7.157-.73-.998-1.537-1.957-2.421-2.859.557-2.475.864-5.276.826-7.713-.058-3.473-.75-5.507-2.113-6.217-.73-.384-2.978-1.554-15.139 3.991-.288.134-.557.288-.807.48-.826-.211-1.652-.422-2.497-.614-.096-.02-.212-.039-.308-.058.98-2.149 1.557-4.49 1.672-6.888.038-.748-.557-1.381-1.306-1.42-.75-.038-1.384.557-1.422 1.305-.173 3.972-1.825 7.694-4.63 10.495-1.671 1.67-3.65 2.897-5.744 3.665-3.631-.518-7.339-.518-10.97 0-2.094-.768-4.054-1.976-5.744-3.665-2.997-2.993-4.65-6.984-4.65-11.205 0-4.24 1.653-8.212 4.65-11.205 2.997-2.993 6.993-4.644 11.22-4.644 4.226 0 8.222 1.65 11.219 4.644 1.21 1.209 2.209 2.57 2.958 4.087.346.671 1.153.94 1.825.594.673-.345.942-1.15.596-1.822C58.575 9.133 57.403 7.522 56 6.12 52.504 2.61 47.836.671 42.86.671c-4.976 0-9.626 1.939-13.141 5.45-3.516 3.511-5.456 8.174-5.456 13.143 0 4.97 1.94 9.632 5.456 13.143 1.018 1.017 2.113 1.88 3.285 2.61-.845.21-1.69.46-2.517.748-.71.23-1.095 1.017-.864 1.727.23.71 1.018 1.094 1.729.863 7.434-2.475 15.618-2.475 23.053 0 .135.039.288.077.423.077.576 0 1.095-.364 1.287-.92.23-.71-.154-1.478-.864-1.728-.827-.268-1.672-.518-2.517-.748 1.172-.73 2.267-1.593 3.285-2.61.903-.901 1.69-1.88 2.382-2.916.384.077.75.154 1.114.23.48.116.98.211 1.46.346-.019.057-.038.115-.038.172-.672 3.147-.615 5.93.135 8.29.672 2.11 1.882 3.817 3.611 5.065 2.037 1.477 4.477 2.13 6.705 2.13 1.672 0 3.208-.365 4.342-.998 1.287-.73 2.363-2.245 3.208-4.548.384.46.769.921 1.114 1.401 1.422 1.938 2.517 4.087 3.228 6.37.422 1.343 1.48 2.398 2.805 2.82l3.842 1.229c.999.326 1.69 1.247 1.69 2.302v6.351c0 1.055-.672 1.976-1.69 2.302l-6.186 1.977c-.98.307-1.825.998-2.363 1.919-2.42 4.182-6.244 7.655-11.354 10.303-.596.307-.999.863-1.114 1.496l-1.979 10.477c-.058.287-.307.499-.596.499h-6.435c-.289 0-.538-.212-.596-.5L58.21 83.35c-.211-1.132-1.287-1.9-2.44-1.727-2.766.422-5.629.633-8.491.633-2.133 0-4.227-.115-6.244-.345-1.114-.134-2.151.633-2.363 1.727l-1.037 5.487c-.058.288-.308.5-.596.5h-6.436c-.288 0-.538-.212-.595-.5l-1.902-9.88c-.115-.634-.519-1.171-1.095-1.478-8.741-4.663-13.333-12.414-13.333-22.43 0-5.065 1.114-9.536 3.305-13.297 2.036-3.51 5.014-6.427 8.856-8.634.653-.384.884-1.209.5-1.861-.385-.652-1.21-.864-1.864-.499-7.435 4.298-11.93 10.937-13.16 19.36-.134-.02-.269-.02-.384-.038.02-.902-.134-1.823-.5-2.725-.787-1.957-2.42-3.377-4.13-3.607-1.364-.173-2.651.403-3.554 1.573-1.306 1.708-1.095 3.07-.672 3.914.691 1.42 2.459 2.418 5.379 3.032-.077.115-.173.25-.27.364-1.728 2.169-3.765 2.648-5.09 2.687-.769.019-1.403.652-1.403 1.42 0 .767.596 1.38 1.364 1.42h.308c1.671 0 4.36-.615 6.935-3.857.404-.518.75-1.056 1-1.612.249.038.499.057.748.077-.038.729-.076 1.477-.076 2.245 0 5.66 1.344 10.725 4.015 15.023 2.459 3.972 5.974 7.215 10.47 9.651l1.844 9.613c.308 1.573 1.672 2.705 3.285 2.705h6.436c1.595 0 2.978-1.132 3.285-2.705l.941-4.97c1.96.212 3.977.308 6.033.308 2.805 0 5.61-.192 8.357-.576l.999 5.238c.307 1.573 1.671 2.705 3.285 2.705h6.436c1.594 0 2.978-1.132 3.285-2.705l1.921-10.188c5.437-2.878 9.548-6.658 12.2-11.225.191-.326.48-.575.825-.69l6.186-1.977c2.133-.69 3.574-2.648 3.574-4.892V54.3c-.02-2.245-1.46-4.221-3.593-4.912zM77.73 33.213c-.519 4.49-1.94 8.308-3.343 9.114-1.614.902-5.322 1.094-8.107-.96-2.786-2.033-3.708-5.698-2.69-10.59.096-.5.461-.922.942-1.133 6.82-3.127 10.758-4.144 12.218-4.144.211 0 .384.02.5.058.441.48 1.018 3.146.48 7.655zM4.495 48.333c-.134-.288.192-.806.404-1.075.326-.441.634-.537.883-.537.058 0 .096 0 .135.02.634.076 1.498.767 1.979 1.918.115.269.25.729.288 1.285-1.902-.403-3.362-.959-3.689-1.611z"/>
        <path fill="#007BFF" d="M66.337 93H59.9c-1.921 0-3.573-1.362-3.938-3.262l-.884-4.605c-2.555.327-5.187.5-7.8.5-1.863 0-3.689-.078-5.475-.25l-.826 4.374c-.365 1.88-2.017 3.262-3.939 3.262h-6.435c-1.921 0-3.574-1.362-3.939-3.262l-1.786-9.305c-4.457-2.475-7.973-5.757-10.451-9.728-2.728-4.413-4.13-9.575-4.13-15.37 0-.306 0-.632.018-.959-.153.23-.307.442-.48.653-2.709 3.396-5.552 4.106-7.473 4.106h-.346C.884 59.077 0 58.156 0 57.044c0-1.133.903-2.054 2.036-2.092 1.134-.038 2.748-.422 4.188-1.976-2.535-.691-4.11-1.727-4.802-3.147-.942-1.919.076-3.703.749-4.605 1.057-1.381 2.574-2.053 4.169-1.842 1.96.269 3.784 1.842 4.668 4.03l.115.287c1.768-7.387 6.206-13.296 12.987-17.21.98-.557 2.229-.23 2.786.748.557.978.23 2.225-.75 2.782-3.726 2.149-6.627 4.988-8.606 8.385-2.132 3.664-3.208 8.02-3.208 12.97 0 9.747 4.476 17.288 12.929 21.816.75.403 1.287 1.113 1.44 1.957l1.903 9.843h6.34l1.037-5.45c.269-1.438 1.633-2.436 3.093-2.263 1.998.23 4.073.345 6.167.345 2.824 0 5.648-.211 8.395-.614 1.518-.23 2.92.767 3.19 2.264l1.094 5.737h6.34l1.979-10.418c.153-.845.691-1.574 1.479-1.977 4.995-2.59 8.722-5.967 11.085-10.054.615-1.055 1.594-1.842 2.728-2.206l6.186-1.977c.73-.23 1.21-.902 1.21-1.669V54.3c0-.768-.48-1.44-1.21-1.67l-3.842-1.228c-1.537-.499-2.748-1.707-3.247-3.261-.692-2.207-1.748-4.298-3.132-6.179-.115-.172-.25-.326-.384-.499-.845 1.861-1.863 3.147-3.074 3.819-1.248.71-2.9 1.093-4.687 1.093-2.594 0-5.11-.806-7.108-2.264-1.845-1.343-3.132-3.166-3.862-5.41-.749-2.341-.826-5.085-.23-8.174-.27-.058-.538-.135-.807-.192-.212-.038-.442-.096-.673-.134-.653.959-1.402 1.841-2.209 2.647-.672.672-1.422 1.305-2.19 1.88.384.116.788.23 1.153.365 1.056.365 1.633 1.516 1.287 2.571-.27.825-1.057 1.382-1.921 1.382-.212 0-.442-.039-.653-.096-7.3-2.437-15.331-2.437-22.631 0-.52.172-1.076.134-1.556-.115-.48-.25-.846-.653-1.019-1.17-.365-1.056.212-2.226 1.287-2.572.385-.134.769-.25 1.153-.364-.768-.576-1.498-1.19-2.19-1.88-3.65-3.627-5.648-8.462-5.648-13.604 0-5.143 1.998-9.978 5.648-13.604C32.871 1.995 37.712 0 42.861 0c5.148 0 9.99 1.995 13.62 5.641 1.46 1.458 2.67 3.128 3.593 4.95.25.48.288 1.036.115 1.555-.173.518-.538.94-1.018 1.17-.48.25-1.038.288-1.556.115-.519-.173-.942-.537-1.172-1.017-.73-1.439-1.671-2.763-2.843-3.914-2.863-2.859-6.686-4.452-10.759-4.452-4.053 0-7.876 1.574-10.758 4.452-2.863 2.859-4.457 6.677-4.457 10.745 0 4.048 1.575 7.866 4.457 10.744 1.537 1.535 3.324 2.687 5.34 3.454 3.593-.48 7.224-.48 10.817 0 2.017-.767 3.803-1.919 5.34-3.453 2.69-2.687 4.265-6.255 4.438-10.055.02-.537.27-1.055.673-1.42.403-.364.922-.556 1.46-.518.538.02 1.037.25 1.402.653s.557.92.538 1.458c-.096 2.207-.576 4.336-1.402 6.37.576.134 1.152.269 1.729.422.21-.134.422-.25.653-.364 12.468-5.699 14.83-4.452 15.734-3.991 1.633.844 2.42 3.012 2.478 6.811.038 2.341-.25 5.066-.768 7.522.806.863 1.556 1.746 2.228 2.667 1.633 2.245 2.901 4.72 3.727 7.348.096.288.308.518.596.614l3.842 1.228c2.42.768 4.054 2.993 4.054 5.526v6.351c0 2.533-1.633 4.759-4.054 5.545l-6.186 1.977c-.192.057-.346.191-.461.383-2.67 4.605-6.762 8.423-12.18 11.34l-1.864 9.881c-.307 1.9-1.96 3.262-3.88 3.262zm-10.182-9.382l1.114 5.87c.23 1.248 1.345 2.169 2.613 2.169h6.435c1.288 0 2.383-.921 2.613-2.168l1.979-10.515.288-.153c5.322-2.82 9.337-6.505 11.93-10.975.27-.48.711-.825 1.21-.979l6.187-1.976c1.863-.595 3.112-2.303 3.112-4.26V54.3c0-1.957-1.249-3.665-3.112-4.26l-3.843-1.228c-.691-.23-1.248-.787-1.479-1.477-.787-2.495-1.978-4.836-3.535-6.965-.691-.96-1.498-1.9-2.363-2.782l-.25-.269.077-.365c.558-2.436.865-5.2.826-7.54-.057-3.147-.653-5.046-1.767-5.641-2.228-1.17-9.144 1.535-14.543 4.01-.23.115-.46.25-.691.403l-.27.192-.307-.077c-.807-.211-1.652-.422-2.459-.595-.058-.019-.115-.019-.154-.038l-.96-.211.346-.768c.96-2.11 1.498-4.336 1.613-6.639 0-.191-.057-.364-.172-.498-.116-.135-.289-.211-.48-.23-.193 0-.366.057-.5.172-.135.134-.212.288-.23.48-.193 4.125-1.903 8.02-4.823 10.936-1.44 1.44-3.093 2.571-4.937 3.397h2.9c1.077-.691 2.095-1.497 2.998-2.418.845-.844 1.614-1.784 2.286-2.801l.25-.384.441.077c.385.076.75.153 1.134.23.48.096.98.211 1.48.345l.652.154-.172.671c-.02.039-.02.077-.039.135-.634 3.031-.595 5.698.115 7.943.634 1.976 1.768 3.569 3.362 4.74 1.768 1.285 3.996 1.995 6.32 1.995 1.538 0 2.979-.326 4.016-.921 1.133-.633 2.113-2.053 2.9-4.202l.404-1.075.75.864c.403.48.787.96 1.152 1.439 1.46 2.015 2.594 4.221 3.324 6.562.365 1.132 1.249 2.034 2.363 2.379l3.842 1.228c1.287.403 2.152 1.593 2.152 2.936v6.35c0 1.344-.865 2.533-2.152 2.936l-6.186 1.976c-.826.27-1.537.845-1.979 1.612-2.497 4.298-6.397 7.867-11.623 10.572-.403.211-.691.595-.768 1.036l-1.979 10.477c-.115.614-.653 1.036-1.268 1.036h-6.436c-.614 0-1.152-.442-1.268-1.036L57.5 83.368c-.153-.787-.883-1.305-1.67-1.19-2.806.423-5.687.634-8.588.634-2.152 0-4.285-.115-6.32-.365-.77-.096-1.48.441-1.615 1.19l-1.037 5.487c-.115.614-.653 1.036-1.268 1.036h-6.436c-.614 0-1.152-.441-1.268-1.055l-1.902-9.881c-.076-.442-.365-.806-.749-1.017-8.933-4.759-13.64-12.721-13.64-22.986 0-5.181 1.133-9.767 3.381-13.642 2.094-3.627 5.168-6.6 9.106-8.884.327-.192.442-.614.25-.94-.192-.326-.615-.442-.941-.25-7.204 4.164-11.642 10.688-12.833 18.861l-.096.633h-.058l-.134 1.996v.71h-.039c-.02.518-.038 1.017-.038 1.516 0 5.545 1.325 10.476 3.919 14.658 2.401 3.857 5.84 7.023 10.22 9.421l.288.154 1.922 9.92c.23 1.266 1.344 2.168 2.612 2.168h6.436c1.287 0 2.382-.921 2.613-2.168l1.056-5.584.615.058c1.94.21 3.939.307 5.956.307 2.766 0 5.552-.192 8.26-.576l.654.039zM5.783 44.668c-.961 0-1.864.48-2.536 1.343-.884 1.151-1.076 2.245-.615 3.204.576 1.209 2.228 2.11 4.918 2.686l.96.211-.557.825c-.096.135-.192.269-.307.403-1.863 2.341-4.073 2.897-5.59 2.936-.423.019-.75.345-.75.748s.327.748.73.748h.27c1.613 0 4.053-.633 6.416-3.607.365-.46.672-.96.903-1.458l.211-.441.48.057c.058 0 .135.02.193.02l.441-1.324c-.057 0-.115-.02-.153-.02l-.615-.057.02-.614c.018-.825-.135-1.65-.443-2.456-.71-1.746-2.113-2.993-3.611-3.185-.096 0-.23-.02-.365-.02zm37.078-8.884c3.976 0 7.953.633 11.738 1.9.076.019.153.038.21.038.29 0 .558-.192.654-.48.115-.364-.077-.748-.442-.863-.787-.269-1.633-.518-2.478-.73l-3.765-.978c-.077.02-.154.058-.212.077l-.154.057-.172-.019c-3.574-.499-7.205-.499-10.778 0l-.173.02-.154-.058c-.076-.02-.153-.058-.23-.077l-3.766.979c-.845.21-1.69.46-2.478.729-.365.115-.557.518-.442.863.058.173.173.307.346.403.173.077.346.096.519.038 3.823-1.266 7.8-1.899 11.777-1.899zm-9.664-1.458h2.901c-1.844-.825-3.496-1.957-4.937-3.396-3.132-3.109-4.841-7.272-4.841-11.685s1.729-8.558 4.84-11.685c3.132-3.128 7.282-4.835 11.7-4.835 4.42 0 8.569 1.726 11.7 4.835 1.249 1.247 2.286 2.686 3.093 4.26.077.172.23.287.404.345.172.057.365.038.518-.039.173-.076.288-.23.346-.403.058-.172.039-.364-.038-.518-.865-1.707-1.98-3.242-3.343-4.605-3.381-3.396-7.877-5.257-12.68-5.257-4.783 0-9.298 1.861-12.679 5.238-3.381 3.377-5.245 7.886-5.245 12.664 0 4.777 1.864 9.286 5.245 12.663.922.921 1.921 1.727 3.016 2.418zM8.895 50.769l-.865-.172c-3.535-.73-3.996-1.67-4.13-1.977-.23-.48-.077-1.055.48-1.784.404-.538.884-.806 1.403-.806.076 0 .153 0 .23.02.96.133 1.998 1.093 2.498 2.34.134.326.288.844.326 1.496l.058.883zm-3.727-2.648c.192.211.807.576 2.152.94-.02-.057-.039-.096-.058-.134-.384-.96-1.076-1.458-1.441-1.516h-.058c-.115 0-.269.173-.345.269-.154.192-.23.345-.25.441zm66.164-4.47c-1.73 0-3.708-.46-5.437-1.727-3.016-2.207-4.034-6.102-2.94-11.282.154-.69.635-1.305 1.307-1.612 8.53-3.895 11.719-4.202 12.507-4.202.307 0 .537.038.73.115l.134.058.096.115c.71.767 1.172 3.818.653 8.174-.46 4.01-1.786 8.557-3.688 9.612-.75.442-1.96.749-3.362.749zm5.417-17.48c-1.383 0-5.36 1.075-11.93 4.087-.288.134-.5.384-.557.672-.98 4.624-.135 8.04 2.42 9.92 2.517 1.841 5.956 1.707 7.378.901 1.056-.595 2.459-3.972 3.016-8.615.46-3.933.038-6.293-.23-6.965h-.097z"/>
        <path fill="#007BFF" d="M37.251 22.796c-.115-.23-.173-.441-.173-.633 0-.269.096-.499.307-.672.212-.172.462-.268.769-.268.173 0 .327.038.48.096.154.057.308.153.461.25.577.479 1.153.843 1.69 1.074.558.23 1.192.345 1.96.345.846 0 1.46-.173 1.826-.518.365-.345.576-.787.595-1.305.02-.518-.096-.94-.346-1.266-.25-.326-.557-.576-.922-.768-.365-.172-.768-.326-1.191-.402-.423-.077-.807-.154-1.133-.212-.538-.095-1.057-.21-1.556-.383-.52-.173-.961-.384-1.345-.653-.385-.268-.711-.614-.942-1.017-.23-.402-.346-.882-.326-1.439.019-.71.211-1.324.576-1.842.365-.498.826-.92 1.402-1.247.558-.326 1.192-.556 1.864-.71.672-.153 1.345-.23 1.998-.23.557 0 1.037.058 1.48.154.441.095.864.268 1.267.48.212.114.384.268.48.421.096.173.154.327.154.5 0 .114-.038.249-.096.402-.058.135-.154.269-.269.365-.115.096-.269.172-.442.21-.173.04-.365.04-.557-.038-.403-.115-.807-.23-1.23-.326-.403-.096-.825-.153-1.267-.153-.327 0-.673.038-1.019.096-.345.057-.672.172-.96.326-.288.153-.538.345-.75.575-.21.23-.326.538-.345.902-.039.307.077.557.326.768.25.21.52.383.826.518.289.134.577.21.827.268.25.058.365.077.345.077.634.134 1.25.269 1.806.422.557.154 1.172.403 1.845.768.595.326 1.056.748 1.364 1.304.307.557.46 1.17.46 1.843 0 .69-.134 1.285-.384 1.784-.25.518-.614.94-1.037 1.266-.442.326-.941.595-1.498.768-.558.172-1.153.268-1.768.287-.538.02-1.076-.038-1.614-.134-.538-.115-1.056-.25-1.537-.46-.48-.192-.94-.442-1.344-.71-.404-.269-.75-.576-1.038-.883h-.019z"/>
        <path fill="#007BFF" d="M36.81 15.908c-.058-.268-.077-.575-.077-.882.02-.845.25-1.593.71-2.207.423-.575.961-1.074 1.614-1.439.615-.345 1.307-.614 2.037-.767.71-.154 1.44-.25 2.151-.25.596 0 1.153.058 1.633.173.48.115.961.288 1.422.537.346.192.576.403.75.672.172.268.25.556.25.844 0 .211-.059.441-.155.671-.115.25-.25.442-.46.614-.193.154-.423.288-.692.346-.308.077-.615.057-.942-.058-.384-.115-.787-.23-1.172-.307-.614-.153-1.287-.172-2.017-.038-.288.057-.538.134-.768.25-.212.114-.404.249-.538.421-.115.135-.173.308-.192.519 0 .057-.02.115.096.21.192.173.422.308.653.404.25.115.48.191.692.23.115.019.23.057.345.096.654.134 1.268.288 1.825.422.615.153 1.288.441 1.998.825.711.384 1.25.902 1.633 1.573.365.653.558 1.382.558 2.168 0 .787-.154 1.497-.462 2.092-.307.595-.73 1.093-1.229 1.496-.5.384-1.076.672-1.71.864-.615.192-1.268.307-1.94.307h-.212c-.518 0-1.037-.058-1.536-.154-.577-.115-1.134-.287-1.672-.499-.518-.21-1.018-.48-1.46-.767-.442-.307-.826-.633-1.152-.979l-.097-.096-.057-.115c-.154-.326-.23-.633-.23-.92 0-.48.191-.883.537-1.19.327-.288.73-.422 1.21-.422.25 0 .5.038.73.134.193.077.385.192.577.326l.058.038c.518.442 1.037.768 1.517.98.461.19 1.038.306 1.69.306.827 0 1.192-.173 1.365-.326.23-.23.365-.499.384-.844 0-.365-.058-.634-.211-.825-.173-.25-.404-.422-.673-.557-.307-.153-.672-.268-1.037-.364-.404-.096-.769-.154-1.076-.192h-.02c-.556-.096-1.113-.23-1.651-.403-.577-.192-1.076-.441-1.518-.748-.461-.327-.845-.749-1.133-1.229-.116-.21-.212-.422-.289-.652l-.057-.288zm1.018 6.524c.23.25.519.499.864.73.365.248.769.46 1.21.632.443.173.923.326 1.422.422.48.096.98.135 1.46.115.558-.019 1.076-.095 1.576-.249.48-.153.922-.364 1.287-.652.365-.269.634-.614.845-1.036.212-.403.308-.921.308-1.478 0-.556-.135-1.055-.385-1.496-.25-.442-.614-.787-1.095-1.056-.634-.345-1.19-.575-1.69-.71-.557-.134-1.153-.287-1.768-.422l-3.285-.69c.135.153.288.287.461.422.346.23.73.422 1.172.575.48.154.96.269 1.46.365.346.057.73.115 1.172.21.48.097.922.25 1.345.461.46.23.845.557 1.153.96.326.441.499 1.017.48 1.688v.02c-.039.71-.308 1.304-.807 1.765-.5.46-1.249.69-2.286.69-.845 0-1.595-.134-2.21-.403-.595-.249-1.21-.652-1.825-1.17-.115-.077-.21-.134-.307-.173-.058-.019-.134-.038-.23-.038-.193 0-.289.057-.346.096-.058.038-.077.077-.077.172.019.058.038.154.096.25zm.384-6.524h1.076c-.211-.307-.307-.652-.269-1.036.038-.499.211-.92.519-1.266.25-.307.576-.537.941-.73.346-.191.75-.306 1.153-.383.922-.153 1.767-.134 2.574.058.423.095.845.21 1.249.345l.038.02c.058.018.115.037.154.018.077-.019.134-.038.173-.076.038-.039.057-.077.096-.116.038-.076.038-.115.038-.134 0-.038-.019-.096-.057-.153-.039-.058-.116-.135-.23-.192-.347-.173-.712-.307-1.096-.403-.384-.096-.826-.134-1.325-.134-.615 0-1.23.076-1.845.21-.615.135-1.172.346-1.671.634-.48.268-.884.614-1.191 1.055-.288.403-.442.883-.442 1.458-.02.307.02.576.115.825z"/>
    </g>
    <defs>
        <clipPath id="clip0">
            <path fill="#fff" d="M0 0H95V93H0z"/>
        </clipPath>
    </defs>
</svg>
