<svg xmlns="http://www.w3.org/2000/svg" width="60" height="98" fill="none" viewBox="0 0 60 98">
    <path fill="#CCE6FF" d="M42.63 37.934V53.74H26.84l-6.315 6.323V53.74h-3.158V37.934H42.63zM39.472 7.905H20.525l-3.158-6.323H42.63l-3.158 6.323z"/>
    <path fill="#007BFF" d="M42.631 36.355H17.368c-.868 0-1.579.712-1.579 1.581v15.807c0 .869.71 1.58 1.579 1.58h1.579v4.742c0 .87.71 1.58 1.579 1.58.414 0 .829-.157 1.125-.454l5.862-5.868H42.63c.869 0 1.58-.711 1.58-1.58V37.936c0-.87-.711-1.58-1.58-1.58zm-1.579 15.807h-14.21c-.415 0-.83.158-1.125.454l-3.612 3.636v-2.51c0-.869-.71-1.58-1.58-1.58h-1.578V39.517h22.105v12.645z"/>
    <path fill="#007BFF" d="M52.105 0H7.895C3.533 0 0 3.537 0 7.903v82.194C0 94.463 3.533 98 7.895 98h44.21C56.467 98 60 94.463 60 90.097V7.903C60 3.537 56.467 0 52.105 0zm-12.02 3.161l-1.578 3.162H21.513L19.934 3.16h20.152zm16.757 86.936c0 2.608-2.131 4.742-4.737 4.742H7.895c-2.606 0-4.737-2.134-4.737-4.742V7.903c0-2.608 2.131-4.742 4.737-4.742H16.4l2.724 5.454c.276.533.81.869 1.421.869h18.947c.593 0 1.145-.336 1.421-.87L43.6 3.162h8.506c2.606 0 4.737 2.134 4.737 4.742v82.194z"/>
    <path fill="#007BFF" d="M17.369 88.516H7.895c-.868 0-1.579.71-1.579 1.58 0 .87.71 1.58 1.58 1.58h9.473c.869 0 1.579-.71 1.579-1.58 0-.87-.71-1.58-1.579-1.58zM23.685 88.516h-1.579c-.868 0-1.579.71-1.579 1.58 0 .87.71 1.58 1.58 1.58h1.578c.869 0 1.58-.71 1.58-1.58 0-.87-.711-1.58-1.58-1.58z"/>
</svg>
