<svg xmlns="http://www.w3.org/2000/svg" width="106" height="106" fill="none" viewBox="0 0 106 106">
    <g clip-path="url(#clip0)">
        <path fill="#CCE6FF" d="M88.688 31.463l-14.15-14.15c-3.912 3.911-10.24 3.911-14.15 0l-40.08 40.1c3.912 3.911 3.912 10.238 0 14.15l14.151 14.15c3.912-3.911 10.239-3.911 14.15 0l40.08-40.078c-3.913-3.933-3.913-10.26 0-14.172zM65.111 62.115c-5.857 5.857-15.369 5.857-21.226 0-5.856-5.857-5.856-15.369 0-21.226 5.857-5.856 15.37-5.856 21.226 0 5.857 5.857 5.857 15.37 0 21.226zm23.577-30.652l-14.15-14.15c-3.912 3.911-10.24 3.911-14.15 0l-40.08 40.1c3.912 3.911 3.912 10.238 0 14.15l14.151 14.15c3.912-3.911 10.239-3.911 14.15 0l40.08-40.078c-3.913-3.933-3.913-10.26 0-14.172zM65.111 62.115c-5.857 5.857-15.369 5.857-21.226 0-5.856-5.857-5.856-15.369 0-21.226 5.857-5.856 15.37-5.856 21.226 0 5.857 5.857 5.857 15.37 0 21.226z"/>
        <path fill="#CCE6FF" d="M50.96 47.965l-1.175-1.176 1.176 1.176z"/>
        <path fill="#CCE6FF" d="M88.688 31.463l-14.15-14.15c-3.912 3.911-10.24 3.911-14.15 0l-40.08 40.1c3.912 3.911 3.912 10.238 0 14.15l14.151 14.15c3.912-3.911 10.239-3.911 14.15 0l40.08-40.078c-3.913-3.933-3.913-10.26 0-14.172zM65.111 62.115c-5.857 5.857-15.369 5.857-21.226 0-5.856-5.857-5.856-15.369 0-21.226 5.857-5.856 15.37-5.856 21.226 0 5.857 5.857 5.857 15.37 0 21.226zM2.8 103.199l20.008-20.008L2.801 103.2zM14.472 73.188l-5.835 5.835 5.835-5.835zM5.302 82.356l-2.501 2.5 2.5-2.5zM2.8 93.193l10.838-10.837L2.801 93.193zM29.478 88.195l-6.67 6.67 6.67-6.67zM34.477 94.863l-8.336 8.337 8.336-8.337zM19.472 98.195l-1.667 1.668 1.667-1.668z"/>
        <path fill="#007BFF" d="M54.723 67.377c-4.275 0-8.358-1.689-11.393-4.703-6.306-6.284-6.306-16.502-.022-22.786 6.285-6.284 16.502-6.306 22.786-.021 6.306 6.284 6.306 16.501.022 22.786-3.014 3.014-7.118 4.724-11.393 4.724zm-9.106-6.99c5.023 5.023 13.188 5.023 18.212 0 5.023-5.023 5.023-13.189 0-18.212-5.024-5.023-13.189-5.023-18.212 0-5.023 5.045-5.023 13.189 0 18.212z"/>
        <path fill="#007BFF" d="M41.427 102.581c-.45 0-.898-.171-1.219-.491L3.934 65.794c-.662-.662-.662-1.752 0-2.415L66.821.493c.662-.663 1.752-.663 2.415 0l36.274 36.274c.662.663.662 1.753 0 2.415l-62.886 62.886c-.32.321-.748.513-1.197.513zM7.568 64.597l33.859 33.859 60.449-60.45-33.858-33.88-60.45 60.471z"/>
        <path fill="#007BFF" d="M88.153 33.324c-.428 0-.856-.171-1.155-.47l-13.83-13.83c-.64-.641-.64-1.667 0-2.309.642-.64 1.668-.64 2.309 0l13.83 13.83c.641.641.641 1.667 0 2.309-.3.299-.727.47-1.154.47zM48.949 86.356c-.898 0-1.625-.726-1.625-1.624 0-.427.171-.855.47-1.154l39.203-39.203c.641-.64 1.667-.64 2.308 0 .641.642.641 1.668 0 2.309l-39.202 39.18c-.3.322-.705.492-1.154.492zM21.293 58.677c-.898 0-1.625-.727-1.625-1.625 0-.427.171-.855.47-1.154L59.34 16.696c.642-.642 1.668-.642 2.309 0 .641.641.641 1.667 0 2.308L22.447 58.207c-.32.299-.727.47-1.154.47zM35.121 86.357c-.427 0-.855-.171-1.154-.47l-13.83-13.851c-.641-.642-.641-1.668 0-2.309.642-.641 1.668-.641 2.309 0l13.83 13.83c.64.641.64 1.667 0 2.308-.3.321-.727.492-1.155.492z"/>
        <path fill="#007BFF" d="M21.291 72.527c-.897 0-1.624-.727-1.624-1.624 0-.428.17-.856.47-1.155 3.185-3.185 3.185-8.336 0-11.521-.641-.641-.641-1.667 0-2.309.642-.64 1.668-.64 2.309 0 4.446 4.468 4.446 11.693 0 16.139-.32.299-.727.47-1.155.47zM35.12 86.356c-.897 0-1.624-.727-1.624-1.625 0-.427.171-.855.47-1.154 4.468-4.446 11.693-4.446 16.139 0 .64.641.64 1.667 0 2.308-.642.641-1.668.641-2.309 0-3.185-3.185-8.336-3.185-11.521 0-.3.3-.727.47-1.154.47zM67.397 22.339c-3.036 0-5.943-1.197-8.08-3.335-.641-.64-.641-1.667 0-2.308.641-.642 1.667-.642 2.308 0 3.185 3.185 8.337 3.185 11.522 0 .64-.642 1.667-.642 2.308 0 .642.641.642 1.667 0 2.308-2.116 2.16-5.023 3.356-8.058 3.335zM88.153 47.153c-.428 0-.855-.17-1.154-.47-4.447-4.468-4.447-11.692 0-16.138.64-.642 1.667-.62 2.308.021.62.641.62 1.667 0 2.287-3.185 3.185-3.185 8.337 0 11.521.641.642.641 1.668 0 2.309-.3.3-.727.47-1.154.47zM1.71 106c-.94 0-1.71-.769-1.71-1.71 0-.449.171-.897.492-1.218l20.52-20.52c.662-.663 1.753-.663 2.415 0 .663.662.663 1.752 0 2.415l-20.52 20.52c-.3.342-.748.513-1.197.513zM7.694 81.207c-.94 0-1.71-.77-1.71-1.71 0-.449.171-.897.492-1.218l5.985-5.985c.663-.663 1.753-.663 2.415 0 .663.663.663 1.753 0 2.415l-5.985 5.985c-.299.342-.748.513-1.197.513zM1.71 87.19c-.94 0-1.71-.77-1.71-1.71 0-.45.171-.898.492-1.219l2.565-2.565c.662-.662 1.752-.662 2.415 0 .663.663.663 1.753 0 2.416l-2.565 2.565c-.3.342-.748.513-1.197.513zM1.71 95.74c-.94 0-1.71-.77-1.71-1.71 0-.45.171-.898.492-1.219l11.115-11.115c.662-.662 1.753-.662 2.415 0 .663.663.663 1.753 0 2.416L2.907 95.227c-.3.342-.748.513-1.197.513zM22.23 97.45c-.941 0-1.71-.77-1.71-1.71 0-.45.17-.899.491-1.22l6.84-6.84c.663-.662 1.753-.662 2.416 0 .662.663.662 1.753 0 2.416l-6.84 6.84c-.3.342-.749.513-1.197.513zM25.651 106.003c-.94 0-1.71-.77-1.71-1.71 0-.449.171-.898.492-1.219l8.55-8.55c.663-.662 1.753-.662 2.416 0 .662.663.662 1.753 0 2.416l-8.55 8.55c-.3.342-.749.513-1.198.513zM17.1 102.581c-.94 0-1.71-.77-1.71-1.71 0-.449.172-.898.492-1.219l1.71-1.71c.663-.662 1.753-.662 2.416 0 .662.663.662 1.753 0 2.416l-1.71 1.71c-.3.342-.748.513-1.197.513zM54.165 59.144c-.257-.107-.47-.235-.62-.385-.214-.213-.3-.47-.278-.77.022-.298.171-.576.428-.811.128-.129.299-.236.449-.3.17-.064.363-.107.555-.15.834-.064 1.582-.213 2.202-.448.62-.235 1.24-.642 1.838-1.219.684-.662 1.026-1.26 1.07-1.816.02-.556-.15-1.07-.535-1.518-.385-.428-.813-.684-1.261-.748-.45-.064-.898-.043-1.326.107-.427.128-.855.342-1.26.598-.407.257-.77.492-1.07.706-.491.341-1.004.64-1.56.897-.534.257-1.069.428-1.582.513-.534.086-1.047.064-1.539-.085-.491-.15-.962-.45-1.39-.898-.534-.577-.854-1.218-.961-1.924-.107-.684-.043-1.39.15-2.073.213-.684.513-1.368.94-2.01.428-.64.898-1.218 1.432-1.73.45-.428.877-.77 1.304-1.027.428-.256.898-.449 1.39-.598.277-.064.513-.086.726-.022.214.064.385.15.513.278.086.107.171.235.235.385.065.17.086.32.065.492-.022.17-.086.341-.172.512-.106.172-.256.3-.491.407-.428.213-.834.449-1.24.684-.406.235-.77.513-1.133.855-.256.256-.513.534-.748.855-.235.32-.406.662-.534 1.004-.107.342-.171.684-.15 1.048.021.342.15.684.406 1.004.214.278.492.385.855.364.364-.022.727-.107 1.048-.235.342-.129.62-.257.876-.428.235-.15.363-.214.342-.214.62-.384 1.218-.748 1.774-1.047.556-.32 1.24-.577 2.074-.812.726-.214 1.432-.214 2.116 0 .684.192 1.282.577 1.795 1.111.535.556.898 1.133 1.069 1.732.192.598.235 1.218.15 1.817-.086.598-.3 1.197-.62 1.774S60.79 56.13 60.3 56.6c-.406.428-.877.813-1.39 1.133-.513.342-1.047.599-1.581.834-.535.214-1.09.363-1.625.47-.534.086-1.047.129-1.518.086l-.021.021z"/>
        <path fill="#007BFF" d="M48.48 53.95c-.257-.17-.513-.384-.748-.64-.642-.685-1.026-1.476-1.155-2.31-.106-.79-.042-1.603.193-2.394.214-.748.577-1.496 1.026-2.201.449-.684.962-1.304 1.517-1.86.47-.47.962-.833 1.454-1.133.492-.277 1.005-.513 1.539-.684.406-.107.79-.128 1.111-.042.343.085.642.256.855.491.172.171.3.385.385.642.107.277.129.555.107.833-.021.278-.128.556-.278.812-.17.3-.449.535-.812.684-.406.214-.79.428-1.176.642-.342.213-.684.449-.983.748-.235.214-.449.47-.663.77-.192.256-.32.512-.427.79-.085.257-.128.513-.107.77 0 .192.086.363.257.555.042.065.085.107.235.086.299-.021.577-.086.833-.171.3-.107.535-.235.727-.342.107-.064.235-.15.342-.193.62-.384 1.218-.748 1.796-1.068.598-.342 1.368-.642 2.244-.877.855-.235 1.71-.235 2.522 0 .813.236 1.518.684 2.117 1.304.62.642 1.026 1.326 1.26 2.03.214.706.278 1.433.172 2.16-.107.684-.342 1.368-.706 2.03-.342.642-.79 1.219-1.304 1.753-.449.47-.962.877-1.517 1.24-.556.363-1.133.663-1.71.898s-1.176.406-1.774.513c-.428.085-.834.107-1.24.107-.15 0-.3 0-.428-.022h-.15l-.128-.042c-.363-.129-.684-.321-.897-.556-.364-.385-.535-.855-.492-1.368.043-.47.257-.92.641-1.283.214-.192.45-.363.706-.449.213-.085.449-.15.705-.192h.085c.77-.043 1.433-.192 1.988-.385.514-.192 1.048-.555 1.582-1.068.663-.642.813-1.07.834-1.326.021-.363-.086-.662-.342-.983-.278-.3-.535-.47-.812-.513-.342-.064-.642-.021-.984.064-.384.128-.748.3-1.09.513-.385.235-.727.47-1.026.684l-.021.022c-.535.363-1.09.684-1.646.961-.599.3-1.197.492-1.796.578-.62.106-1.26.064-1.86-.107-.256-.065-.49-.171-.726-.3l-.235-.17zm5.857 4.446c.384.022.812 0 1.26-.085.492-.086.984-.235 1.476-.428.491-.192.983-.449 1.453-.77.47-.298.898-.64 1.261-1.025.428-.428.791-.92 1.07-1.432.277-.492.448-1.005.534-1.518.085-.491.042-.983-.129-1.496-.15-.492-.449-.983-.898-1.432-.427-.45-.919-.748-1.474-.92-.556-.17-1.09-.15-1.689 0-.77.214-1.41.47-1.902.749-.556.32-1.133.662-1.732 1.026l-3.163 1.966c.235.022.448 0 .684-.021.448-.064.919-.214 1.389-.449.492-.235.983-.513 1.454-.834.32-.235.684-.47 1.09-.726.47-.278.94-.513 1.432-.663.556-.171 1.111-.214 1.667-.128.62.106 1.176.427 1.689.983l.021.021c.513.599.748 1.283.706 2.031-.043.77-.47 1.518-1.283 2.309-.663.64-1.368 1.111-2.095 1.389-.684.256-1.475.427-2.373.492-.15.02-.277.064-.384.106-.086.022-.15.086-.214.15-.15.15-.192.278-.192.342s0 .107.064.192c.064.064.15.129.278.171zM52.969 44.14c-.065 0-.15.021-.236.043-.406.128-.812.3-1.197.534-.384.214-.769.535-1.175.92-.492.47-.92 1.004-1.325 1.602-.385.578-.663 1.176-.855 1.796-.171.577-.214 1.176-.129 1.753.086.534.321 1.047.77 1.517.235.257.491.47.748.578l.876-.834c-.406-.086-.748-.3-1.026-.62-.342-.427-.534-.898-.577-1.41-.021-.428.043-.877.171-1.326.128-.428.342-.834.62-1.218.257-.364.535-.684.834-.962.384-.385.812-.706 1.26-.962.407-.235.834-.47 1.262-.706l.043-.02c.064-.022.128-.065.15-.108.042-.064.063-.15.085-.192 0-.064 0-.107-.022-.171-.042-.107-.064-.128-.064-.128-.042-.043-.107-.065-.15-.065 0-.02-.02-.02-.063-.02z"/>
    </g>
    <defs>
        <clipPath id="clip0">
            <path fill="#fff" d="M0 0H106V106H0z"/>
        </clipPath>
    </defs>
</svg>
