<svg xmlns="http://www.w3.org/2000/svg" width="67" height="105" fill="none" viewBox="0 0 67 105">
    <g clip-path="url(#clip0)">
        <path fill="#CEE8FA" d="M34.216 47.108c10.19 0 18.45-8.3 18.45-18.54 0-10.24-8.26-18.54-18.45-18.54s-18.45 8.3-18.45 18.54c0 10.24 8.26 18.54 18.45 18.54z"/>
        <path fill="#007BFF" d="M33.465 48.102c-11.155 0-20.238-9.129-20.238-20.338 0-11.21 9.084-20.338 20.238-20.338 11.155 0 20.24 9.128 20.24 20.338s-9.085 20.338-20.24 20.338zm0-37.105c-9.201 0-16.708 7.52-16.708 16.79s7.483 16.79 16.708 16.79c9.226 0 16.71-7.52 16.71-16.79s-7.484-16.79-16.71-16.79z"/>
        <path fill="#007BFF" d="M27.182 25.068c-.047-.307-.07-.615-.07-.946.023-.898.305-1.702.8-2.364.47-.615 1.058-1.136 1.74-1.514.66-.355 1.413-.639 2.19-.804.776-.166 1.553-.237 2.306-.213.635 0 1.224.095 1.741.213.518.142 1.036.331 1.506.591.353.213.612.45.777.733.165.308.259.615.259.922 0 .237-.07.474-.165.71-.117.26-.282.473-.494.639-.212.165-.47.283-.753.354-.33.071-.659.047-1.012-.07-.424-.143-.824-.26-1.247-.355-.377-.095-.777-.142-1.177-.166-.306 0-.635.024-.965.071-.306.047-.588.142-.824.26-.235.118-.423.26-.588.45-.117.141-.188.307-.212.543 0 .071-.023.119.095.213.211.19.447.331.682.45.259.118.518.212.73.26.117.023.258.047.376.094.682.166 1.341.331 1.953.497.636.19 1.365.497 2.118.922.753.426 1.318.993 1.718 1.727.377.709.565 1.49.565 2.34-.023.852-.188 1.609-.541 2.247-.33.639-.8 1.16-1.342 1.585-.54.402-1.153.71-1.835.898-.66.19-1.365.308-2.095.308-.612 0-1.247-.047-1.882-.19-.612-.141-1.224-.33-1.765-.567-.565-.236-1.083-.52-1.554-.851-.353-.237-.659-.497-.917-.78-.095-.095-.189-.213-.283-.308l-.094-.095-.047-.118c-.165-.355-.235-.686-.235-.993 0-.497.211-.946.588-1.253.353-.308.8-.45 1.294-.426.283 0 .542.07.777.165.212.095.4.213.612.355l.047.047c.565.473 1.106.852 1.6 1.088.494.213 1.083.331 1.789.355.894.024 1.294-.166 1.459-.331.259-.237.4-.52.423-.899.024-.378-.047-.686-.211-.898-.189-.26-.424-.473-.706-.615-.33-.166-.706-.308-1.107-.402-.423-.095-.823-.19-1.153-.237h-.023c-.612-.118-1.2-.284-1.765-.473-.612-.213-1.153-.496-1.624-.827-.494-.355-.894-.805-1.2-1.349-.118-.212-.212-.449-.283-.709"/>
        <path fill="#CEE8FA" d="M21.605 101.548h22.592l7.53-14.52H14.075l7.531 14.52z"/>
        <path fill="#007BFF" d="M31.465 45.664v18.99c-4.99-7.591-14.262-11.139-23.016-8.797l-3.695.993c-1.012.284-1.624 1.324-1.341 2.365l.988 3.713c2.471 9.223 10.779 15.655 20.31 15.679 1.859 0 3.694-.237 5.483-.733l1.294-.355v7.118h-17.25c-.612 0-1.176.284-1.53.757-.353.473-.47 1.111-.306 1.679l7.649 16.507c.235.827.988 1.395 1.836 1.395h22.968c.848 0 1.6-.568 1.836-1.395l7.648-16.507c.165-.591.047-1.206-.306-1.68-.353-.472-.917-.756-1.53-.756H35.302V71.749l1.294.354c1.789.473 3.624.733 5.483.733 9.508-.023 17.839-6.456 20.31-15.679l.988-3.712c.26-1.017-.33-2.082-1.341-2.342l-3.695-.993c-8.755-2.341-18.027 1.206-23.016 8.797v-13.22l-3.86-.023zm-2.26 28.497c-9.178 2.483-18.638-3.004-21.086-12.25l-.494-1.869 1.86-.496c9.178-2.46 18.614 3.003 21.085 12.226l.495 1.868-1.86.52zm14.215 26.983H23.346L16.78 88.468h33.206l-6.566 12.676zm15.25-44.98c-2.471 9.223-11.909 14.71-21.087 12.226l-1.835-.496.494-1.868c2.471-9.223 11.908-14.686 21.086-12.227l1.86.497-.519 1.868zM8.19 17.545c-.236-.023-.448-.07-.66-.189L2.918 15.11c-.942-.449-1.318-1.584-.871-2.53.447-.946 1.577-1.324 2.518-.875l4.613 2.27c.941.45 1.317 1.585.87 2.53-.353.71-1.106 1.089-1.859 1.041zM7.907 26.343c-.188.119-.4.213-.659.26l-5.036.947c-1.012.189-2-.497-2.189-1.514-.188-1.017.495-2.01 1.507-2.2l5.036-.945c1.012-.19 2 .496 2.188 1.513.165.78-.211 1.538-.847 1.94zM11.862 9.602c-.188-.118-.353-.284-.494-.473L8.355 4.943c-.612-.851-.423-2.034.424-2.625.847-.615 2.024-.426 2.612.426L14.38 6.93c.612.85.423 2.033-.424 2.625-.611.449-1.459.449-2.094.047zM56.812 14.849c.165-.142.376-.26.612-.331l4.871-1.632c.989-.331 2.048.213 2.377 1.206.33.993-.212 2.058-1.2 2.389L58.6 18.089c-.988.33-2.047-.213-2.377-1.206-.235-.757.024-1.561.589-2.034zM50.904 8.324c.047-.213.141-.426.282-.639l2.965-4.21c.589-.85 1.765-1.04 2.613-.449.847.591 1.035 1.774.447 2.625l-2.965 4.21c-.589.851-1.765 1.04-2.613.449-.635-.45-.894-1.253-.73-1.986zM59.706 23.106c.212-.048.447-.048.683 0l5.06.898c1.011.19 1.694 1.16 1.53 2.176-.165 1.017-1.154 1.703-2.166 1.537l-5.06-.898c-1.011-.19-1.694-1.16-1.53-2.176.142-.804.754-1.395 1.483-1.537z"/>
    </g>
    <defs>
        <clipPath id="clip0">
            <path fill="#fff" d="M0 0H67V105H0z"/>
        </clipPath>
    </defs>
</svg>
