<svg xmlns="http://www.w3.org/2000/svg" width="276" height="259" fill="none" viewBox="0 0 276 259">
    <mask id="k9lxm0397a" width="276" height="259" x="0" y="0" maskUnits="userSpaceOnUse">
        <path fill="#F0F6FF" d="M0 0H276V259H0z"/>
    </mask>
    <g mask="url(#k9lxm0397a)">
        <path fill="#D6A488" d="M102.388 73.625c1.602 10.008 3.026 24.73-4.182 31.136 0 0 0 10.185 27.897 22.195 10.723-14.234 3.292-21.083 3.292-21.083-11.078-3.069-10.634-7.562-8.409-15.257l-18.598-16.991z"/>
        <path fill="#000" d="M109.951 80.477l10.901 10.14c-.534 1.78-.935 3.604-1.157 5.472-4.272-.756-10.812-4.626-11.568-9.296.044-2.224.667-4.404 1.824-6.316z" opacity=".2"/>
        <path fill="#D6A488" d="M89.974 56.053c3.915 16.502 5.205 23.575 15.127 30.691 14.905 10.72 34.349 2.269 35.461-15.078.979-15.613-5.606-40.076-23.092-43.813-12.458-2.802-24.871 5.071-27.63 17.525-.8 3.514-.756 7.161.134 10.675z"/>
        <path fill="#1E2E34" d="M117.334 55.791c.267 1.335 1.157 2.358 2.047 2.18.89-.133 1.424-1.379 1.201-2.758-.222-1.334-1.156-2.357-2.046-2.18-.89.179-1.38 1.469-1.202 2.758zM132.682 53.208c.267 1.378 1.157 2.357 2.047 2.18.89-.134 1.424-1.38 1.201-2.759-.222-1.334-1.157-2.357-2.047-2.18-.889.179-1.423 1.38-1.201 2.759z"/>
        <path fill="#C6847A" d="M128.368 56.457c1.735 2.891 3.915 5.515 6.362 7.828-1.245 1.246-2.936 1.869-4.716 1.735l-1.646-9.563z"/>
        <path fill="#1E2E34" d="M123.566 72.648c.668 0 1.379-.089 2.047-.178.222-.044.356-.222.356-.445-.045-.222-.267-.356-.49-.311-3.426.667-6.941-.356-9.521-2.713-.134-.178-.401-.178-.579 0-.178.133-.178.4 0 .578 2.181 2.046 5.117 3.158 8.187 3.069zM110.707 51.698c.311.178.711.133.934-.089 2.18-1.557 4.894-2.09 7.519-1.512.445.089.89-.178.979-.623.089-.445-.178-.845-.578-.934h-.045c-3.114-.712-6.407 0-8.987 1.913-.312.311-.356.8-.045 1.112.089.044.134.133.223.133zM137.18 46.984c.267-.09.489-.312.578-.578.089-.445-.133-.89-.578-.98-2.536-.755-5.295-.221-7.342 1.424-.311.267-.356.756-.089 1.068l.045.044c.311.312.801.356 1.112.045 1.646-1.246 3.782-1.646 5.784-1.023.178.044.356.044.49 0z"/>
        <path fill="#D6A488" d="M208.682 161.961l20.511-19.882 1.291-9.83c.267-1.958 1.512-3.603 3.337-4.359l4.093-1.735c1.157-.489 2.091-1.335 2.67-2.402l1.468-2.624c1.646-3.025 5.65-3.781 8.32-1.602 1.246.979 5.565-1.327 7.343 4.226 1.778 5.553-5.341 13.967-5.341 13.967 0 1.912-.979 3.647-2.58 4.67l-12.547 7.917-20.423 24.686-8.142-13.032z"/>
        <path fill="#227DFA" d="M143.584 106.986s13.704 2.402 39.554 51.907l4.316 7.962c2.314 4.27 8.009 5.338 11.702 2.135l15.083-12.943 9.566 14.144s-24.783 31.847-38.932 29.357c-14.148-2.491-31.501-44.124-31.501-44.124s-21-54.754-9.788-48.438z"/>
        <path fill="#000" d="M173.844 191.407c-10.768-12.81-20.423-35.94-20.423-35.94s-3.648-9.474-7.074-20.104l12.369-8.496s13.393 42.523 15.128 64.54z" opacity=".1"/>
        <path fill="#227DFA" d="M135.709 105.472c15.127 1.868 26.162 5.293 25.45 56.222-.712 50.929-2.848 101.858-2.848 101.858H65.632s4.227-77.794 0-109.642c-4.226-31.847-1.423-47.37 18.376-48.438 19.888-1.067 38.397-1.646 51.701 0z"/>
        <path fill="#227DFA" d="M130.062 100.001v6.494s-2.002 6.45-19.576 6.094c-17.575-.356-18.954-8.095-18.954-8.095v-4.76c0-3.38 3.07-5.915 6.407-5.248 5.027 1.023 13.392 1.69 26.161.178 3.204-.4 5.962 2.135 5.962 5.337z"/>
        <path fill="#000" d="M218.2 176.906l-9.076-16.413 4.449-3.825 8.81 15.301c-.979 1.201-2.447 2.936-4.183 4.937z" opacity=".1"/>
        <path fill="#227DFA" d="M216.377 151.643l11.123 18.014-3.693 7.606-13.437-21.751 6.007-3.869z"/>
        <path fill="#000" d="M110.485 112.545c17.575.356 19.577-6.093 19.577-6.093v-1.513s5.161 10.008-10.1 11.61c-15.261 1.601-25.36-5.738-27.452-10.097 1.735 2.313 6.23 5.871 17.975 6.093zM66.48 134.207h13.48s-7.474 29.357-12.546 46.659c-.223-10.364-.757-19.793-1.735-26.91-.712-5.382-1.202-10.23-1.469-14.678l2.27-5.071z" opacity=".1"/>
        <path fill="#D6A488" d="M53.667 216.893l11.924 33.404 9.567 6.716c1.334.934 2.135 2.446 2.135 4.092v5.649c0 .534.09 1.023.223 1.512.89 2.758-.757 5.694-3.56 6.361l-6.718 1.646c-1.958.489-4.005-.267-5.206-1.868l-4.939-6.628c-.667-.845-.979-1.912-.979-2.98v-9.741l-15.127-33.76 12.68-4.403z"/>
        <path fill="#227DFA" d="M84.097 105.473s-18.731 1.423-30.433 20.861c-11.657 19.437-22.291 62.226-19.087 79.218 3.203 16.991 7.43 26.153 7.43 26.153l17.04-6.716s-5.739-13.477-4.315-27.444c1.424-13.922 28.653-68.053 29.365-74.414.712-6.316 6.363-16.235 0-17.658z"/>
        <path fill="#000" d="M56.689 217.783c1.157 4.404 2.358 7.25 2.358 7.25l-17.04 6.717s-1.291-2.802-2.937-8.096l17.619-5.871z" opacity=".1"/>
        <path fill="#227DFA" d="M61.988 228.058l-20.11 6.761-6.586-5.382 24.25-8.14 2.446 6.761z"/>
        <path fill="#1E2E34" d="M118.936 38.218c5.918-1.557 20.867-6.894 13.748-20.15-7.074-13.254-8.898 3.56-15.083 4.582-6.184 1.068-27.719.178-29.32 18.726 0 0-7.075 11.298 3.203 27 0 0 7.92-1.335 6.674-7.874-1.201-6.538 1.78-7.784 4.182-9.919 2.403-2.135.623-9.207.623-9.207s12.058-2.09 15.973-3.158z"/>
        <path fill="#D6A488" d="M87.658 69.668c1.557 2.802 4.182 4.892 7.252 5.782 4.138 1.112 6.184-2.58 5.028-6.45-1.068-3.513-4.494-8.317-8.632-7.783-2.981.489-5.028 3.291-4.538 6.271.133.756.4 1.513.89 2.18z"/>
        <path fill="#1E2E34" d="M98.072 56.279l11.257-1.78c.979-2.846 5.027-3.513 6.763-3.78 1.779-.267 6.095-.979 7.786 1.823l3.915-.622c.757-3.158 5.072-3.87 6.852-4.137 2.091-.311 7.653-1.2 8.409 3.559.623 3.78-2.358 7.428-6.585 8.095-4.226.667-8.142-1.868-8.765-5.649-.044-.267-.044-.534-.044-.756l-3.382.534c.089.222.134.489.178.756.623 3.78-2.358 7.428-6.585 8.095-4.226.667-8.142-1.868-8.765-5.649-.044-.4-.089-.756-.044-1.112l-10.901 1.735c-1.468.222-2.848.978-3.826 2.135l-.801-.712c1.201-1.423 2.803-2.268 4.538-2.535zm38.264 2.046c3.648-.578 6.184-3.647 5.695-6.894-.4-2.625-2.581-3.425-7.208-2.67-4.627.757-6.451 2.18-6.006 4.805.489 3.202 3.871 5.337 7.519 4.759zm-18.598 2.98c3.648-.578 6.184-3.647 5.695-6.894-.4-2.625-2.581-3.425-7.208-2.67-4.627.757-6.451 2.18-6.006 4.805.489 3.158 3.87 5.337 7.519 4.759z"/>
        <path fill="#000" d="M88.055 61.748c-4.138-10.408-.98-17.925 0-19.838v19.838zM86.764 67.439c-.267-1.646.267-3.247 1.29-4.404v7.206c-.133-.223-.31-.4-.4-.578-.49-.668-.756-1.424-.89-2.224z" opacity=".2"/>
    </g>
</svg>
