<svg xmlns="http://www.w3.org/2000/svg" width="56" height="56" viewBox="0 0 56 56">
    <g fill="none" fill-rule="evenodd">
        <g>
            <g>
                <g>
                    <path fill="#FF4F00" stroke="#FFF" stroke-width=".4" d="M21.551 35.027c0-5.94-4.835-10.775-10.775-10.775-2.16 0-4.243.637-6.026 1.842-.538.362-.68 1.092-.315 1.63.362.538 1.093.68 1.63.316 1.393-.94 3.022-1.438 4.71-1.438 4.647 0 8.426 3.78 8.426 8.425 0 4.647-3.78 8.426-8.425 8.426-4.646 0-8.426-3.78-8.426-8.426 0-1.347.308-2.634.916-3.825.295-.578.066-1.285-.511-1.58-.578-.295-1.286-.067-1.582.512C.407 31.637 0 33.33 0 35.027c0 5.943 4.834 10.776 10.776 10.776 5.94 0 10.775-4.833 10.775-10.776z" transform="translate(-451 -414) translate(451 414) translate(4 5.242)"/>
                    <g stroke="#FF4F00" stroke-width="1.8">
                        <g>
                            <path d="M11.904 8.371c-3.3-.984-6.818-.984-10.118 0C.83 8.664.075 9.778.074 10.737v2.8c.882.904 1.936 1.637 3.112 2.144v-4.359 4.359c1.18.509 2.479.793 3.844.793 1.209 0 2.38-.229 3.477-.65v-4.502 4.502c1.138-.436 2.19-1.09 3.11-1.941v-3.146c-.001-.961-.754-2.073-1.713-2.366z" transform="translate(-451 -414) translate(451 414) translate(4 5.242) translate(3.918 28.17)"/>
                            <path d="M6.845.635c-1.9 0-3.44 1.54-3.44 3.44s1.54 3.44 3.44 3.44 3.44-1.54 3.44-3.44-1.54-3.44-3.44-3.44z" transform="translate(-451 -414) translate(451 414) translate(4 5.242) translate(3.918 28.17)"/>
                        </g>
                    </g>
                    <g>
                        <path stroke="#FF4F00" stroke-linejoin="round" stroke-width="1.8" d="M15.616 0C6.99 0 0 6.988 0 15.615c0 3.853 1.4 7.372 3.717 10.098L.077 32.61l6.618-4.192c2.53 1.766 5.6 2.81 8.921 2.81 8.621 0 15.611-6.992 15.611-15.613C31.227 6.988 24.237 0 15.616 0z" transform="translate(-451 -414) translate(451 414) translate(4 5.242) translate(16.328)"/>
                        <path stroke="#FF4F00" stroke-width="1.8" d="M27.353 15.596c0 6.595-5.346 11.94-11.941 11.94-6.594 0-11.94-5.345-11.94-11.94 0-6.594 5.346-11.94 11.94-11.94 6.595 0 11.94 5.346 11.94 11.94z" transform="translate(-451 -414) translate(451 414) translate(4 5.242) translate(16.328)"/>
                        <path fill="#FF4F00" stroke="#FF3900" stroke-width=".4" d="M15.998 16.951c0 .397-.073.746-.22 1.046-.147.3-.345.552-.597.755-.251.198-.544.35-.881.45-.336.101-.696.152-1.079.152-.258 0-.5-.021-.724-.064-.22-.043-.415-.094-.585-.152-.17-.063-.313-.127-.429-.193-.113-.065-.194-.125-.244-.176-.05-.05-.087-.123-.11-.216-.02-.097-.029-.236-.029-.414 0-.122.004-.224.011-.305.009-.083.02-.15.035-.2.02-.05.042-.086.07-.104.031-.024.066-.036.105-.036.054 0 .129.034.226.1.1.063.228.133.383.21.154.08.337.15.55.217.217.063.466.093.747.093.186 0 .352-.021.499-.064.147-.047.27-.112.37-.193.105-.081.185-.182.239-.304.054-.121.082-.256.082-.404 0-.171-.047-.318-.14-.437-.093-.127-.214-.235-.365-.328-.146-.099-.315-.188-.504-.27-.19-.086-.385-.175-.586-.27-.201-.092-.396-.197-.585-.314-.19-.121-.36-.263-.51-.427-.147-.168-.268-.365-.36-.59-.093-.228-.139-.499-.139-.814 0-.363.065-.68.196-.954.136-.276.316-.504.54-.683.228-.184.494-.32.8-.41.31-.09.636-.134.98-.134.177 0 .355.013.533.04.177.028.343.064.498.111.155.047.292.1.412.158.12.059.199.107.237.146.039.04.064.073.076.1.016.028.027.064.035.111.012.043.02.1.023.17.003.066.006.15.006.25 0 .115-.004.21-.012.288-.004.078-.013.142-.029.192-.01.051-.03.089-.058.112-.023.023-.055.035-.099.035-.042 0-.11-.027-.202-.081-.094-.055-.207-.114-.343-.176-.135-.067-.291-.125-.47-.175-.176-.055-.371-.083-.584-.083-.166 0-.31.022-.435.065-.124.038-.229.096-.313.17-.08.07-.143.155-.185.256-.04.102-.058.209-.058.323 0 .166.043.313.132.438.093.12.215.23.366.327.154.095.328.183.522.27.193.082.39.168.59.262.202.095.4.202.592.323.193.117.366.259.516.426.152.164.273.36.365.586.092.222.14.484.14.789M17.432 21.049c-.02.052-.045.095-.075.127-.03.031-.075.058-.132.078-.054.02-.124.033-.209.042-.08.011-.183.018-.31.018-.158 0-.288-.008-.387-.024-.1-.016-.177-.04-.231-.071-.05-.034-.078-.075-.086-.128-.009-.049 0-.106.022-.174l3.45-10.108c.015-.052.038-.095.07-.126.03-.036.072-.065.126-.085.054-.02.124-.034.208-.042.088-.012.194-.018.317-.018.162 0 .29.008.387.024.1.016.175.04.224.072.05.033.079.075.087.127.007.048.003.106-.018.175l-3.443 10.113z" transform="translate(-451 -414) translate(451 414) translate(4 5.242) translate(16.328)"/>
                    </g>
                </g>
            </g>
        </g>
    </g>
</svg>
