<svg width="22" height="15" viewBox="0 0 22 15" fill="none" xmlns="http://www.w3.org/2000/svg">
<path d="M18.9386 0.554688H3.05717C1.85782 0.554688 0.881836 1.61289 0.881836 2.91348V12.6109C0.881836 13.9117 1.85782 14.9697 3.05717 14.9697H18.9386C20.1379 14.9697 21.1137 13.9117 21.1137 12.6109V2.91348C21.1137 1.61289 20.1379 0.554688 18.9386 0.554688ZM19.9237 12.6109C19.9237 13.1899 19.4824 13.6593 18.9386 13.6593H3.05717C2.51313 13.6593 2.07187 13.1899 2.07187 12.6109V2.91348C2.07187 2.33426 2.51313 1.86508 3.05717 1.86508H18.9386C19.4824 1.86508 19.9237 2.33426 19.9237 2.91348V12.6109Z" fill="#9F9F9F"/>
<path d="M6.56745 8.37093C7.5234 8.37093 8.30091 7.25391 8.30091 6.20127C8.30091 5.14885 7.5234 4.29248 6.56745 4.29248C5.61149 4.29248 4.83398 5.14885 4.83398 6.20127C4.83419 7.25391 5.61149 8.37093 6.56745 8.37093Z" fill="#9F9F9F"/>
<path d="M7.86617 8.38965C7.52991 8.67169 7.11051 8.83966 6.6561 8.83966H6.47361C6.0192 8.83966 5.59959 8.67169 5.26334 8.38965C4.16556 8.5848 3.32715 9.63276 3.32715 10.897C3.32715 11.5912 4.77676 12.1546 6.56485 12.1546C8.35294 12.1546 9.80256 11.5914 9.80256 10.897C9.80256 9.63276 8.96415 8.5848 7.86617 8.38965Z" fill="#9F9F9F"/>
<path d="M18.132 5.14697H11.3588C11.063 5.14697 10.8232 5.41119 10.8232 5.73668C10.8232 6.06261 11.063 6.32638 11.3588 6.32638H18.1322C18.4282 6.32638 18.6677 6.06261 18.6677 5.73668C18.6677 5.41119 18.428 5.14697 18.132 5.14697Z" fill="#9F9F9F"/>
<path d="M18.132 7.63281H11.3588C11.063 7.63281 10.8232 7.89681 10.8232 8.22251C10.8232 8.54844 11.063 8.81221 11.3588 8.81221H18.1322C18.4282 8.81221 18.6677 8.54844 18.6677 8.22251C18.6677 7.89681 18.428 7.63281 18.132 7.63281Z" fill="#9F9F9F"/>
<path d="M14.9192 10.1187H11.3588C11.063 10.1187 10.8232 10.3829 10.8232 10.7081C10.8232 11.034 11.063 11.298 11.3588 11.298H14.9194C15.2154 11.298 15.4551 11.034 15.4551 10.7081C15.4549 10.3829 15.2152 10.1187 14.9192 10.1187Z" fill="#9F9F9F"/>
</svg>
