<svg width="37" height="35" viewBox="0 0 37 35" fill="none" xmlns="http://www.w3.org/2000/svg">
<path d="M36.6506 20.7939C36.5803 21.5738 36.536 22.3536 36.4341 23.1264C35.8717 27.4069 34.2252 31.1001 31.5193 34.214C31.4841 34.25 31.447 34.2835 31.4082 34.3146C29.4967 27.9239 25.5514 24.3149 19.4528 23.489C21.7854 23.11 23.6139 21.906 24.8604 19.7396C26.1173 17.5561 26.3676 15.194 25.6428 12.7391C24.5377 8.99594 21.2581 6.75394 17.6488 7.22417C14.3559 7.65308 11.6029 10.8691 11.3013 14.5257C10.9393 18.9021 13.7935 23.0204 17.7894 23.4976C11.7702 24.3 7.827 27.9091 5.8909 34.3325C5.69476 34.1033 5.48667 33.8755 5.29334 33.6307C2.46089 30.0731 0.91496 25.9307 0.709679 21.1807C0.698191 21.0498 0.680355 20.9196 0.65625 20.7908V19.8371C0.680559 19.7083 0.698396 19.5782 0.709679 19.4472C0.871373 15.4272 2.00604 11.7729 4.16781 8.54754C7.17461 4.06041 11.1937 1.40042 16.1894 0.581604C16.8636 0.470869 17.5455 0.425639 18.2246 0.347656H19.0886C19.1929 0.374226 19.2985 0.3935 19.405 0.405363C22.733 0.561329 25.8024 1.63125 28.5589 3.69779C33.0113 7.03649 35.6402 11.6635 36.4453 17.5787C36.5466 18.3242 36.5859 19.0807 36.6562 19.8316V20.79L36.6506 20.7939Z" fill="#00A499"/>
</svg>
