<svg width="28" height="16" viewBox="0 0 28 16" fill="none" xmlns="http://www.w3.org/2000/svg">
<path fill-rule="evenodd" clip-rule="evenodd" d="M25.496 0.77293L13.3342 12.9347L9.05052 8.66332C8.82054 8.43282 8.50831 8.30328 8.1827 8.30328C7.85709 8.30328 7.54486 8.43282 7.31488 8.66332C6.83481 9.14339 6.83481 9.91889 7.31488 10.399L12.4603 15.5443C12.9403 16.0244 13.7158 16.0244 14.1959 15.5443L27.2317 2.52088C27.7117 2.04081 27.7117 1.26531 27.2317 0.78524H27.2193C26.7516 0.29286 25.9761 0.29286 25.496 0.77293ZM20.2769 0.785194C20.0469 0.554696 19.7346 0.425159 19.409 0.425159C19.0834 0.425159 18.7712 0.554696 18.5412 0.785194L11.5987 7.72775L13.3343 9.46339L20.2769 2.50852C20.7446 2.04076 20.7446 1.25296 20.2769 0.785194ZM5.50542 15.5567L0.360053 10.4113C-0.120018 9.93122 -0.120018 9.14341 0.360053 8.66334C0.590033 8.43284 0.902264 8.30331 1.22787 8.30331C1.55348 8.30331 1.86571 8.43284 2.09569 8.66334L8.10273 14.695L7.24106 15.5567C6.76099 16.0367 5.98549 16.0367 5.50542 15.5567Z" fill="white"/>
</svg>
