<svg xmlns="http://www.w3.org/2000/svg" xmlns:xlink="http://www.w3.org/1999/xlink" width="32" height="32" viewBox="0 0 32 32">
    <defs>
        <path id="5fn3ct2oaa" d="M0 0.451L21.62 0.451 21.62 27.3 0 27.3z"/>
    </defs>
    <g fill="none" fill-rule="evenodd">
        <g>
            <g>
                <g transform="translate(-850 -847) translate(850 847) translate(5 2)">
                    <g>
                        <mask id="fq9mwf7igb" fill="#fff">
                            <use xlink:href="#5fn3ct2oaa"/>
                        </mask>
                        <path fill="red" d="M20.016 24.986c0 .376-.315.694-.688.694H2.292c-.373 0-.688-.318-.688-.694V7.051l5.032-4.273v4.507H5.028c-.447 0-.81.362-.81.81 0 .447.363.81.81.81h2.21c.552-.001 1-.449 1-1L8.24 2.07h11.088c.373 0 .688.317.688.694v22.221zM6.786.451L6.6.482l-.002.012c-.117.035-.23.094-.329.178L.325 5.718c-.178.152-.282.357-.313.573L0 6.289v18.697C0 26.26 1.031 27.3 2.292 27.3h17.036c1.26 0 2.292-1.041 2.292-2.314V2.765c0-1.272-1.031-2.314-2.292-2.314H6.786z" mask="url(#fq9mwf7igb)"/>
                    </g>
                    <rect width="12" height="1.4" x="5" y="14" fill="red" rx=".7"/>
                    <rect width="12" height="1.4" x="5" y="17" fill="red" rx=".7"/>
                    <rect width="12" height="1.4" x="5" y="20" fill="red" rx=".7"/>
                </g>
            </g>
        </g>
    </g>
</svg>
