<svg width="50" height="50" viewBox="0 0 50 50" fill="none" xmlns="http://www.w3.org/2000/svg">
<path d="M4.51367 8.50696H7.29145V9.89585H4.51367V8.50696Z" fill="#00AE99"/>
<path d="M9.02734 11.9791H10.4162V14.7569H9.02734V11.9791Z" fill="#00AE99"/>
<path d="M9.02734 3.99304H10.4162V6.77082H9.02734V3.99304Z" fill="#00AE99"/>
<path d="M43.056 15.9722C41.9074 15.9722 40.9727 15.0375 40.9727 13.8889C40.9727 12.7403 41.9074 11.8055 43.056 11.8055C44.2046 11.8055 45.1393 12.7403 45.1393 13.8889C45.1393 15.0375 44.2046 15.9722 43.056 15.9722ZM43.056 13.1944C42.674 13.1944 42.3615 13.5069 42.3615 13.8889C42.3615 14.2708 42.674 14.5833 43.056 14.5833C43.4379 14.5833 43.7504 14.2708 43.7504 13.8889C43.7504 13.5069 43.4379 13.1944 43.056 13.1944Z" fill="#00AE99"/>
<path d="M30.5555 40.625H28.4721V34.4834C28.4721 34.0264 28.286 33.5792 27.9638 33.2556L24.9999 30.2931L22.036 33.257C21.7138 33.5792 21.5277 34.0278 21.5277 34.4848V40.6264H19.4443V34.4848C19.4443 33.4653 19.8416 32.5056 20.5638 31.7848L24.2638 28.0847C24.6707 27.6778 25.3305 27.6778 25.7374 28.0847L29.4374 31.7848C30.1596 32.507 30.5568 33.4653 30.5568 34.4848V40.625H30.5555Z" fill="#00AE99"/>
<path d="M13.541 8.33337H36.4577V10.4167H13.541V8.33337Z" fill="#00AE99"/>
<path d="M13.541 39.5833H36.4577V41.6666H13.541V39.5833Z" fill="#00A499"/>
<path d="M17.3607 40.625H15.2773V34.3431C15.2773 32.0833 16.2398 29.9194 17.9204 28.4083L20.2718 26.2917C20.644 25.9583 20.8468 25.5014 20.8468 25.0014C20.8468 24.5014 20.644 24.0458 20.2718 23.7111L17.9204 21.5944C16.2398 20.0806 15.2773 17.9167 15.2773 15.6569V9.375H17.3607V15.6569C17.3607 17.3264 18.0732 18.9264 19.3148 20.0431L21.6662 22.1597C22.469 22.8833 22.9301 23.9181 22.9301 24.9986C22.9301 26.0792 22.469 27.1139 21.6662 27.8375L19.3148 29.9542C18.0718 31.0722 17.3607 32.6708 17.3607 34.3403V40.625Z" fill="#00AE99"/>
<path d="M34.7221 40.625H32.6388V34.3431C32.6388 32.6736 31.9263 31.0736 30.6846 29.9569L28.3332 27.8403C27.5304 27.1167 27.0693 26.0819 27.0693 25.0014C27.0693 23.9208 27.5304 22.8861 28.3332 22.1625L30.6846 20.0458C31.9277 18.9278 32.6388 17.3292 32.6388 15.6597V9.375H34.7221V15.6569C34.7221 17.9167 33.7596 20.0806 32.0791 21.5917L29.7277 23.7083C29.3554 24.0417 29.1527 24.4986 29.1527 24.9986C29.1527 25.4986 29.3554 25.9542 29.7277 26.2889L32.0791 28.4056C33.7596 29.9194 34.7221 32.0833 34.7221 34.3431V40.625Z" fill="#00AE99"/>
</svg>
