<?xml version="1.0" encoding="UTF-8"?>
<svg width="80px" height="80px" viewBox="0 0 80 80" version="1.1" xmlns="http://www.w3.org/2000/svg" xmlns:xlink="http://www.w3.org/1999/xlink">
    <!-- Generator: sketchtool 59.1 (101010) - https://sketch.com -->
    <title>47E0BFEB-3D1E-4F72-88FA-E47C1E286C4C</title>
    <desc>Created with sketchtool.</desc>
    <g id="FINAL" stroke="none" stroke-width="1" fill="none" fill-rule="evenodd">
        <g id="Desktop-Trámite-Natural-01" transform="translate(-860.000000, -290.000000)">
            <g id="ico/beneficiario/80x80" transform="translate(860.000000, 290.000000)">
                <g id="ico/beneficiario" transform="translate(19.000000, 20.000000)" stroke="#FF4F00" stroke-linejoin="round" stroke-width="1.8">
                    <g id="Group-33" transform="translate(0.333333, 0.000000)">
                        <path d="M7.5,8.75 C9.6853125,8.75 11.25,7.321125 11.25,5.25 L11.25,3.5 C11.25,1.428875 9.6853125,0 7.5,0 C5.3146875,0 3.75,1.428875 3.75,3.5 L3.75,5.25 C3.75,7.321125 5.3146875,8.75 7.5,8.75 Z" id="Stroke-1"></path>
                        <path d="M16.25,16.6666667 L16.25,15.7638889 C16.25,12.7820139 11.26125,11.25 8.125,11.25 C4.98875,11.25 0,12.7820139 0,15.7638889 L0,23.8888889 C0,25.6447917 1.66020833,27.5 3.61111111,27.5" id="Stroke-3"></path>
                        <path d="M12.5,40 L12.5,26.6071429 C14.5259375,26.6071429 16.25,24.7723214 16.25,23.0357143 L16.25,21.25" id="Stroke-5" stroke-linecap="round"></path>
                        <line x1="3.125" y1="17.5" x2="3.125" y2="40" id="Stroke-7" stroke-linecap="round"></line>
                        <line x1="8.125" y1="26.25" x2="8.125" y2="40" id="Stroke-9" stroke-linecap="round"></line>
                        <path d="M32.5,8.75 C34.6853125,8.75 36.25,7.321125 36.25,5.25 L36.25,3.5 C36.25,1.428875 34.6853125,0 32.5,0 C30.3146875,0 28.75,1.428875 28.75,3.5 L28.75,5.25 C28.75,7.321125 30.3146875,8.75 32.5,8.75 Z" id="Stroke-11"></path>
                        <line x1="36.875" y1="40" x2="36.875" y2="17.5" id="Stroke-13" stroke-linecap="round"></line>
                        <path d="M23.75,21.25 L23.75,23.0357143 C23.75,24.7723214 25.4740625,26.6071429 27.5,26.6071429 L27.5,40" id="Stroke-15" stroke-linecap="round"></path>
                        <path d="M36.3888889,27.5 C38.3397917,27.5 40,25.6447917 40,23.8888889 L40,15.7638889 C40,12.7820139 35.01125,11.25 31.875,11.25 C28.73875,11.25 23.75,12.7820139 23.75,15.7638889 L23.75,16.6666667" id="Stroke-17"></path>
                        <line x1="31.875" y1="26.25" x2="31.875" y2="40" id="Stroke-19" stroke-linecap="round"></line>
                        <polyline id="Stroke-21" stroke-linecap="round" points="10.4166667 15.2380952 6.66666667 18.9880952 10.4166667 22.7380952"></polyline>
                        <polyline id="Stroke-23" stroke-linecap="round" points="29.5238095 15.2380952 33.2738095 18.9880952 29.5238095 22.7380952"></polyline>
                        <line x1="7.5" y1="18.6666667" x2="15" y2="18.6666667" id="Stroke-25" stroke-linecap="round"></line>
                        <line x1="32.5" y1="18.6666667" x2="25" y2="18.6666667" id="Stroke-27" stroke-linecap="round"></line>
                        <line x1="17.1428571" y1="18.6666667" x2="18.0952381" y2="18.6666667" id="Stroke-29" stroke-linecap="round"></line>
                        <line x1="20.8928571" y1="18.6666667" x2="21.8452381" y2="18.6666667" id="Stroke-31" stroke-linecap="round"></line>
                    </g>
                </g>
                <rect id="Rectangle" fill="#D8D8D8" opacity="0" x="0" y="0" width="80" height="80"></rect>
            </g>
        </g>
    </g>
</svg>