<svg width="34" height="35" viewBox="0 0 34 35" fill="none" xmlns="http://www.w3.org/2000/svg">
<path d="M26.9503 24.1915L23.4372 23.1378L22.1761 20.8676C23.3122 19.8268 24.1011 18.4497 24.3671 17.0133L24.5244 16.1648H25.8696C27.0922 16.1648 28.087 15.2695 28.087 14.1691V9.97826C28.087 4.47625 23.1133 0 17 0C10.871 0 5.91304 4.46341 5.91304 9.97826V14.1691C5.91304 15.0363 6.53103 15.7758 7.3913 16.0504V16.83C7.3913 17.9304 8.38603 18.8257 9.6087 18.8257H10.2578C10.5782 19.4521 10.9929 20.0323 11.4976 20.5535C11.6023 20.6618 11.7114 20.7668 11.8233 20.8689L10.5628 23.1378L7.0496 24.1916C2.9648 25.4174 0 29.2876 0 33.3939C0 33.7613 0.330909 34.0591 0.73913 34.0591H33.2609C33.669 34.0591 34 33.7613 34 33.3939C34 29.2876 31.0353 25.4174 26.9503 24.1915ZM26.6087 14.1691C26.6087 14.5359 26.2771 14.8343 25.8696 14.8343H24.7415C24.9294 13.5245 25.0546 12.1307 25.1049 10.7579C25.1064 10.7192 25.1076 10.6815 25.1089 10.6435H26.6087V14.1691ZM8.13043 14.8343C7.72288 14.8343 7.3913 14.5359 7.3913 14.1691V10.6435H8.89159C8.89403 10.7129 8.89662 10.7826 8.8995 10.8528C8.89957 10.8551 8.89972 10.8575 8.8998 10.8599C8.8998 10.8601 8.8998 10.8603 8.8998 10.8605C8.95153 12.1957 9.07512 13.5533 9.25872 14.8343H8.13043V14.8343ZM9.6087 17.4952C9.20114 17.4952 8.86957 17.1968 8.86957 16.83V16.1648H9.4755L9.63279 17.0135C9.6628 17.1748 9.69968 17.3356 9.74233 17.4952H9.6087ZM8.87082 9.31304H7.41939C7.79376 4.85469 11.9279 1.33043 17 1.33043C22.0496 1.33043 26.2019 4.85422 26.5805 9.31304H25.1293C25.076 5.63925 21.7519 2.66087 17.6616 2.66087H16.3386C12.2483 2.66087 8.92397 5.63925 8.87082 9.31304ZM16.3385 3.9913H17.6615C20.9735 3.9913 23.6541 6.42939 23.6522 9.40684C23.6522 9.61618 23.6503 9.79845 23.6464 9.96429C23.6464 9.96642 23.6463 9.96861 23.6463 9.97081L22.7218 9.85194C20.2103 9.52917 17.8388 8.46203 16.0444 6.84702C15.9057 6.72229 15.7178 6.65217 15.5217 6.65217C13.5367 6.65217 11.6366 7.46613 10.3805 8.84127C10.69 6.13257 13.2344 3.9913 16.3385 3.9913ZM11.2747 17.4952C10.9047 16.3874 10.4813 13.1279 10.3877 11.0391L11.3825 9.84528C12.2962 8.74927 13.7176 8.06829 15.2296 7.99013C17.2192 9.69415 19.793 10.8194 22.5128 11.1689L23.601 11.3089C23.5282 12.6982 23.3796 14.0924 23.1666 15.3746C23.1666 15.375 23.1665 15.3754 23.1664 15.3759C23.0987 15.7881 23.0453 16.0534 22.9091 16.7944C22.5176 18.9075 20.7657 20.8183 18.4531 21.3387C17.5013 21.5526 16.4986 21.5525 15.5473 21.3387C14.1033 21.0138 12.7792 20.1146 11.9247 18.8257H13.4315C13.7366 19.5999 14.5581 20.1561 15.5217 20.1561H17C18.2251 20.1561 19.2174 19.2631 19.2174 18.1604C19.2174 17.06 18.2227 16.1648 17 16.1648H15.5217C14.5367 16.1648 13.7273 16.7374 13.4302 17.4952H11.2747ZM15.4596 22.685C15.9665 22.7811 16.4834 22.8303 17 22.8303C17.4044 22.8303 17.8088 22.7998 18.2087 22.7407L16.9027 23.9838L15.4596 22.685ZM15.8865 24.9509L13.5421 27.1822C12.8967 26.0703 12.3421 24.9132 11.8873 23.7286L12.7677 22.1439L15.8865 24.9509ZM21.1071 21.9185L22.1126 23.7285C21.657 24.9151 21.1022 26.0727 20.4575 27.1832L17.9483 24.9249L21.1071 21.9185ZM14.7826 18.1604C14.7826 17.7932 15.1136 17.4952 15.5217 17.4952H17C17.4076 17.4952 17.7391 17.7936 17.7391 18.1604C17.7391 18.5278 17.4081 18.8257 17 18.8257H15.5217C15.1142 18.8257 14.7826 18.5272 14.7826 18.1604ZM1.50783 32.7287C1.80074 29.4333 4.23758 26.4379 7.5171 25.4537L10.6284 24.5205C11.1984 25.9391 11.9046 27.3179 12.7322 28.6276C12.7336 28.6298 12.7349 28.6321 12.7363 28.6343C12.7363 28.6343 12.7364 28.6343 12.7364 28.6344C13.3411 29.5916 14.0217 30.527 14.7595 31.415L15.6688 32.7287H1.50783ZM17 32.1357L15.9976 30.6873C15.9864 30.6711 15.9744 30.6553 15.9617 30.64C15.3631 29.9215 14.8048 29.17 14.2963 28.4008L16.9322 25.892L19.7097 28.3917C19.1978 29.1665 18.6375 29.9211 18.0385 30.6399C18.0023 30.6833 18.0536 30.6149 17 32.1357ZM18.3312 32.7287L19.2404 31.415C19.9815 30.5236 20.667 29.5808 21.2777 28.6123C21.2814 28.6065 21.2849 28.6005 21.2886 28.5946C21.289 28.5939 21.2895 28.5932 21.2899 28.5925C22.107 27.2953 22.8058 25.9285 23.3716 24.5205L26.4828 25.4537C29.7624 26.4379 32.1993 29.4333 32.4922 32.7287H18.3312Z" fill="#00AE99"/>
</svg>
