<svg xmlns="http://www.w3.org/2000/svg" xmlns:xlink="http://www.w3.org/1999/xlink" width="56" height="56" viewBox="0 0 56 56">
    <defs>
        <path id="e6mqxpg2ha" d="M0 0L47.634 0 47.634 36.878 0 36.878z"/>
    </defs>
    <g fill="none" fill-rule="evenodd">
        <g>
            <g>
                <g transform="translate(-782 -352) translate(782 352) translate(4 9)">
                    <mask id="66tzq1ki0b" fill="#fff">
                        <use xlink:href="#e6mqxpg2ha"/>
                    </mask>
                    <path fill="#FF4F00" d="M42.637 31.19h3.31V19.68h-3.31v11.51zm-1.688-1.495h-1.58c-.106 0-.21.022-.309.067l-10.176 4.633c-1.27.579-2.641.678-3.965.288l-7.884-2.326c-.714-.21-1.157-1.032-1.008-1.87.076-.423.29-.784.603-1.017.225-.168.48-.254.739-.254.102 0 .206.013.31.04l6.608 1.757c1.59.422 3.235.288 4.757-.393l1.917-.856c.04-.015.079-.032.118-.05 1.695-.759 3.858-1.724 4.324-1.931l.09-.041c.435-.194.653-.76.485-1.266-.168-.505-.655-.757-1.09-.563 0 0-.035.017-.1.045l-4.396 1.962c-.746.28-1.553-.146-1.864-1l-.023-.063c-.152-.416-.154-.876-.006-1.295.147-.418.427-.744.786-.918l6.576-3.16h5.087v8.21h.001zM46.79 17.72h-4.997c-.465 0-.842.439-.842.98v.827h-5.255c-.11 0-.22.026-.322.074l-6.73 3.235c-.778.373-1.384 1.078-1.704 1.985-.32.904-.315 1.899.014 2.8l.023.063c.195.535.483.99.832 1.35-1.025.322-2.099.349-3.142.071l-6.608-1.756c-.808-.214-1.638-.047-2.336.473s-1.176 1.326-1.344 2.267c-.334 1.867.651 3.697 2.243 4.168l7.884 2.326c.667.197 1.345.295 2.02.295 1.01 0 2.017-.22 2.978-.658l10.026-4.564h1.42v.515c0 .54.379.98.843.98h4.997c.467 0 .844-.44.844-.98V18.699c0-.54-.377-.98-.844-.98zM1.915 18.337H5.67V6.827H1.915v11.51zM20.622 5.551c.217-.348.457-.68.725-.99 1.425-1.654 3.474-2.602 5.629-2.602 4.137 0 7.503 3.444 7.503 7.676 0 3.833-2.762 7.02-6.358 7.586.194-.441.294-.927.294-1.411 0-.412-.072-.812-.207-1.19.064-.008.12-.02.165-.036.052-.018.092-.042.12-.07.028-.03.051-.068.068-.115l3.186-9.172c.019-.062.023-.115.017-.16-.008-.045-.034-.083-.081-.112-.046-.03-.115-.051-.206-.066-.09-.014-.21-.021-.36-.021-.113 0-.21.004-.29.013-.08.009-.145.023-.196.042-.05.018-.089.043-.118.073-.029.031-.05.07-.063.117l-2.94 8.444c-.32-.307-.807-.671-1.495-.918.043-.03.085-.06.127-.094.232-.186.414-.42.55-.7.135-.28.203-.606.203-.978 0-.284-.044-.53-.13-.74-.084-.209-.196-.39-.335-.545-.139-.154-.297-.288-.475-.398-.178-.111-.359-.21-.544-.298-.186-.088-.367-.17-.545-.249-.178-.078-.337-.161-.478-.25-.14-.09-.253-.191-.336-.306-.083-.115-.126-.25-.126-.407 0-.105.019-.205.056-.3.037-.095.094-.175.17-.243.077-.068.172-.12.286-.158.114-.039.247-.059.4-.059.195 0 .375.025.539.074.163.049.307.104.433.163.124.06.23.116.314.167.086.05.148.076.187.076.04 0 .07-.01.093-.032.023-.022.042-.057.054-.104.012-.047.02-.107.026-.18.007-.073.008-.161.008-.268 0-.094-.001-.173-.006-.237-.003-.064-.01-.117-.019-.159-.01-.042-.018-.075-.031-.1-.012-.026-.037-.058-.072-.094-.036-.036-.108-.082-.22-.136-.11-.055-.236-.104-.378-.148-.143-.044-.296-.078-.458-.104-.165-.025-.328-.038-.492-.038-.317 0-.617.042-.899.126-.282.083-.529.21-.736.378-.208.17-.374.382-.496.639-.123.257-.184.554-.184.892 0 .295.043.548.128.76.085.21.197.393.333.548.138.154.294.288.468.398.174.111.354.21.539.298.184.087.365.17.538.249.175.078.33.161.468.25.136.09.248.191.333.306.085.114.128.252.128.412 0 .139-.025.264-.074.377-.05.113-.122.208-.217.284-.094.077-.209.137-.344.178-.135.042-.289.062-.459.062-.26 0-.488-.03-.685-.09-.197-.06-.368-.126-.51-.198-.142-.073-.258-.14-.349-.2-.092-.06-.16-.089-.21-.089-.037 0-.068.01-.095.03-.027.02-.047.054-.064.1-.016.048-.028.11-.034.187-.008.076-.01.17-.01.284 0 .163.009.288.027.377h-2.46c-.321-.864-.484-1.776-.484-2.717.004-1.434.403-2.871 1.154-4.084zm-3.649 5.806c0-.266.1-.516.285-.704.095-.098.208-.173.33-.223.052.655.169 1.296.35 1.921-.533-.004-.965-.447-.965-.994zm-7.65 5.954H7.585V8.16h.266c.707 0 1.414-.175 2.043-.505.03-.016.059-.033.087-.05l6.2-4.14c.857-.429 1.897-.331 2.664.255l.448.34c-.028.04-.054.08-.08.12-.118.175-.232.355-.34.538-.66 1.13-1.087 2.404-1.243 3.701-.653.072-1.257.367-1.727.848-.545.557-.846 1.3-.846 2.089 0 1.628 1.296 2.954 2.888 2.954h7.087c.392 0 .76.156 1.036.438.278.285.431.661.431 1.061 0 .598-.343 1.137-.875 1.374-.061.028-.118.049-.17.064l-.014.004c-.13.04-.266.059-.407.059H16.98c-.529 0-.958.438-.958.979 0 .54.43.98.958.98h8.053c.247 0 .491-.028.729-.081.402.053.809.081 1.214.081 5.194 0 9.418-4.322 9.418-9.635S32.17 0 26.976 0c-2.394 0-4.684.932-6.417 2.583l-.568-.433c-1.36-1.04-3.216-1.2-4.726-.406-.03.016-.058.032-.086.051L8.98 5.933c-.35.176-.74.267-1.13.267h-.265v-.353c0-.541-.429-.98-.957-.98H.957c-.528 0-.957.439-.957.98v13.47c0 .54.429.979.957.979h5.67c.53 0 .958-.439.958-.98v-.046h1.739c.528 0 .957-.438.957-.98 0-.54-.43-.98-.958-.98z" mask="url(#66tzq1ki0b)"/>
                    <path fill="#FF4F00" d="M11.695 17.437c-.38.111-.657.459-.692.861-.034.407.197.805.56.971.359.167.791.086 1.072-.2.319-.325.369-.852.119-1.235-.226-.35-.667-.512-1.06-.397" mask="url(#66tzq1ki0b)"/>
                </g>
            </g>
        </g>
    </g>
</svg>
