<svg width="512" height="512" viewBox="0 0 512 512" fill="none" xmlns="http://www.w3.org/2000/svg">
<path d="M501.362 383.951L320.497 51.4749C291.438 2.55389 220.601 2.4889 191.503 51.4749L10.6469 383.951C-19.0591 433.94 16.9059 497.242 75.1289 497.242H436.865C495.039 497.242 531.068 433.991 501.362 383.951ZM256 437.242C239.462 437.242 226 423.78 226 407.242C226 390.704 239.462 377.242 256 377.242C272.538 377.242 286 390.704 286 407.242C286 423.78 272.538 437.242 256 437.242ZM286 317.242C286 333.78 272.538 347.242 256 347.242C239.462 347.242 226 333.78 226 317.242V167.242C226 150.704 239.462 137.242 256 137.242C272.538 137.242 286 150.704 286 167.242V317.242Z" fill="#DA2329"/>
</svg>
