<svg width="91" height="87" viewBox="0 0 91 87" fill="none" xmlns="http://www.w3.org/2000/svg">
<path d="M39.14 78.28C60.7564 78.28 78.28 60.7564 78.28 39.14C78.28 17.5236 60.7564 0 39.14 0C17.5236 0 0 17.5236 0 39.14C0 60.7564 17.5236 78.28 39.14 78.28Z" fill="#E1F3F2"/>
<path d="M33.8303 35.6098C34.5303 35.6098 35.0903 35.0498 35.0903 34.3498C35.0903 33.6498 34.5303 33.0898 33.8303 33.0898C33.1303 33.0898 32.5703 33.6498 32.5703 34.3498C32.5703 35.0398 33.1403 35.6098 33.8303 35.6098Z" fill="#18A499"/>
<path d="M38.8694 35.6098C39.5694 35.6098 40.1294 35.0498 40.1294 34.3498C40.1294 33.6498 39.5694 33.0898 38.8694 33.0898C38.1694 33.0898 37.6094 33.6498 37.6094 34.3498C37.6094 35.0398 38.1794 35.6098 38.8694 35.6098Z" fill="#18A499"/>
<path d="M27.5283 35.4798V36.8698C27.5283 38.0398 27.7683 39.2098 28.2183 40.2898C28.6783 41.3698 29.3383 42.3498 30.1783 43.1698H30.0383C28.3683 43.1698 26.7683 43.8298 25.5883 45.0098C24.4083 46.1898 23.7483 47.7898 23.7483 49.4598V62.0598C23.7483 62.3898 23.8783 62.7098 24.1183 62.9498C24.3583 63.1898 24.6783 63.3198 25.0083 63.3198C25.3383 63.3198 25.6583 63.1898 25.8983 62.9498C26.1383 62.7098 26.2683 62.3898 26.2683 62.0598V49.4598C26.2683 48.4598 26.6683 47.4998 27.3783 46.7898C28.0883 46.0798 29.0483 45.6798 30.0483 45.6798H31.8483L35.0883 51.0698V62.0598C35.0883 62.3898 35.2183 62.7098 35.4583 62.9498C35.6983 63.1898 36.0183 63.3198 36.3483 63.3198C36.6783 63.3198 36.9983 63.1898 37.2383 62.9498C37.4783 62.7098 37.6083 62.3898 37.6083 62.0598V51.0798L40.8483 45.6898H42.6483C43.6483 45.6898 44.6083 46.0898 45.3183 46.7998C46.0283 47.5098 46.4283 48.4698 46.4283 49.4698V62.0698C46.4283 62.3998 46.5583 62.7198 46.7983 62.9598C47.0383 63.1998 47.3583 63.3298 47.6883 63.3298C48.0183 63.3298 48.3383 63.1998 48.5783 62.9598C48.8183 62.7198 48.9483 62.3998 48.9483 62.0698V49.4698C48.9483 47.7998 48.2883 46.1998 47.1083 45.0198C45.9283 43.8398 44.3283 43.1798 42.6583 43.1798H42.5183C43.3583 42.3598 44.0283 41.3798 44.4783 40.2998C44.9383 39.2198 45.1683 38.0598 45.1683 36.8798V35.4898C46.5883 35.1998 47.8683 34.4298 48.7883 33.2998C49.7083 32.1698 50.2083 30.7698 50.2083 29.3198V26.7998C50.2083 25.1298 49.5483 23.5298 48.3683 22.3498C47.1883 21.1698 45.5883 20.5098 43.9183 20.5098H23.7483C23.4183 20.5098 23.0983 20.6398 22.8583 20.8798C22.6183 21.1198 22.4883 21.4398 22.4883 21.7698V29.3298C22.4883 30.7798 22.9883 32.1898 23.9083 33.3098C24.8283 34.4198 26.1083 35.1898 27.5283 35.4798ZM36.3483 48.2798L34.7983 45.6798H37.8983L36.3483 48.2798ZM42.6483 36.8698C42.6483 38.5398 41.9883 40.1398 40.7983 41.3198C39.6183 42.4998 38.0183 43.1698 36.3483 43.1698C34.6783 43.1698 33.0783 42.5098 31.8983 41.3198C30.7183 40.1398 30.0483 38.5398 30.0483 36.8698V28.9598C32.2483 30.0198 34.6683 30.5698 37.1183 30.5698H42.6483V36.8698V36.8698Z" fill="#18A499"/>
<path d="M25.0117 23.0098H43.9117C44.9117 23.0098 45.8717 23.4098 46.5817 24.1198C47.2917 24.8298 47.6917 25.7898 47.6917 26.7898V29.3098C47.6917 30.0898 47.4417 30.8498 46.9917 31.4898C46.5417 32.1298 45.9017 32.6098 45.1717 32.8698V29.3198C45.1717 28.9898 45.0417 28.6698 44.8017 28.4298C44.5617 28.1898 44.2417 28.0598 43.9117 28.0598H37.1217C34.4017 28.0698 31.7517 27.2598 29.4917 25.7498C29.3017 25.6298 29.0917 25.5598 28.8717 25.5498C28.6517 25.5398 28.4317 25.5898 28.2317 25.6898C28.0217 25.7898 27.8517 25.9498 27.7317 26.1498C27.6117 26.3498 27.5417 26.5698 27.5417 26.7998V32.8698C26.8017 32.6098 26.1717 32.1298 25.7217 31.4898C25.2717 30.8498 25.0317 30.0898 25.0217 29.3098V23.0098H25.0117Z" fill="white"/>
<path d="M28.7891 51.9797V62.0597C28.7891 62.3897 28.9191 62.7097 29.1591 62.9497C29.3991 63.1897 29.7191 63.3197 30.0491 63.3197C30.3791 63.3197 30.6991 63.1897 30.9391 62.9497C31.1791 62.7097 31.3091 62.3897 31.3091 62.0597V51.9797C31.3091 51.6497 31.1791 51.3297 30.9391 51.0897C30.6991 50.8497 30.3791 50.7197 30.0491 50.7197C29.7191 50.7197 29.3991 50.8497 29.1591 51.0897C28.9191 51.3297 28.7891 51.6497 28.7891 51.9797Z" fill="#18A499"/>
<path d="M41.3906 51.9797V62.0597C41.3906 62.3897 41.5206 62.7097 41.7606 62.9497C42.0006 63.1897 42.3206 63.3197 42.6506 63.3197C42.9806 63.3197 43.3006 63.1897 43.5406 62.9497C43.7806 62.7097 43.9106 62.3897 43.9106 62.0597V51.9797C43.9106 51.6497 43.7806 51.3297 43.5406 51.0897C43.3006 50.8497 42.9806 50.7197 42.6506 50.7197C42.3206 50.7197 42.0006 50.8497 41.7606 51.0897C41.5206 51.3297 41.3906 51.6497 41.3906 51.9797Z" fill="#18A499"/>
<path d="M37.2513 37.7597C37.1313 37.8797 36.9913 37.9697 36.8413 38.0397C36.6913 38.0997 36.5213 38.1397 36.3613 38.1397C36.1913 38.1397 36.0313 38.1097 35.8813 38.0397C35.7313 37.9797 35.5913 37.8797 35.4713 37.7597C35.2313 37.5497 34.9213 37.4497 34.6013 37.4597C34.2813 37.4697 33.9813 37.5997 33.7613 37.8297C33.5413 38.0497 33.4013 38.3597 33.3913 38.6697C33.3813 38.9897 33.4913 39.2997 33.6913 39.5397C34.4013 40.2497 35.3613 40.6497 36.3613 40.6497C37.3613 40.6497 38.3213 40.2497 39.0313 39.5397C39.2413 39.2997 39.3413 38.9897 39.3313 38.6697C39.3213 38.3497 39.1913 38.0497 38.9613 37.8297C38.7413 37.6097 38.4313 37.4697 38.1213 37.4597C37.8013 37.4497 37.4913 37.5497 37.2513 37.7597Z" fill="#18A499"/>
<path d="M71.6291 58.2798C71.9591 58.2798 72.2791 58.1498 72.5191 57.9098C72.7591 57.6698 72.8891 57.3498 72.8891 57.0198C72.8891 56.6898 72.7591 56.3698 72.5191 56.1298C72.2791 55.8898 71.9591 55.7598 71.6291 55.7598H61.5491C61.2191 55.7598 60.8991 55.8898 60.6591 56.1298C60.4191 56.3698 60.2891 56.6898 60.2891 57.0198C60.2891 57.3498 60.4191 57.6698 60.6591 57.9098C60.8991 58.1498 61.2191 58.2798 61.5491 58.2798H71.6291Z" fill="#18A499"/>
<path d="M52.7305 62.0598C52.7305 62.3898 52.8605 62.7098 53.1005 62.9498C53.3405 63.1898 53.6605 63.3198 53.9905 63.3198H71.6305C71.9605 63.3198 72.2805 63.1898 72.5205 62.9498C72.7605 62.7098 72.8905 62.3898 72.8905 62.0598C72.8905 61.7298 72.7605 61.4098 72.5205 61.1698C72.2805 60.9298 71.9605 60.7998 71.6305 60.7998H53.9905C53.6605 60.7998 53.3405 60.9298 53.1005 61.1698C52.8605 61.4098 52.7305 61.7298 52.7305 62.0598Z" fill="#18A499"/>
<path d="M53.9905 68.3598H64.0705C64.4005 68.3598 64.7205 68.2298 64.9605 67.9898C65.2005 67.7498 65.3305 67.4298 65.3305 67.0998C65.3305 66.7698 65.2005 66.4498 64.9605 66.2098C64.7205 65.9698 64.4005 65.8398 64.0705 65.8398H53.9905C53.6605 65.8398 53.3405 65.9698 53.1005 66.2098C52.8605 66.4498 52.7305 66.7698 52.7305 67.0998C52.7305 67.4298 52.8605 67.7498 53.1005 67.9898C53.3305 68.2298 53.6505 68.3598 53.9905 68.3598Z" fill="#18A499"/>
<path d="M76.6697 48.2098C76.3397 48.2098 76.0197 48.3398 75.7797 48.5798C75.5397 48.8198 75.4097 49.1398 75.4097 49.4698V69.6298C75.4097 69.9598 75.2797 70.2798 75.0397 70.5198C74.7997 70.7598 74.4797 70.8898 74.1497 70.8898H18.7097C18.3797 70.8898 18.0597 70.7598 17.8197 70.5198C17.5797 70.2798 17.4497 69.9598 17.4497 69.6298V36.8698C17.4497 36.5398 17.5797 36.2198 17.8197 35.9798C18.0597 35.7398 18.3797 35.6098 18.7097 35.6098H19.9697C20.2997 35.6098 20.6197 35.4798 20.8597 35.2398C21.0997 34.9998 21.2297 34.6798 21.2297 34.3498C21.2297 34.0198 21.0997 33.6998 20.8597 33.4598C20.6197 33.2198 20.2997 33.0898 19.9697 33.0898H18.7097C17.7097 33.0898 16.7497 33.4898 16.0397 34.1998C15.3297 34.9098 14.9297 35.8698 14.9297 36.8698V69.6298C14.9297 70.6298 15.3297 71.5898 16.0397 72.2998C16.7497 73.0098 17.7097 73.4098 18.7097 73.4098H33.9897L30.6297 78.4498H27.5297C27.1997 78.4498 26.8797 78.5798 26.6397 78.8198C26.3997 79.0598 26.2697 79.3798 26.2697 79.7098C26.2697 80.0398 26.3997 80.3598 26.6397 80.5998C26.8797 80.8398 27.1997 80.9698 27.5297 80.9698H65.3297C65.6597 80.9698 65.9797 81.0998 66.2197 81.3398C66.4597 81.5798 66.5897 81.8998 66.5897 82.2298V83.4898H25.0097C24.6797 83.4898 24.3597 83.6198 24.1197 83.8598C23.8797 84.0998 23.7497 84.4198 23.7497 84.7498C23.7497 85.0798 23.8797 85.3998 24.1197 85.6398C24.3597 85.8798 24.6797 86.0098 25.0097 86.0098H67.8397C68.1697 86.0098 68.4897 85.8798 68.7297 85.6398C68.9697 85.3998 69.0997 85.0798 69.0997 84.7498V82.2298C69.0997 81.2298 68.6997 80.2698 67.9897 79.5598C67.2797 78.8498 66.3197 78.4498 65.3197 78.4498H62.2197L58.8597 73.4098H74.1397C75.1397 73.4098 76.0997 73.0098 76.8097 72.2998C77.5197 71.5898 77.9197 70.6298 77.9197 69.6298V49.4698C77.9197 49.1398 77.7897 48.8198 77.5497 48.5798C77.3197 48.3398 76.9997 48.2098 76.6697 48.2098ZM59.1897 78.4398H33.6697L37.0297 73.3998H55.8297L59.1897 78.4398Z" fill="#18A499"/>
<path d="M90.5187 30.5497V21.7297C90.5187 20.0597 89.8587 18.4597 88.6687 17.2797C87.4887 16.0997 85.8887 15.4297 84.2188 15.4297H59.0187C57.3487 15.4297 55.7487 16.0897 54.5687 17.2797C53.3887 18.4597 52.7188 20.0597 52.7188 21.7297V39.3697C52.7188 40.9597 53.3087 42.4897 54.3887 43.6597C55.4687 44.8297 56.9487 45.5497 58.5387 45.6697L56.5588 51.5797C56.4788 51.8197 56.4787 52.0797 56.5487 52.3297C56.6187 52.5797 56.7687 52.7897 56.9688 52.9497C57.1688 53.1097 57.4087 53.2097 57.6587 53.2297C57.9087 53.2497 58.1687 53.1997 58.3887 53.0697L71.1488 45.6597H84.2087C85.8787 45.6597 87.4788 44.9997 88.6588 43.8197C89.8388 42.6397 90.5088 41.0397 90.5088 39.3697V35.5897V30.5497H90.5187Z" fill="#18A499"/>
<path d="M87.9978 35.5897V39.3697C87.9978 40.3697 87.5978 41.3297 86.8878 42.0397C86.1778 42.7497 85.2178 43.1497 84.2178 43.1497H70.8178C70.5978 43.1497 70.3778 43.2097 70.1878 43.3097L60.0078 49.2097L61.5478 44.8097C61.6078 44.6197 61.6278 44.4197 61.5978 44.2197C61.5678 44.0197 61.4878 43.8397 61.3778 43.6697C61.2578 43.4997 61.0978 43.3597 60.9078 43.2697C60.7178 43.1797 60.5078 43.1297 60.2978 43.1397H59.0378C58.0378 43.1397 57.0778 42.7397 56.3678 42.0297C55.6578 41.3197 55.2578 40.3597 55.2578 39.3597V21.7297C55.2578 20.7297 55.6578 19.7697 56.3678 19.0597C57.0778 18.3497 58.0378 17.9497 59.0378 17.9497H84.2378C85.2378 17.9497 86.1978 18.3497 86.9078 19.0597C87.6178 19.7697 88.0178 20.7297 88.0178 21.7297V30.5497V35.5897H87.9978Z" fill="white"/>
<path d="M76.6584 28.1396H79.1784C79.5084 28.1396 79.8284 28.0096 80.0684 27.7696C80.3084 27.5296 80.4384 27.2096 80.4384 26.8796C80.4384 26.5496 80.3084 26.2296 80.0684 25.9896C79.8284 25.7496 79.5084 25.6196 79.1784 25.6196H76.6584C76.3284 25.6196 76.0084 25.7496 75.7684 25.9896C75.5284 26.2296 75.3984 26.5496 75.3984 26.8796C75.3984 27.2096 75.5284 27.5296 75.7684 27.7696C76.0084 28.0096 76.3284 28.1396 76.6584 28.1396Z" fill="#18A499"/>
<path d="M76.6584 33.1797H79.1784C79.5084 33.1797 79.8284 33.0497 80.0684 32.8097C80.3084 32.5697 80.4384 32.2497 80.4384 31.9197C80.4384 31.5897 80.3084 31.2697 80.0684 31.0297C79.8284 30.7897 79.5084 30.6597 79.1784 30.6597H76.6584C76.3284 30.6597 76.0084 30.7897 75.7684 31.0297C75.5284 31.2697 75.3984 31.5897 75.3984 31.9197C75.3984 32.2497 75.5284 32.5697 75.7684 32.8097C76.0084 33.0497 76.3284 33.1797 76.6584 33.1797Z" fill="#18A499"/>
<path d="M66.5886 25.6196H64.0686C63.7386 25.6196 63.4186 25.7496 63.1786 25.9896C62.9386 26.2296 62.8086 26.5496 62.8086 26.8796C62.8086 27.2096 62.9386 27.5296 63.1786 27.7696C63.4186 28.0096 63.7386 28.1396 64.0686 28.1396H66.5886C66.9186 28.1396 67.2386 28.0096 67.4786 27.7696C67.7186 27.5296 67.8486 27.2096 67.8486 26.8796C67.8486 26.5496 67.7186 26.2296 67.4786 25.9896C67.2386 25.7496 66.9186 25.6196 66.5886 25.6196Z" fill="#18A499"/>
<path d="M66.5886 30.6597H64.0686C63.7386 30.6597 63.4186 30.7897 63.1786 31.0297C62.9386 31.2697 62.8086 31.5897 62.8086 31.9197C62.8086 32.2497 62.9386 32.5697 63.1786 32.8097C63.4186 33.0497 63.7386 33.1797 64.0686 33.1797H66.5886C66.9186 33.1797 67.2386 33.0497 67.4786 32.8097C67.7186 32.5697 67.8486 32.2497 67.8486 31.9197C67.8486 31.5897 67.7186 31.2697 67.4786 31.0297C67.2386 30.7897 66.9186 30.6597 66.5886 30.6597Z" fill="#18A499"/>
<path d="M71.6295 40.6297C71.9595 40.6297 72.2795 40.4997 72.5195 40.2597C72.7595 40.0197 72.8895 39.6997 72.8895 39.3697C72.8895 39.0397 73.0195 38.7197 73.2595 38.4797C73.4995 38.2397 73.8195 38.1097 74.1495 38.1097H84.2295C84.5595 38.1097 84.8795 37.9797 85.1195 37.7397C85.3595 37.4997 85.4895 37.1797 85.4895 36.8497V21.7297C85.4895 21.3997 85.3595 21.0797 85.1195 20.8397C84.8795 20.5997 84.5595 20.4697 84.2295 20.4697H76.6695C75.6895 20.4697 74.7295 20.6997 73.8495 21.1297C72.9795 21.5697 72.2095 22.1997 71.6295 22.9797C71.0395 22.1997 70.2795 21.5597 69.4095 21.1297C68.5395 20.6997 67.5695 20.4697 66.5895 20.4697H59.0295C58.6995 20.4697 58.3795 20.5997 58.1395 20.8397C57.8995 21.0797 57.7695 21.3997 57.7695 21.7297V36.8497C57.7695 37.1797 57.8995 37.4997 58.1395 37.7397C58.3795 37.9797 58.6995 38.1097 59.0295 38.1097H66.5895C66.9195 38.1097 67.2395 37.9797 67.4795 37.7397C67.7195 37.4997 67.8495 37.1797 67.8495 36.8497C67.8495 36.5197 67.7195 36.1997 67.4795 35.9597C67.2395 35.7197 66.9195 35.5897 66.5895 35.5897H60.2895V22.9897H66.5895C67.5895 22.9897 68.5495 23.3897 69.2595 24.0997C69.9695 24.8097 70.3695 25.7697 70.3695 26.7697V39.3697C70.3695 39.6997 70.4995 40.0197 70.7395 40.2597C70.9695 40.4997 71.2895 40.6297 71.6295 40.6297ZM76.6695 22.9897H82.9695V35.5897H74.1495C73.7195 35.5897 73.2895 35.6597 72.8895 35.7997V26.7697C72.8895 25.7697 73.2895 24.8097 73.9995 24.0997C74.6995 23.3897 75.6595 22.9897 76.6695 22.9897Z" fill="#18A499"/>
</svg>
