<svg xmlns="http://www.w3.org/2000/svg" width="24" height="24" viewBox="0 0 24 24">
    <g fill="none" fill-rule="evenodd">
        <g>
            <g>
                <g>
                    <g stroke="#00AE99" stroke-linejoin="round" stroke-width="1.4">
                        <path d="M3.945 4.603c1.15 0 1.973-.752 1.973-1.841V1.84C5.918.751 5.094 0 3.945 0c-1.15 0-1.972.752-1.972 1.841v.92c0 1.09.823 1.841 1.972 1.841zM8.547 8.767v-.475c0-1.569-2.624-2.374-4.273-2.374C2.624 5.918 0 6.723 0 8.292v4.274c0 .923.873 1.899 1.9 1.899" transform="translate(-720 -587) translate(640 569) translate(80 18) translate(1.4 2)"/>
                        <path stroke-linecap="round" d="M6.575 21.04v-7.045c1.066 0 1.972-.965 1.972-1.878v-.94M1.644 9.205L1.644 21.04M4.274 13.807L4.274 21.04" transform="translate(-720 -587) translate(640 569) translate(80 18) translate(1.4 2)"/>
                        <path d="M17.095 4.603c1.15 0 1.973-.752 1.973-1.841V1.84C19.067.751 18.243 0 17.095 0c-1.15 0-1.972.752-1.972 1.841v.92c0 1.09.823 1.841 1.972 1.841z" transform="translate(-720 -587) translate(640 569) translate(80 18) translate(1.4 2)"/>
                        <path stroke-linecap="round" d="M19.396 21.04L19.396 9.205M12.492 11.178v.939c0 .913.907 1.878 1.973 1.878v7.045" transform="translate(-720 -587) translate(640 569) translate(80 18) translate(1.4 2)"/>
                        <path d="M19.14 14.465c1.027 0 1.9-.976 1.9-1.9V8.293c0-1.569-2.624-2.374-4.274-2.374s-4.273.805-4.273 2.374v.475" transform="translate(-720 -587) translate(640 569) translate(80 18) translate(1.4 2)"/>
                        <path stroke-linecap="round" d="M16.766 13.807L16.766 21.04M5.479 8.015L3.507 9.988 5.479 11.96M15.53 8.015L17.502 9.988 15.53 11.96M3.945 9.819L7.89 9.819M17.095 9.819L13.15 9.819M9.017 9.819L9.518 9.819M10.99 9.819L11.491 9.819" transform="translate(-720 -587) translate(640 569) translate(80 18) translate(1.4 2)"/>
                    </g>
                </g>
            </g>
        </g>
    </g>
</svg>
