<svg width="33" height="33" viewBox="0 0 33 33" fill="none" xmlns="http://www.w3.org/2000/svg">
<path fill-rule="evenodd" clip-rule="evenodd" d="M16.9118 0.743896C8.12418 0.743896 0.992188 7.87589 0.992188 16.6635C0.992188 25.4512 8.12418 32.5831 16.9118 32.5831C25.6994 32.5831 32.8314 25.4512 32.8314 16.6635C32.8314 7.87589 25.6994 0.743896 16.9118 0.743896ZM16.9109 5.51984C19.5535 5.51984 21.6868 7.65307 21.6868 10.2957C21.6868 12.9384 19.5535 15.0716 16.9109 15.0716C14.2682 15.0716 12.135 12.9384 12.135 10.2957C12.135 7.65307 14.2682 5.51984 16.9109 5.51984ZM7.3582 22.9995C9.41183 26.0879 12.9301 28.1256 16.91 28.1256C20.8899 28.1256 24.4081 26.0879 26.4617 22.9995C26.414 19.8315 20.078 18.0962 16.91 18.0962C13.726 18.0962 7.40595 19.8315 7.3582 22.9995Z" fill="white"/>
</svg>
