<svg xmlns="http://www.w3.org/2000/svg" xmlns:xlink="http://www.w3.org/1999/xlink" width="16" height="16" viewBox="0 0 16 16">
    <defs>
        <path id="gbrrh9blta" d="M0 0L15.059 0 15.059 16 0 16z"/>
    </defs>
    <g fill="none" fill-rule="evenodd">
        <g>
            <g>
                <g transform="translate(-1070 -728) translate(1070 728) matrix(1 0 0 -1 .5 16)">
                    <mask id="0pf9b6fd6b" fill="#fff">
                        <use xlink:href="#gbrrh9blta"/>
                    </mask>
                    <path fill="#00AE99" d="M3.766 9.411c-.287 0-.569-.13-.754-.375-.313-.417-.228-1.007.188-1.319l3.765-2.823c.325-.245.773-.25 1.106-.016l3.764 2.647c.425.3.528.887.228 1.312-.298.425-.885.527-1.31.229L8.468 7.458c.002.023.003.048.003.071v7.53c0 .52-.421.94-.941.94-.521 0-.942-.42-.942-.94V7.53L4.33 9.224c-.17.127-.368.187-.564.187M.94 0h13.177c.517 0 .94.423.94.94v1.883c0 .518-.423.941-.94.941-.518 0-.941-.423-.941-.94v-.942H1.882v.941c0 .518-.423.941-.94.941-.518 0-.942-.423-.942-.94V.94C0 .423.424 0 .941 0" mask="url(#0pf9b6fd6b)"/>
                </g>
            </g>
        </g>
    </g>
</svg>
