<svg width="20" height="22" viewBox="0 0 20 22" fill="none" xmlns="http://www.w3.org/2000/svg">
<path d="M2.64225 21.1768H2.64245H14.7966C15.8815 21.1769 16.9339 20.8023 17.7806 20.1151C18.6272 19.4279 19.2178 18.4693 19.4557 17.397C19.6936 16.3248 19.5649 15.2023 19.0905 14.2139C18.6324 13.2594 17.878 12.4846 16.9443 12.0079V5.33333C16.9443 5.26671 16.9313 5.20067 16.9061 5.13897C16.881 5.07727 16.844 5.02104 16.7972 4.97356L16.6713 5.09763L16.7972 4.97356L12.8553 0.973557L12.8553 0.973553C12.8085 0.926067 12.7528 0.88826 12.6913 0.862419L12.6228 1.02537L12.6913 0.862418C12.6298 0.836575 12.5638 0.82324 12.4971 0.823242L2.64245 0.823242L2.64225 0.823242C2.15914 0.823793 1.69651 1.0188 1.3557 1.36464C1.01498 1.71038 0.823782 2.17861 0.823242 2.66647V2.66667L0.823242 19.3333L0.823242 19.3335C0.823782 19.8214 1.01498 20.2896 1.3557 20.6354C1.69651 20.9812 2.15914 21.1762 2.64225 21.1768ZM11.9919 1.84342V4V4.0002C11.9924 4.48805 12.1836 4.95629 12.5243 5.30203C12.8652 5.64786 13.3278 5.84287 13.8109 5.84342H13.8111H15.9338V11.6291C14.8847 11.368 13.7767 11.4749 12.7921 11.9365C11.736 12.4317 10.8949 13.3007 10.4262 14.3798C9.95744 15.4588 9.89299 16.6741 10.2448 17.7978C10.5386 18.7364 11.1062 19.5576 11.8664 20.1566H2.64266C2.42903 20.1563 2.2237 20.0701 2.07185 19.916C1.91993 19.7619 1.83401 19.5523 1.83374 19.3332V2.66677C1.83401 2.44767 1.91993 2.23813 2.07185 2.08397C2.22368 1.9299 2.42897 1.8437 2.64256 1.84342H11.9919ZM18.5617 16.3335C18.5616 17.0902 18.3405 17.8297 17.9265 18.4584C17.5124 19.0872 16.9242 19.5769 16.2366 19.8659C15.5489 20.1549 14.7924 20.2305 14.0625 20.0832C13.3326 19.9359 12.6619 19.5722 12.1351 19.0377C11.6084 18.5032 11.2494 17.8218 11.1039 17.0797C10.9584 16.3376 11.0331 15.5683 11.3184 14.8694C11.6037 14.1705 12.0866 13.5736 12.7058 13.1538C13.3248 12.734 14.0523 12.5101 14.7964 12.5101C15.7938 12.5112 16.7506 12.9138 17.4567 13.6303C18.1629 14.3469 18.5605 15.319 18.5617 16.3335ZM13.0024 3.9998V2.56923L15.2236 4.82324H13.8113C13.5977 4.823 13.3923 4.7368 13.2405 4.58271C13.0885 4.42853 13.0026 4.21895 13.0024 3.9998Z" fill="#00A499" stroke="#00A499" stroke-width="0.353515"/>
<rect x="3.4463" y="4.3418" width="4.02559" height="0.646498" rx="0.323249" fill="#00A499" stroke="#00A499" stroke-width="0.646498"/>
<rect x="3.4463" y="12.5293" width="5.72454" height="0.646498" rx="0.323249" fill="#00A499" stroke="#00A499" stroke-width="0.646498"/>
<rect x="3.4463" y="15.5449" width="4.02559" height="0.646498" rx="0.323249" fill="#00A499" stroke="#00A499" stroke-width="0.646498"/>
<rect x="3.4463" y="6.92676" width="7.84821" height="0.646498" rx="0.323249" fill="#00A499" stroke="#00A499" stroke-width="0.646498"/>
<rect x="3.4463" y="9.94239" width="7.84821" height="0.646498" rx="0.323249" fill="#00A499" stroke="#00A499" stroke-width="0.646498"/>
</svg>
