<svg xmlns="http://www.w3.org/2000/svg" xmlns:xlink="http://www.w3.org/1999/xlink" width="56" height="56" viewBox="0 0 56 56">
    <defs>
        <path id="iguh10geja" d="M0.541 0.286L8.68 0.286 8.68 24.297 0.541 24.297z"/>
    </defs>
    <g fill="none" fill-rule="evenodd">
        <g>
            <g transform="translate(-1022 -362) translate(1022 362)">
                <g fill="#FF4F00">
                    <path d="M18 9c0-4.963-4.038-9-9-9-1.804 0-3.543.531-5.033 1.538-.449.303-.567.912-.263 1.362.303.45.913.567 1.362.264C6.23 2.378 7.59 1.963 9 1.963c3.88 0 7.037 3.157 7.037 7.037S12.881 16.037 9 16.037c-3.88 0-7.037-3.157-7.037-7.037 0-1.126.257-2.2.765-3.195.246-.483.055-1.074-.427-1.32-.483-.247-1.074-.056-1.321.428C.34 6.168 0 7.58 0 9c0 4.963 4.037 9 9 9 4.962 0 9-4.037 9-9z" transform="translate(7 28)"/>
                    <path stroke="#FF3900" stroke-width=".2" d="M9 10.16c0 .304-.045.572-.135.801-.09.23-.212.423-.366.578-.154.152-.334.268-.54.345-.205.077-.425.116-.66.116-.158 0-.307-.017-.444-.05-.135-.032-.254-.07-.358-.116-.105-.047-.192-.096-.263-.147-.069-.051-.118-.095-.15-.134-.03-.04-.052-.095-.066-.167-.013-.074-.018-.18-.018-.317 0-.093.002-.17.007-.233.005-.062.012-.114.021-.153.012-.039.026-.065.043-.08.019-.017.04-.027.064-.027.033 0 .079.026.138.077.062.047.14.101.235.16.094.06.206.116.337.166.133.048.285.072.458.072.113 0 .215-.017.305-.05.09-.035.166-.084.227-.147.064-.063.113-.14.146-.233.033-.093.05-.195.05-.309 0-.132-.029-.243-.085-.336-.057-.095-.132-.179-.224-.25-.09-.075-.193-.143-.31-.207l-.358-.205c-.123-.072-.242-.153-.358-.242-.116-.093-.22-.202-.313-.327-.09-.129-.163-.28-.22-.452-.057-.173-.085-.38-.085-.623 0-.278.04-.52.12-.73.083-.211.193-.386.33-.523.14-.14.304-.246.49-.314.19-.069.39-.103.6-.103.11 0 .219.01.328.032.108.02.21.049.305.084.094.036.178.076.252.121.073.046.122.083.145.112.024.03.04.055.047.076.01.021.016.05.021.085.008.033.012.077.014.13.002.05.004.115.004.193 0 .087-.002.16-.008.22-.002.059-.008.108-.017.146-.007.04-.019.068-.036.086-.014.018-.034.027-.06.027-.026 0-.067-.02-.124-.062-.057-.042-.127-.088-.21-.135-.083-.051-.178-.095-.288-.134-.108-.042-.227-.063-.358-.063-.102 0-.19.016-.266.049-.076.03-.14.073-.192.13-.05.054-.088.12-.113.197-.025.077-.036.16-.036.247 0 .128.027.24.081.335.057.093.132.176.225.25.094.073.2.14.319.207.118.063.239.13.362.202.123.071.244.153.362.246.118.09.224.198.316.326.092.126.167.276.223.449.057.17.086.371.086.604M10.17 12.828c-.015.034-.036.062-.06.082-.026.021-.062.038-.109.051-.044.013-.1.022-.17.027-.065.008-.15.012-.253.012-.13 0-.235-.005-.316-.015-.082-.011-.145-.026-.189-.048-.041-.02-.065-.047-.07-.082-.007-.031 0-.069.018-.113l2.817-6.566c.013-.033.032-.06.057-.082.026-.023.06-.041.104-.054.044-.013.1-.023.17-.028.071-.008.158-.012.258-.012.132 0 .237.006.316.016.081.01.143.026.183.047.041.02.065.048.072.082.005.031 0 .07-.015.113l-2.812 6.57z" transform="translate(7 28)"/>
                </g>
                <path fill="#FF4500" d="M32.845 6.919H32.8c-.843.012-1.631.348-2.218.95-.59.599-.906 1.393-.894 2.23l.021 1.665c.016 1.07.376 2.061 1.017 2.797.601.687 1.374 1.033 2.192 1.049.812-.012 1.579-.405 2.162-1.11.622-.749.956-1.751.94-2.82l-.023-1.665c-.011-.839-.348-1.623-.953-2.207-.594-.574-1.373-.89-2.199-.89zm.036 10.636c-1.374 0-2.66-.609-3.63-1.718-.945-1.082-1.477-2.518-1.498-4.045l-.022-1.666c-.02-1.358.497-2.643 1.448-3.616.953-.973 2.23-1.52 3.594-1.537 1.41.01 2.657.492 3.635 1.44.978.948 1.528 2.216 1.546 3.575l.023 1.665c.022 1.528-.471 2.98-1.387 4.085-.953 1.154-2.248 1.798-3.645 1.817h-.064z"/>
                <g transform="translate(40.87 26.405)">
                    <mask id="idk4ec7jxb" fill="#fff">
                        <use xlink:href="#iguh10geja"/>
                    </mask>
                    <path fill="#FF4500" d="M1.52 24.297c-.54 0-.979-.438-.979-.978V4.336c0-2.234 1.828-4.05 4.07-4.05 2.205 0 4.006 1.753 4.068 3.934.001.038.164-1.295.002.116s-1.813 1.077-1.921 0C6.7 3.229 5.739 2.232 4.61 2.232c-1.166 0-2.113.944-2.113 2.104v18.983c0 .54-.438.978-.978.978z" mask="url(#idk4ec7jxb)"/>
                </g>
                <path fill="#FF4500" d="M45.834 27.728h-1.956c0-8.413-4.551-10.866-8.37-11.442l.293-1.925c3.747.566 10.033 3.055 10.033 13.367M21.957 30.787H20v-3.059c0-10.311 6.284-12.8 10.031-13.367l.296 1.923c-3.82.578-8.37 3.032-8.37 11.444v3.06z"/>
                <rect width="1" height="11" x="32.5" y="25.5" fill="#FF4500" stroke="#FF4500" rx=".5" transform="rotate(90 32.8 31)"/>
                <path stroke="#FF4500" stroke-linecap="round" stroke-linejoin="round" stroke-width="1.6" d="M27.076 23l-.003 8.597L27 45.769 27 46.959c0 4.02 6 4.16 6-.214V31M38.924 23l.003 8.597L39 45.769l.001 1.19c0 4.02-6 4.16-6-.214V31"/>
            </g>
        </g>
    </g>
</svg>
