<svg xmlns="http://www.w3.org/2000/svg" width="24" height="24" viewBox="0 0 24 24">
    <g fill="none" fill-rule="evenodd">
        <g>
            <g>
                <g fill="#FF4F00">
                    <path d="M15.51 0H5.829l-.026.015c-.15.004-.3.053-.422.157L.243 4.511c-.139.117-.217.277-.234.444H0v14.933c0 1.062.875 1.93 1.944 1.93h8.185l-1.356-1.35H1.944c-.315 0-.583-.266-.583-.58V5.341l4.27-3.606V5.7h-2.13v1.35H6.99l.003-5.7h8.517c.316 0 .583.265.583.579v10.46h1.361V1.93C17.455.868 16.58 0 15.51 0" transform="translate(-508 -838) translate(508 838) translate(2)"/>
                    <path d="M20.284 17.003c-.066-.16-.228-.433-.57-.433H15.861v1.375h2.433l-4.474 4.534-4.456-4.535H11.996V11.635h.008v-1.375h-.013v-.117c0-.38-.303-.687-.678-.687-.374 0-.677.307-.677.687v3.706c0 .016.003.032.005.048v2.674H8.03c-.326 0-.57.157-.688.442-.134.327-.068.753.15.974l5.615 5.715c.195.2.453.299.712.299.258 0 .516-.1.713-.298l5.64-5.716c.204-.206.251-.64.112-.983" transform="translate(-508 -838) translate(508 838) translate(2)"/>
                </g>
            </g>
        </g>
    </g>
</svg>
