<svg width="79" height="81" viewBox="0 0 79 81" fill="none" xmlns="http://www.w3.org/2000/svg">
<path opacity="0.13" d="M40.8176 77.56C61.7036 77.56 78.6351 60.1976 78.6351 38.78C78.6351 17.3624 61.7036 0 40.8176 0C19.9315 0 3 17.3624 3 38.78C3 60.1976 19.9315 77.56 40.8176 77.56Z" fill="#696158"/>
<g clip-path="url(#clip0)">
<path d="M62.544 70.9354L59.6623 62.1966C58.6556 59.1458 56.0867 56.8938 52.9544 56.3183L44.6361 54.7881V54.1371C46.0832 53.2879 47.3435 52.1525 48.3471 50.8064H50.8601C52.9186 50.8064 54.5945 49.1127 54.5945 47.0322V31.9354C54.5945 22.9182 47.3342 15.5806 38.4121 15.5806C29.49 15.5806 22.2297 22.9182 22.2297 31.9354V40.7419C22.2297 43.1668 23.9367 45.197 26.1991 45.6703C26.8977 49.2857 29.1337 52.3459 32.1881 54.1371V54.7881L23.8682 56.3183C20.7375 56.8938 18.167 59.1458 17.1619 62.1966L16.664 63.7078L12.4239 59.4225C11.9384 58.9319 11.9384 58.133 12.4239 57.6424L17.3408 52.6746L8.1122 43.3476L2.55574 48.9633C0.909496 50.6271 0.00390625 52.8381 0.00390625 55.1907C0.00390625 57.5433 0.909496 59.7544 2.55574 61.4166L19.3792 78.4193C21.0254 80.0831 23.2131 80.9999 25.5409 80.9999C27.8687 80.9999 30.0564 80.0831 31.6622 78.4571L37.7259 72.8429L35.8338 70.9354H62.544ZM52.1049 47.0322C52.1049 47.7273 51.5463 48.2902 50.8601 48.2902H49.8129C50.1739 47.4583 50.4477 46.5824 50.6251 45.6703C51.1573 45.5587 51.649 45.3448 52.1049 45.0759V47.0322ZM50.8601 42.9089V38.5764C51.6007 39.0136 52.1049 39.8156 52.1049 40.7434C52.1049 41.6713 51.6007 42.4717 50.8601 42.9089ZM25.9641 42.9089C25.2235 42.4717 24.7193 41.6697 24.7193 40.7419C24.7193 39.814 25.2235 39.012 25.9641 38.5748V42.9089ZM28.4537 43.258V36.9205C32.1912 36.6358 35.6767 35.0774 38.4121 32.4496C41.1475 35.0774 44.633 36.6374 48.3705 36.9205V43.258C48.3705 45.0916 47.8757 46.8089 47.023 48.2902H38.4121V50.8064H44.9768C43.2217 52.3679 40.9281 53.3225 38.4121 53.3225C32.921 53.3225 28.4537 48.8076 28.4537 43.258ZM42.1465 55.2583V55.3181L38.4121 59.0923L34.6777 55.3181V55.2583C35.8572 55.6326 37.1113 55.8386 38.4121 55.8386C39.7129 55.8386 40.9655 55.6342 42.1465 55.2583ZM19.5208 62.9923C20.2396 60.8127 22.0757 59.204 24.3117 58.7919L33.0128 57.1942L38.4121 62.6511L43.8099 57.1958L52.5094 58.7935C54.7469 59.2055 56.583 60.8143 57.3003 62.9939L59.0913 68.4193H33.3442L28.4957 63.5191L23.1089 68.4444C22.639 68.9209 21.819 68.9209 21.3491 68.4444L18.6307 65.6971L19.5208 62.9923Z" fill="#696158"/>
<path d="M8.11001 46.9049L6.75781 48.2715L12.4659 54.0404L13.8181 52.6738L8.11001 46.9049Z" fill="white"/>
<path d="M29.936 76.6441C28.7613 77.8298 27.1975 78.484 25.5357 78.484C23.8739 78.484 22.3101 77.8283 21.1338 76.641L4.31035 59.6398C3.13558 58.4525 2.48828 56.872 2.48828 55.1925C2.48828 53.5114 3.13558 51.931 4.31035 50.7437L4.99499 50.0518L10.7039 55.8216L10.6588 55.8672C9.20396 57.3391 9.20396 59.7326 10.6588 61.2045L19.5856 70.2264C20.292 70.9388 21.2287 71.3319 22.2276 71.3319C23.2266 71.3319 24.1633 70.9388 24.823 70.2704L24.9164 70.1855L30.6518 75.982L29.936 76.6441Z" fill="white"/>
<path d="M32.487 74.2784L26.7656 68.4945L28.4088 66.9927L34.1224 72.7656L32.487 74.2784Z" fill="white"/>
<path d="M25.9635 34.4515V35.8889C25.5201 36.0052 25.1046 36.1814 24.7188 36.4094V31.9354C24.7188 24.3052 30.8618 18.0967 38.4115 18.0967C45.9612 18.0967 52.1043 24.3052 52.1043 31.9354V36.4094C51.7184 36.1814 51.3029 36.0037 50.8595 35.8889V34.4515H49.6147C45.9332 34.4515 42.4727 33.0016 39.8695 30.3722L38.4115 28.8987L36.9536 30.3722C34.3488 33.0016 30.8883 34.4515 27.2083 34.4515H25.9635Z" fill="white"/>
<path d="M73.267 3H55.8399C53.7813 3 52.1055 4.69367 52.1055 6.77419V16.8387C52.1055 18.9192 53.7813 20.6129 55.8399 20.6129H59.165L57.8782 28.2006L69.8905 20.6129H73.267C75.3256 20.6129 77.0014 18.9192 77.0014 16.8387V6.77419C77.0014 4.69367 75.3256 3 73.267 3Z" fill="#696158"/>
<path d="M74.5105 16.8387C74.5105 17.5322 73.9519 18.0968 73.2657 18.0968H69.1734L61.2674 23.0897L62.1154 18.0968H55.8385C55.1524 18.0968 54.5938 17.5322 54.5938 16.8387V6.77418C54.5938 6.08067 55.1524 5.51611 55.8385 5.51611H73.2657C73.9519 5.51611 74.5105 6.08067 74.5105 6.77418V16.8387Z" fill="white"/>
<path d="M72.0196 8.03223H57.082V10.5484H72.0196V8.03223Z" fill="#696158"/>
<path d="M67.0404 13.0645H57.082V15.5806H67.0404V13.0645Z" fill="#696158"/>
<path d="M72.0208 13.0645H69.5312V15.5806H72.0208V13.0645Z" fill="#696158"/>
<path d="M38.4113 6.77441C22.1465 6.77441 8.1363 18.1442 4.49372 34.0052L2.13483 30.0313L0 31.3255L4.37546 38.6947L11.6669 34.2726L10.3863 32.115L7.01287 34.1609C10.5403 19.6507 23.4489 9.29054 38.4113 9.29054C41.682 9.29054 44.9076 9.78119 48.0009 10.7499L48.7369 8.34699C45.4055 7.3028 41.931 6.77441 38.4113 6.77441Z" fill="#696158"/>
<path d="M76.3956 30.8567L69.1042 26.4346L64.7303 33.8037L66.8651 35.0979L69.0435 31.4275C70.1902 34.818 70.7769 38.3642 70.7769 41.9984C70.7769 49.4807 68.2126 56.7948 63.5586 62.5929L65.4911 64.1781C70.5046 57.9334 73.2664 50.0547 73.2664 41.9984C73.2664 38.1503 72.6534 34.3918 71.4568 30.7938L75.115 33.0111L76.3956 30.8567Z" fill="#696158"/>
</g>
<defs>
<clipPath id="clip0">
<rect width="77" height="78" fill="white" transform="translate(0 3)"/>
</clipPath>
</defs>
</svg>
