<svg xmlns="http://www.w3.org/2000/svg" width="48" height="48" viewBox="0 0 48 48">
    <g fill="none" fill-rule="evenodd">
        <g>
            <g>
                <g>
                    <path fill="#00AE99" d="M36.774 18.103c-.082.408-.316.76-.66.99l-2.05 1.373-.003.002-7.32 4.902c-.548.367-1.206.51-1.854.406-.939-.153-1.892.057-2.684.587l-.768.514-6.449-9.846 1.667-7.282c.43-1.876.203-3.852-.615-5.573l-.024-.053c-.158-.326-.337-.64-.534-.946-.388-.592-.226-1.393.359-1.784.494-.331 1.162-.269 1.59.148l1.115 1.095c1.207 1.184 2.155 2.651 2.74 4.246l.608 1.655.004.01c.001.003.002.007.005.01.004.011.009.02.013.028.011.025.024.049.04.074.178.272.54.346.81.166l6.232-4.173c.709-.475 1.667-.278 2.137.439.468.717.274 1.686-.435 2.16l-.54.362-1.207.809c-.001.002-.002.003-.005.003l-.02.014c-.248.185-.313.537-.14.8.178.274.54.347.81.167l1.208-.809c.344-.228.754-.31 1.158-.227.404.083.751.32.979.667.227.348.307.764.226 1.171-.082.408-.316.76-.66.99l-1.748 1.17c-.27.18-.342.547-.165.82.113.172.298.265.489.265.11 0 .222-.033.321-.099l.271-.18.937-.627c.71-.475 1.668-.278 2.137.44.469.716.275 1.685-.435 2.16l-.873.585-.014.009-.86.576c-.27.18-.343.547-.166.82.113.171.298.264.488.264.112 0 .223-.032.322-.098l.271-.181.937-.627c.344-.23.754-.31 1.158-.227.404.083.751.32.979.667.22.343.3.76.218 1.168M21.22 28.916c-.023.112-.087.21-.183.273l-3.47 2.323-6.441-9.713c-.18-.272-.543-.344-.812-.162-.268.182-.34.55-.16.82l6.437 9.707-4.953 3.319c-4.922-2.178-8.445-6.776-9.293-12.126l5.827-3.89.671 1.012c.113.17.298.262.486.262.113 0 .225-.032.325-.1.268-.181.34-.548.16-.82l-.666-1.003 3.546-2.368c.094-.063.207-.085.318-.062.111.023.207.088.27.184l7.874 12.022c.064.094.085.208.064.322M6.012 10.328c2.372-2.765 5.603-4.623 9.138-5.268.567 1.389.703 2.94.364 4.42l-1.425 6.223c-.223-.241-.515-.408-.842-.475-.418-.086-.842-.003-1.197.235l-4.036 2.702-5.82 3.897c-.032-.414-.049-.834-.049-1.252 0-3.852 1.374-7.575 3.867-10.482m18.504-4.096L22.73 7.427l-.351-.957c-.147-.4-.316-.791-.501-1.175.905.233 1.786.545 2.638.937m13.007 10.047c-.39-.593-.98-1.004-1.666-1.16.443-.856.425-1.925-.14-2.787-.4-.614-1.007-1.009-1.666-1.159.118-.226.204-.472.257-.73.144-.717.004-1.449-.396-2.059-.39-.595-.98-1.005-1.667-1.16.444-.856.426-1.925-.139-2.787-.825-1.26-2.51-1.606-3.756-.771l-2.697 1.806c-1.438-.738-2.967-1.261-4.556-1.559-.502-.77-1.085-1.485-1.738-2.126L18.244.692c-.818-.8-2.1-.921-3.048-.285-1.123.752-1.431 2.287-.688 3.423l.087.135c-3.663.748-6.997 2.711-9.467 5.588C2.452 12.676.976 16.674.976 20.813c0 .793.054 1.588.16 2.36.817 6.014 4.779 11.196 10.338 13.524 2.06.865 4.248 1.303 6.5 1.303 3.565 0 6.98-1.105 9.872-3.193 2.829-2.044 4.946-4.865 6.122-8.158.11-.306-.047-.646-.352-.756-.304-.11-.638.049-.747.356-1.095 3.066-3.067 5.692-5.702 7.596-2.692 1.945-5.87 2.974-9.192 2.974-1.717 0-3.393-.274-4.997-.814l4.753-3.184h.002l3.95-2.647c.356-.238.597-.6.683-1.022.086-.421.003-.851-.232-1.21l-.053-.08.768-.515c.548-.367 1.206-.51 1.854-.406.94.153 1.893-.056 2.685-.586l6.367-4.263c-.044.558-.115 1.114-.215 1.66-.059.32.15.628.468.688.035.006.071.01.107.01.276 0 .521-.199.574-.483.162-.882.255-1.783.28-2.688l1.794-1.202c.603-.404 1.016-1.022 1.159-1.739.142-.717 0-1.448-.399-2.059" transform="translate(-677 -172) translate(677 172) translate(5 4)"/>
                    <path stroke="#00AE99" d="M36.774 18.103c-.082.408-.316.76-.66.99l-2.05 1.373-.003.002-7.32 4.902c-.548.367-1.206.51-1.854.406-.939-.153-1.892.057-2.684.587l-.768.514-6.449-9.846 1.667-7.282c.43-1.876.203-3.852-.615-5.573l-.024-.053c-.158-.326-.337-.64-.534-.946-.388-.592-.226-1.393.359-1.784.494-.331 1.162-.269 1.59.148l1.115 1.095c1.207 1.184 2.155 2.651 2.74 4.246l.608 1.655.004.01c.001.003.002.007.005.01.004.011.009.02.013.028.011.025.024.049.04.074.178.272.54.346.81.166l6.232-4.173c.709-.475 1.667-.278 2.137.439.468.717.274 1.686-.435 2.16l-.54.362-1.207.809c-.001.002-.002.003-.005.003l-.02.014c-.248.185-.313.537-.14.8.178.274.54.347.81.167l1.208-.809c.344-.228.754-.31 1.158-.227.404.083.751.32.979.667.227.348.307.764.226 1.171-.082.408-.316.76-.66.99l-1.748 1.17c-.27.18-.342.547-.165.82.113.172.298.265.489.265.11 0 .222-.033.321-.099l.271-.18.937-.627c.71-.475 1.668-.278 2.137.44.469.716.275 1.685-.435 2.16l-.873.585-.014.009-.86.576c-.27.18-.343.547-.166.82.113.171.298.264.488.264.112 0 .223-.032.322-.098l.271-.181.937-.627c.344-.23.754-.31 1.158-.227.404.083.751.32.979.667.22.343.3.76.218 1.168zM21.22 28.916c-.023.112-.087.21-.183.273l-3.47 2.323-6.441-9.713c-.18-.272-.543-.344-.812-.162-.268.182-.34.55-.16.82l6.437 9.707-4.953 3.319c-4.922-2.178-8.445-6.776-9.293-12.126l5.827-3.89.671 1.012c.113.17.298.262.486.262.113 0 .225-.032.325-.1.268-.181.34-.548.16-.82l-.666-1.003 3.546-2.368c.094-.063.207-.085.318-.062.111.023.207.088.27.184l7.874 12.022c.064.094.085.208.064.322zM6.012 10.328c2.372-2.765 5.603-4.623 9.138-5.268.567 1.389.703 2.94.364 4.42l-1.425 6.223c-.223-.241-.515-.408-.842-.475-.418-.086-.842-.003-1.197.235l-4.036 2.702-5.82 3.897c-.032-.414-.049-.834-.049-1.252 0-3.852 1.374-7.575 3.867-10.482zm18.504-4.096L22.73 7.427l-.351-.957c-.147-.4-.316-.791-.501-1.175.905.233 1.786.545 2.638.937zm13.007 10.047c-.39-.593-.98-1.004-1.666-1.16.443-.856.425-1.925-.14-2.787-.4-.614-1.007-1.009-1.666-1.159.118-.226.204-.472.257-.73.144-.717.004-1.449-.396-2.059-.39-.595-.98-1.005-1.667-1.16.444-.856.426-1.925-.139-2.787-.825-1.26-2.51-1.606-3.756-.771l-2.697 1.806c-1.438-.738-2.967-1.261-4.556-1.559-.502-.77-1.085-1.485-1.738-2.126L18.244.692c-.818-.8-2.1-.921-3.048-.285-1.123.752-1.431 2.287-.688 3.423l.087.135c-3.663.748-6.997 2.711-9.467 5.588C2.452 12.676.976 16.674.976 20.813c0 .793.054 1.588.16 2.36.817 6.014 4.779 11.196 10.338 13.524 2.06.865 4.248 1.303 6.5 1.303 3.565 0 6.98-1.105 9.872-3.193 2.829-2.044 4.946-4.865 6.122-8.158.11-.306-.047-.646-.352-.756-.304-.11-.638.049-.747.356-1.095 3.066-3.067 5.692-5.702 7.596-2.692 1.945-5.87 2.974-9.192 2.974-1.717 0-3.393-.274-4.997-.814l4.753-3.184h.002l3.95-2.647c.356-.238.597-.6.683-1.022.086-.421.003-.851-.232-1.21l-.053-.08.768-.515c.548-.367 1.206-.51 1.854-.406.94.153 1.893-.056 2.685-.586l6.367-4.263c-.044.558-.115 1.114-.215 1.66-.059.32.15.628.468.688.035.006.071.01.107.01.276 0 .521-.199.574-.483.162-.882.255-1.783.28-2.688l1.794-1.202c.603-.404 1.016-1.022 1.159-1.739.142-.717 0-1.448-.399-2.059z" transform="translate(-677 -172) translate(677 172) translate(5 4)"/>
                </g>
            </g>
        </g>
    </g>
</svg>
