<svg width="100" height="37" viewBox="0 0 100 37" fill="none" xmlns="http://www.w3.org/2000/svg">
<path d="M3.50544 29.901H5.92775L5.53342 32.4107C5.30809 33.7213 4.35043 33.805 2.99845 33.805C1.25214 33.805 0.660645 33.1636 0.660645 31.7415C0.660645 31.3511 0.716977 30.9049 0.801476 30.403C1.1958 28.0048 1.89996 27.001 4.1251 27.001C4.88559 27.001 5.58975 27.0567 6.26574 27.2241L5.92775 28.4231C5.36442 28.3395 4.74476 28.3116 4.15327 28.3116C2.77312 28.3116 2.57595 29.2039 2.37879 30.4309C2.32246 30.8213 2.26613 31.1559 2.26613 31.4626C2.26613 32.1319 2.51962 32.5502 3.47728 32.5502C4.06877 32.5502 4.18144 32.3828 4.23777 31.9646L4.3786 31.1559H3.30828L3.50544 29.901Z" fill="white"/>
<path d="M7.81539 33.7213H6.37891L6.9704 30.0405C7.02673 29.678 7.08306 29.3712 7.16756 29.0366C7.78722 28.6741 8.63221 28.5347 9.33637 28.5347C9.53353 28.5347 9.7307 28.5347 9.8997 28.5626L9.58987 29.7616C9.50537 29.7616 9.36454 29.7337 9.25187 29.7337C8.99837 29.7337 8.66038 29.7895 8.49138 29.8732C8.43505 30.0684 8.37871 30.3193 8.35055 30.5703L7.81539 33.7213Z" fill="white"/>
<path d="M11.8989 28.6187L11.3919 31.7418C11.3638 31.8812 11.3638 31.9928 11.3638 32.1043C11.3638 32.4668 11.5328 32.6341 12.0679 32.6341C12.2932 32.6341 12.5186 32.6063 12.6876 32.5226C12.7439 32.3274 12.8002 32.0764 12.8284 31.8255L13.3354 28.6187H14.7719L14.1804 32.2995C14.1241 32.662 14.0677 32.9688 13.9832 33.3034C13.3072 33.6659 12.4904 33.8053 11.6736 33.8053C10.2089 33.8053 9.84277 33.3034 9.84277 32.5505C9.84277 32.3553 9.87094 32.1043 9.89911 31.8812L10.4061 28.6465H11.8989V28.6187Z" fill="white"/>
<path d="M16.2371 35.5897H14.7725L15.6456 30.0405C15.702 29.678 15.7583 29.3712 15.8428 29.0366C16.4624 28.6741 17.3074 28.5347 18.0116 28.5347C19.4481 28.5347 20.1241 28.953 20.1241 30.2636C20.1241 30.5145 20.0959 30.8213 20.0396 31.1559C19.7297 33.1358 18.8847 33.7771 17.3356 33.7771C17.0821 33.7771 16.7723 33.7492 16.5188 33.6935L16.2371 35.5897ZM18.6031 31.1559C18.6312 30.9328 18.6876 30.7097 18.6876 30.5145C18.6876 30.0684 18.5186 29.7059 17.8708 29.7059C17.6454 29.7059 17.3919 29.7337 17.2229 29.7895C17.1666 29.9847 17.1103 30.2357 17.0821 30.4866L16.7723 32.5223C16.9131 32.5781 17.1384 32.6059 17.3074 32.6059C18.3214 32.6059 18.4623 31.9925 18.6031 31.1559Z" fill="white"/>
<path d="M20.7429 31.1559C21.0527 29.2597 21.7569 28.5347 23.4468 28.5347C24.827 28.5347 25.3903 29.0366 25.3903 30.2357C25.3903 30.5145 25.3622 30.8213 25.3058 31.1559C24.996 33.0521 24.2918 33.7771 22.6019 33.7771C21.2217 33.7771 20.6584 33.3031 20.6584 32.0761C20.6302 31.8251 20.6865 31.5184 20.7429 31.1559ZM22.7708 32.6059C23.4468 32.6059 23.6722 32.2992 23.8412 31.1838C23.8975 30.877 23.9257 30.6261 23.9257 30.4309C23.9257 29.9289 23.7285 29.7616 23.2497 29.7616C22.5737 29.7616 22.3765 30.0684 22.1794 31.1838C22.123 31.5184 22.0949 31.7694 22.0949 31.9646C22.0949 32.4386 22.292 32.6059 22.7708 32.6059Z" fill="white"/>
<path d="M41.5585 33.7782C39.8122 33.7782 39.2207 33.1368 39.2207 31.7146C39.2207 31.3242 39.277 30.8781 39.3615 30.3761C39.7559 28.0059 40.46 26.9741 42.6852 26.9741C43.4175 26.9741 44.0371 27.0578 44.4596 27.1972L44.1216 28.4242C43.671 28.3405 43.2203 28.3126 42.7133 28.3126C41.3332 28.3126 41.136 29.205 40.9388 30.404C40.8825 30.7944 40.8262 31.129 40.8262 31.4358C40.8262 32.0771 41.0797 32.4954 42.0373 32.4954C42.5162 32.4954 43.0232 32.4397 43.4738 32.356L43.4175 33.583C42.9387 33.6945 42.2908 33.7782 41.5585 33.7782Z" fill="white"/>
<path d="M45.5014 33.7213H44.0649L44.6564 30.0405C44.7128 29.678 44.7691 29.3712 44.8536 29.0366C45.4733 28.6741 46.3182 28.5347 47.0224 28.5347C47.2196 28.5347 47.4167 28.5347 47.5857 28.5626L47.2759 29.7616C47.1914 29.7616 47.0506 29.7337 46.9379 29.7337C46.6844 29.7337 46.3464 29.7895 46.1774 29.8732C46.1211 30.0684 46.0647 30.3193 46.0366 30.5703L45.5014 33.7213Z" fill="white"/>
<path d="M50.205 28.535C51.6696 28.535 52.1203 29.1485 52.1203 30.1802C52.1203 30.4591 52.0921 30.7658 52.0358 31.1005C52.0076 31.2399 51.9795 31.4072 51.9513 31.5466C51.3598 31.6582 50.3176 31.7697 49.6135 31.7976L48.8248 31.8534C48.8248 31.9091 48.8248 31.9649 48.8248 31.9928C48.8248 32.4668 49.1347 32.6063 49.7543 32.6063C50.4585 32.6063 51.0781 32.5226 51.6133 32.4668L51.557 33.5823C51.0218 33.6659 50.2613 33.7775 49.2755 33.7775C47.8953 33.7775 47.4165 33.0524 47.4165 31.9928C47.4165 31.7418 47.4447 31.4351 47.501 31.1562C47.8108 29.3158 48.515 28.535 50.205 28.535ZM49.6698 30.7937C49.9515 30.7658 50.4021 30.738 50.6275 30.7101C50.6275 30.6543 50.6556 30.5985 50.6556 30.5428C50.6838 30.4591 50.6838 30.3476 50.6838 30.2639C50.6838 29.8735 50.4866 29.6783 50.0078 29.6783C49.2191 29.6783 49.0501 30.1524 48.9375 30.8216L49.6698 30.7937ZM50.7965 28.0052H49.698L50.8246 26.4436H52.2611L50.7965 28.0052Z" fill="white"/>
<path d="M56.5427 26.6389H58.0074L57.106 32.2996C57.0497 32.6622 56.9934 32.9689 56.9089 33.3035C56.2892 33.666 55.4442 33.8055 54.7401 33.8055C53.3036 33.8055 52.6558 33.3872 52.6558 32.0766C52.6558 31.8256 52.6839 31.5189 52.7403 31.1842C53.0501 29.2044 53.8669 28.563 55.4442 28.563C55.6977 28.563 56.0076 28.5909 56.2329 28.6467L56.5427 26.6389ZM54.1767 31.1563C54.1486 31.3794 54.1204 31.6025 54.1204 31.8256C54.1204 32.2718 54.2894 32.6343 54.9372 32.6343C55.1626 32.6343 55.4161 32.6064 55.5851 32.5227C55.6414 32.3275 55.6977 32.0766 55.7259 31.8256L56.0639 29.79C55.9231 29.7342 55.6977 29.7063 55.5287 29.7063C54.4302 29.7063 54.2894 30.3477 54.1767 31.1563Z" fill="white"/>
<path d="M58.7685 28.6186H60.2331L59.4163 33.7217H57.9517L58.7685 28.6186ZM60.543 27.3638C60.4585 27.9215 60.205 28.1446 59.5853 28.1446C59.0501 28.1446 58.853 28.0052 58.853 27.6148C58.853 27.5311 58.853 27.4475 58.8811 27.3638C58.9656 26.8061 59.2191 26.583 59.8388 26.583C60.374 26.583 60.5711 26.7503 60.5711 27.1128C60.5711 27.1686 60.5711 27.2523 60.543 27.3638Z" fill="white"/>
<path d="M63.3319 27.1682L63.1065 28.6183H64.0924L63.9234 29.7616H62.9375L62.5432 32.1597C62.5432 32.2155 62.5432 32.2712 62.5432 32.2991C62.5432 32.5501 62.684 32.6895 62.9939 32.6895C63.1347 32.6895 63.3037 32.6895 63.4727 32.6616L63.4164 33.6934C63.1065 33.7492 62.7404 33.8049 62.4305 33.8049C61.4729 33.8049 61.0504 33.4424 61.0504 32.7174C61.0504 32.6059 61.0504 32.4664 61.0786 32.327L61.5011 29.7616H60.7124L60.8814 28.6183H61.6701L61.8672 27.4192L63.3319 27.1682Z" fill="white"/>
<path d="M64.2324 31.1559C64.5423 29.2597 65.2464 28.5347 66.9364 28.5347C68.3165 28.5347 68.8799 29.0366 68.8799 30.2357C68.8799 30.5145 68.8517 30.8213 68.7954 31.1559C68.4855 33.0521 67.7814 33.7771 66.0914 33.7771C64.7113 33.7771 64.1479 33.3031 64.1479 32.0761C64.1479 31.8251 64.1761 31.5184 64.2324 31.1559ZM66.2886 32.6059C66.9646 32.6059 67.1899 32.2992 67.3589 31.1838C67.4152 30.877 67.4434 30.6261 67.4434 30.4309C67.4434 29.9289 67.2462 29.7616 66.7674 29.7616C66.0914 29.7616 65.8943 30.0684 65.6971 31.1838C65.6408 31.5184 65.6126 31.7694 65.6126 31.9646C65.6126 32.4386 65.8098 32.6059 66.2886 32.6059Z" fill="white"/>
<path d="M31.5029 30.124C32.2352 28.3672 32.1789 26.3037 31.1931 25.6065C31.1367 25.5786 31.0804 25.5229 30.9959 25.495C29.9256 24.993 28.9398 26.0527 28.6299 26.471C28.3201 26.8892 27.9821 27.5306 27.9258 27.6422C28.6299 27.9768 30.2073 28.7297 31.5029 30.124Z" fill="white"/>
<path d="M35.7846 28.7854C35.9254 28.9806 37.0239 30.347 35.9817 31.9365C34.9396 33.5259 32.4891 35.3664 30.8555 36.0914C29.2218 36.8164 27.9262 35.5895 27.3347 34.5577C27.3065 34.6135 30.433 33.2192 31.8131 31.0999C33.0806 29.1758 33.1933 26.3873 32.0103 25.5786C32.5173 25.8575 33.3904 26.4988 34.0664 27.0565C34.8269 27.6979 35.6437 28.5902 35.7846 28.7854Z" fill="white"/>
<path d="M0.660645 0.313965H7.36423C10.9977 0.313965 13.5045 1.98709 13.5045 5.80738C13.5045 9.73922 11.3639 11.4681 7.53323 11.4681H5.05459V17.0173H0.660645V0.313965ZM5.05459 7.98244H5.78692C7.36423 7.98244 8.94155 7.98244 8.94155 5.94681C8.94155 3.85541 7.4769 3.82752 5.78692 3.82752H5.05459V7.98244Z" fill="white"/>
<path d="M29.2783 17.0173H23.814L19.6736 10.6037H19.6172V17.0173H15.2515V0.313965H21.8142C25.1379 0.313965 27.6728 1.87554 27.6728 5.44487C27.6728 7.75936 26.3772 9.73922 23.983 10.1575L29.2783 17.0173ZM19.6454 7.78724H20.0679C21.5044 7.78724 23.1099 7.50839 23.1099 5.69584C23.1099 3.88329 21.5044 3.60444 20.0679 3.60444H19.6454V7.78724Z" fill="white"/>
<path d="M35.3901 17.0173H30.9961V0.313965H35.3901V17.0173Z" fill="white"/>
<path d="M40.1503 0.313965H44.4598L47.8961 9.23728L51.5295 0.313965H55.8671L58.4303 17.0173H54.0363L52.797 7.39685H52.7688L48.7129 17.0173H46.9666L43.1078 7.39685H43.0514L41.6431 17.0173H37.2773L40.1503 0.313965Z" fill="white"/>
<path d="M65.1895 14.1172L64.0346 17.0173H59.3872L65.8655 0.313965H70.6537L76.9912 17.0173H72.3155L71.2171 14.1172H65.1895ZM68.2314 5.47276H68.1751L66.3725 10.7989H70.0059L68.2314 5.47276Z" fill="white"/>
<path d="M79.8923 7.20146L79.3009 8.6515H76.9912L80.2303 0.285889H82.6245L85.8073 8.6515H83.4695L82.9343 7.20146H79.8923ZM81.4415 2.90711L80.512 5.55622H82.3428L81.4415 2.90711Z" fill="white"/>
<path d="M88.8493 2.1544V3.54867H91.2435V5.3891H88.8493V8.67957H86.6523V0.313965H91.497V2.1544H88.8493Z" fill="white"/>
<path d="M92.9053 0.313965H96.2571C98.0597 0.313965 99.3272 1.15053 99.3272 3.07461C99.3272 5.05447 98.2569 5.91892 96.3416 5.91892H95.1022V8.67957H92.9053V0.313965ZM95.1022 4.13426H95.4684C96.2571 4.13426 97.0457 4.13426 97.0457 3.1025C97.0457 2.04286 96.3134 2.04286 95.4684 2.04286H95.1022V4.13426Z" fill="white"/>
</svg>
