<svg width="92" height="87" viewBox="0 0 92 87" fill="none" xmlns="http://www.w3.org/2000/svg">
<circle cx="39.9834" cy="39.1377" r="39.1377" fill="#E1F3F2"/>
<path d="M34.6778 35.6076C35.3736 35.6076 35.9376 35.0435 35.9376 34.3477C35.9376 33.6519 35.3736 33.0879 34.6778 33.0879C33.982 33.0879 33.418 33.6519 33.418 34.3477C33.418 35.0435 33.982 35.6076 34.6778 35.6076Z" fill="#18A499"/>
<path d="M39.7169 35.6076C40.4127 35.6076 40.9767 35.0435 40.9767 34.3477C40.9767 33.6519 40.4127 33.0879 39.7169 33.0879C39.0211 33.0879 38.457 33.6519 38.457 34.3477C38.457 35.0435 39.0211 35.6076 39.7169 35.6076Z" fill="#18A499"/>
<path d="M28.3772 35.4803V36.8662C28.3787 38.0402 28.6146 39.2022 29.0711 40.2839C29.5275 41.3655 30.1954 42.3452 31.0355 43.1654H30.8969C29.2263 43.1654 27.624 43.829 26.4427 45.0103C25.2614 46.1917 24.5977 47.7939 24.5977 49.4645V62.0629C24.5977 62.397 24.7305 62.7175 24.9667 62.9538C25.203 63.19 25.5234 63.3228 25.8576 63.3228C26.1917 63.3228 26.5121 63.19 26.7484 62.9538C26.9847 62.7175 27.1174 62.397 27.1174 62.0629V49.4645C27.1174 48.4622 27.5156 47.5008 28.2244 46.792C28.9332 46.0832 29.8945 45.685 30.8969 45.685H32.6985L35.9363 51.0771V62.0629C35.9363 62.397 36.069 62.7175 36.3053 62.9538C36.5415 63.19 36.862 63.3228 37.1961 63.3228C37.5302 63.3228 37.8507 63.19 38.0869 62.9538C38.3232 62.7175 38.4559 62.397 38.4559 62.0629V51.0771L41.6937 45.685H43.4953C44.4977 45.685 45.459 46.0832 46.1678 46.792C46.8766 47.5008 47.2748 48.4622 47.2748 49.4645V62.0629C47.2748 62.397 47.4075 62.7175 47.6438 62.9538C47.8801 63.19 48.2005 63.3228 48.5346 63.3228C48.8688 63.3228 49.1892 63.19 49.4255 62.9538C49.6617 62.7175 49.7945 62.397 49.7945 62.0629V49.4645C49.7945 47.7939 49.1308 46.1917 47.9495 45.0103C46.7682 43.829 45.1659 43.1654 43.4953 43.1654H43.3567C44.1968 42.3452 44.8647 41.3655 45.3211 40.2839C45.7776 39.2022 46.0135 38.0402 46.015 36.8662V35.4803C47.4378 35.1899 48.7166 34.4168 49.6349 33.2919C50.5532 32.167 51.0546 30.7593 51.0543 29.3071V26.7875C51.0543 25.1168 50.3906 23.5146 49.2093 22.3333C48.028 21.1519 46.4258 20.4883 44.7551 20.4883H24.5977C24.2636 20.4883 23.9432 20.621 23.7069 20.8573C23.4706 21.0935 23.3379 21.414 23.3379 21.7481V29.3071C23.3376 30.7593 23.839 32.167 24.7573 33.2919C25.6757 34.4168 26.9544 35.1899 28.3772 35.4803ZM37.1961 48.2803L35.6465 45.685H38.7457L37.1961 48.2803ZM43.4953 36.8662C43.4953 38.5368 42.8316 40.139 41.6503 41.3204C40.469 42.5017 38.8667 43.1654 37.1961 43.1654C35.5255 43.1654 33.9232 42.5017 32.7419 41.3204C31.5606 40.139 30.8969 38.5368 30.8969 36.8662V28.9544C33.1011 30.018 35.5172 30.5693 37.9646 30.567H43.4953V36.8662ZM25.8576 23.008H44.7551C45.7575 23.008 46.7188 23.4062 47.4276 24.1149C48.1364 24.8237 48.5346 25.7851 48.5346 26.7875V29.3071C48.5324 30.0869 48.2891 30.8469 47.838 31.483C47.3869 32.119 46.7501 32.6 46.015 32.8599V29.3071C46.015 28.973 45.8822 28.6526 45.646 28.4163C45.4097 28.18 45.0893 28.0473 44.7551 28.0473H37.9646C35.2474 28.0533 32.5898 27.2507 30.33 25.7418C30.1441 25.6215 29.9297 25.5523 29.7085 25.5413C29.4873 25.5302 29.2672 25.5777 29.0702 25.6788C28.8643 25.7825 28.6908 25.9407 28.5686 26.1362C28.4465 26.3317 28.3803 26.557 28.3772 26.7875V32.8599C27.6421 32.6 27.0053 32.119 26.5542 31.483C26.1031 30.8469 25.8598 30.0869 25.8576 29.3071V23.008Z" fill="#18A499"/>
<path d="M29.6367 51.9844V62.0631C29.6367 62.3973 29.7695 62.7177 30.0057 62.954C30.242 63.1903 30.5624 63.323 30.8966 63.323C31.2307 63.323 31.5511 63.1903 31.7874 62.954C32.0237 62.7177 32.1564 62.3973 32.1564 62.0631V51.9844C32.1564 51.6503 32.0237 51.3299 31.7874 51.0936C31.5511 50.8573 31.2307 50.7246 30.8966 50.7246C30.5624 50.7246 30.242 50.8573 30.0057 51.0936C29.7695 51.3299 29.6367 51.6503 29.6367 51.9844Z" fill="#18A499"/>
<path d="M42.2344 51.9844V62.0631C42.2344 62.3973 42.3671 62.7177 42.6034 62.954C42.8396 63.1903 43.1601 63.323 43.4942 63.323C43.8283 63.323 44.1488 63.1903 44.3851 62.954C44.6213 62.7177 44.754 62.3973 44.754 62.0631V51.9844C44.754 51.6503 44.6213 51.3299 44.3851 51.0936C44.1488 50.8573 43.8283 50.7246 43.4942 50.7246C43.1601 50.7246 42.8396 50.8573 42.6034 51.0936C42.3671 51.3299 42.2344 51.6503 42.2344 51.9844Z" fill="#18A499"/>
<path d="M38.0909 37.76C37.9738 37.878 37.8345 37.9718 37.681 38.0357C37.5274 38.0997 37.3628 38.1326 37.1964 38.1326C37.0301 38.1326 36.8655 38.0997 36.7119 38.0357C36.5584 37.9718 36.4191 37.878 36.302 37.76C36.061 37.5536 35.7509 37.4457 35.4339 37.458C35.1168 37.4702 34.816 37.6017 34.5917 37.826C34.3673 38.0504 34.2358 38.3512 34.2236 38.6682C34.2113 38.9853 34.3192 39.2953 34.5256 39.5363C35.2343 40.2441 36.1949 40.6417 37.1964 40.6417C38.198 40.6417 39.1586 40.2441 39.8673 39.5363C40.0737 39.2953 40.1815 38.9853 40.1693 38.6682C40.1571 38.3512 40.0256 38.0504 39.8012 37.826C39.5769 37.6017 39.2761 37.4702 38.959 37.458C38.642 37.4457 38.3319 37.5536 38.0909 37.76V37.76Z" fill="#18A499"/>
<path d="M77.5098 28.049H80.0295C80.3636 28.049 80.6841 27.9162 80.9204 27.68C81.1566 27.4437 81.2893 27.1233 81.2893 26.7891C81.2893 26.455 81.1566 26.1346 80.9204 25.8983C80.6841 25.662 80.3636 25.5293 80.0295 25.5293H77.5098C77.1757 25.5293 76.8553 25.662 76.619 25.8983C76.3827 26.1346 76.25 26.455 76.25 26.7891C76.25 27.1233 76.3827 27.4437 76.619 27.68C76.8553 27.9162 77.1757 28.049 77.5098 28.049Z" fill="#18A499"/>
<path d="M77.5098 33.088H80.0295C80.3636 33.088 80.6841 32.9553 80.9204 32.719C81.1566 32.4828 81.2893 32.1623 81.2893 31.8282C81.2893 31.4941 81.1566 31.1736 80.9204 30.9374C80.6841 30.7011 80.3636 30.5684 80.0295 30.5684H77.5098C77.1757 30.5684 76.8553 30.7011 76.619 30.9374C76.3827 31.1736 76.25 31.4941 76.25 31.8282C76.25 32.1623 76.3827 32.4828 76.619 32.719C76.8553 32.9553 77.1757 33.088 77.5098 33.088Z" fill="#18A499"/>
<path d="M67.4319 25.5293H64.9122C64.5781 25.5293 64.2576 25.662 64.0213 25.8983C63.7851 26.1346 63.6523 26.455 63.6523 26.7891C63.6523 27.1233 63.7851 27.4437 64.0213 27.68C64.2576 27.9162 64.5781 28.049 64.9122 28.049H67.4319C67.766 28.049 68.0864 27.9162 68.3227 27.68C68.559 27.4437 68.6917 27.1233 68.6917 26.7891C68.6917 26.455 68.559 26.1346 68.3227 25.8983C68.0864 25.662 67.766 25.5293 67.4319 25.5293Z" fill="#18A499"/>
<path d="M67.4319 30.5684H64.9122C64.5781 30.5684 64.2576 30.7011 64.0213 30.9374C63.7851 31.1736 63.6523 31.4941 63.6523 31.8282C63.6523 32.1623 63.7851 32.4828 64.0213 32.719C64.2576 32.9553 64.5781 33.088 64.9122 33.088H67.4319C67.766 33.088 68.0864 32.9553 68.3227 32.719C68.559 32.4828 68.6917 32.1623 68.6917 31.8282C68.6917 31.4941 68.559 31.1736 68.3227 30.9374C68.0864 30.7011 67.766 30.5684 67.4319 30.5684Z" fill="#18A499"/>
<path d="M72.4715 40.6457C72.8056 40.6457 73.1261 40.5129 73.3623 40.2767C73.5986 40.0404 73.7313 39.72 73.7313 39.3858C73.7313 39.0517 73.8641 38.7313 74.1003 38.495C74.3366 38.2587 74.657 38.126 74.9912 38.126H85.0699C85.404 38.126 85.7244 37.9933 85.9607 37.757C86.197 37.5207 86.3297 37.2003 86.3297 36.8662V21.7481C86.3297 21.414 86.197 21.0935 85.9607 20.8573C85.7244 20.621 85.404 20.4883 85.0699 20.4883H77.5108C76.5329 20.4883 75.5684 20.716 74.6938 21.1533C73.8191 21.5906 73.0582 22.2256 72.4715 23.008C71.8847 22.2256 71.1239 21.5906 70.2492 21.1533C69.3745 20.716 68.4101 20.4883 67.4321 20.4883H59.8731C59.539 20.4883 59.2185 20.621 58.9823 20.8573C58.746 21.0935 58.6133 21.414 58.6133 21.7481V36.8662C58.6133 37.2003 58.746 37.5207 58.9823 37.757C59.2185 37.9933 59.539 38.126 59.8731 38.126H67.4321C67.7663 38.126 68.0867 37.9933 68.323 37.757C68.5592 37.5207 68.692 37.2003 68.692 36.8662C68.692 36.532 68.5592 36.2116 68.323 35.9753C68.0867 35.7391 67.7663 35.6063 67.4321 35.6063H61.133V23.008H67.4321C68.4345 23.008 69.3959 23.4062 70.1047 24.1149C70.8135 24.8237 71.2117 25.7851 71.2117 26.7875V39.3858C71.2117 39.72 71.3444 40.0404 71.5807 40.2767C71.8169 40.5129 72.1374 40.6457 72.4715 40.6457ZM77.5108 23.008H83.81V35.6063H74.9912C74.5621 35.6057 74.1361 35.6781 73.7313 35.8205V26.7875C73.7313 25.7851 74.1295 24.8237 74.8383 24.1149C75.5471 23.4062 76.5085 23.008 77.5108 23.008Z" fill="#18A499"/>
<path d="M90.1095 31.8271C90.4437 31.8271 90.7641 31.6944 91.0004 31.4581C91.2366 31.2218 91.3694 30.9014 91.3694 30.5673V21.7484C91.3694 20.0778 90.7057 18.4755 89.5244 17.2942C88.3431 16.1129 86.7408 15.4492 85.0702 15.4492H59.8734C58.2028 15.4492 56.6006 16.1129 55.4192 17.2942C54.2379 18.4755 53.5742 20.0778 53.5742 21.7484V39.3861C53.5696 40.977 54.1672 42.5108 55.2469 43.6793C56.3265 44.8477 57.8084 45.5644 59.3947 45.6853L57.4167 51.594C57.3367 51.8367 57.3324 52.0981 57.4044 52.3434C57.4764 52.5886 57.6213 52.8062 57.8199 52.9672C58.0165 53.1299 58.2579 53.2291 58.5121 53.2516C58.7663 53.2741 59.0214 53.2188 59.2435 53.0932L72.0057 45.6853H85.0702C86.7408 45.6853 88.3431 45.0217 89.5244 43.8403C90.7057 42.659 91.3694 41.0568 91.3694 39.3861V35.6066C91.3694 35.2725 91.2366 34.952 91.0004 34.7158C90.7641 34.4795 90.4437 34.3468 90.1095 34.3468C89.7754 34.3468 89.455 34.4795 89.2187 34.7158C88.9824 34.952 88.8497 35.2725 88.8497 35.6066V39.3861C88.8497 40.3885 88.4515 41.3499 87.7427 42.0586C87.0339 42.7674 86.0726 43.1656 85.0702 43.1656H71.6655C71.4454 43.169 71.2294 43.2251 71.0356 43.3294L60.8561 49.2255L62.3931 44.8286C62.4556 44.6392 62.4722 44.4376 62.4415 44.2405C62.4108 44.0433 62.3338 43.8563 62.2167 43.6948C62.0948 43.523 61.9317 43.3846 61.7424 43.2922C61.5531 43.1997 61.3437 43.1562 61.1333 43.1656H59.8734C58.871 43.1656 57.9097 42.7674 57.2009 42.0586C56.4921 41.3499 56.0939 40.3885 56.0939 39.3861V21.7484C56.0939 20.746 56.4921 19.7847 57.2009 19.0759C57.9097 18.3671 58.871 17.9689 59.8734 17.9689H85.0702C86.0726 17.9689 87.0339 18.3671 87.7427 19.0759C88.4515 19.7847 88.8497 20.746 88.8497 21.7484V30.5673C88.8497 30.9014 88.9824 31.2218 89.2187 31.4581C89.455 31.6944 89.7754 31.8271 90.1095 31.8271Z" fill="#18A499"/>
<path d="M72.4733 58.2833C72.8074 58.2833 73.1279 58.1506 73.3641 57.9143C73.6004 57.6781 73.7331 57.3576 73.7331 57.0235C73.7331 56.6894 73.6004 56.3689 73.3641 56.1327C73.1279 55.8964 72.8074 55.7637 72.4733 55.7637H62.3946C62.0605 55.7637 61.74 55.8964 61.5038 56.1327C61.2675 56.3689 61.1348 56.6894 61.1348 57.0235C61.1348 57.3576 61.2675 57.6781 61.5038 57.9143C61.74 58.1506 62.0605 58.2833 62.3946 58.2833H72.4733Z" fill="#18A499"/>
<path d="M53.5742 62.0645C53.5742 62.3987 53.707 62.7191 53.9432 62.9554C54.1795 63.1916 54.4999 63.3244 54.8341 63.3244H72.4718C72.8059 63.3244 73.1264 63.1916 73.3626 62.9554C73.5989 62.7191 73.7316 62.3987 73.7316 62.0645C73.7316 61.7304 73.5989 61.4099 73.3626 61.1737C73.1264 60.9374 72.8059 60.8047 72.4718 60.8047H54.8341C54.4999 60.8047 54.1795 60.9374 53.9432 61.1737C53.707 61.4099 53.5742 61.7304 53.5742 62.0645V62.0645Z" fill="#18A499"/>
<path d="M54.8341 68.3634H64.9128C65.2469 68.3634 65.5673 68.2307 65.8036 67.9944C66.0399 67.7582 66.1726 67.4377 66.1726 67.1036C66.1726 66.7695 66.0399 66.449 65.8036 66.2127C65.5673 65.9765 65.2469 65.8438 64.9128 65.8438H54.8341C54.4999 65.8438 54.1795 65.9765 53.9432 66.2127C53.707 66.449 53.5742 66.7695 53.5742 67.1036C53.5742 67.4377 53.707 67.7582 53.9432 67.9944C54.1795 68.2307 54.4999 68.3634 54.8341 68.3634Z" fill="#18A499"/>
<path d="M77.5113 48.2059C77.1772 48.2059 76.8568 48.3387 76.6205 48.5749C76.3842 48.8112 76.2515 49.1316 76.2515 49.4658V69.6232C76.2515 69.9573 76.1188 70.2777 75.8825 70.514C75.6462 70.7503 75.3258 70.883 74.9917 70.883H19.5588C19.2247 70.883 18.9042 70.7503 18.668 70.514C18.4317 70.2777 18.299 69.9573 18.299 69.6232V36.8674C18.299 36.5333 18.4317 36.2128 18.668 35.9766C18.9042 35.7403 19.2247 35.6076 19.5588 35.6076H20.8186C21.1528 35.6076 21.4732 35.4748 21.7095 35.2386C21.9458 35.0023 22.0785 34.6819 22.0785 34.3477C22.0785 34.0136 21.9458 33.6932 21.7095 33.4569C21.4732 33.2206 21.1528 33.0879 20.8186 33.0879H19.5588C18.5564 33.0879 17.5951 33.4861 16.8863 34.1949C16.1775 34.9037 15.7793 35.865 15.7793 36.8674V69.6232C15.7793 70.6256 16.1775 71.5869 16.8863 72.2957C17.5951 73.0045 18.5564 73.4027 19.5588 73.4027H34.8406L31.4769 78.442H28.3777C28.0435 78.442 27.7231 78.5748 27.4868 78.811C27.2506 79.0473 27.1178 79.3677 27.1178 79.7019C27.1178 80.036 27.2506 80.3564 27.4868 80.5927C27.7231 80.829 28.0435 80.9617 28.3777 80.9617H66.1728C66.5069 80.9617 66.8274 81.0944 67.0636 81.3307C67.2999 81.567 67.4326 81.8874 67.4326 82.2215V83.4814H25.858C25.5239 83.4814 25.2034 83.6141 24.9672 83.8504C24.7309 84.0866 24.5982 84.4071 24.5982 84.7412C24.5982 85.0753 24.7309 85.3958 24.9672 85.6321C25.2034 85.8683 25.5239 86.0011 25.858 86.0011H68.6925C69.0266 86.0011 69.347 85.8683 69.5833 85.6321C69.8196 85.3958 69.9523 85.0753 69.9523 84.7412V82.2215C69.9523 81.2192 69.5541 80.2578 68.8453 79.549C68.1365 78.8402 67.1752 78.442 66.1728 78.442H63.0736L59.7098 73.4027H74.9917C75.994 73.4027 76.9554 73.0045 77.6642 72.2957C78.373 71.5869 78.7712 70.6256 78.7712 69.6232V49.4658C78.7712 49.1316 78.6384 48.8112 78.4022 48.5749C78.1659 48.3387 77.8455 48.2059 77.5113 48.2059ZM60.0374 78.442H34.5131L37.8768 73.4027H56.6736L60.0374 78.442Z" fill="#18A499"/>
</svg>
