<svg xmlns="http://www.w3.org/2000/svg" width="48" height="48" viewBox="0 0 48 48">
    <g fill="none" fill-rule="evenodd">
        <g>
            <g>
                <g>
                    <g fill="#00AE99" stroke="#00AE99" stroke-linejoin="round" stroke-width=".6">
                        <path d="M27.559 14.793l8.392 10.366c.007.01.018.018.027.027H2.522c.01-.01.02-.017.028-.027l8.39-10.366c.258-.317.21-.784-.11-1.041-.316-.258-.783-.21-1.04.108L1.48 24.126V3.405l15.747 11.81c.592.44 1.31.636 2.023.637.71-.002 1.432-.196 2.024-.636l15.745-11.81v20.719l-8.31-10.264c-.255-.318-.722-.368-1.04-.11-.318.258-.367.725-.11 1.042h0zM35.785 2.48l-15.4 11.55c-.276.212-.701.344-1.135.342-.433.002-.86-.13-1.135-.341L2.715 2.48h33.07zm.74-1.48H1.976C.889 1 0 1.889 0 2.974v21.718c0 1.085.889 1.974 1.975 1.974h34.55c1.087 0 1.975-.889 1.975-1.974V2.974C38.5 1.888 37.612 1 36.526 1h0z" transform="translate(-676 -200) translate(400 169) translate(276 31) translate(5 11)"/>
                    </g>
                </g>
            </g>
        </g>
    </g>
</svg>
