<?xml version="1.0" encoding="UTF-8" standalone="no"?>
<svg
   xmlns="http://www.w3.org/2000/svg"
   width="23"
   height="19"
   viewBox="0 0 23 19"
   fill="none"
   version="1.1"
   id="svg4">
  <path
     d="M3.1 1C1.94871 1 1 1.94871 1 3.1V16.1667C1 17.318 1.94871 18.2667 3.1 18.2667H6.84062C6.93338 18.268 7.02548 18.2508 7.11156 18.2163C7.19763 18.1817 7.27598 18.1303 7.34204 18.0652C7.4081 18 7.46055 17.9224 7.49635 17.8369C7.53216 17.7513 7.55059 17.6594 7.55059 17.5667C7.55059 17.4739 7.53216 17.3821 7.49635 17.2965C7.46055 17.2109 7.4081 17.1333 7.34204 17.0682C7.27598 17.003 7.19763 16.9517 7.11156 16.9171C7.02548 16.8825 6.93338 16.8654 6.84062 16.8667H3.1C2.70009 16.8667 2.4 16.5666 2.4 16.1667V6.13333H20.6V16.1667C20.6 16.5666 20.2999 16.8667 19.9 16.8667H9.16667C9.07391 16.8654 8.98181 16.8825 8.89574 16.9171C8.80966 16.9517 8.73131 17.003 8.66526 17.0682C8.5992 17.1333 8.54674 17.2109 8.51094 17.2965C8.47513 17.3821 8.4567 17.4739 8.4567 17.5667C8.4567 17.6594 8.47513 17.7513 8.51094 17.8369C8.54674 17.9224 8.5992 18 8.66526 18.0652C8.73131 18.1303 8.80966 18.1817 8.89574 18.2163C8.98181 18.2508 9.07391 18.268 9.16667 18.2667H19.9C21.0513 18.2667 22 17.318 22 16.1667V3.1C22 1.94871 21.0513 1 19.9 1H3.1ZM3.1 2.4H19.9C20.2999 2.4 20.6 2.70009 20.6 3.1V4.73333H2.4V3.1C2.4 2.70009 2.70009 2.4 3.1 2.4ZM6.6 2.86667C6.2134 2.86667 5.9 3.18007 5.9 3.56667C5.9 3.95327 6.2134 4.26667 6.6 4.26667C6.9866 4.26667 7.3 3.95327 7.3 3.56667C7.3 3.18007 6.9866 2.86667 6.6 2.86667ZM16.4 2.86667C16.0134 2.86667 15.7 3.18007 15.7 3.56667C15.7 3.95327 16.0134 4.26667 16.4 4.26667C16.7866 4.26667 17.1 3.95327 17.1 3.56667C17.1 3.18007 16.7866 2.86667 16.4 2.86667ZM13.9937 11.0333C13.821 11.0514 13.6612 11.1331 13.5453 11.2625C13.4294 11.3918 13.3657 11.5597 13.3667 11.7333V15C13.3667 15.1856 13.4404 15.3637 13.5717 15.495C13.703 15.6262 13.881 15.7 14.0667 15.7H18.7333C18.919 15.7 19.097 15.6262 19.2283 15.495C19.3596 15.3637 19.4333 15.1856 19.4333 15V11.7333C19.4333 11.5477 19.3596 11.3697 19.2283 11.2384C19.097 11.1071 18.919 11.0334 18.7333 11.0333H14.0667C14.0424 11.0321 14.018 11.0321 13.9937 11.0333ZM14.7667 12.4333H18.0333V14.3H14.7667V12.4333Z"
     fill="#FF4F00"
     stroke="#FF4F00"
     stroke-width="0.2"
     id="path2"
     style="fill:#696158;fill-opacity:1;stroke:#696158;stroke-opacity:1" />
</svg>
