<svg width="11" height="22" viewBox="0 0 11 22" fill="none" xmlns="http://www.w3.org/2000/svg">
<path fill-rule="evenodd" clip-rule="evenodd" d="M10.2783 13.3294C10.9731 12.978 11.2075 13.2105 10.7992 13.8529L6.05168 21.3225C5.747 21.8019 5.25211 21.8005 4.94831 21.3225L0.200829 13.8529C-0.206288 13.2124 0.026139 12.9776 0.72174 13.3294L5.18396 15.586C5.3585 15.6743 5.63742 15.6764 5.81604 15.586L10.2783 13.3294ZM0.72174 9.34336C0.0269311 9.69474 -0.207497 9.46223 0.200829 8.81978L4.94831 1.35023C5.253 0.870841 5.74788 0.872236 6.05168 1.35023L10.7992 8.81978C11.2063 9.46033 10.9739 9.69514 10.2783 9.34336L5.81604 7.0867C5.64149 6.99842 5.36258 6.99636 5.18396 7.0867L0.72174 9.34336Z" fill="#00A499"/>
</svg>
