<svg width="16" height="17" viewBox="0 0 16 17" fill="none" xmlns="http://www.w3.org/2000/svg">
    <mask id="mask0" mask-type="alpha" maskUnits="userSpaceOnUse" x="0" y="0" width="16" height="17">
        <path fill-rule="evenodd" clip-rule="evenodd" d="M15.4999 16.5L0.441149 16.5L0.44115 0.500375L15.4999 0.500377L15.4999 16.5Z" fill="white"/>
    </mask>
    <g mask="url(#mask0)">
        <path fill-rule="evenodd" clip-rule="evenodd" d="M11.7342 7.08824C12.0213 7.08824 12.3027 7.21812 12.4881 7.46376C12.8006 7.88071 12.7159 8.47082 12.2999 8.78235L8.53517 11.6059C8.20953 11.8506 7.76153 11.8562 7.42929 11.6219L3.66458 8.97435C3.24011 8.67506 3.13658 8.08776 3.43682 7.66235C3.73517 7.23788 4.32153 7.13529 4.74694 7.43365L7.03211 9.04118C7.03023 9.01859 7.02929 8.99412 7.02929 8.97059L7.02929 1.44118C7.02929 0.920705 7.45 0.499999 7.97047 0.499999C8.49094 0.499999 8.91164 0.920705 8.91164 1.44118L8.91164 8.96965L11.1705 7.27553C11.3399 7.14847 11.5375 7.08824 11.7342 7.08824ZM14.5587 16.5L1.38223 16.5C0.864584 16.5 0.441054 16.0765 0.441054 15.5588L0.441055 13.6765C0.441055 13.1588 0.864584 12.7353 1.38223 12.7353C1.89988 12.7353 2.32341 13.1588 2.32341 13.6765L2.32341 14.6176L13.6175 14.6176L13.6175 13.6765C13.6175 13.1588 14.0411 12.7353 14.5587 12.7353C15.0763 12.7353 15.4999 13.1588 15.4999 13.6765L15.4999 15.5588C15.4999 16.0765 15.0763 16.5 14.5587 16.5Z" fill="#00AE99"/>
    </g>
</svg>
