<svg width="19" height="19" viewBox="0 0 19 19" fill="none" xmlns="http://www.w3.org/2000/svg">
<path d="M16.603 12.0284C16.3732 12.0284 16.187 12.2266 16.187 12.4712V16.4025C16.1862 17.1359 15.6279 17.7302 14.9388 17.7309H3.26483C2.57574 17.7302 2.01749 17.1359 2.01667 16.4025V4.86427C2.01749 4.13109 2.57574 3.53681 3.26483 3.53594H6.95891C7.18872 3.53594 7.37497 3.33773 7.37497 3.09317C7.37497 2.84877 7.18872 2.65039 6.95891 2.65039H3.26483C2.11646 2.65177 1.18587 3.64214 1.18457 4.86427V16.4027C1.18587 17.6248 2.11646 18.6152 3.26483 18.6166H14.9388C16.0872 18.6152 17.0178 17.6248 17.0191 16.4027V12.4712C17.0191 12.2266 16.8328 12.0284 16.603 12.0284Z" fill="#00A499" stroke="#00A499" stroke-width="0.3"/>
<path fill-rule="evenodd" clip-rule="evenodd" d="M3.26672 2.49414L6.9608 2.49414C7.27275 2.49414 7.52425 2.76319 7.52425 3.09299C7.52425 3.42301 7.27272 3.69184 6.9608 3.69184L3.26689 3.69184C3.26686 3.69184 3.26693 3.69184 3.26689 3.69184C2.65983 3.69266 2.16668 4.21643 2.16596 4.86427V16.4022C2.16668 17.0502 2.6598 17.574 3.26686 17.5746H14.9406C15.5476 17.574 16.0407 17.0502 16.0415 16.4022V12.471C16.0415 12.141 16.293 11.8721 16.6049 11.8721C16.9168 11.8721 17.1684 12.141 17.1684 12.471V16.4025C17.167 17.71 16.1712 18.771 14.9409 18.7725H3.26672C2.03638 18.771 1.04045 17.7102 1.03906 16.4027L1.03906 4.86409C1.04045 3.55664 2.03638 2.49562 3.26672 2.49414ZM3.26689 2.80629C2.20052 2.80758 1.33511 3.72741 1.33386 4.86419L1.33386 16.4024C1.33507 17.5392 2.20049 18.459 3.26689 18.4603H14.9405C16.0069 18.459 16.8724 17.5392 16.8736 16.4024V12.471C16.8736 12.3119 16.7526 12.1843 16.6049 12.1843C16.4572 12.1843 16.3363 12.3119 16.3363 12.471V16.4024C16.3354 17.221 15.712 17.886 14.9408 17.8868H3.26672C2.49561 17.886 1.87207 17.2212 1.87117 16.4025L1.87117 4.86409C1.87207 4.04562 2.49548 3.38066 3.26655 3.37969L6.9608 3.37969C7.1085 3.37969 7.22946 3.2521 7.22946 3.09299C7.22946 2.93401 7.10846 2.80629 6.9608 2.80629L3.26689 2.80629Z" fill="#00A499"/>
<path d="M3.26689 3.69184L6.9608 3.69184C7.27272 3.69184 7.52425 3.42301 7.52425 3.09299C7.52425 2.76319 7.27275 2.49414 6.9608 2.49414L3.26672 2.49414C2.03638 2.49562 1.04045 3.55664 1.03906 4.86409L1.03906 16.4027C1.04045 17.7102 2.03638 18.771 3.26672 18.7725L14.9409 18.7725C16.1712 18.771 17.167 17.71 17.1684 16.4025V12.471C17.1684 12.141 16.9168 11.8721 16.6049 11.8721C16.293 11.8721 16.0415 12.141 16.0415 12.471V16.4022C16.0407 17.0502 15.5476 17.574 14.9406 17.5746H3.26686C2.6598 17.574 2.16668 17.0502 2.16596 16.4022V4.86427C2.16668 4.21643 2.65983 3.69266 3.26689 3.69184ZM3.26689 3.69184C3.26693 3.69184 3.26686 3.69184 3.26689 3.69184ZM1.33386 4.86419C1.33511 3.72741 2.20052 2.80758 3.26689 2.80629L6.9608 2.80629C7.10846 2.80629 7.22946 2.93401 7.22946 3.09299C7.22946 3.2521 7.1085 3.37969 6.9608 3.37969L3.26655 3.37969C2.49548 3.38066 1.87207 4.04562 1.87117 4.86409L1.87117 16.4025C1.87207 17.2212 2.49561 17.886 3.26672 17.8868H14.9408C15.712 17.886 16.3354 17.221 16.3363 16.4024V12.471C16.3363 12.3119 16.4572 12.1843 16.6049 12.1843C16.7526 12.1843 16.8736 12.3119 16.8736 12.471V16.4024C16.8724 17.5392 16.0069 18.459 14.9405 18.4603H3.26689C2.20049 18.459 1.33507 17.5392 1.33386 16.4024L1.33386 4.86419Z" stroke="#00A499" stroke-width="0.3"/>
<path d="M16.856 1.51329C16.1248 0.735152 14.9394 0.735152 14.2082 1.51329L6.78555 9.41268C6.73469 9.46681 6.69796 9.53392 6.67878 9.6076L5.70268 13.3579C5.66254 13.5116 5.70333 13.6763 5.8093 13.7892C5.91542 13.902 6.07014 13.9454 6.21462 13.9029L9.73855 12.8639C9.80778 12.8435 9.87084 12.8044 9.92171 12.7503L17.3442 4.85071C18.0742 4.07205 18.0742 2.81152 17.3442 2.03286L16.856 1.51329ZM7.69209 9.70048L13.7669 3.23527L15.7261 5.32029L9.65111 11.7855L7.69209 9.70048ZM7.30074 10.5362L8.86598 12.2022L6.70088 12.8405L7.30074 10.5362ZM16.7558 4.2246L16.3146 4.69418L14.3553 2.60899L14.7967 2.13941C15.2028 1.70718 15.8613 1.70718 16.2675 2.13941L16.7558 2.65897C17.1613 3.09172 17.1613 3.79203 16.7558 4.2246Z" fill="#00A499" stroke="#00A499" stroke-width="0.3"/>
<path fill-rule="evenodd" clip-rule="evenodd" d="M14.1048 1.40304C14.8936 0.563571 16.1728 0.563571 16.9616 1.40304L17.4498 1.92261C18.2369 2.76212 18.237 4.12098 17.4499 4.96049L10.0273 12.8602C9.9585 12.9334 9.87306 12.9864 9.77922 13.0141L6.25529 14.053C6.0593 14.1108 5.84958 14.0518 5.70602 13.8992C5.56279 13.7466 5.50753 13.5239 5.56172 13.3162L6.53781 9.56596C6.56372 9.46644 6.61337 9.37567 6.6822 9.30242L14.1048 1.40304ZM16.7526 1.6232C16.0791 0.906383 14.9874 0.906383 14.3138 1.6232L6.89118 9.52258C6.85828 9.5576 6.83447 9.60105 6.82202 9.64889L5.84592 13.3992C5.81987 13.4989 5.84633 13.6059 5.915 13.6791C5.98369 13.752 6.08329 13.7797 6.17626 13.7523L9.70015 12.7134C9.74476 12.7002 9.78546 12.675 9.81835 12.64L17.2407 4.74058C17.9136 4.02281 17.9137 2.86058 17.2408 2.14277M17.2408 2.14277L16.7526 1.6232L17.2408 2.14277ZM16.1641 2.24931C15.8156 1.87841 15.2508 1.87841 14.9023 2.24931L14.5643 2.60883L16.3157 4.47272L16.6524 4.11447C16.6524 4.11443 16.6523 4.11452 16.6524 4.11447C17.0006 3.74282 17.0008 3.14077 16.6525 2.7689M16.6525 2.7689L16.1641 2.24931L16.6525 2.7689ZM16.8615 4.33451L16.3157 4.91529L14.1484 2.60879L14.6933 2.02915C14.6933 2.02914 14.6933 2.02915 14.6933 2.02915C15.1571 1.53562 15.9093 1.53561 16.3731 2.02915L16.8615 2.5487C17.324 3.04228 17.324 3.84107 16.8615 4.33451ZM13.7681 3.01381L15.9352 5.32012L9.65224 12.0066L7.48531 9.7003L13.7681 3.01381ZM13.7681 3.45638L7.90115 9.70031L9.65225 11.564L15.5193 5.32012L13.7681 3.45638ZM7.22727 10.2353L9.14912 12.2808L6.49073 13.0647L7.22727 10.2353ZM7.37649 10.8368L6.91331 12.6161L8.5851 12.1231L7.37649 10.8368Z" fill="#00A499"/>
<path d="M10.0273 12.8602L9.93332 12.7611M10.0273 12.8602C9.9585 12.9334 9.87306 12.9864 9.77922 13.0141L6.25529 14.053C6.0593 14.1108 5.84958 14.0518 5.70602 13.8992C5.56279 13.7466 5.50753 13.5239 5.56172 13.3162M10.0273 12.8602L17.4499 4.96049C18.237 4.12098 18.2369 2.76212 17.4498 1.92261L16.9616 1.40304C16.1728 0.563571 14.8936 0.563571 14.1048 1.40304L6.6822 9.30242C6.61337 9.37567 6.56372 9.46644 6.53781 9.56596M5.56172 13.3162C5.56171 13.3162 5.56172 13.3162 5.56172 13.3162ZM5.56172 13.3162L6.53781 9.56596M6.53781 9.56596L6.67991 9.60742M5.915 13.6791C5.84633 13.6059 5.81987 13.4989 5.84592 13.3992L6.82202 9.64889C6.83447 9.60105 6.85828 9.5576 6.89118 9.52258L14.3138 1.6232C14.9874 0.906383 16.0791 0.906383 16.7526 1.6232L17.2408 2.14277C17.9137 2.86058 17.9136 4.02281 17.2407 4.74058L9.81835 12.64M5.915 13.6791L5.81043 13.7891M5.915 13.6791C5.98369 13.752 6.08329 13.7797 6.17626 13.7523L9.70015 12.7134M9.70015 12.7134L9.73968 12.8637M9.70015 12.7134C9.74476 12.7002 9.78546 12.675 9.81835 12.64M9.81835 12.64L9.92284 12.7501M16.6524 4.11447L16.3157 4.47272L14.5643 2.60883L14.9023 2.24931C15.2508 1.87841 15.8156 1.87841 16.1641 2.24931L16.6525 2.7689C17.0008 3.14077 17.0006 3.74282 16.6524 4.11447ZM16.6524 4.11447C16.6523 4.11452 16.6524 4.11443 16.6524 4.11447ZM16.8615 4.33451L16.757 4.22442M16.8615 4.33451C17.324 3.84107 17.324 3.04228 16.8615 2.5487L16.3731 2.02915C15.9093 1.53561 15.1571 1.53562 14.6933 2.02915M16.8615 4.33451L16.3157 4.91529L14.1484 2.60879L14.6933 2.02915M14.6933 2.02915C14.6933 2.02915 14.6933 2.02914 14.6933 2.02915ZM13.7681 3.01381L15.9352 5.32012L9.65224 12.0066L7.48531 9.7003L13.7681 3.01381ZM7.90115 9.70031L13.7681 3.45638L15.5193 5.32012L9.65225 11.564L7.90115 9.70031ZM7.22727 10.2353L9.14912 12.2808L6.49073 13.0647L7.22727 10.2353ZM6.91331 12.6161L7.37649 10.8368L8.5851 12.1231L6.91331 12.6161Z" stroke="#00A499" stroke-width="0.3"/>
</svg>

