<svg width="26" height="26" viewBox="0 0 26 26" fill="none" xmlns="http://www.w3.org/2000/svg">
<path d="M17.5529 3.05905H21.3082L10.3745 13.9927C9.92335 14.4434 9.92335 15.1747 10.3745 15.6254C10.5997 15.8508 10.8957 15.9636 11.1907 15.9636C11.4856 15.9636 11.7815 15.8507 12.007 15.6253L12.007 15.6253L22.9411 4.69119V8.44722C22.9411 9.08488 23.4579 9.60172 24.0956 9.60172C24.7332 9.60172 25.2501 9.0849 25.2501 8.44722V1.90455C25.2501 1.26684 24.7333 0.75 24.0956 0.75C24.0955 0.75 24.0953 0.75 24.0952 0.75H17.5529C16.9153 0.75 16.3984 1.26684 16.3984 1.90455C16.3984 2.54221 16.9153 3.05905 17.5529 3.05905ZM21.0201 11.9962C20.3825 11.9962 19.8656 12.513 19.8656 13.1507V22.9409H3.05905V6.13437H12.8492C13.4869 6.13437 14.0037 5.61753 14.0037 4.97987C14.0037 4.34222 13.4869 3.82532 12.8492 3.82532H1.90455C1.26683 3.82532 0.75 4.34215 0.75 4.97987V24.0955C0.75 24.7331 1.26684 25.25 1.90455 25.25H21.0201C21.6581 25.25 22.1746 24.7331 22.1746 24.0954V13.1507C22.1746 12.513 21.6578 11.9962 21.0201 11.9962Z" fill="#00AE99" stroke="#00AE99" stroke-width="0.5"/>
</svg>
