<svg xmlns="http://www.w3.org/2000/svg" xmlns:xlink="http://www.w3.org/1999/xlink" width="24" height="24" viewBox="0 0 24 24">
    <defs>
        <path id="r97xcojc7a" d="M0 0.046L23 0.046 23 6 0 6z"/>
        <path id="kgf3jw4tdc" d="M0 0.358L23 0.358 23 6.311 0 6.311z"/>
        <path id="lhgbnm5zze" d="M0 0L23 0 23 5.954 0 5.954z"/>
    </defs>
    <g fill="none" fill-rule="evenodd">
        <g>
            <g>
                <g>
                    <g transform="translate(-358 -218) translate(358 218) translate(1 2) translate(0 14)">
                        <mask id="umu6e43g7b" fill="#fff">
                            <use xlink:href="#r97xcojc7a"/>
                        </mask>
                        <path fill="#FF4F00" d="M5.505 3.023c0-.735.608-1.305 1.317-1.305.71 0 1.317.57 1.317 1.305 0 .736-.608 1.305-1.317 1.305S5.505 3.76 5.505 3.023m4.187.836h12.463c.474 0 .845-.367.845-.836 0-.468-.37-.836-.845-.836H9.692C9.322.95 8.173.047 6.788.047c-1.35 0-2.533.903-2.87 2.14H.844c-.473 0-.844.368-.844.836 0 .47.371.836.844.836h3.074C4.29 5.097 5.438 6 6.788 6c1.385 0 2.533-.903 2.904-2.14" mask="url(#umu6e43g7b)"/>
                    </g>
                    <g transform="translate(-358 -218) translate(358 218) translate(1 2) translate(0 7)">
                        <mask id="f1yf0qe44d" fill="#fff">
                            <use xlink:href="#kgf3jw4tdc"/>
                        </mask>
                        <path fill="#FF4F00" d="M15.638 3.335c0-.736.607-1.304 1.316-1.304.71 0 1.318.568 1.318 1.304 0 .736-.608 1.304-1.318 1.304-.71 0-1.316-.568-1.316-1.304m4.187.836h2.33c.474 0 .845-.368.845-.836 0-.468-.371-.836-.844-.836h-2.331C19.454 1.261 18.305.36 16.92.36c-1.351 0-2.533.902-2.871 2.14H.845C.372 2.5 0 2.867 0 3.335c0 .468.372.836.845.836H14.05c.372 1.238 1.52 2.14 2.87 2.14 1.386 0 2.534-.902 2.905-2.14" mask="url(#f1yf0qe44d)"/>
                    </g>
                    <g transform="translate(-358 -218) translate(358 218) translate(1 2)">
                        <mask id="n1vyj6x98f" fill="#fff">
                            <use xlink:href="#lhgbnm5zze"/>
                        </mask>
                        <path fill="#FF4F00" d="M9.558 2.977c0-.736.608-1.304 1.317-1.304.71 0 1.317.568 1.317 1.304 0 .736-.608 1.305-1.317 1.305s-1.317-.57-1.317-1.305m4.188.836h8.41c.473 0 .844-.368.844-.836 0-.468-.37-.836-.845-.836h-8.409C13.374.904 12.226 0 10.841 0c-1.35 0-2.533.904-2.87 2.14H.844C.371 2.14 0 2.51 0 2.978c0 .468.371.836.844.836h7.127c.371 1.238 1.52 2.14 2.87 2.14 1.385 0 2.533-.902 2.905-2.14" mask="url(#n1vyj6x98f)"/>
                    </g>
                </g>
            </g>
        </g>
    </g>
</svg>
