<svg width="32" height="32" viewBox="0 0 32 32" fill="none" xmlns="http://www.w3.org/2000/svg">
<path d="M26.2234 26.9886L22.4512 23.2158L22.8348 22.8324C24.6624 21.0073 25.6686 18.5798 25.6686 15.9972V15.4551H31.0001V15.9972C31.0001 20.0045 29.44 23.7719 26.6071 26.6051L26.2234 26.9886ZM23.9756 23.2068L26.216 25.4475C28.4836 23.0006 29.7788 19.8734 29.9054 16.5391H26.7399C26.6169 19.0282 25.6497 21.3613 23.9756 23.2068Z" fill="white" stroke="white" stroke-width="0.309785"/>
<path d="M11.8005 7.27668L9.76172 2.35463L10.2596 2.14614C12.0764 1.38565 14.0066 1 15.9968 1H16.5388V6.33244L15.9972 6.33289C14.7213 6.33379 13.4782 6.58129 12.3017 7.06893L11.8005 7.27668ZM11.1808 2.94728L12.3925 5.87209C13.3801 5.5196 14.4061 5.31515 15.4546 5.2622V2.09454C13.982 2.15079 12.549 2.43683 11.1808 2.94728Z" fill="white" stroke="white" stroke-width="0.309785"/>
<path d="M23.0483 2.76367L19.0664 6.74493V6.84018C19.4175 6.95807 19.7597 7.09637 20.0924 7.25252L24.0189 3.32677C23.703 3.12742 23.3792 2.93962 23.0483 2.76367Z" fill="white" stroke="white" stroke-width="0.309785"/>
<path d="M19.0664 4.03596V5.56924L22.2604 2.37548C21.906 2.21288 21.544 2.06303 21.1751 1.92773L19.0664 4.03596Z" fill="white" stroke="white" stroke-width="0.309785"/>
<path d="M26.2175 5.01562L22.4336 8.79858C22.7033 9.03948 22.9599 9.29553 23.2008 9.56493L26.9841 5.78242C26.738 5.51752 26.4825 5.26162 26.2175 5.01562Z" fill="white" stroke="white" stroke-width="0.309785"/>
<path d="M28.6746 7.98633L24.752 11.9085C24.9092 12.2416 25.0481 12.5853 25.1666 12.9378H25.2562L29.238 8.95667C29.0619 8.62562 28.8741 8.30177 28.6746 7.98633Z" fill="white" stroke="white" stroke-width="0.309785"/>
<path d="M29.1445 12.9372H30.6781C30.5915 12.5226 30.4862 12.1155 30.3671 11.7148L29.1445 12.9372Z" fill="white" stroke="white" stroke-width="0.309785"/>
<path d="M25.5899 4.46827C25.3098 4.23563 25.0213 4.01303 24.7242 3.80078L20.8633 7.66114C21.1824 7.84803 21.4898 8.05218 21.7844 8.27313L25.5899 4.46827Z" fill="white" stroke="white" stroke-width="0.309785"/>
<path d="M30.0772 10.828C29.9422 10.4586 29.792 10.0968 29.6295 9.74219L26.4355 12.936H27.9691L30.0772 10.828Z" fill="white" stroke="white" stroke-width="0.309785"/>
<path d="M20.2891 1.63502C19.8881 1.51577 19.4809 1.41047 19.0664 1.32422V2.8575L20.2891 1.63502Z" fill="white" stroke="white" stroke-width="0.309785"/>
<path d="M28.2017 7.2758C27.9894 6.9788 27.767 6.69005 27.5344 6.41016L23.7305 10.2134C23.9518 10.5077 24.1564 10.8149 24.3438 11.1336L28.2017 7.2758Z" fill="white" stroke="white" stroke-width="0.309785"/>
<path d="M15.9968 31.0006C7.72746 31.0006 1 24.2731 1 16.0036C1 11.303 3.23504 6.82164 6.9786 4.01562L7.62905 4.88352C4.15701 7.48539 2.08429 11.6427 2.08429 16.0036C2.08429 23.6752 8.32541 29.9163 15.9968 29.9163C18.4982 29.9163 20.9449 29.2518 23.0724 27.9947L23.624 28.9284C21.3294 30.2842 18.6919 31.0006 15.9968 31.0006Z" fill="white" stroke="white" stroke-width="0.309785"/>
<path d="M15.9994 26.7511C15.7729 26.7511 15.5434 26.744 15.3175 26.7296L15.3853 25.6474C15.7324 25.6694 16.0854 25.6726 16.4315 25.6573L16.4784 26.7406C16.3194 26.7475 16.1599 26.7511 15.9994 26.7511ZM17.6344 26.6287L17.4721 25.5566C17.8161 25.5046 18.1598 25.4329 18.494 25.3438L18.7735 26.3912C18.4011 26.4908 18.018 26.5706 17.6344 26.6287ZM14.1634 26.5939C13.7832 26.5282 13.402 26.4409 13.0305 26.3342L13.3304 25.2923C13.6639 25.3882 14.0062 25.4666 14.3479 25.5257L14.1634 26.5939ZM11.9326 25.9526C11.5756 25.8062 11.2226 25.6384 10.8834 25.4545L11.4007 24.5014C11.7059 24.667 12.0234 24.8179 12.3444 24.9497L11.9326 25.9526ZM9.89423 24.8458C9.5777 24.6267 9.26883 24.3873 8.976 24.1345L9.68526 23.3142C9.94853 23.5417 10.2265 23.757 10.5112 23.9539L9.89423 24.8458ZM8.13923 23.3293C7.87611 23.0473 7.62529 22.7478 7.39352 22.4391L8.26089 21.7882C8.46941 22.0662 8.69503 22.3354 8.93235 22.5894L8.13923 23.3293ZM6.74697 21.4734C6.5497 21.141 6.36864 20.7946 6.20857 20.4435L7.19536 19.9941C7.33907 20.3095 7.50198 20.6211 7.6796 20.92L6.74697 21.4734ZM5.78449 19.3611C5.66343 18.9939 5.56142 18.6161 5.48086 18.2393L6.54175 18.0134C6.61376 18.3522 6.70556 18.6915 6.81417 19.022L5.78449 19.3611ZM5.30115 17.0909C5.26485 16.73 5.24609 16.3625 5.24609 15.9984L5.24624 15.9314L6.33068 15.9375L6.33053 15.9954C6.33053 16.3262 6.34749 16.6568 6.38049 16.9815L5.30115 17.0909ZM6.39369 14.8951L5.31645 14.7713C5.3604 14.3875 5.42581 14.0024 5.51102 13.6259L6.5686 13.865C6.4924 14.2033 6.43359 14.5496 6.39369 14.8951ZM6.85378 12.86L5.82829 12.508C5.9534 12.143 6.10026 11.7806 6.26453 11.431L7.24606 11.8919C7.0986 12.206 6.96659 12.532 6.85378 12.86ZM7.74095 10.9717L6.81477 10.4074C7.01564 10.078 7.23691 9.75552 7.47303 9.44922L8.33215 10.1107C8.12018 10.3863 7.92127 10.6756 7.74095 10.9717Z" fill="white" stroke="white" stroke-width="0.309785"/>
<path d="M8.98312 7.78601L8.23242 8.56836L9.01479 9.31884L9.76549 8.53649L8.98312 7.78601Z" fill="white" stroke="white" stroke-width="0.309785"/>
<path d="M20.4699 24.6044L19.4707 25.0254L19.8917 26.0245L20.891 25.6035L20.4699 24.6044Z" fill="white" stroke="white" stroke-width="0.309785"/>
<path d="M20.1105 12.6533L19.3438 11.8867L11.873 19.3563L12.6398 20.1229L20.1105 12.6533Z" fill="white" stroke="white" stroke-width="0.309785"/>
<path d="M18.3172 20.2837C17.2421 20.2837 16.3672 19.4084 16.3672 18.3325C16.3672 17.2575 17.2421 16.3828 18.3172 16.3828C19.3927 16.3828 20.2678 17.2575 20.2678 18.3325C20.2678 19.4084 19.3927 20.2837 18.3172 20.2837ZM18.3172 17.467C17.84 17.467 17.4515 17.8553 17.4515 18.3325C17.4515 18.8105 17.84 19.1993 18.3172 19.1993C18.795 19.1993 19.1833 18.8104 19.1833 18.3325C19.1833 17.8553 18.7948 17.467 18.3172 17.467Z" fill="white" stroke="white" stroke-width="0.309785"/>
<path d="M13.6657 15.6273C12.5901 15.6273 11.7148 14.7522 11.7148 13.6767C11.7148 12.6014 12.5901 11.7266 13.6657 11.7266C14.7412 11.7266 15.6162 12.6015 15.6162 13.6767C15.6163 14.7522 14.7412 15.6273 13.6657 15.6273ZM13.6657 12.8108C13.1879 12.8108 12.7992 13.1992 12.7992 13.6767C12.7992 14.1546 13.1879 14.5431 13.6657 14.5431C14.1431 14.5431 14.5318 14.1546 14.5318 13.6767C14.5318 13.1992 14.1431 12.8108 13.6657 12.8108Z" fill="white" stroke="white" stroke-width="0.309785"/>
</svg>
