<svg width="32" height="29" viewBox="0 0 32 29" fill="none" xmlns="http://www.w3.org/2000/svg">
<path d="M30.9608 5.99734H21.4494C21.1641 5.99734 20.9739 6.18908 20.9739 6.4767V9.06525L19.1191 5.2783L19.8325 2.59388C20.0227 1.77896 19.2143 1.10786 18.5009 1.49135L17.74 1.87483L16.1706 1.10786C15.9328 0.964048 15.5999 0.964048 15.3146 1.10786L13.8403 1.87483L13.0794 1.49135C12.3661 1.15579 11.5101 1.8269 11.7478 2.64181L12.5088 5.32623C11.9381 6.4767 8.75176 12.6125 7.42017 16.5912C6.89705 16.735 6.42148 16.9747 5.99347 17.1664V16.783C5.99347 16.2557 5.56545 15.8242 5.04233 15.8242H1.95114C1.42801 15.8242 1 16.2557 1 16.783V27.0413C1 27.5686 1.42801 28 1.95114 28H5.04233C6.23125 28 5.94591 26.5619 5.99347 26.466C6.6117 26.3222 7.32506 25.8429 8.32375 26.0826C10.5114 26.6099 16.1231 27.5686 17.3595 27.5686C17.6924 27.5686 18.0253 27.5206 18.4058 27.4727C19.4996 27.233 24.7784 24.3089 25.5869 23.5419C26.3002 22.8708 26.8234 22.1039 26.3002 21.241H30.9608C31.2461 21.241 31.4364 21.0493 31.4364 20.7617C31.4364 14.53 31.4364 12.7563 31.4364 6.4767C31.4364 6.18908 31.2461 5.99734 30.9608 5.99734ZM30.4852 11.7017H21.925V9.78429H30.4852V11.7017ZM30.4852 14.5779H21.925V12.6605H30.4852V14.5779ZM21.925 15.5366H30.4852V17.4541H21.925V15.5366ZM21.925 6.95606H30.4852V8.8735H21.925V6.95606ZM13.4123 2.73768C13.6501 2.88149 13.983 2.88149 14.2684 2.73768L15.7426 1.97071L17.2644 2.73768C17.5022 2.88149 17.8351 2.88149 18.1205 2.73768L18.8814 2.35419L18.2156 4.89481C17.74 4.89481 20.0227 4.89481 13.3648 4.89481L12.6514 2.40213L13.4123 2.73768ZM1.95114 27.0892V16.783H5.04233C5.04233 19.1798 5.04233 24.4527 5.04233 27.0413H1.95114V27.0892ZM24.9211 22.8229C24.2553 23.494 19.1191 26.3222 18.2156 26.514C17.9302 26.5619 17.6449 26.6099 17.4071 26.6099C16.3133 26.6099 10.8443 25.6991 8.56153 25.1718C7.2775 24.8842 6.37392 25.3635 5.99347 25.4594V18.221C7.08727 17.7417 8.22864 16.5912 13.6977 17.7417C15.6475 18.1731 17.1693 18.5087 18.5009 19.0839C18.9289 19.2277 19.024 19.6591 18.8814 19.9947C18.8338 20.1864 18.6436 20.3302 18.0253 20.4261C17.0266 20.522 16.3133 20.522 15.267 20.3782C13.3172 20.1864 12.9368 23.1105 14.9341 23.3981C18.1205 23.8296 21.4494 23.2543 24.398 21.6245C24.6357 21.4807 24.8735 21.4328 25.1113 21.5286C25.9198 21.7683 25.4918 22.2956 24.9211 22.8229ZM15.0768 22.4394C14.3159 22.3435 14.5061 21.241 15.2195 21.3369C16.3133 21.4807 17.0742 21.4807 18.168 21.3848C20.4507 21.0972 20.3081 18.7483 18.8338 18.221C17.312 17.5979 15.5524 17.2144 13.8879 16.8309C11.7478 16.3995 10.3211 16.2077 8.46642 16.3995C9.79801 12.6125 12.6514 7.05193 13.2697 5.80559H14.0781V11.3662C14.0781 11.6538 14.2684 11.8455 14.5537 11.8455C14.839 11.8455 15.0293 11.6538 15.0293 11.3662V5.80559H15.4097H16.456V8.49001C16.456 8.77763 16.6462 8.96937 16.9315 8.96937C17.2169 8.96937 17.4071 8.77763 17.4071 8.49001V5.80559H18.2631L20.9739 11.2224C20.9739 21.3848 20.8312 21.241 21.4494 21.241H23.0664C20.4983 22.4394 17.74 22.8229 15.0768 22.4394ZM30.4852 20.2823H21.925V18.3648H30.4852V20.2823Z" fill="white" stroke="white" stroke-width="0.309785"/>
<path d="M13.4124 13.9082H12.4609V14.8669H13.4124V13.9082Z" fill="white" stroke="white" stroke-width="0.309785"/>
<path d="M16.2659 13.9082H15.3145V14.8669H16.2659V13.9082Z" fill="white" stroke="white" stroke-width="0.309785"/>
<path d="M19.1194 13.9082H18.168V14.8669H19.1194V13.9082Z" fill="white" stroke="white" stroke-width="0.309785"/>
</svg>
