<svg width="17" height="14" viewBox="0 0 17 14" fill="none" xmlns="http://www.w3.org/2000/svg">
<path fill-rule="evenodd" clip-rule="evenodd" d="M7.59605 0.844005H9.28406C9.74826 0.844005 10.1281 1.22381 10.1281 1.68801C10.1281 2.15221 9.74826 2.53202 9.28406 2.53202H0.844006C0.379802 2.53202 0 2.15221 0 1.68801C0 1.22381 0.379802 0.844005 0.844006 0.844005H2.53202L3.13126 0.244762C3.28318 0.0928406 3.50262 0 3.72206 0H6.406C6.62544 0 6.84488 0.0928406 6.99681 0.244762L7.59605 0.844005ZM0.84396 11.8139C0.84396 12.7423 1.60357 13.5019 2.53197 13.5019H7.59601C8.52441 13.5019 9.28402 12.7423 9.28402 11.8139V3.37387H0.84396V11.8139ZM11.8163 3.37387H16.0363C16.5005 3.37387 16.8803 3.75367 16.8803 4.21787C16.8803 4.68207 16.5005 5.06188 16.0363 5.06188H11.8163C11.3521 5.06188 10.9723 4.68207 10.9723 4.21787C10.9723 3.75367 11.3521 3.37387 11.8163 3.37387ZM11.8163 10.1271H13.5043C13.9685 10.1271 14.3483 10.5069 14.3483 10.9711C14.3483 11.4353 13.9685 11.8151 13.5043 11.8151H11.8163C11.3521 11.8151 10.9723 11.4353 10.9723 10.9711C10.9723 10.5069 11.3521 10.1271 11.8163 10.1271ZM15.1923 6.75286H11.8163C11.3521 6.75286 10.9723 7.13267 10.9723 7.59687C10.9723 8.06107 11.3521 8.44087 11.8163 8.44087H15.1923C15.6565 8.44087 16.0363 8.06107 16.0363 7.59687C16.0363 7.13267 15.6565 6.75286 15.1923 6.75286Z" fill="#696158"/>
</svg>

