<svg width="13" height="17" viewBox="0 0 13 17" fill="none" xmlns="http://www.w3.org/2000/svg">
<path d="M12.2383 14.8398C12.3789 15.1133 12.4688 15.332 12.5078 15.4961C12.5547 15.6602 12.5312 15.7852 12.4375 15.8711C12.3438 15.957 12.1719 16.0117 11.9219 16.0352C11.6797 16.0586 11.3398 16.0703 10.9023 16.0703C10.5352 16.0703 10.2461 16.0625 10.0352 16.0469C9.82422 16.0312 9.65625 16.0078 9.53125 15.9766C9.41406 15.9375 9.32812 15.8867 9.27344 15.8242C9.21875 15.7617 9.17188 15.6836 9.13281 15.5898L6.28516 10.1172L3.44922 15.5898C3.40234 15.6836 3.35156 15.7617 3.29688 15.8242C3.24219 15.8867 3.15234 15.9375 3.02734 15.9766C2.91016 16.0078 2.74219 16.0312 2.52344 16.0469C2.3125 16.0625 2.03125 16.0703 1.67969 16.0703C1.27344 16.0703 0.957031 16.0586 0.730469 16.0352C0.511719 16.0117 0.363281 15.957 0.285156 15.8711C0.207031 15.7852 0.191406 15.6602 0.238281 15.4961C0.285156 15.332 0.382812 15.1133 0.53125 14.8398L4.16406 8.21875L0.789062 1.99609C0.648438 1.71484 0.550781 1.49219 0.496094 1.32812C0.449219 1.15625 0.46875 1.03125 0.554688 0.953125C0.648438 0.867188 0.816406 0.816406 1.05859 0.800781C1.30078 0.777344 1.64453 0.765625 2.08984 0.765625C2.45703 0.765625 2.74609 0.773438 2.95703 0.789062C3.17578 0.804687 3.34766 0.832031 3.47266 0.871094C3.59766 0.902344 3.68359 0.949219 3.73047 1.01172C3.78516 1.07422 3.83594 1.15234 3.88281 1.24609L6.54297 6.26172L9.13281 1.24609C9.17969 1.15234 9.22656 1.07422 9.27344 1.01172C9.32812 0.949219 9.41016 0.902344 9.51953 0.871094C9.63672 0.832031 9.79297 0.804687 9.98828 0.789062C10.1914 0.773438 10.4688 0.765625 10.8203 0.765625C11.2109 0.765625 11.5195 0.777344 11.7461 0.800781C11.9727 0.816406 12.1289 0.867188 12.2148 0.953125C12.3008 1.03906 12.3203 1.16406 12.2734 1.32812C12.2344 1.49219 12.1484 1.71484 12.0156 1.99609L8.64062 8.18359L12.2383 14.8398Z" fill="#696158"/>
</svg>
