<svg xmlns="http://www.w3.org/2000/svg" width="24" height="24" viewBox="0 0 24 24">
    <g fill="none" fill-rule="evenodd">
        <g>
            <g>
                <g>
                    <g>
                        <g fill="#FF4F00" stroke="#FF4F00" stroke-width=".8">
                            <path d="M7 7c-.228 0-.455-.077-.64-.232l-6-5C-.064 1.415-.122.784.232.36c.353-.424.983-.481 1.408-.13l5.37 4.478L12.374.393c.43-.346 1.06-.278 1.406.152.346.43.278 1.059-.152 1.406l-6 4.828c-.183.147-.405.22-.627.22" transform="translate(-1117 -700) translate(460 680) matrix(-1 0 0 1 681 20) translate(5 9)"/>
                        </g>
                    </g>
                </g>
            </g>
        </g>
    </g>
</svg>
