<svg width="12" height="15" viewBox="0 0 12 15" fill="none" xmlns="http://www.w3.org/2000/svg">
<path d="M6.20765 10.7584C6.31845 10.7584 6.42473 10.7183 6.50308 10.6469C6.58143 10.5756 6.62545 10.4788 6.62545 10.3779V8.80082C6.62545 8.6998 6.58138 8.60292 6.50296 8.53149C6.42453 8.46006 6.31817 8.41992 6.20726 8.41992C6.09635 8.41992 5.98998 8.46006 5.91155 8.53149C5.83313 8.60292 5.78906 8.6998 5.78906 8.80082V10.3779C5.78906 10.4279 5.7999 10.4774 5.82095 10.5237C5.842 10.5699 5.87283 10.6118 5.91171 10.6472C5.95059 10.6825 5.99674 10.7105 6.04752 10.7296C6.0983 10.7487 6.15272 10.7585 6.20765 10.7584Z" fill="#696158" stroke="#696158"/>
<path d="M11.0009 5.17902H9.01895V3.32399C8.98098 2.6779 8.66453 2.07158 8.1384 1.63686C7.61228 1.20214 6.91902 0.974157 6.20934 1.00248C5.49913 0.973374 4.80505 1.201 4.27824 1.63581C3.75142 2.07061 3.43453 2.67738 3.39657 3.32399V5.17902H1.41779C1.30699 5.17902 1.20072 5.21911 1.12237 5.29048C1.04402 5.36184 1 5.45863 1 5.55956V10.4293C1.00105 11.3759 1.41431 12.2834 2.1491 12.9529C2.8839 13.6223 3.88023 13.9989 4.91949 14H7.50078C8.53991 13.9989 9.53611 13.6224 10.2709 12.9531C11.0057 12.2839 11.419 11.3765 11.4203 10.43V5.55956C11.4201 5.45869 11.376 5.36201 11.2977 5.29069C11.2194 5.21936 11.1132 5.17921 11.0025 5.17902H11.0009ZM4.23295 3.32399C4.27091 2.87943 4.49962 2.46639 4.86954 2.17432C5.23946 1.88226 5.72082 1.73468 6.20934 1.76356C6.69787 1.73468 7.17922 1.88226 7.54914 2.17432C7.91907 2.46639 8.14778 2.87943 8.18574 3.32399V5.17902H4.23295V3.32399ZM10.5831 10.4293C10.5823 11.174 10.2571 11.888 9.67892 12.4146C9.10075 12.9413 8.31684 13.2374 7.49919 13.2382H4.91949C4.10185 13.2374 3.31793 12.9413 2.73977 12.4146C2.16161 11.888 1.83643 11.174 1.83559 10.4293V5.94082H10.5823L10.5831 10.4293Z" fill="#696158" stroke="#696158"/>
</svg>
