<svg width="17" height="10" viewBox="0 0 17 10" fill="none" xmlns="http://www.w3.org/2000/svg">
<path fill-rule="evenodd" clip-rule="evenodd" d="M15.5344 0.218446L8.12437 7.62845L5.51437 5.02595C5.37425 4.88551 5.18401 4.80658 4.98562 4.80658C4.78723 4.80658 4.59699 4.88551 4.45687 5.02595C4.16437 5.31845 4.16437 5.79095 4.45687 6.08345L7.59187 9.21845C7.88437 9.51095 8.35687 9.51095 8.64937 9.21845L16.5919 1.28345C16.8844 0.990946 16.8844 0.518446 16.5919 0.225946H16.5844C16.2994 -0.0740536 15.8269 -0.0740536 15.5344 0.218446ZM12.3544 0.225947C12.2143 0.0855074 12.024 0.00658273 11.8256 0.00658273C11.6272 0.00658273 11.437 0.0855074 11.2969 0.225947L7.06688 4.45595L8.12438 5.51345L12.3544 1.27595C12.6394 0.990947 12.6394 0.510947 12.3544 0.225947ZM3.35437 9.22595L0.219375 6.09094C-0.073125 5.79844 -0.073125 5.31844 0.219375 5.02594C0.359499 4.88551 0.549737 4.80658 0.748125 4.80658C0.946513 4.80658 1.13675 4.88551 1.27688 5.02594L4.93687 8.70094L4.41188 9.22595C4.11938 9.51845 3.64687 9.51845 3.35437 9.22595Z" fill="#FF4F00"/>
</svg>
