<svg xmlns="http://www.w3.org/2000/svg" xmlns:xlink="http://www.w3.org/1999/xlink" width="80" height="80" viewBox="0 0 80 80">
    <defs>
        <path id="1jh8n5w32a" d="M0 44L40 44 40 0 0 0z"/>
    </defs>
    <g fill="none" fill-rule="evenodd">
        <g>
            <g>
                <g transform="translate(-500 -409) translate(500 409) translate(21 18)">
                    <path fill="#FF4F00" d="M1.678 44H0v-6.038c0-6.91 3.73-8.367 7.678-9.91 1.462-.57 2.973-1.161 4.49-2.052L13 27.497c-1.63.959-3.275 1.601-4.726 2.168-3.972 1.553-6.596 2.577-6.596 8.297V44zM40 44h-1.678v-6.038c0-5.72-2.624-6.744-6.596-8.297-1.452-.567-3.096-1.21-4.726-2.168L27.832 26c1.517.891 3.028 1.482 4.49 2.053 3.949 1.542 7.678 3 7.678 9.909V44z"/>
                    <path fill="#FF4F00" d="M20 27.275l3.276 1.633 2.507-2.5-1.023-1.53-4.76.792-4.76-.792-1.023 1.53 2.507 2.5L20 27.275zM23.615 31L20 29.196 16.385 31 12 26.626 14.423 23l5.577.927L25.577 23 28 26.626 23.615 31z"/>
                    <mask id="ya9mkhi0cb" fill="#fff">
                        <use xlink:href="#1jh8n5w32a"/>
                    </mask>
                    <path fill="#FF4F00" d="M23 24L25 24 25 20 23 20zM15 24L17 24 17 20 15 20zM19 37L21 37 21 35 19 35zM19 34L21 34 21 32 19 32z" mask="url(#ya9mkhi0cb)"/>
                    <path fill="#FF4F00" d="M15.691 19.484c1.49.74 3.76.756 3.809.756.05 0 2.32-.017 3.808-.755.265-.22 2.261-2.028 2.992-7.227V8.8c0-4.868-2.097-7.04-6.8-7.04-4.702 0-6.8 2.172-6.8 7.04v3.458c.733 5.206 2.72 7.004 2.991 7.226M19.5 22c-.111 0-2.771-.01-4.63-.972l-.09-.056c-.118-.08-2.878-2.053-3.77-8.527L11 12.32V8.8C11 2.961 13.86 0 19.5 0 25.14 0 28 2.961 28 8.8l-.008 3.645c-.894 6.474-3.653 8.447-3.77 8.527l-.091.056c-1.86.961-4.519.972-4.631.972" mask="url(#ya9mkhi0cb)"/>
                    <path fill="#FF4F00" d="M24.273 11L15.805 7.77 12.757 9.222 12 7.778 15.727 6 24.195 9.23 27.243 7.778 28 9.222zM7 44L9 44 9 39 7 39zM31 44L33 44 33 39 31 39z" mask="url(#ya9mkhi0cb)"/>
                </g>
            </g>
        </g>
    </g>
</svg>
