<svg width="32" height="32" viewBox="0 0 32 32" fill="none" xmlns="http://www.w3.org/2000/svg">
<path d="M29.4339 15.0907H28.4362V11.8954C28.4366 11.6617 28.3831 11.431 28.2799 11.2218C28.1767 11.0125 28.0266 10.8303 27.8416 10.6897C27.6565 10.549 27.4415 10.4537 27.2136 10.4114C26.9858 10.369 26.7512 10.3808 26.5286 10.4457L25.0251 10.8789C25.503 10.0693 25.8016 9.1651 25.9006 8.22819C25.9996 7.29128 25.8966 6.34385 25.5986 5.45085C25.3007 4.55786 24.8148 3.7404 24.1744 3.05452C23.534 2.36864 22.7541 1.83056 21.8883 1.47715C21.0224 1.12374 20.091 0.963366 19.158 1.00702C18.2249 1.05067 17.3123 1.29732 16.4826 1.73005C15.6528 2.16279 14.9257 2.77138 14.3509 3.5141C13.7762 4.25683 13.3675 5.11614 13.1527 6.03312H6.10912L7.28538 4.80028C7.71688 4.4908 8.00883 4.02108 8.097 3.49445C8.18517 2.96783 8.06234 2.42745 7.75554 1.99218C7.60362 1.77665 7.41111 1.59342 7.189 1.45295C6.96689 1.31247 6.71952 1.21751 6.46102 1.17347C5.93896 1.08452 5.40326 1.20842 4.97176 1.51791C4.95047 1.533 4.93045 1.54983 4.9119 1.56823L1.15564 5.16611C1.10664 5.21297 1.06758 5.26938 1.04082 5.33191C1.01407 5.39445 1.00018 5.46181 1 5.52992V13.5781C0.999924 13.6871 1.03495 13.7932 1.09982 13.8804C1.16468 13.9677 1.25587 14.0313 1.35966 14.0617C1.53675 14.1316 2.5893 14.6152 3.51465 15.0444C3.58018 15.0749 3.65149 15.0907 3.72367 15.0907H8.98144C9.17697 15.0922 9.3708 15.054 9.55144 14.9784C9.73207 14.9029 9.89582 14.7915 10.033 14.6509C10.2159 14.47 10.3494 14.2445 10.4206 13.9962C10.4918 13.748 10.4983 13.4854 10.4395 13.2339C10.4117 13.1098 10.3672 12.9901 10.3074 12.8782C10.4195 12.8126 10.5222 12.7318 10.6126 12.6381C10.7954 12.457 10.9288 12.2314 10.9999 11.9831C11.071 11.7348 11.0775 11.4722 11.0187 11.2206C10.9877 11.0828 10.9362 10.9505 10.8661 10.8281C10.955 10.7704 11.0373 10.7029 11.1115 10.6268C11.2942 10.4457 11.4276 10.2201 11.4987 9.97178C11.5699 9.72348 11.5763 9.46088 11.5175 9.20932C11.5064 9.15626 11.4924 9.10385 11.4756 9.05232H13.1552C13.3666 9.96649 13.7719 10.8236 14.3431 11.5647C14.9143 12.3057 15.6378 12.9131 16.464 13.3451L10.3413 15.1103V15.1184C10.2377 15.1469 10.1462 15.2088 10.0808 15.2946C10.0154 15.3805 9.9797 15.4856 9.97912 15.5939V29.6835C9.97912 30.0839 10.1368 30.4679 10.4174 30.751C10.6981 31.0341 11.0787 31.1931 11.4756 31.1931H29.4339C29.8308 31.1931 30.2114 31.0341 30.4921 30.751C30.7727 30.4679 30.9304 30.0839 30.9304 29.6835V16.6003C30.9304 16.2 30.7727 15.816 30.4921 15.5329C30.2114 15.2498 29.8308 15.0907 29.4339 15.0907V15.0907ZM23.0168 15.0907L27.4385 13.8156V15.0907H23.0168ZM6.06871 8.04592C5.93641 8.04592 5.80953 8.09894 5.71598 8.19331C5.62243 8.28768 5.56987 8.41567 5.56987 8.54912C5.56987 8.68258 5.62243 8.81057 5.71598 8.90494C5.80953 8.99931 5.93641 9.05232 6.06871 9.05232H10.0125C10.1299 9.04743 10.2456 9.0817 10.3418 9.14983C10.4379 9.21796 10.5091 9.31616 10.5443 9.42922C10.5655 9.51516 10.5638 9.60522 10.5395 9.6903C10.5151 9.77539 10.469 9.85248 10.4056 9.9138C10.3606 9.96027 10.3067 9.99707 10.2472 10.022C10.1877 10.0469 10.1238 10.0594 10.0594 10.0587H6.06871C5.93641 10.0587 5.80953 10.1117 5.71598 10.2061C5.62243 10.3005 5.56987 10.4285 5.56987 10.5619C5.56987 10.6954 5.62243 10.8234 5.71598 10.9177C5.80953 11.0121 5.93641 11.0651 6.06871 11.0651H9.5137C9.63108 11.0602 9.7468 11.0945 9.84292 11.1626C9.93905 11.2308 10.0102 11.329 10.0455 11.442C10.0667 11.528 10.065 11.618 10.0407 11.7031C10.0163 11.7882 9.97013 11.8653 9.90678 11.9266C9.86176 11.9731 9.80787 12.0099 9.74838 12.0348C9.68888 12.0597 9.625 12.0722 9.56059 12.0715H5.9884C5.8561 12.0715 5.72922 12.1245 5.63566 12.2189C5.54211 12.3133 5.48956 12.4413 5.48956 12.5747C5.48956 12.7082 5.54211 12.8362 5.63566 12.9305C5.72922 13.0249 5.8561 13.0779 5.9884 13.0779H8.93454C9.05197 13.0729 9.16776 13.1071 9.26392 13.1752C9.36008 13.2434 9.43123 13.3417 9.46631 13.4548C9.48751 13.5408 9.48585 13.6308 9.4615 13.7159C9.43715 13.801 9.39097 13.8781 9.32763 13.9394C9.2826 13.9859 9.22872 14.0227 9.16922 14.0476C9.10973 14.0725 9.04585 14.085 8.98144 14.0843H3.83341C2.8507 13.6279 2.30846 13.3798 1.99768 13.2425V5.7463L5.56788 2.32454C5.77976 2.18768 6.03547 2.13764 6.28271 2.18465C6.47676 2.22026 6.65599 2.31309 6.79776 2.45142C6.93952 2.58974 7.03747 2.76734 7.07921 2.96179C7.12096 3.15624 7.10463 3.35881 7.0323 3.5439C6.95996 3.72899 6.83486 3.8883 6.67281 4.00171C6.64541 4.02088 6.62001 4.0428 6.59698 4.06712L4.67096 6.08999L4.63505 6.11364C4.54047 6.17418 4.46884 6.26506 4.4317 6.37166C4.39456 6.47826 4.39406 6.59437 4.4303 6.70129C4.46653 6.8082 4.53738 6.89971 4.63144 6.96106C4.7255 7.02242 4.83729 7.05006 4.94882 7.03952C4.96228 7.03952 4.97675 7.03952 4.99072 7.03952H14.4243C14.5413 7.03456 14.6567 7.06878 14.7524 7.13687C14.8481 7.20495 14.9189 7.30306 14.9535 7.41592C14.9752 7.50211 14.9738 7.59254 14.9495 7.67802C14.9253 7.76349 14.879 7.84095 14.8154 7.90251C14.7714 7.94834 14.7187 7.98468 14.6603 8.00933C14.602 8.03398 14.5394 8.04643 14.4762 8.04592H6.06871ZM14.1808 9.05232H14.4762C14.6711 9.05372 14.8644 9.01545 15.0444 8.9398C15.2244 8.86415 15.3874 8.75267 15.5237 8.61202C15.7055 8.43075 15.8381 8.20546 15.9088 7.95772C15.9795 7.70997 15.9861 7.44805 15.9278 7.19703C15.8439 6.86046 15.6498 6.56236 15.3769 6.35108C15.1039 6.13981 14.7683 6.02776 14.4243 6.03312H14.1808C14.5421 4.74776 15.3519 3.63755 16.4611 2.90737C17.5702 2.17718 18.9037 1.8763 20.2155 2.06023C21.5273 2.24417 22.7289 2.90051 23.5986 3.90815C24.4683 4.91578 24.9473 6.20671 24.9473 7.54272C24.9473 8.87874 24.4683 10.1697 23.5986 11.1773C22.7289 12.1849 21.5273 12.8413 20.2155 13.0252C18.9037 13.2092 17.5702 12.9083 16.4611 12.1781C15.3519 11.4479 14.5421 10.3377 14.1808 9.05232V9.05232ZM19.4571 14.0843C21.1445 14.0844 22.765 13.4185 23.9721 12.229L26.804 11.4123C26.8781 11.3912 26.956 11.3877 27.0317 11.402C27.1074 11.4163 27.1787 11.4481 27.2402 11.4949C27.3016 11.5417 27.3515 11.6022 27.3859 11.6717C27.4203 11.7412 27.4383 11.8177 27.4385 11.8954V12.769L19.3877 15.0907H14.0372L18.0668 13.9283C18.5233 14.0304 18.9894 14.0827 19.4571 14.0843V14.0843ZM29.4339 30.1867H11.4756C11.3433 30.1867 11.2165 30.1337 11.1229 30.0393C11.0294 29.945 10.9768 29.817 10.9768 29.6835V16.0971H29.4339C29.5662 16.0971 29.693 16.1501 29.7866 16.2445C29.8801 16.3389 29.9327 16.4669 29.9327 16.6003V21.1291H24.4455C23.9163 21.1291 23.4087 21.3412 23.0345 21.7187C22.6603 22.0961 22.4501 22.6081 22.4501 23.1419C22.4501 23.6758 22.6603 24.1877 23.0345 24.5652C23.4087 24.9427 23.9163 25.1547 24.4455 25.1547H29.9327V29.6835C29.9327 29.817 29.8801 29.945 29.7866 30.0393C29.693 30.1337 29.5662 30.1867 29.4339 30.1867ZM29.9327 24.1483H24.4455C24.1809 24.1483 23.9271 24.0423 23.74 23.8536C23.5529 23.6648 23.4478 23.4088 23.4478 23.1419C23.4478 22.875 23.5529 22.619 23.74 22.4303C23.9271 22.2416 24.1809 22.1355 24.4455 22.1355H29.9327V24.1483Z" fill="#656565" stroke="#656565" stroke-width="0.232339"/>
<path d="M26.441 2.00977H25.4434V3.01617H26.441V2.00977Z" fill="#656565" stroke="#656565" stroke-width="0.232339"/>
<path d="M28.4371 2.00977H27.4395V3.01617H28.4371V2.00977Z" fill="#656565" stroke="#656565" stroke-width="0.232339"/>
<path d="M27.4371 1H26.4395V2.00641H27.4371V1Z" fill="#656565" stroke="#656565" stroke-width="0.232339"/>
<path d="M27.4371 3.01367H26.4395V4.02005H27.4371V3.01367Z" fill="#656565" stroke="#656565" stroke-width="0.232339"/>
<path d="M10.4781 2.51367H9.48047V3.52008H10.4781V2.51367Z" fill="#656565" stroke="#656565" stroke-width="0.232339"/>
<path d="M12.4723 2.51367H11.4746V3.52008H12.4723V2.51367Z" fill="#656565" stroke="#656565" stroke-width="0.232339"/>
<path d="M11.4762 1.50391H10.4785V2.51035H11.4762V1.50391Z" fill="#656565" stroke="#656565" stroke-width="0.232339"/>
<path d="M11.4762 3.51953H10.4785V4.52591H11.4762V3.51953Z" fill="#656565" stroke="#656565" stroke-width="0.232339"/>
<path d="M28.4371 7.54102H27.4395V8.54742H28.4371V7.54102Z" fill="#656565" stroke="#656565" stroke-width="0.232339"/>
<path d="M30.4313 7.54102H29.4336V8.54742H30.4313V7.54102Z" fill="#656565" stroke="#656565" stroke-width="0.232339"/>
<path d="M29.4333 6.53711H28.4355V7.54348H29.4333V6.53711Z" fill="#656565" stroke="#656565" stroke-width="0.232339"/>
<path d="M29.4333 8.54688H28.4355V9.55325H29.4333V8.54688Z" fill="#656565" stroke="#656565" stroke-width="0.232339"/>
<path d="M19.885 8.76929C19.885 8.98511 19.8448 9.17448 19.7644 9.3374C19.684 9.50033 19.575 9.6368 19.4375 9.74683C19.3 9.85474 19.1392 9.9362 18.9551 9.99121C18.771 10.0462 18.5742 10.0737 18.3647 10.0737C18.223 10.0737 18.0907 10.0621 17.968 10.0388C17.8474 10.0155 17.7406 9.98804 17.6475 9.9563C17.5544 9.92244 17.4761 9.88753 17.4126 9.85156C17.3512 9.81559 17.3068 9.78385 17.2793 9.75635C17.2518 9.72884 17.2317 9.6897 17.219 9.63892C17.2084 9.58602 17.2031 9.5109 17.2031 9.41357C17.2031 9.34798 17.2052 9.29297 17.2095 9.24854C17.2137 9.2041 17.2201 9.16813 17.2285 9.14062C17.2391 9.11312 17.2518 9.09408 17.2666 9.0835C17.2835 9.0708 17.3026 9.06445 17.3237 9.06445C17.3534 9.06445 17.3946 9.08244 17.4475 9.11841C17.5025 9.15226 17.5723 9.19035 17.657 9.23267C17.7416 9.27498 17.8421 9.31413 17.9585 9.3501C18.077 9.38395 18.2135 9.40088 18.3679 9.40088C18.4695 9.40088 18.5605 9.38924 18.6409 9.36597C18.7213 9.34058 18.789 9.30566 18.844 9.26123C18.9011 9.2168 18.9445 9.16178 18.9741 9.09619C19.0037 9.0306 19.0186 8.9576 19.0186 8.8772C19.0186 8.7841 18.9932 8.70475 18.9424 8.63916C18.8916 8.57145 18.825 8.51221 18.7424 8.46143C18.662 8.40853 18.57 8.35986 18.4663 8.31543C18.3626 8.26888 18.2558 8.22021 18.1458 8.16943C18.0357 8.11865 17.9289 8.06152 17.8252 7.99805C17.7215 7.93245 17.6284 7.85522 17.5459 7.76636C17.4655 7.67537 17.3999 7.56852 17.3491 7.4458C17.2983 7.32308 17.2729 7.17603 17.2729 7.00464C17.2729 6.80786 17.3089 6.63542 17.3809 6.4873C17.4549 6.33708 17.5533 6.2133 17.676 6.11597C17.8009 6.01652 17.9469 5.94246 18.114 5.8938C18.2833 5.84513 18.4621 5.8208 18.6504 5.8208C18.7477 5.8208 18.8451 5.82821 18.9424 5.84302C19.0397 5.85783 19.1307 5.87793 19.2153 5.90332C19.3 5.92871 19.3751 5.95728 19.4407 5.98901C19.5063 6.02075 19.5496 6.0472 19.5708 6.06836C19.592 6.08952 19.6057 6.1075 19.6121 6.12231C19.6205 6.13713 19.6269 6.15723 19.6311 6.18262C19.6375 6.20589 19.6417 6.23657 19.6438 6.27466C19.6459 6.31063 19.647 6.35612 19.647 6.41113C19.647 6.47249 19.6449 6.52433 19.6406 6.56665C19.6385 6.60897 19.6332 6.64388 19.6248 6.67139C19.6184 6.69889 19.6078 6.71899 19.593 6.73169C19.5803 6.74438 19.5623 6.75073 19.5391 6.75073C19.5158 6.75073 19.4788 6.73592 19.428 6.7063C19.3772 6.67668 19.3148 6.64494 19.2407 6.61108C19.1667 6.57511 19.081 6.54338 18.9836 6.51587C18.8863 6.48625 18.7795 6.47144 18.6631 6.47144C18.5721 6.47144 18.4928 6.48307 18.425 6.50635C18.3573 6.52751 18.3002 6.55819 18.2537 6.59839C18.2092 6.63647 18.1754 6.68302 18.1521 6.73804C18.1309 6.79305 18.1204 6.85124 18.1204 6.9126C18.1204 7.00358 18.1447 7.08293 18.1934 7.15063C18.2441 7.21623 18.3108 7.27547 18.3933 7.32837C18.4779 7.37915 18.5732 7.42782 18.679 7.47437C18.7847 7.5188 18.8927 7.56641 19.0027 7.61719C19.1127 7.66797 19.2206 7.72616 19.3264 7.79175C19.4322 7.85522 19.5264 7.93245 19.6089 8.02344C19.6914 8.1123 19.7581 8.2181 19.8088 8.34082C19.8596 8.46143 19.885 8.60425 19.885 8.76929Z" fill="#656565"/>
<path d="M21.0052 10.8228C20.9947 10.8503 20.9809 10.8725 20.964 10.8894C20.9471 10.9063 20.9227 10.9201 20.891 10.9307C20.8614 10.9412 20.8233 10.9486 20.7767 10.9529C20.7323 10.9592 20.6752 10.9624 20.6053 10.9624C20.5186 10.9624 20.4477 10.9582 20.3927 10.9497C20.3377 10.9412 20.2954 10.9285 20.2657 10.9116C20.2382 10.8947 20.2224 10.8725 20.2181 10.845C20.2139 10.8196 20.2181 10.7889 20.2308 10.7529L22.1288 5.42407C22.1372 5.39657 22.1499 5.37435 22.1669 5.35742C22.1838 5.33838 22.2071 5.32357 22.2367 5.31299C22.2663 5.30241 22.3044 5.295 22.3509 5.29077C22.3996 5.28442 22.4578 5.28125 22.5255 5.28125C22.6144 5.28125 22.6853 5.28548 22.7382 5.29395C22.7932 5.30241 22.8344 5.3151 22.8619 5.33203C22.8894 5.34896 22.9053 5.37118 22.9095 5.39868C22.9138 5.42407 22.9106 5.45475 22.9 5.49072L21.0052 10.8228Z" fill="#656565"/>
</svg>
