<svg xmlns="http://www.w3.org/2000/svg" width="56" height="56" viewBox="0 0 56 56">
    <g fill="none" fill-rule="evenodd">
        <g>
            <g>
                <g>
                    <path fill="#FF4F00" fill-opacity=".2" d="M54.25 22.039c0 12.171-9.868 22.039-22.04 22.039-12.17 0-22.038-9.868-22.038-22.039 0-12.172 9.867-22.04 22.039-22.04C44.382 0 54.25 9.868 54.25 22.04" transform="translate(-490 -403) translate(490 403) translate(1.75 3.5)"/>
                    <path fill="#FFF" d="M23.734 8.476h10.172l14.06 14.06c.661.662.661 1.735 0 2.397L24.932 47.965c-.662.662-1.735.662-2.397 0L4.589 30.02c-.662-.662-.662-1.735 0-2.397L23.734 8.476z" transform="translate(-490 -403) translate(490 403) translate(1.75 3.5)"/>
                    <path stroke="#FF4F00" stroke-linecap="round" stroke-width="2" d="M22.039 41.535L7.629 41.535M16.953 20.344L0 20.344" transform="translate(-490 -403) translate(490 403) translate(1.75 3.5)"/>
                    <path fill="#FF4F00" fill-opacity=".6" d="M23.734 9.324L28.82 14.41 33.906 9.324z" transform="translate(-490 -403) translate(490 403) translate(1.75 3.5)"/>
                    <path stroke="#FF4F00" stroke-width="2" d="M9.324 22.887L4.59 27.622c-.662.662-.662 1.735 0 2.397l11.518 11.518" transform="translate(-490 -403) translate(490 403) translate(1.75 3.5)"/>
                    <path stroke="#FF4F00" stroke-linecap="round" stroke-width="2" d="M18.648 44.078l3.888 3.887c.662.662 1.735.662 2.397 0l23.032-23.032c.662-.662.662-1.736 0-2.398L33.906 8.476H23.734L11.867 20.343" transform="translate(-490 -403) translate(490 403) translate(1.75 3.5)"/>
                    <path stroke="#FF4F00" stroke-linecap="round" stroke-width="2" d="M25.43 11.019L28.82 14.41 32.211 11.019" transform="translate(-490 -403) translate(490 403) translate(1.75 3.5)"/>
                    <path stroke="#FF4F00" stroke-linecap="round" stroke-width="2" d="M23.734 19.496L33.059 28.82M21.191 22.039L30.516 31.363M18.648 24.582L25.43 31.363" opacity=".6" transform="translate(-490 -403) translate(490 403) translate(1.75 3.5)"/>
                    <path stroke="#FF4F00" stroke-linecap="round" stroke-width="2" d="M10.172 3.391L27.125 3.391M37.297 42.383L47.469 42.383M15.258 10.172L6.781 10.172M4.238 10.172L2.543 10.172" transform="translate(-490 -403) translate(490 403) translate(1.75 3.5)"/>
                </g>
            </g>
        </g>
    </g>
</svg>
