<svg width="18" height="10" viewBox="0 0 18 10" fill="none" xmlns="http://www.w3.org/2000/svg">
<path fill-rule="evenodd" clip-rule="evenodd" d="M16.0695 0.218446L8.65953 7.62845L6.04953 5.02595C5.9094 4.88551 5.71916 4.80658 5.52078 4.80658C5.32239 4.80658 5.13215 4.88551 4.99203 5.02595C4.69953 5.31845 4.69953 5.79095 4.99203 6.08345L8.12703 9.21845C8.41953 9.51095 8.89203 9.51095 9.18453 9.21845L17.127 1.28345C17.4195 0.990946 17.4195 0.518446 17.127 0.225946H17.1195C16.8345 -0.0740536 16.362 -0.0740536 16.0695 0.218446ZM12.8895 0.225947C12.7494 0.0855074 12.5592 0.00658273 12.3608 0.00658273C12.1624 0.00658273 11.9722 0.0855074 11.832 0.225947L7.60203 4.45595L8.65953 5.51345L12.8895 1.27595C13.1745 0.990947 13.1745 0.510947 12.8895 0.225947ZM3.88953 9.22595L0.754531 6.09094C0.462031 5.79844 0.462031 5.31844 0.754531 5.02594C0.894655 4.88551 1.08489 4.80658 1.28328 4.80658C1.48167 4.80658 1.67191 4.88551 1.81203 5.02594L5.47203 8.70094L4.94703 9.22595C4.65453 9.51845 4.18203 9.51845 3.88953 9.22595Z" fill="#FF4F00"/>
</svg>
