<svg width="87" height="86" viewBox="0 0 87 86" fill="none" xmlns="http://www.w3.org/2000/svg">
<path d="M39.4024 77.56C61.1637 77.56 78.8048 60.1976 78.8048 38.78C78.8048 17.3624 61.1637 0 39.4024 0C17.6411 0 0 17.3624 0 38.78C0 60.1976 17.6411 77.56 39.4024 77.56Z" fill="#E1F3F2"/>
<path d="M36.3854 57.8916C37.4268 57.3735 38.6741 57.7621 39.2291 58.7701L43.1599 65.9331C43.4632 66.4849 44.1068 66.7637 44.7248 66.6088C45.3427 66.454 45.7747 65.9077 45.7747 65.2798V54.8225C45.7747 54.0651 45.1511 53.4541 44.3815 53.4541C43.6119 53.4541 42.9911 54.0679 42.9911 54.8225V59.8625L41.678 57.4692C40.4021 55.1463 37.5269 54.2566 35.1324 55.4476C33.0812 56.4669 32.0255 58.7109 32.5662 60.9071L35.1152 71.3025C35.7103 73.7324 36.7716 75.9878 38.2707 78.0066L43.2629 84.7304C43.5347 85.0964 43.9581 85.2935 44.3872 85.2935C44.6733 85.2935 44.9594 85.2062 45.2083 85.0288C45.8291 84.5812 45.9635 83.7252 45.5115 83.1142L40.5194 76.3904C39.2377 74.6644 38.3308 72.7385 37.8216 70.6606L35.2726 60.2652C35.038 59.3107 35.4957 58.3336 36.3854 57.8916Z" fill="#00A499"/>
<path d="M67.8032 52.0538C66.9822 52.0538 66.2097 52.2622 65.5346 52.6254C64.8508 50.8741 63.1257 49.6267 61.1089 49.6267C60.2392 49.6267 59.4238 49.8604 58.7229 50.2631C57.9734 48.6581 56.3255 47.5403 54.4173 47.5403C53.7193 47.5403 53.0584 47.6896 52.4634 47.9571V41.4078C52.4634 38.8371 50.3378 36.7451 47.7258 36.7451C45.1139 36.7451 42.9883 38.8371 42.9883 41.4078V43.7814C42.9883 44.5388 43.6119 45.1498 44.3787 45.1498C45.1482 45.1498 45.769 44.536 45.769 43.7814V41.4078C45.769 40.3463 46.6473 39.4847 47.723 39.4847C48.8015 39.4847 49.6769 40.3492 49.6769 41.4078V60.7373C49.6769 61.4947 50.3006 62.1057 51.0673 62.1057C51.8369 62.1057 52.4577 61.4919 52.4577 60.7373V52.2031C52.4577 51.1416 53.3331 50.28 54.4116 50.28C55.4902 50.28 56.3656 51.1444 56.3656 52.2031V60.7373C56.3656 61.4947 56.9892 62.1057 57.7559 62.1057C58.5227 62.1057 59.1463 61.4919 59.1463 60.7373V54.2895C59.1463 53.228 60.0217 52.3664 61.1003 52.3664C62.1788 52.3664 63.0542 53.2308 63.0542 54.2895V60.7373C63.0542 61.4947 63.6779 62.1057 64.4446 62.1057C65.2142 62.1057 65.835 61.4919 65.835 60.7373V56.7166C65.835 55.655 66.7132 54.7935 67.7889 54.7935C68.8675 54.7935 69.7429 55.6579 69.7429 56.7166V68.2748C69.7429 71.3551 69.268 74.4073 68.3325 77.344L66.3699 83.5047C66.1411 84.2255 66.5473 84.9942 67.2826 85.2222C67.4199 85.2645 67.5601 85.2842 67.7002 85.2842C68.2924 85.2842 68.8417 84.9097 69.0277 84.324L70.9902 78.1634C72.0115 74.9592 72.5293 71.6311 72.5293 68.272V56.7137C72.5408 54.1459 70.4152 52.0538 67.8032 52.0538Z" fill="#00A499"/>
<path d="M86.5695 22.4188C86.292 21.5769 85.5653 20.9772 84.6784 20.8505L80.4158 20.2423L78.5076 16.4412C78.11 15.6471 77.3061 15.1572 76.4077 15.1572C75.5094 15.1572 74.7055 15.65 74.3079 16.444L72.4026 20.2451L68.1399 20.8561C67.2502 20.9828 66.5264 21.5854 66.2489 22.4272C65.9714 23.2691 66.2003 24.1729 66.8411 24.7896L69.9251 27.7488L69.1984 31.9273C69.0468 32.8001 69.4044 33.6617 70.1311 34.1826C70.543 34.4754 71.0208 34.6247 71.5043 34.6247C71.8762 34.6247 72.2509 34.5374 72.5971 34.3572L76.4106 32.3834L80.2241 34.3544C81.0194 34.7654 81.9635 34.6979 82.6902 34.177C83.4168 33.6561 83.7744 32.7917 83.6228 31.9216L82.8933 27.7432L85.9773 24.7839C86.6181 24.1645 86.847 23.2579 86.5695 22.4188Z" fill="#00A499"/>
<path d="M80.794 25.9374C80.2419 26.4668 79.9901 27.2298 80.1217 27.9788L80.7397 31.5152L77.5126 29.8456C76.8289 29.4908 76.0135 29.4936 75.3327 29.8456L72.1056 31.5152L72.7207 27.9788C72.8494 27.2298 72.5977 26.4668 72.0455 25.9374L69.4336 23.4343L73.0411 22.9162C73.805 22.8064 74.463 22.3362 74.8034 21.6548L76.4169 18.4365L78.0304 21.6548C78.3709 22.3362 79.0317 22.8064 79.7956 22.9162L83.4031 23.4315L80.794 25.9374Z" fill="white"/>
<path d="M55.4385 25.9374C54.8864 26.4668 54.6346 27.2298 54.7662 27.9788L55.3842 31.5152L52.1572 29.8456C51.4734 29.4908 50.6581 29.4936 49.9772 29.8456L46.7502 31.5152L47.3652 27.9788C47.494 27.2298 47.2422 26.4668 46.6901 25.9374L44.0781 23.4343L47.6857 22.9162C48.4495 22.8064 49.1075 22.3362 49.4479 21.6548L51.0614 18.4365L52.675 21.6548C53.0154 22.3362 53.6763 22.8064 54.4401 22.9162L58.0476 23.4315L55.4385 25.9374Z" fill="white"/>
<path d="M30.0909 25.9374C29.5387 26.4668 29.287 27.2298 29.4186 27.9788L30.0365 31.5152L26.8095 29.8456C26.1257 29.4908 25.3104 29.4936 24.6295 29.8456L21.4025 31.5152L22.0176 27.9788C22.1463 27.2298 21.8946 26.4668 21.3424 25.9374L18.7305 23.4343L22.338 22.9162C23.1018 22.8064 23.7598 22.3362 24.1003 21.6548L25.7138 18.4365L27.3273 21.6548C27.6677 22.3362 28.3286 22.8064 29.0924 22.9162L32.7 23.4315L30.0909 25.9374Z" fill="white"/>
<path d="M61.2296 22.4188C60.9521 21.5769 60.2283 20.9772 59.3386 20.8505L55.0759 20.2423L53.1678 16.4412C52.7701 15.6471 51.9662 15.1572 51.0679 15.1572C50.1696 15.1572 49.3657 15.65 48.968 16.444L47.0627 20.2451L42.8001 20.8561C41.9103 20.9828 41.1865 21.5854 40.909 22.4272C40.6315 23.2691 40.8604 24.1729 41.5012 24.7896L44.5852 27.7488L43.8586 31.9273C43.707 32.8001 44.0646 33.6617 44.7912 34.1826C45.2032 34.4754 45.6809 34.6247 46.1644 34.6247C46.5363 34.6247 46.9111 34.5374 47.2573 34.3572L51.0708 32.3806L54.8843 34.3515C55.6796 34.7626 56.6237 34.695 57.3503 34.1741C58.077 33.6533 58.4346 32.7888 58.2829 31.9188L57.5534 27.7404L60.6374 24.7811C61.2811 24.1645 61.5071 23.2579 61.2296 22.4188ZM55.445 25.9384C54.8928 26.4677 54.6411 27.2307 54.7727 27.9797L55.3906 31.5162L52.1636 29.8465C51.4799 29.4945 50.6645 29.4945 49.9836 29.8465L46.7566 31.5162L47.3717 27.9797C47.5004 27.2307 47.2487 26.4677 46.6965 25.9384L44.0846 23.4352L47.6921 22.9172C48.456 22.8074 49.1139 22.3371 49.4572 21.6558L51.0708 18.4375L52.6843 21.6558C53.0247 22.3371 53.6856 22.8074 54.4494 22.9172L58.0569 23.4324L55.445 25.9384Z" fill="#00A499"/>
<path d="M35.8864 22.4188C35.6089 21.5769 34.8822 20.9772 33.9954 20.8505L29.7327 20.2423L27.8245 16.4412C27.4269 15.6471 26.623 15.1572 25.7246 15.1572C24.8263 15.1572 24.0224 15.65 23.6248 16.444L21.7195 20.2451L17.4568 20.8561C16.5671 20.9828 15.8433 21.5854 15.5658 22.4272C15.2883 23.2691 15.5143 24.173 16.158 24.7924L19.242 27.7516L18.5153 31.9301C18.3637 32.8029 18.7213 33.6645 19.448 34.1854C19.8599 34.4782 20.3377 34.6275 20.8212 34.6275C21.1931 34.6275 21.5678 34.5402 21.914 34.36L25.7275 32.3806L29.541 34.3515C30.3363 34.7626 31.2804 34.6951 32.0071 34.1742C32.7337 33.6533 33.0913 32.7889 32.9397 31.9188L32.2102 27.7404L35.2942 24.7811C35.9379 24.1645 36.1639 23.2579 35.8864 22.4188ZM30.1017 25.9384C29.5496 26.4677 29.2978 27.2308 29.4294 27.9797L30.0474 31.5162L26.8204 29.8465C26.1366 29.4945 25.3213 29.4945 24.6404 29.8465L21.4134 31.519L22.0284 27.9825C22.16 27.2336 21.9054 26.4705 21.3533 25.9412L18.7413 23.4353L22.3489 22.9172C23.1127 22.8074 23.7707 22.3371 24.1111 21.6558L25.7246 18.4375L27.3382 21.6558C27.6786 22.3371 28.3395 22.8074 29.1033 22.9172L32.7137 23.4324L30.1017 25.9384Z" fill="#00A499"/>
<path d="M45.3578 48.4583C45.1004 48.2021 44.7399 48.0557 44.3737 48.0557C44.0075 48.0557 43.6499 48.2021 43.3896 48.4583C43.1292 48.7145 42.9805 49.0665 42.9805 49.4269C42.9805 49.7873 43.1292 50.1392 43.3896 50.3955C43.647 50.6489 44.0075 50.7981 44.3737 50.7981C44.7399 50.7981 45.0975 50.6517 45.3578 50.3955C45.6153 50.1421 45.7669 49.7873 45.7669 49.4269C45.7641 49.0665 45.6153 48.7117 45.3578 48.4583Z" fill="#00A499"/>
</svg>
