<?xml version="1.0"?>
<svg xmlns="http://www.w3.org/2000/svg" xmlns:xlink="http://www.w3.org/1999/xlink" xmlns:svgjs="http://svgjs.com/svgjs" version="1.1" width="512" height="512" x="0" y="0" viewBox="0 0 496 496" style="enable-background:new 0 0 512 512" xml:space="preserve" class=""><g>
<path xmlns="http://www.w3.org/2000/svg" style="" d="M248,92c-13.6,0-24-10.4-24-24V24c0-13.6,10.4-24,24-24s24,10.4,24,24v44C272,80.8,261.6,92,248,92z" fill="#fda57d" data-original="#76ffe5" class=""/>
<path xmlns="http://www.w3.org/2000/svg" style="" d="M248,496c-13.6,0-24-10.4-24-24v-44c0-13.6,10.4-24,24-24s24,10.4,24,24v44  C272,485.6,261.6,496,248,496z" fill="#d14a0e" data-original="#0dbfba" class=""/>
<path xmlns="http://www.w3.org/2000/svg" style="" d="M157.6,116c-8,0-16-4-20.8-12l-21.6-37.6c-6.4-11.2-2.4-26.4,8.8-32.8s26.4-2.4,32.8,8.8L178.4,80  c6.4,11.2,2.4,26.4-8.8,32.8C166.4,114.4,161.6,116,157.6,116z" fill="#ffd3bf" data-original="#bbfff2" class=""/>
<path xmlns="http://www.w3.org/2000/svg" style="" d="M360,465.6c-8,0-16-4-20.8-12L317.6,416c-6.4-11.2-2.4-26.4,8.8-32.8c11.2-6.4,26.4-2.4,32.8,8.8  l21.6,37.6c6.4,11.2,2.4,26.4-8.8,32.8C368,464.8,364,465.6,360,465.6z" fill="#d95419" data-original="#1bceb8" class=""/>
<path xmlns="http://www.w3.org/2000/svg" style="" d="M92,181.6c-4,0-8-0.8-12-3.2l-37.6-21.6c-11.2-6.4-15.2-21.6-8.8-32.8s21.6-15.2,32.8-8.8l37.6,21.6  c11.2,6.4,15.2,21.6,8.8,32.8C108,177.6,100,181.6,92,181.6z" fill="#ffece3" data-original="#e1fff9" class=""/>
<path xmlns="http://www.w3.org/2000/svg" style="" d="M442.4,384c-4,0-8-0.8-12-3.2L392,359.2c-11.2-6.4-15.2-21.6-8.8-32.8c6.4-11.2,21.6-15.2,32.8-8.8  l37.6,21.6c11.2,6.4,15.2,21.6,8.8,32.8C458.4,380,450.4,384,442.4,384z" fill="#f3601d" data-original="#26dbc0" class=""/>
<path xmlns="http://www.w3.org/2000/svg" style="" d="M68,272H24c-13.6,0-24-10.4-24-24s10.4-24,24-24h44c13.6,0,24,10.4,24,24S80.8,272,68,272z" fill="#fff8f5" data-original="#f3fffd" class=""/>
<path xmlns="http://www.w3.org/2000/svg" style="" d="M472,272h-44c-13.6,0-24-10.4-24-24s10.4-24,24-24h44c13.6,0,24,10.4,24,24S485.6,272,472,272z" fill="#eb6123" data-original="#2ee5c6" class=""/>
<path xmlns="http://www.w3.org/2000/svg" style="" d="M53.6,384c-8,0-16-4-20.8-12c-6.4-11.2-2.4-26.4,8.8-32.8l37.6-21.6c11.2-6.4,26.4-2.4,32.8,8.8  c6.4,11.2,2.4,26.4-8.8,32.8l-37.6,21.6C62.4,383.2,58.4,384,53.6,384z" fill="#b3410e" data-original="#11aeba" class=""/>
<path xmlns="http://www.w3.org/2000/svg" style="" d="M404,181.6c-8,0-16-4-20.8-12c-6.4-11.2-2.4-26.4,8.8-32.8l37.6-21.6c11.2-6.4,26.4-2.4,32.8,8.8  s2.4,26.4-8.8,32.8L416,178.4C412,180.8,408,181.6,404,181.6z" fill="#f5743a" data-original="#3bedcb" class=""/>
<path xmlns="http://www.w3.org/2000/svg" style="" d="M136,465.6c-4,0-8-0.8-12-3.2c-11.2-6.4-15.2-21.6-8.8-32.8l21.6-37.6c6.4-11.2,21.6-15.2,32.8-8.8  c11.2,6.4,15.2,21.6,8.8,32.8l-21.6,37.6C152,461.6,144,465.6,136,465.6z" fill="#b9420d" data-original="#0fb8bc" class=""/>
<path xmlns="http://www.w3.org/2000/svg" style="" d="M338.4,116c-4,0-8-0.8-12-3.2c-11.2-6.4-15.2-21.6-8.8-32.8l21.6-37.6c6.4-11.2,21.6-15.2,32.8-8.8  c11.2,6.4,15.2,21.6,8.8,32.8L359.2,104C354.4,111.2,346.4,116,338.4,116z" fill="#ff8e5c" data-original="#57f7d8" class=""/>
<g xmlns="http://www.w3.org/2000/svg">
</g>
<g xmlns="http://www.w3.org/2000/svg">
</g>
<g xmlns="http://www.w3.org/2000/svg">
</g>
<g xmlns="http://www.w3.org/2000/svg">
</g>
<g xmlns="http://www.w3.org/2000/svg">
</g>
<g xmlns="http://www.w3.org/2000/svg">
</g>
<g xmlns="http://www.w3.org/2000/svg">
</g>
<g xmlns="http://www.w3.org/2000/svg">
</g>
<g xmlns="http://www.w3.org/2000/svg">
</g>
<g xmlns="http://www.w3.org/2000/svg">
</g>
<g xmlns="http://www.w3.org/2000/svg">
</g>
<g xmlns="http://www.w3.org/2000/svg">
</g>
<g xmlns="http://www.w3.org/2000/svg">
</g>
<g xmlns="http://www.w3.org/2000/svg">
</g>
<g xmlns="http://www.w3.org/2000/svg">
</g>
</g></svg>
