<svg width="12" height="15" viewBox="0 0 12 15" fill="none" xmlns="http://www.w3.org/2000/svg">
<path opacity="0.5" d="M6.2096 10.7584C6.32041 10.7584 6.42668 10.7183 6.50503 10.6469C6.58338 10.5756 6.6274 10.4788 6.6274 10.3779V8.80082C6.6274 8.6998 6.58334 8.60292 6.50491 8.53149C6.42648 8.46006 6.32013 8.41992 6.20922 8.41992C6.0983 8.41992 5.99193 8.46006 5.91351 8.53149C5.83508 8.60292 5.79102 8.6998 5.79102 8.80082V10.3779C5.79102 10.4279 5.80186 10.4774 5.8229 10.5237C5.84395 10.5699 5.87479 10.6118 5.91367 10.6472C5.95255 10.6825 5.9987 10.7105 6.04948 10.7296C6.10026 10.7487 6.15467 10.7585 6.2096 10.7584V10.7584Z" stroke="#656565"/>
<path opacity="0.5" d="M11.0009 5.17902H9.01895V3.32399C8.98098 2.6779 8.66453 2.07158 8.1384 1.63686C7.61228 1.20214 6.91902 0.974157 6.20934 1.00248C5.49913 0.973374 4.80505 1.201 4.27824 1.63581C3.75142 2.07061 3.43453 2.67738 3.39657 3.32399V5.17902H1.41779C1.30699 5.17902 1.20072 5.21911 1.12237 5.29048C1.04402 5.36184 1 5.45863 1 5.55956V10.4293C1.00105 11.3759 1.41431 12.2834 2.1491 12.9529C2.8839 13.6223 3.88023 13.9989 4.91949 14H7.50078C8.53991 13.9989 9.53611 13.6224 10.2709 12.9531C11.0057 12.2839 11.419 11.3765 11.4203 10.43V5.55956C11.4201 5.45869 11.376 5.36201 11.2977 5.29069C11.2194 5.21936 11.1132 5.17921 11.0025 5.17902H11.0009ZM4.23295 3.32399C4.27091 2.87943 4.49962 2.46639 4.86954 2.17432C5.23946 1.88226 5.72082 1.73468 6.20934 1.76356C6.69787 1.73468 7.17922 1.88226 7.54914 2.17432C7.91907 2.46639 8.14778 2.87943 8.18574 3.32399V5.17902H4.23295V3.32399ZM10.5831 10.4293C10.5823 11.174 10.2571 11.888 9.67892 12.4146C9.10075 12.9413 8.31684 13.2374 7.49919 13.2382H4.91949C4.10185 13.2374 3.31793 12.9413 2.73977 12.4146C2.16161 11.888 1.83643 11.174 1.83559 10.4293V5.94082H10.5823L10.5831 10.4293Z" stroke="#656565"/>
</svg>
