<svg width="19" height="18" viewBox="0 0 19 18" fill="none" xmlns="http://www.w3.org/2000/svg">
<path fill-rule="evenodd" clip-rule="evenodd" d="M3.2 4.49922C2.96131 4.49922 2.73239 4.59404 2.5636 4.76282C2.39482 4.93161 2.3 5.16052 2.3 5.39922V15.2992C2.3 15.5379 2.39482 15.7668 2.5636 15.9356C2.73239 16.1044 2.96131 16.1992 3.2 16.1992H13.1C13.3387 16.1992 13.5676 16.1044 13.7364 15.9356C13.9052 15.7668 14 15.5379 14 15.2992V9.89922C14 9.40216 14.4029 8.99922 14.9 8.99922C15.3971 8.99922 15.8 9.40216 15.8 9.89922V15.2992C15.8 16.0153 15.5155 16.7021 15.0092 17.2084C14.5028 17.7148 13.8161 17.9992 13.1 17.9992H3.2C2.48392 17.9992 1.79716 17.7148 1.29081 17.2084C0.784463 16.7021 0.5 16.0153 0.5 15.2992V5.39922C0.5 4.68313 0.784463 3.99638 1.29081 3.49003C1.79716 2.98368 2.48392 2.69922 3.2 2.69922H8.6C9.09706 2.69922 9.5 3.10216 9.5 3.59922C9.5 4.09628 9.09706 4.49922 8.6 4.49922H3.2Z" fill="white"/>
<path fill-rule="evenodd" clip-rule="evenodd" d="M11.3008 0.9C11.3008 0.402944 11.7037 0 12.2008 0H17.6008C18.0978 0 18.5008 0.402944 18.5008 0.9V6.3C18.5008 6.79706 18.0978 7.2 17.6008 7.2C17.1037 7.2 16.7008 6.79706 16.7008 6.3V1.8H12.2008C11.7037 1.8 11.3008 1.39706 11.3008 0.9Z" fill="white"/>
<path fill-rule="evenodd" clip-rule="evenodd" d="M18.2372 0.263604C18.5886 0.615076 18.5886 1.18492 18.2372 1.5364L8.33718 11.4364C7.98571 11.7879 7.41586 11.7879 7.06439 11.4364C6.71291 11.0849 6.71291 10.5151 7.06439 10.1636L16.9644 0.263604C17.3159 -0.087868 17.8857 -0.087868 18.2372 0.263604Z" fill="white"/>
</svg>
