<svg width="104" height="42" viewBox="0 0 104 42" fill="none" xmlns="http://www.w3.org/2000/svg">
<path d="M3.64899 34.3303H6.20162L5.76151 37.2184C5.58547 38.7587 4.52921 38.8549 3.12086 38.8549C1.2724 38.8549 0.65625 38.0848 0.65625 36.4482C0.65625 35.9669 0.744272 35.3893 0.832294 34.9079C1.2724 32.1162 1.97658 30.9609 4.26514 30.9609C5.05734 30.9609 5.76151 31.0572 6.46569 31.2497L6.1136 32.5975C5.49745 32.5012 4.8813 32.5012 4.26514 32.5012C2.85679 32.5012 2.59273 33.4639 2.41669 34.9079C2.32866 35.293 2.32866 35.6781 2.32866 36.0631C2.32866 36.8333 2.59273 37.3146 3.56097 37.3146C4.17712 37.3146 4.26514 37.1221 4.35316 36.6408L4.52921 35.6781H3.47295L3.64899 34.3303Z" fill="#004280"/>
<path d="M8.14454 38.7587H6.64844L7.26448 34.5229C7.35249 34.1378 7.35249 33.7527 7.44049 33.3676C8.14454 32.9826 8.9366 32.79 9.72865 32.79C9.90467 32.79 10.0807 32.79 10.3447 32.79L9.99267 34.1378H9.64065C9.37663 34.1378 9.11261 34.2341 8.84859 34.3303C8.76059 34.5229 8.76059 34.8117 8.67258 35.1005L8.14454 38.7587Z" fill="#004280"/>
<path d="M12.4464 32.8867L11.9182 36.4486C11.9182 36.5449 11.8302 36.7374 11.9182 36.8337C11.9182 37.2188 12.0943 37.4113 12.6224 37.4113C12.8865 37.4113 13.0625 37.4113 13.3266 37.3151C13.4146 37.1225 13.4146 36.8337 13.5026 36.5449L14.0308 32.8867H15.5271L14.911 37.1225C14.823 37.5076 14.823 37.8927 14.7349 38.2777C13.9427 38.6628 13.1506 38.8554 12.3584 38.8554C10.862 38.8554 10.4219 38.2777 10.4219 37.4113C10.4219 37.1225 10.4219 36.93 10.5099 36.6412L11.038 32.8867H12.4464Z" fill="#004280"/>
<path d="M19.4141 35.7743C19.4141 35.4855 19.5021 35.293 19.5021 35.0042C19.5021 34.5229 19.3261 34.0415 18.6219 34.0415C18.3578 34.0415 18.1818 34.0415 17.9177 34.1378C17.8297 34.4266 17.8297 34.6191 17.7417 34.9079L17.3896 37.3146C17.5656 37.4109 17.7417 37.4109 17.9177 37.4109C19.062 37.4109 19.2381 36.737 19.4141 35.7743ZM16.9495 40.8766H15.4531L16.3333 34.5229C16.4214 34.1378 16.4214 33.7527 16.5094 33.3676C17.2136 32.9826 18.0058 32.79 18.798 32.79C20.2943 32.79 20.9985 33.2714 20.9985 34.8117C20.9985 35.1967 20.9985 35.4855 20.9105 35.8706C20.5584 38.1811 19.6782 38.8549 18.0938 38.8549C17.8297 38.8549 17.4776 38.8549 17.2136 38.7587L16.9495 40.8766Z" fill="#004280"/>
<path d="M23.7279 37.4115C24.4321 37.4115 24.6081 37.0264 24.8722 35.7749C24.8722 35.4861 24.9602 35.1973 24.9602 34.9085C24.9602 34.3309 24.7842 34.1384 24.256 34.1384C23.5518 34.1384 23.3758 34.4272 23.1117 35.7749C23.0237 36.0637 23.0237 36.3525 23.0237 36.6413C23.1117 37.2189 23.2878 37.4115 23.7279 37.4115ZM21.6154 35.7749C21.9675 33.5607 22.6716 32.6943 24.4321 32.6943C25.8404 32.6943 26.4566 33.2719 26.4566 34.6197C26.4566 35.0048 26.4566 35.2936 26.3685 35.6787C26.0165 37.8928 25.3123 38.7592 23.5518 38.7592C22.1435 38.7592 21.5273 38.1816 21.5273 36.8339C21.5273 36.5451 21.6154 36.16 21.6154 35.7749Z" fill="#004280"/>
<path d="M41.6013 38.8549C39.7529 38.8549 39.1367 38.0848 39.1367 36.4482C39.1367 35.9669 39.2247 35.3893 39.3128 34.9079C39.7529 32.2124 40.457 30.9609 42.7456 30.9609C43.3618 30.9609 43.9779 31.0572 44.5941 31.2497L44.242 32.6938C43.7139 32.5975 43.2737 32.5975 42.7456 32.5012C41.3373 32.5012 41.0732 33.5602 40.8972 34.9079C40.8972 35.293 40.8091 35.6781 40.8091 36.0631C40.8091 36.8333 41.0732 37.3146 42.0414 37.3146C42.5696 37.3146 43.0097 37.2184 43.5378 37.1221L43.4498 38.5661C42.9217 38.7587 42.2175 38.8549 41.6013 38.8549Z" fill="#004280"/>
<path d="M45.7266 38.7587H44.2305L44.8465 34.5229C44.9345 34.1378 44.9345 33.7527 45.0225 33.3676C45.7266 32.9826 46.5186 32.79 47.3107 32.79C47.4867 32.79 47.6627 32.79 47.9267 32.79L47.5747 34.1378H47.2227C46.9587 34.1378 46.6946 34.2341 46.4306 34.3303C46.3426 34.5229 46.3426 34.8117 46.2546 35.1005L45.7266 38.7587Z" fill="#004280"/>
<path d="M51.2748 32.1162H50.1305L51.2748 30.2871H52.7711L51.2748 32.1162ZM50.0425 35.3893C50.3065 35.3893 50.7466 35.2931 51.0987 35.2931V35.1005C51.0987 35.0042 51.0987 34.908 51.0987 34.8117C51.0987 34.3304 50.9227 34.1378 50.3946 34.1378C49.6024 34.1378 49.3383 34.7154 49.2503 35.4856L50.0425 35.3893ZM50.6586 32.7901C52.155 32.7901 52.6831 33.464 52.6831 34.7154C52.6831 35.1005 52.6831 35.3893 52.5951 35.7744C52.5951 35.9669 52.5071 36.0632 52.5071 36.2557C51.8909 36.352 50.7466 36.5445 50.0425 36.5445H49.2503C49.2503 36.6408 49.2503 36.6408 49.2503 36.7371C49.2503 37.3147 49.6024 37.4109 50.2185 37.4109C50.8347 37.4109 51.5388 37.3147 52.155 37.2184L52.067 38.4699C51.2748 38.6624 50.4826 38.6624 49.6904 38.6624C48.194 38.6624 47.7539 37.796 47.7539 36.6408C47.7539 36.352 47.7539 35.9669 47.8419 35.6781C48.106 33.6565 48.8982 32.7901 50.6586 32.7901Z" fill="#004280"/>
<path d="M54.7094 35.7737C54.7094 36.0625 54.6214 36.255 54.6214 36.5438C54.6214 37.0252 54.7974 37.5065 55.5016 37.5065C55.7656 37.5065 55.9417 37.5065 56.2058 37.4102C56.2938 37.2177 56.2938 36.9289 56.3818 36.6401L56.7339 34.3297C56.5578 34.2334 56.3818 34.2334 56.2058 34.2334C55.0615 34.1371 54.8854 34.9073 54.7094 35.7737ZM57.262 30.5752H58.7584L57.7902 37.1214C57.7021 37.5065 57.7021 37.8916 57.6141 38.2767C56.9099 38.6617 56.1177 38.8543 55.3255 38.8543C53.8292 38.8543 53.125 38.3729 53.125 36.8326C53.125 36.4476 53.125 36.1588 53.213 35.7737C53.5651 33.4632 54.3573 32.7894 56.0297 32.7894C56.2938 32.7894 56.5578 32.7894 56.8219 32.8856L57.262 30.5752Z" fill="#004280"/>
<path d="M61.4001 31.3459C61.3121 32.0198 61.048 32.2123 60.432 32.2123C59.816 32.2123 59.6399 32.0198 59.6399 31.6347C59.6399 31.5384 59.6399 31.4422 59.6399 31.3459C59.7279 30.672 59.992 30.4795 60.608 30.4795C61.224 30.4795 61.4001 30.672 61.4001 31.0571C61.4001 31.1534 61.4001 31.2496 61.4001 31.3459ZM59.5519 32.8862H61.048L60.168 38.7586H58.6719L59.5519 32.8862Z" fill="#004280"/>
<path d="M64.3102 31.1543L64.0462 32.7909H65.1023L64.9263 34.0423H63.8702L63.5182 36.8341C63.5182 36.9304 63.5182 36.9304 63.5182 37.0267C63.5182 37.3155 63.6942 37.508 63.9582 37.508H64.4862L64.3982 38.7595C64.0462 38.8557 63.6942 38.8557 63.3422 38.8557C62.3741 38.8557 61.9341 38.4707 61.9341 37.6043C61.9341 37.4117 61.9341 37.3155 61.9341 37.1229L62.3741 34.1386H61.582L61.758 32.8871H62.6381L62.8141 31.4431L64.3102 31.1543Z" fill="#004280"/>
<path d="M67.3919 37.4115C68.0961 37.4115 68.3602 37.0264 68.5362 35.7749C68.6243 35.4861 68.6243 35.1973 68.6243 34.9085C68.6243 34.3309 68.4482 34.1384 67.9201 34.1384C67.2159 34.1384 67.0399 34.4272 66.7758 35.7749C66.6878 36.0637 66.6878 36.3525 66.6878 36.6413C66.6878 37.2189 66.8638 37.4115 67.3919 37.4115ZM65.2794 35.7749C65.6315 33.5608 66.3357 32.6943 68.0961 32.6943C69.5045 32.6943 70.1206 33.2719 70.1206 34.6197C70.1206 35.0048 70.1206 35.2936 70.0326 35.6787C69.6805 37.8928 68.9763 38.663 67.2159 38.663C65.8076 38.663 65.1914 38.0854 65.1914 36.7376C65.1914 36.4488 65.1914 36.16 65.2794 35.7749Z" fill="#004280"/>
<path d="M32.8805 34.6208C33.6727 32.5992 33.5847 30.1925 32.5284 29.4223C32.4404 29.326 32.3524 29.326 32.3524 29.326C31.2081 28.7484 30.2399 29.9999 29.8878 30.4813C29.6237 30.8663 29.3596 31.3477 29.1836 31.829C30.5039 32.4066 31.8242 33.3693 32.8805 34.6208Z" fill="#004280"/>
<path d="M36.4898 33.0785C37.2821 34.1375 37.3702 35.5815 36.6658 36.7367C35.2572 38.7583 33.4083 40.3949 31.2954 41.5501C29.6226 42.4165 28.2139 40.9725 27.5977 39.8173C29.4465 38.9509 31.0312 37.6031 32.2638 35.8703C33.5844 33.6561 33.6725 30.4793 32.4399 29.5166C33.2323 29.9979 33.9366 30.5756 34.5529 31.1532C35.3452 31.6345 35.8735 32.3084 36.4898 33.0785Z" fill="#F05323"/>
<path d="M5.23436 9.01431H6.02673C7.6995 9.01431 9.28423 9.01431 9.28423 6.70387C9.28423 4.39344 7.78754 4.29717 6.02673 4.29717H5.23436V9.01431ZM0.65625 0.253906H7.6995C11.4852 0.253906 14.1265 2.17927 14.1265 6.6076C14.1265 11.0359 11.9254 13.1538 7.87558 13.1538H5.23436V19.5075H0.65625V0.253906Z" fill="#F05323"/>
<path d="M20.4666 8.91999H20.9068C22.4035 8.91999 24.0763 8.63119 24.0763 6.51329C24.0763 4.39539 22.4035 4.10659 20.9068 4.10659H20.4666V8.91999ZM30.5913 19.5095H24.8687L20.5547 12.0968V19.5095H15.9766V0.255859H22.8437C26.3654 0.255859 29.0066 2.08495 29.0066 6.12822C29.0066 8.82373 27.686 11.1342 25.1328 11.6155L30.5913 19.5095Z" fill="#F05323"/>
<path d="M36.9248 0.254883H32.3477V19.5085H36.9248V0.254883Z" fill="#F05323"/>
<path d="M41.8606 0.254883H46.4387L49.9603 10.5556L53.746 0.254883H58.3242L60.9654 19.5085H56.3873L55.0667 8.43768L50.8407 19.5085H48.9919L44.942 8.43768L43.4453 19.5085H38.8672L41.8606 0.254883Z" fill="#F05323"/>
<path d="M71.174 6.22351L69.2371 12.3847H73.0228L71.174 6.22351ZM68.0045 16.1391L66.7719 19.5085H61.9297L68.7088 0.254883H73.7271L80.3302 19.5085H75.4879L74.3434 16.1391H68.0045Z" fill="#F05323"/>
<path d="M84.9982 3.23585L84.0297 6.31643H85.9666L84.9982 3.23585ZM83.4135 8.14553L82.7972 9.78209H80.332L83.6776 0.155273H86.1427L89.4883 9.78209H87.0231L86.4068 8.14553H83.4135Z" fill="#F05323"/>
<path d="M92.7417 2.37278V3.91307H95.2063V6.12724H92.7417V9.8817H90.4531V0.254883H95.4704V2.37278H92.7417Z" fill="#F05323"/>
<path d="M99.2539 4.68224H99.6061C100.398 4.68224 101.279 4.68224 101.279 3.52702C101.279 2.37181 100.486 2.27554 99.6061 2.27554H99.2539V4.68224ZM96.9648 0.253906H100.486C102.423 0.253906 103.656 1.21659 103.656 3.43075C103.656 5.64492 102.511 6.70387 100.575 6.70387H99.2539V9.88072H96.9648V0.253906Z" fill="#F05323"/>
</svg>
