<svg width="18" height="19" viewBox="0 0 18 19" fill="none" xmlns="http://www.w3.org/2000/svg">
<path opacity="0.8" d="M13.3578 12.6588C14.3453 11.2972 14.8875 9.57394 14.8875 7.82939C14.8875 3.53185 11.6927 0.0214844 7.76217 0.0214844C3.83165 0.0214844 0.65625 3.53185 0.65625 7.82939C0.65625 12.1269 3.85101 15.6373 7.76217 15.6373C9.33051 15.6373 10.8988 15.0416 12.1574 13.9566L16.4364 18.6583L17.6562 17.318L13.3578 12.6588ZM7.76217 13.7864C4.79976 13.7864 2.37948 11.127 2.37948 7.87194C2.37948 4.61688 4.79976 1.95751 7.76217 1.95751C10.7246 1.95751 13.1449 4.61688 13.1449 7.87194C13.1449 11.127 10.7246 13.7864 7.76217 13.7864Z" fill="#696158"/>
</svg>
