<svg width="18" height="17" viewBox="0 0 18 17" fill="none" xmlns="http://www.w3.org/2000/svg">
<path fill-rule="evenodd" clip-rule="evenodd" d="M13.4393 11.598C14.56 10.1531 15.0881 8.3356 14.9163 6.51515C14.7445 4.69469 13.8856 3.00807 12.5144 1.7984C11.1432 0.588733 9.36263 -0.0531121 7.53496 0.00344357C5.7073 0.0599992 3.96983 0.810707 2.67602 2.10284C1.38108 3.39588 0.627917 5.13402 0.57001 6.96308C0.512103 8.79213 1.15381 10.5744 2.36436 11.9468C3.57491 13.3191 5.2632 14.1783 7.08518 14.3491C8.90716 14.5199 10.7257 13.9895 12.1702 12.8661L12.2089 12.9065L16.0213 16.7199C16.1048 16.8034 16.204 16.8696 16.3131 16.9148C16.4222 16.96 16.5391 16.9832 16.6572 16.9832C16.7753 16.9832 16.8922 16.96 17.0013 16.9148C17.1104 16.8696 17.2095 16.8034 17.293 16.7199C17.3765 16.6364 17.4428 16.5372 17.488 16.4281C17.5331 16.319 17.5564 16.2021 17.5564 16.084C17.5564 15.9659 17.5331 15.849 17.488 15.7399C17.4428 15.6308 17.3765 15.5316 17.293 15.4481L13.4797 11.6357C13.4666 11.6228 13.4531 11.6102 13.4393 11.598ZM11.5735 3.37455C12.0809 3.87378 12.4845 4.46854 12.7609 5.12451C13.0373 5.78048 13.1811 6.4847 13.184 7.19653C13.1869 7.90836 13.0488 8.61372 12.7778 9.27192C12.5067 9.93013 12.108 10.5281 11.6047 11.0315C11.1013 11.5348 10.5033 11.9335 9.84509 12.2046C9.18689 12.4757 8.48153 12.6137 7.7697 12.6108C7.05787 12.6079 6.35366 12.4641 5.69768 12.1877C5.04171 11.9113 4.44695 11.5077 3.94773 11.0003C2.95006 9.98626 2.3935 8.61906 2.3993 7.19653C2.40509 5.77399 2.97276 4.41137 3.97865 3.40548C4.98454 2.39959 6.34716 1.83192 7.7697 1.82612C9.19223 1.82033 10.5594 2.37688 11.5735 3.37455Z" fill="#00AE99"/>
</svg>

