<svg id="Capa_1" data-name="Capa 1" xmlns="http://www.w3.org/2000/svg" viewBox="0 0 176 42"><defs><style>.cls-1{fill:#139686;}.cls-2{fill:#00ae99;}.cls-3{fill:#fff;}</style></defs><path class="cls-1" d="M8,0H47.4a0,0,0,0,1,0,0V42a0,0,0,0,1,0,0H8a8,8,0,0,1-8-8V8A8,8,0,0,1,8,0Z"/><path class="cls-2" d="M47.28,0H168a8,8,0,0,1,8,8V34a8,8,0,0,1-8,8H47.28a0,0,0,0,1,0,0V0A0,0,0,0,1,47.28,0Z"/><path class="cls-3" d="M71,23.85a3.52,3.52,0,0,1-.33,1.57,3.37,3.37,0,0,1-.91,1.13,3.89,3.89,0,0,1-1.33.68,5.8,5.8,0,0,1-1.64.23,5.49,5.49,0,0,1-1.1-.1,6,6,0,0,1-.89-.23,4.47,4.47,0,0,1-.65-.29,1.55,1.55,0,0,1-.37-.26.69.69,0,0,1-.16-.32,3.32,3.32,0,0,1-.05-.63c0-.18,0-.33,0-.46a1.55,1.55,0,0,1,0-.29.34.34,0,0,1,.11-.16.25.25,0,0,1,.16-.06.71.71,0,0,1,.34.15c.15.1.35.2.58.32a4.91,4.91,0,0,0,.84.33,4.2,4.2,0,0,0,1.13.14,3,3,0,0,0,.76-.1,1.74,1.74,0,0,0,.56-.29,1.16,1.16,0,0,0,.36-.46,1.46,1.46,0,0,0,.12-.6,1,1,0,0,0-.21-.66,2,2,0,0,0-.55-.49,4.64,4.64,0,0,0-.77-.41l-.89-.4a7.5,7.5,0,0,1-.88-.48,3.7,3.7,0,0,1-.78-.64A3.06,3.06,0,0,1,63.75,19a3.23,3.23,0,0,1,.3-1.43,2.86,2.86,0,0,1,.81-1,3.52,3.52,0,0,1,1.22-.62,5.46,5.46,0,0,1,1.48-.2,5.52,5.52,0,0,1,.81.06,7.76,7.76,0,0,1,.76.17,4,4,0,0,1,.62.24,1.54,1.54,0,0,1,.36.22.4.4,0,0,1,.11.15.34.34,0,0,1,.06.16,1.56,1.56,0,0,1,0,.26c0,.1,0,.22,0,.38a2.75,2.75,0,0,1,0,.43,1.12,1.12,0,0,1,0,.29.39.39,0,0,1-.09.17.21.21,0,0,1-.15.05.74.74,0,0,1-.31-.13c-.14-.08-.31-.17-.51-.26a4,4,0,0,0-.72-.26,3.06,3.06,0,0,0-.88-.13,2.08,2.08,0,0,0-.66.1,1.24,1.24,0,0,0-.48.26,1.08,1.08,0,0,0-.28.38,1.37,1.37,0,0,0-.09.49,1.08,1.08,0,0,0,.21.66,2.21,2.21,0,0,0,.55.49,7.25,7.25,0,0,0,.79.4l.9.4a8.54,8.54,0,0,1,.89.48,3.52,3.52,0,0,1,.79.64,3.13,3.13,0,0,1,.55.88A3.09,3.09,0,0,1,71,23.85ZM80.05,27a.29.29,0,0,1,0,.16.4.4,0,0,1-.16.1,1,1,0,0,1-.29.06,2.81,2.81,0,0,1-.45,0,3,3,0,0,1-.47,0,1,1,0,0,1-.29-.06.27.27,0,0,1-.14-.1.3.3,0,0,1,0-.16v-.91a4.88,4.88,0,0,1-1.33,1.06,3,3,0,0,1-1.38.35,3.28,3.28,0,0,1-1.37-.26,2.41,2.41,0,0,1-.88-.72,3,3,0,0,1-.49-1.06,7,7,0,0,1-.14-1.5v-4.8a.25.25,0,0,1,.05-.15.27.27,0,0,1,.17-.11,2,2,0,0,1,.34-.07l.54,0,.54,0a1.68,1.68,0,0,1,.33.07.27.27,0,0,1,.18.11.2.2,0,0,1,.06.15v4.43a3.84,3.84,0,0,0,.08.94,1.78,1.78,0,0,0,.23.56,1.32,1.32,0,0,0,.42.36,1.35,1.35,0,0,0,.59.13,1.45,1.45,0,0,0,.84-.31,5.09,5.09,0,0,0,.91-.9V19.12A.25.25,0,0,1,77.9,19a.27.27,0,0,1,.17-.11,2.15,2.15,0,0,1,.35-.07l.53,0,.54,0a1.68,1.68,0,0,1,.33.07A.33.33,0,0,1,80,19a.25.25,0,0,1,0,.15Zm10.13-4A7.17,7.17,0,0,1,90,24.81a4.39,4.39,0,0,1-.66,1.43,2.9,2.9,0,0,1-1.07.9,3.09,3.09,0,0,1-1.42.32,3.5,3.5,0,0,1-.74-.08,2.61,2.61,0,0,1-.66-.24,3.7,3.7,0,0,1-.61-.42,5.87,5.87,0,0,1-.62-.61V27a.26.26,0,0,1,0,.17.34.34,0,0,1-.16.1,1,1,0,0,1-.29.06l-.45,0-.45,0a1,1,0,0,1-.29-.06.36.36,0,0,1-.15-.1.34.34,0,0,1,0-.17V15.4a.25.25,0,0,1,.06-.16.38.38,0,0,1,.17-.11,1.31,1.31,0,0,1,.34-.08,4.06,4.06,0,0,1,.54,0,4,4,0,0,1,.54,0,1.14,1.14,0,0,1,.33.08.48.48,0,0,1,.19.11.3.3,0,0,1,0,.16v4.33a6.78,6.78,0,0,1,.6-.51,3.21,3.21,0,0,1,.59-.34,2.8,2.8,0,0,1,.62-.2,3.55,3.55,0,0,1,.67-.06,2.91,2.91,0,0,1,1.47.35,2.76,2.76,0,0,1,1,.93A4.08,4.08,0,0,1,90,21.28,7.32,7.32,0,0,1,90.18,22.93Zm-2.3.16a5.22,5.22,0,0,0-.08-1,2.54,2.54,0,0,0-.25-.82,1.61,1.61,0,0,0-.49-.57,1.15,1.15,0,0,0-.73-.22,1.54,1.54,0,0,0-.43.06,1.47,1.47,0,0,0-.44.21,3.08,3.08,0,0,0-.46.39,4.51,4.51,0,0,0-.5.59v2.6a4.54,4.54,0,0,0,.89.91,1.46,1.46,0,0,0,.89.31,1.17,1.17,0,0,0,.73-.22,1.69,1.69,0,0,0,.49-.57,2.32,2.32,0,0,0,.29-.8A4.58,4.58,0,0,0,87.88,23.09ZM94.17,27a.25.25,0,0,1-.06.16.37.37,0,0,1-.18.1,1.23,1.23,0,0,1-.34.06,3.79,3.79,0,0,1-.53,0,4,4,0,0,1-.54,0,1.39,1.39,0,0,1-.34-.06.5.5,0,0,1-.18-.1A.3.3,0,0,1,92,27V19.14A.25.25,0,0,1,92,19a.41.41,0,0,1,.18-.12,1.9,1.9,0,0,1,.34-.08l.54,0,.53,0a1.55,1.55,0,0,1,.34.08.32.32,0,0,1,.18.12.2.2,0,0,1,.06.15Zm.16-10.5a1.26,1.26,0,0,1-.27.93,1.5,1.5,0,0,1-1,.25,1.53,1.53,0,0,1-1-.24,1.23,1.23,0,0,1-.26-.89,1.23,1.23,0,0,1,.27-.92,2.06,2.06,0,0,1,2,0A1.16,1.16,0,0,1,94.33,16.46Zm7.09,3.39c0,.21,0,.38,0,.52a1.66,1.66,0,0,1-.05.31.34.34,0,0,1-.1.16.22.22,0,0,1-.14.05l-.16,0-.2-.07-.24-.06a.88.88,0,0,0-.29,0,1,1,0,0,0-.37.08,1.43,1.43,0,0,0-.38.23,4.14,4.14,0,0,0-.42.42,7.13,7.13,0,0,0-.45.65V27a.25.25,0,0,1-.06.16.37.37,0,0,1-.18.1,1.23,1.23,0,0,1-.34.06,3.79,3.79,0,0,1-.53,0,4,4,0,0,1-.54,0,1.39,1.39,0,0,1-.34-.06.5.5,0,0,1-.18-.1.3.3,0,0,1-.05-.16V19.12a.33.33,0,0,1,0-.15.27.27,0,0,1,.16-.11,1.77,1.77,0,0,1,.29-.07l.46,0,.47,0a1.26,1.26,0,0,1,.28.07.25.25,0,0,1,.15.11.24.24,0,0,1,0,.15v1a7.2,7.2,0,0,1,.58-.72,3.32,3.32,0,0,1,.52-.45,1.55,1.55,0,0,1,.49-.23,1.71,1.71,0,0,1,.49-.07,1.1,1.1,0,0,1,.25,0,2.12,2.12,0,0,1,.52.11.35.35,0,0,1,.15.08.23.23,0,0,1,.07.1.39.39,0,0,1,0,.15,2.65,2.65,0,0,1,0,.27C101.41,19.47,101.42,19.64,101.42,19.85ZM113.54,27a.23.23,0,0,1-.09.19.57.57,0,0,1-.28.1,3.88,3.88,0,0,1-.56,0,4.1,4.1,0,0,1-.58,0,.48.48,0,0,1-.25-.1.25.25,0,0,1-.07-.19v-.63a3.38,3.38,0,0,1-1.11.81,3.23,3.23,0,0,1-1.37.29,3.8,3.8,0,0,1-1.15-.17,2.54,2.54,0,0,1-.91-.47,2.48,2.48,0,0,1-.59-.8,2.75,2.75,0,0,1-.21-1.11,2.49,2.49,0,0,1,.27-1.19,2.19,2.19,0,0,1,.8-.83,3.87,3.87,0,0,1,1.32-.49,9.13,9.13,0,0,1,1.84-.16h.77v-.48a2.43,2.43,0,0,0-.08-.64,1,1,0,0,0-.25-.46.92.92,0,0,0-.46-.28,2.7,2.7,0,0,0-.7-.08,3.73,3.73,0,0,0-1,.12,5.73,5.73,0,0,0-.77.27l-.56.27a.75.75,0,0,1-.36.13A.32.32,0,0,1,107,21a.7.7,0,0,1-.12-.18,1.63,1.63,0,0,1-.07-.28,2.17,2.17,0,0,1,0-.37,1.69,1.69,0,0,1,0-.43.55.55,0,0,1,.17-.28,1.38,1.38,0,0,1,.43-.28,3.48,3.48,0,0,1,.72-.29,5.53,5.53,0,0,1,.89-.21,5.66,5.66,0,0,1,1-.09,6,6,0,0,1,1.58.18,2.52,2.52,0,0,1,1.08.56,2.09,2.09,0,0,1,.61.95,4.5,4.5,0,0,1,.2,1.4Zm-2.17-3.36h-.85a4,4,0,0,0-.91.08,1.87,1.87,0,0,0-.62.23,1.08,1.08,0,0,0-.35.39,1.19,1.19,0,0,0-.1.51,1,1,0,0,0,.3.77,1.29,1.29,0,0,0,.87.29,1.62,1.62,0,0,0,.86-.24,3.54,3.54,0,0,0,.8-.7Zm9.42-3.78c0,.21,0,.38,0,.52a1.66,1.66,0,0,1,0,.31.34.34,0,0,1-.1.16.2.2,0,0,1-.14.05l-.16,0-.2-.07-.24-.06a.88.88,0,0,0-.29,0,1,1,0,0,0-.37.08,1.43,1.43,0,0,0-.38.23,4.14,4.14,0,0,0-.42.42,7.13,7.13,0,0,0-.45.65V27a.25.25,0,0,1-.06.16.37.37,0,0,1-.18.1,1.22,1.22,0,0,1-.33.06,4.06,4.06,0,0,1-.54,0,4,4,0,0,1-.54,0,1.39,1.39,0,0,1-.34-.06.38.38,0,0,1-.17-.1.25.25,0,0,1-.06-.16V19.12a.25.25,0,0,1,0-.15.22.22,0,0,1,.15-.11,1.77,1.77,0,0,1,.29-.07l.46,0,.47,0a1.26,1.26,0,0,1,.28.07.25.25,0,0,1,.15.11.24.24,0,0,1,0,.15v1a7.2,7.2,0,0,1,.58-.72,3.32,3.32,0,0,1,.52-.45,1.55,1.55,0,0,1,.49-.23,1.71,1.71,0,0,1,.49-.07,1.1,1.1,0,0,1,.25,0,2.12,2.12,0,0,1,.52.11.35.35,0,0,1,.15.08.23.23,0,0,1,.07.1.39.39,0,0,1,0,.15,2.65,2.65,0,0,1,0,.27C120.79,19.47,120.79,19.64,120.79,19.85Zm7,5.86c0,.15,0,.28,0,.39a1.56,1.56,0,0,1,0,.25.76.76,0,0,1-.06.18.62.62,0,0,1-.13.17,2.72,2.72,0,0,1-.36.24,3.48,3.48,0,0,1-.58.26,5.64,5.64,0,0,1-.71.18,4,4,0,0,1-.78.07,4.25,4.25,0,0,1-1.61-.28,3.05,3.05,0,0,1-1.17-.83,3.6,3.6,0,0,1-.72-1.34,6.25,6.25,0,0,1-.24-1.81,6.4,6.4,0,0,1,.29-2,4,4,0,0,1,.83-1.43,3.3,3.3,0,0,1,1.25-.83,4.44,4.44,0,0,1,1.58-.27,3.82,3.82,0,0,1,.68.06,4,4,0,0,1,.64.17,2.8,2.8,0,0,1,.52.23,2.14,2.14,0,0,1,.34.23.77.77,0,0,1,.13.17.34.34,0,0,1,.06.17,1.43,1.43,0,0,1,0,.26c0,.1,0,.22,0,.37a2.35,2.35,0,0,1-.08.72c-.06.13-.14.2-.23.2a.56.56,0,0,1-.32-.12c-.11-.08-.24-.18-.39-.27a3.14,3.14,0,0,0-.55-.28,2.11,2.11,0,0,0-.75-.12,1.48,1.48,0,0,0-1.32.67,3.35,3.35,0,0,0-.46,1.94,5.38,5.38,0,0,0,.11,1.12,2.5,2.5,0,0,0,.34.81,1.54,1.54,0,0,0,.56.49,2,2,0,0,0,.79.16,2,2,0,0,0,.78-.14,2.85,2.85,0,0,0,.58-.3c.17-.12.31-.21.42-.3a.43.43,0,0,1,.28-.14.18.18,0,0,1,.13,0,.3.3,0,0,1,.08.17,1.54,1.54,0,0,1,0,.3C127.81,25.36,127.82,25.52,127.82,25.71Zm9.1,1.25a.25.25,0,0,1-.06.16.38.38,0,0,1-.17.1,1.39,1.39,0,0,1-.34.06,4,4,0,0,1-.53,0,4.22,4.22,0,0,1-.55,0,1.22,1.22,0,0,1-.33-.06.5.5,0,0,1-.18-.1.3.3,0,0,1,0-.16V22.49a3.51,3.51,0,0,0-.09-.9,1.46,1.46,0,0,0-.24-.55,1,1,0,0,0-.41-.37,1.31,1.31,0,0,0-.58-.13,1.51,1.51,0,0,0-.85.31,4.48,4.48,0,0,0-.9.9V27a.3.3,0,0,1,0,.16.48.48,0,0,1-.19.1,1.22,1.22,0,0,1-.33.06,3.89,3.89,0,0,1-.53,0,4,4,0,0,1-.54,0,1.31,1.31,0,0,1-.34-.06.43.43,0,0,1-.18-.1.3.3,0,0,1,0-.16V15.4a.3.3,0,0,1,0-.16.43.43,0,0,1,.18-.11,1.21,1.21,0,0,1,.34-.08,4,4,0,0,1,.54,0,3.89,3.89,0,0,1,.53,0,1.14,1.14,0,0,1,.33.08.48.48,0,0,1,.19.11.3.3,0,0,1,0,.16v4.33a4.25,4.25,0,0,1,1.16-.83,2.84,2.84,0,0,1,1.24-.28,3.22,3.22,0,0,1,1.35.26,2.33,2.33,0,0,1,.88.72,2.93,2.93,0,0,1,.5,1.07,6.31,6.31,0,0,1,.15,1.48Zm4.39,0a.3.3,0,0,1-.05.16.48.48,0,0,1-.19.1,1.22,1.22,0,0,1-.33.06,4,4,0,0,1-.54,0,3.89,3.89,0,0,1-.53,0,1.48,1.48,0,0,1-.35-.06.38.38,0,0,1-.17-.1.24.24,0,0,1-.05-.16V19.14a.2.2,0,0,1,.05-.15.32.32,0,0,1,.17-.12,2,2,0,0,1,.35-.08l.53,0,.54,0a1.59,1.59,0,0,1,.33.08.39.39,0,0,1,.19.12.25.25,0,0,1,.05.15Zm.17-10.5a1.26,1.26,0,0,1-.27.93,1.53,1.53,0,0,1-1,.25,1.57,1.57,0,0,1-1-.24,1.23,1.23,0,0,1-.25-.89,1.28,1.28,0,0,1,.26-.92,2.06,2.06,0,0,1,2,0A1.16,1.16,0,0,1,141.48,16.46Zm9.26,2.65a.49.49,0,0,1,0,.11.39.39,0,0,1,0,.14.55.55,0,0,1,0,.16,2.25,2.25,0,0,1-.05.22l-2.36,7.1a.67.67,0,0,1-.12.24.46.46,0,0,1-.25.14,1.65,1.65,0,0,1-.46.07l-.77,0c-.31,0-.56,0-.76,0a1.65,1.65,0,0,1-.46-.07.55.55,0,0,1-.25-.14,1,1,0,0,1-.11-.23l-2.36-7.1c0-.11-.06-.22-.08-.31l0-.21v-.11a.33.33,0,0,1,0-.15.4.4,0,0,1,.18-.11,1.22,1.22,0,0,1,.33-.06,4.45,4.45,0,0,1,.55,0l.58,0a1.65,1.65,0,0,1,.34.07.32.32,0,0,1,.19.11.75.75,0,0,1,.08.18l1.79,5.75.05.22,0-.22,1.76-5.75a.75.75,0,0,1,.08-.18.32.32,0,0,1,.19-.11,1.73,1.73,0,0,1,.32-.07l.55,0a3.87,3.87,0,0,1,.52,0,1.22,1.22,0,0,1,.33.06.29.29,0,0,1,.16.11A.24.24,0,0,1,150.74,19.11ZM159.8,23a6.18,6.18,0,0,1-.26,1.83,3.88,3.88,0,0,1-.8,1.42,3.53,3.53,0,0,1-1.34.92,5,5,0,0,1-1.89.33,5.22,5.22,0,0,1-1.82-.29,3.22,3.22,0,0,1-1.29-.84,3.44,3.44,0,0,1-.75-1.37,6.11,6.11,0,0,1-.25-1.84,6.18,6.18,0,0,1,.26-1.83,4,4,0,0,1,.81-1.42,3.59,3.59,0,0,1,1.34-.93,5.19,5.19,0,0,1,1.89-.32,5.09,5.09,0,0,1,1.83.29,3.12,3.12,0,0,1,1.27.83,3.58,3.58,0,0,1,.76,1.37A6.44,6.44,0,0,1,159.8,23Zm-2.27.09a5.9,5.9,0,0,0-.1-1.07,2.45,2.45,0,0,0-.31-.85,1.45,1.45,0,0,0-.59-.56,1.78,1.78,0,0,0-.91-.2,1.91,1.91,0,0,0-.86.18,1.48,1.48,0,0,0-.61.53,2.51,2.51,0,0,0-.36.83,4.75,4.75,0,0,0-.11,1.11,5.85,5.85,0,0,0,.09,1.07,2.84,2.84,0,0,0,.31.85,1.51,1.51,0,0,0,.59.56,1.94,1.94,0,0,0,.91.19,2.08,2.08,0,0,0,.87-.17,1.64,1.64,0,0,0,.61-.53,2.24,2.24,0,0,0,.35-.83A4.66,4.66,0,0,0,157.53,23.05Z"/><path class="cls-3" d="M28,19H24V15a1.21,1.21,0,1,0-2.42,0v4h-4a1.22,1.22,0,1,0,0,2.43h4v4a1.21,1.21,0,1,0,2.42,0v-4h4A1.22,1.22,0,1,0,28,19Z"/></svg>