<svg xmlns="http://www.w3.org/2000/svg" xmlns:xlink="http://www.w3.org/1999/xlink" width="88" height="32" viewBox="0 0 88 32">
    <defs>
        <path id="pnkcckxmma" d="M0 0.063L4.954 0.063 4.954 6.093 0 6.093z"/>
        <path id="s43xmv35oc" d="M0.025 0.021L8.123 0.021 8.123 9.419 0.025 9.419z"/>
        <path id="uydclus96e" d="M0 0.04L11.451 0.04 11.451 14.805 0 14.805z"/>
        <path id="7vxby41bxg" d="M0 31.879L88 31.879 88 0 0 0z"/>
    </defs>
    <g fill="none" fill-rule="evenodd">
        <g>
            <g>
                <g transform="translate(-46 -90) translate(46 90)">
                    <g transform="translate(0 23.547)">
                        <mask id="gnpml783nb" fill="#fff">
                            <use xlink:href="#pnkcckxmma"/>
                        </mask>
                        <path fill="#004280" d="M2.552 2.636H4.73l-.375 2.206c-.15 1.177-1.051 1.25-2.252 1.25C.525 6.093 0 5.505 0 4.255c0-.368.075-.809.15-1.176C.525.945 1.126.063 3.078.063c.675 0 1.276.073 1.876.22l-.3 1.03c-.525-.074-1.05-.074-1.576-.074-1.201 0-1.427.735-1.577 1.839-.075.294-.075.588-.075.882 0 .588.225.956 1.051.956.526 0 .6-.147.676-.515l.15-.735h-.9l.15-1.03z" mask="url(#gnpml783nb)"/>
                    </g>
                    <path fill="#004280" d="M6.41 29.585H5.127l.53-3.257c.075-.296.075-.592.15-.888.605-.296 1.285-.444 1.965-.444H8.3l-.303 1.036h-.302c-.227 0-.453.074-.68.148-.075.148-.075.37-.151.592l-.453 2.813zM10.042 24.996l-.455 2.739c0 .074-.075.222 0 .296 0 .296.152.444.607.444.227 0 .378 0 .606-.074.075-.148.075-.37.151-.592l.455-2.813h1.287l-.53 3.257c-.076.296-.076.592-.151.888-.682.296-1.364.444-2.046.444-1.288 0-1.666-.444-1.666-1.11 0-.222 0-.37.075-.592l.455-2.887h1.212zM13.856 31.155H12.57l.756-4.839c.076-.293.076-.587.151-.88.605-.293 1.285-.44 1.965-.44 1.284 0 1.888.367 1.888 1.54 0 .293 0 .513-.075.806-.302 1.76-1.058 2.273-2.418 2.273-.227 0-.529 0-.755-.073l-.227 1.613zm2.115-3.886c0-.22.076-.367.076-.586 0-.367-.151-.734-.756-.734-.226 0-.377 0-.604.074-.076.22-.076.366-.151.586l-.302 1.833c.15.073.302.073.453.073.982 0 1.133-.513 1.284-1.246zM17.894 27.206c.296-1.675.889-2.33 2.371-2.33 1.186 0 1.704.436 1.704 1.456 0 .292 0 .51-.074.801-.296 1.676-.889 2.331-2.37 2.331-1.187 0-1.705-.437-1.705-1.457 0-.218.074-.51.074-.8m1.778 1.237c.593 0 .741-.29.964-1.238 0-.218.074-.437.074-.655 0-.437-.149-.583-.593-.583-.593 0-.741.219-.963 1.238-.075.219-.075.437-.075.656.075.437.223.582.593.582M34.927 29.585c-1.571 0-2.095-.59-2.095-1.84 0-.369.075-.81.15-1.179.374-2.062.972-3.019 2.917-3.019.524 0 1.047.074 1.571.221l-.299 1.105c-.449-.074-.823-.074-1.272-.148-1.197 0-1.421.81-1.57 1.841 0 .295-.075.59-.075.884 0 .589.224.957 1.047.957.449 0 .823-.074 1.271-.147l-.074 1.104c-.45.147-1.048.22-1.571.22M38.51 29.585h-1.284l.529-3.257c.076-.296.076-.592.151-.888.605-.296 1.285-.444 1.965-.444h.528l-.302 1.036h-.302c-.227 0-.453.074-.68.148-.076.148-.076.37-.151.592l-.453 2.813zM42.75 24.977c1.275 0 1.724.515 1.724 1.471 0 .294 0 .515-.075.81 0 .146-.075.22-.075.367-.524.074-1.498.22-2.098.22h-.675v.148c0 .441.3.515.825.515.525 0 1.124-.074 1.649-.147l-.075.956c-.675.147-1.35.147-2.024.147-1.274 0-1.649-.662-1.649-1.545 0-.22 0-.515.075-.735.225-1.545.9-2.207 2.399-2.207zm-.524 1.986c.225 0 .6-.074.9-.074v-.367c0-.368-.15-.515-.6-.515-.675 0-.9.441-.975 1.03l.675-.074zm1.05-2.501H42.3l.974-1.398h1.274l-1.274 1.398zM48.289 23.306h1.264l-.818 4.965c-.074.292-.074.584-.149.876-.594.292-1.264.438-1.933.438-1.265 0-1.86-.365-1.86-1.533 0-.293 0-.512.075-.804.297-1.752.967-2.263 2.38-2.263.223 0 .446 0 .67.073l.371-1.752zm-2.157 3.942c0 .22-.074.366-.074.585 0 .365.148.73.743.73.224 0 .372 0 .596-.073.074-.146.074-.365.148-.584l.298-1.753c-.149-.073-.298-.073-.446-.073-.967-.073-1.116.511-1.265 1.168zM50.301 25.01h1.272l-.748 4.454h-1.272l.748-4.454zm1.571-1.168c-.074.511-.299.657-.822.657-.524 0-.674-.146-.674-.438v-.219c.075-.511.3-.657.823-.657.524 0 .673.146.673.438v.22zM54.36 23.668l-.23 1.257h.916l-.153.962h-.915l-.305 2.145v.148c0 .222.152.37.381.37h.458l-.076.96c-.306.075-.61.075-.916.075-.839 0-1.22-.296-1.22-.962v-.37l.381-2.292h-.687l.153-.962h.763l.152-1.11 1.297-.221zM55.242 27.244c.296-1.702.89-2.369 2.371-2.369 1.186 0 1.705.445 1.705 1.48 0 .297 0 .519-.075.815-.296 1.702-.889 2.294-2.37 2.294-1.186 0-1.705-.444-1.705-1.48 0-.222 0-.444.074-.74m1.778 1.258c.593 0 .815-.296.964-1.258.074-.222.074-.444.074-.666 0-.444-.148-.592-.593-.592-.593 0-.741.222-.963 1.258-.074.222-.074.444-.074.666 0 .444.148.592.592.592M27.493 26.325c.687-1.525.61-3.34-.305-3.921-.076-.073-.153-.073-.153-.073-.992-.435-1.83.509-2.136.872-.229.29-.458.653-.61 1.016 1.144.436 2.289 1.162 3.204 2.106"/>
                    <g transform="translate(23.068 22.46)">
                        <mask id="e4zkyw5ltd" fill="#fff">
                            <use xlink:href="#s43xmv35oc"/>
                        </mask>
                        <path fill="#F05323" d="M7.568 2.743c.672.81.747 1.913.15 2.795-1.195 1.545-2.764 2.796-4.556 3.679C1.743 9.879.548 8.776.025 7.893 1.594 7.23 2.938 6.2 3.984 4.876c1.12-1.692 1.194-4.12.149-4.855.672.368 1.27.809 1.792 1.25.672.368 1.12.883 1.643 1.472" mask="url(#e4zkyw5ltd)"/>
                    </g>
                    <g>
                        <mask id="9k9g7rg1if" fill="#fff">
                            <use xlink:href="#uydclus96e"/>
                        </mask>
                        <path fill="#F05323" d="M0 .04h5.987c3.219 0 5.464 1.476 5.464 4.872s-1.871 5.02-5.314 5.02H3.892v4.873H0V.04zm3.892 6.718h.673c1.422 0 2.77 0 2.77-1.772s-1.273-1.845-2.77-1.845h-.673v3.617z" mask="url(#9k9g7rg1if)"/>
                    </g>
                    <path fill="#F05323" d="M25.509 14.853h-4.875L16.96 9.18v5.672h-3.9V.12h5.85c3 0 5.25 1.4 5.25 4.493 0 2.063-1.125 3.83-3.3 4.199l4.65 6.04zM16.884 6.75h.375c1.275 0 2.7-.22 2.7-1.841 0-1.62-1.425-1.842-2.7-1.842h-.375V6.75z"/>
                    <mask id="9m0am3q1bh" fill="#fff">
                        <use xlink:href="#7vxby41bxg"/>
                    </mask>
                    <path fill="#F05323" d="M27.096 14.853L31.001 14.853 31.001.121 27.096.121zM35.151.121L39.07.121 42.085 8.002 45.326.121 49.245.121 51.506 14.853 47.587 14.853 46.456 6.382 42.839 14.853 41.256 14.853 37.789 6.382 36.507 14.853 32.588 14.853zM57.559 12.275l-1.055 2.578h-4.143L58.16.12h4.294l5.65 14.732h-4.143l-.98-2.578H57.56zm2.712-7.587l-1.658 4.714h3.24L60.27 4.688zM70.734 6.114l-.526 1.252h-2.103L70.96 0h2.103l2.854 7.366h-2.103l-.526-1.252h-2.554zm1.352-3.757l-.826 2.357h1.652l-.826-2.357zM78.72 1.741L78.72 2.92 80.818 2.92 80.818 4.614 78.72 4.614 78.72 7.487 76.771 7.487 76.771.121 81.043.121 81.043 1.741zM82.264.12h3.019C86.943.12 88 .858 88 2.553c0 1.694-.98 2.504-2.642 2.504h-1.132v2.43h-1.962V.122zm1.962 3.39h.302c.68 0 1.435 0 1.435-.885 0-.884-.68-.957-1.435-.957h-.302v1.841z" mask="url(#9m0am3q1bh)"/>
                </g>
            </g>
        </g>
    </g>
</svg>
