<svg width="11" height="11" viewBox="0 0 11 11" fill="none" xmlns="http://www.w3.org/2000/svg">
<circle cx="5.5" cy="5.5" r="5.5" fill="#00AE99"/>
<path d="M4.56885 7.19824C4.57471 6.84961 4.61426 6.57422 4.6875 6.37207C4.76074 6.16992 4.91016 5.9458 5.13574 5.69971L5.71143 5.10645C5.95752 4.82812 6.08057 4.5293 6.08057 4.20996C6.08057 3.90234 6 3.66211 5.83887 3.48926C5.67773 3.31348 5.44336 3.22559 5.13574 3.22559C4.83691 3.22559 4.59668 3.30469 4.41504 3.46289C4.2334 3.62109 4.14258 3.8335 4.14258 4.1001H3.32959C3.33545 3.62549 3.50391 3.24316 3.83496 2.95312C4.16895 2.66016 4.60254 2.51367 5.13574 2.51367C5.68945 2.51367 6.12012 2.66309 6.42773 2.96191C6.73828 3.25781 6.89355 3.66504 6.89355 4.18359C6.89355 4.69629 6.65625 5.20166 6.18164 5.69971L5.70264 6.17432C5.48877 6.41162 5.38184 6.75293 5.38184 7.19824H4.56885ZM4.53369 8.59131C4.53369 8.45947 4.57324 8.34961 4.65234 8.26172C4.73438 8.1709 4.85449 8.12549 5.0127 8.12549C5.1709 8.12549 5.29102 8.1709 5.37305 8.26172C5.45508 8.34961 5.49609 8.45947 5.49609 8.59131C5.49609 8.72314 5.45508 8.83301 5.37305 8.9209C5.29102 9.00586 5.1709 9.04834 5.0127 9.04834C4.85449 9.04834 4.73438 9.00586 4.65234 8.9209C4.57324 8.83301 4.53369 8.72314 4.53369 8.59131Z" fill="white"/>
</svg>
