<svg xmlns="http://www.w3.org/2000/svg" xmlns:xlink="http://www.w3.org/1999/xlink" width="56" height="56" viewBox="0 0 56 56">
    <defs>
        <path id="ox4d2j4eoa" d="M0 44L44 44 44 0 0 0z"/>
    </defs>
    <g fill="none" fill-rule="evenodd">
        <g>
            <g>
                <g>
                    <g transform="translate(-1022 -452) translate(1022 452) translate(7 6)">
                        <path fill="#FF4500" d="M13.5 2.375c-2.275 0-4.125 1.85-4.125 4.125s1.85 4.125 4.125 4.125 4.125-1.85 4.125-4.125-1.85-4.125-4.125-4.125m0 9.625C10.467 12 8 9.533 8 6.5S10.467 1 13.5 1 19 3.467 19 6.5 16.533 12 13.5 12"/>
                        <path fill="#FF4500" d="M18.232 42.5h3.833l-1.875-8.782c-.025-.117-.388.113-.412 0-.103-.482-.769-.36-.856-.77-.017-.08.874-1.076.856-1.162l-1.363-6.383c-.01-.05-.015-.102-.015-.153V17c0-.414.344-.75.768-.75h4.293l7.684-7.5-1.987-1.94-6.373 6.22c-.144.141-.34.22-.543.22H7.216L2.84 18.28c-.704.765-.788 1.9-.207 2.76l2.88 4.21 2.502-1.393c.237-.14.533-.143.774-.01.24.133.39.383.39.653v.75c0 .051-.005.103-.017.153L5.512 42.5h3.835l3.697-14.432c.085-.333.393-.568.746-.568.352 0 .659.235.744.568L18.232 42.5zm-.6 1.5c-.353 0-.66-.235-.746-.568l-3.096-12.09-3.098 12.09c-.085.333-.392.568-.745.568H4.568c-.23 0-.45-.102-.596-.277-.146-.175-.203-.405-.156-.626l3.667-17.18-1.735.77c-.355.206-.807.105-1.035-.227l-3.29-4.808C.457 20.221.6 18.334 1.77 17.06l4.534-5.062c.145-.158.353-.248.57-.248h15.051l6.69-6.53c.3-.293.787-.293 1.087 0l3.074 3c.144.14.225.331.225.53s-.081.39-.225.53l-8.453 8.25c-.144.141-.34.22-.543.22h-3.842v7.423l1.071 5.02c.213.998-4.116 3.4.916 3.4.183 0 .169.658.233.858.344 1.068.879 3.95 1.605 8.646.048.22-.01.45-.155.626-.146.175-.365.277-.596.277h-5.38z"/>
                        <path fill="#FF4500" d="M6.525 18.846l1.142 1.927v-3.212l-1.142 1.285zM8.333 24c-.218 0-.429-.122-.554-.334l-2.667-4.5c-.177-.297-.141-.694.083-.946l2.667-3c.19-.215.477-.28.727-.162.249.116.411.389.411.693v7.5c0 .329-.192.62-.473.717-.064.022-.129.032-.194.032zM31 10V8.4h2.667V7H35v2.2c0 .442-.298.8-.667.8H31z"/>
                        <mask id="aej7jcvzpb" fill="#fff">
                            <use xlink:href="#ox4d2j4eoa"/>
                        </mask>
                        <path fill="#FF4500" d="M29.917 6.4h5.166c1.144-1.349 1.937-2.997 2.309-4.8h-9.784c.372 1.804 1.165 3.452 2.309 4.8M35.389 8H29.61c-.191 0-.375-.084-.51-.234-1.52-1.683-2.544-3.805-2.964-6.138l-.122-.67c-.044-.235.011-.479.148-.664.138-.186.343-.294.56-.294h11.554c.217 0 .422.108.56.294.137.185.191.43.149.664l-.123.672c-.42 2.33-1.444 4.453-2.964 6.136-.135.15-.318.234-.51.234M20.386 35c-.629 0-1.244-.25-1.688-.684-.32-.313-.55-.728-.65-1.17-.03-.192-.048-.342-.048-.482 0-.626.248-1.213.698-1.654l.581-.568c.162-.158.25-.369.25-.594v-1.483c0-3.826.832-7.53 2.472-11.007h1.678c-1.546 3.28-2.62 7.4-2.62 11.007v1.483c0 .626-.248 1.212-.698 1.653l-.582.569c-.16.158-.25.368-.25.594 0 .07.013.143.023.213.027.11.114.268.227.38.16.156.38.245.607.245h21.228c.472 0 .857-.376.857-.838 0-.226-.09-.436-.25-.594l-.582-.57c-.45-.44-.698-1.026-.698-1.652v-1.483C40.941 21.833 37.717 14.62 33 10l1.25-1c5.002 4.897 8.22 12.439 8.22 19.365v1.483c0 .225.09.436.25.594l.582.569c.45.44.698 1.027.698 1.653C44 33.952 42.93 35 41.614 35H20.386z" mask="url(#aej7jcvzpb)"/>
                        <circle cx="13.5" cy="15.5" r="1" fill="#FF4500" mask="url(#aej7jcvzpb)"/>
                        <circle cx="13.5" cy="18.5" r="1" fill="#FF4500" mask="url(#aej7jcvzpb)"/>
                        <circle cx="13.5" cy="23.5" r="1" fill="#FF4500" mask="url(#aej7jcvzpb)"/>
                        <path fill="#FF4F00" stroke="#FF3900" stroke-width=".2" d="M31 24.16c0 .304-.045.572-.135.801-.09.23-.212.423-.366.578-.154.152-.334.268-.54.345-.205.077-.425.116-.66.116-.158 0-.307-.017-.444-.05-.135-.032-.254-.07-.358-.116-.105-.047-.192-.096-.263-.147-.069-.051-.118-.095-.15-.134-.03-.04-.052-.095-.066-.167-.013-.074-.018-.18-.018-.317 0-.093.002-.17.007-.233.005-.062.012-.114.021-.153.012-.039.026-.065.043-.08.019-.017.04-.027.064-.027.033 0 .079.026.138.077.062.047.14.101.235.16.094.06.206.116.337.166.133.048.285.072.458.072.113 0 .215-.017.305-.05.09-.035.166-.084.227-.147.064-.063.113-.14.146-.233.033-.093.05-.195.05-.309 0-.132-.029-.243-.085-.336-.057-.095-.132-.179-.224-.25-.09-.075-.193-.143-.31-.207l-.358-.205c-.123-.072-.242-.153-.358-.242-.116-.093-.22-.202-.313-.327-.09-.129-.163-.28-.22-.452-.057-.173-.085-.38-.085-.623 0-.278.04-.52.12-.73.083-.211.193-.386.33-.523.14-.14.304-.246.49-.314.19-.069.39-.103.6-.103.11 0 .219.01.328.032.108.02.21.049.305.084.094.036.178.076.252.121.073.046.122.083.145.112.024.03.04.055.047.076.01.021.016.05.021.085.008.033.012.077.014.13.002.05.004.115.004.193 0 .087-.002.16-.008.22-.002.059-.008.108-.017.146-.007.04-.019.068-.036.086-.014.018-.034.027-.06.027-.026 0-.067-.02-.124-.062-.057-.042-.127-.088-.21-.135-.083-.051-.178-.095-.288-.134-.108-.042-.227-.063-.358-.063-.102 0-.19.016-.266.049-.076.03-.14.073-.192.13-.05.054-.088.12-.113.197-.025.077-.036.16-.036.247 0 .128.027.24.081.335.057.093.132.176.225.25.094.073.2.14.319.207.118.063.239.13.362.202.123.071.244.153.362.246.118.09.224.198.316.326.092.126.167.276.223.449.057.17.086.371.086.604M32.17 26.828c-.015.034-.036.062-.06.082-.026.021-.062.038-.109.051-.044.013-.1.022-.17.027-.065.008-.15.012-.253.012-.13 0-.235-.005-.316-.015-.082-.011-.145-.026-.189-.048-.041-.02-.065-.047-.07-.082-.007-.031 0-.069.018-.113l2.817-6.566c.013-.033.032-.06.057-.082.026-.023.06-.041.104-.054.044-.013.1-.023.17-.028.071-.008.158-.012.258-.012.132 0 .237.006.316.016.081.01.143.026.183.047.041.02.065.048.072.082.005.031 0 .07-.015.113l-2.812 6.57z" mask="url(#aej7jcvzpb)"/>
                    </g>
                </g>
            </g>
        </g>
    </g>
</svg>
