<svg width="21" height="17" viewBox="0 0 21 17" fill="none" xmlns="http://www.w3.org/2000/svg">
<path fill-rule="evenodd" clip-rule="evenodd" d="M9.2229 1.02477H11.2724C11.8361 1.02477 12.2972 1.48591 12.2972 2.04953C12.2972 2.61315 11.8361 3.0743 11.2724 3.0743H1.02477C0.461145 3.0743 0 2.61315 0 2.04953C0 1.48591 0.461145 1.02477 1.02477 1.02477H3.0743L3.80188 0.297182C3.98634 0.112724 4.25278 0 4.51922 0H7.77798C8.04442 0 8.31086 0.112724 8.49532 0.297182L9.2229 1.02477ZM1.0243 14.3442C1.0243 15.4715 1.94659 16.3938 3.07383 16.3938H9.22243C10.3497 16.3938 11.272 15.4715 11.272 14.3442V4.09655H1.0243V14.3442ZM14.3471 4.09655H19.471C20.0346 4.09655 20.4957 4.5577 20.4957 5.12132C20.4957 5.68494 20.0346 6.14609 19.471 6.14609H14.3471C13.7835 6.14609 13.3224 5.68494 13.3224 5.12132C13.3224 4.5577 13.7835 4.09655 14.3471 4.09655ZM14.3471 12.2961H16.3967C16.9603 12.2961 17.4214 12.7573 17.4214 13.3209C17.4214 13.8845 16.9603 14.3457 16.3967 14.3457H14.3471C13.7835 14.3457 13.3224 13.8845 13.3224 13.3209C13.3224 12.7573 13.7835 12.2961 14.3471 12.2961ZM18.4462 8.19892H14.3471C13.7835 8.19892 13.3224 8.66007 13.3224 9.22369C13.3224 9.78731 13.7835 10.2485 14.3471 10.2485H18.4462C19.0098 10.2485 19.471 9.78731 19.471 9.22369C19.471 8.66007 19.0098 8.19892 18.4462 8.19892Z" fill="#00AE99"/>
</svg>
