<svg width="18" height="17" viewBox="0 0 18 17" fill="none" xmlns="http://www.w3.org/2000/svg">
<path d="M9.03906 0.773438C7.45681 0.773438 5.9101 1.24263 4.5945 2.12168C3.27891 3.00073 2.25353 4.25016 1.64803 5.71197C1.04253 7.17378 0.884102 8.78231 1.19278 10.3342C1.50147 11.886 2.26339 13.3115 3.38221 14.4303C4.50103 15.5491 5.92649 16.311 7.47834 16.6197C9.03019 16.9284 10.6387 16.77 12.1005 16.1645C13.5623 15.559 14.8118 14.5336 15.6908 13.218C16.5699 11.9024 17.0391 10.3557 17.0391 8.77344C17.0347 6.65305 16.1904 4.62077 14.6911 3.12142C13.1917 1.62208 11.1594 0.77782 9.03906 0.773438ZM9.03906 15.6677C7.67551 15.6677 6.34257 15.2634 5.20882 14.5058C4.07506 13.7483 3.19141 12.6715 2.6696 11.4118C2.14779 10.152 2.01126 8.76579 2.27727 7.42843C2.54329 6.09108 3.1999 4.86264 4.16408 3.89846C5.12826 2.93428 6.3567 2.27766 7.69406 2.01164C9.03142 1.74563 10.4176 1.88216 11.6774 2.40397C12.9371 2.92578 14.0139 3.80943 14.7714 4.94319C15.529 6.07694 15.9333 7.40988 15.9333 8.77344C15.9289 10.6006 15.2012 12.3516 13.9092 13.6436C12.6172 14.9356 10.8662 15.6633 9.03906 15.6677ZM13.0031 8.77344C13.0031 8.92007 12.9449 9.06069 12.8412 9.16437C12.7375 9.26806 12.5969 9.3263 12.4503 9.3263H9.59193V12.1846C9.59193 12.3313 9.53368 12.4719 9.43 12.5756C9.32632 12.6793 9.18569 12.7375 9.03906 12.7375C8.89244 12.7375 8.75181 12.6793 8.64813 12.5756C8.54445 12.4719 8.4862 12.3313 8.4862 12.1846V9.3263H5.62787C5.48124 9.3263 5.34062 9.26806 5.23693 9.16437C5.13325 9.06069 5.075 8.92007 5.075 8.77344C5.075 8.62681 5.13325 8.48618 5.23693 8.3825C5.34062 8.27882 5.48124 8.22057 5.62787 8.22057H8.4862V5.36224C8.4862 5.21561 8.54445 5.07499 8.64813 4.9713C8.75181 4.86762 8.89244 4.80937 9.03906 4.80937C9.18569 4.80937 9.32632 4.86762 9.43 4.9713C9.53368 5.07499 9.59193 5.21561 9.59193 5.36224V8.22057H12.4503C12.5969 8.22057 12.7375 8.27882 12.8412 8.3825C12.9449 8.48618 13.0031 8.62681 13.0031 8.77344Z" fill="white" stroke="white" stroke-width="0.395116"/>
</svg>

