<svg width="512" height="512" viewBox="0 0 512 512" fill="none" xmlns="http://www.w3.org/2000/svg">
<path d="M239.029 384.97C241.257 387.199 243.903 388.967 246.815 390.173C249.727 391.379 252.848 392 256 392C259.151 392 262.272 391.379 265.184 390.173C268.096 388.967 270.742 387.199 272.971 384.97L363.48 294.461C367.98 289.96 370.509 283.856 370.509 277.491C370.509 271.125 367.98 265.021 363.48 260.52C358.979 256.019 352.874 253.491 346.509 253.491C340.144 253.491 334.039 256.019 329.539 260.52L280 310.059V48C280 41.6348 277.471 35.5303 272.97 31.0294C268.469 26.5286 262.365 24 256 24C249.634 24 243.53 26.5286 239.029 31.0294C234.528 35.5303 232 41.6348 232 48V310.059L182.461 260.52C177.96 256.019 171.855 253.491 165.49 253.491C159.125 253.491 153.02 256.019 148.52 260.52C144.019 265.021 141.49 271.125 141.49 277.491C141.49 283.856 144.019 289.96 148.52 294.461L239.029 384.97Z" fill="#696158"/>
<path d="M464 232C457.635 232 451.53 234.529 447.029 239.029C442.529 243.53 440 249.635 440 256V440H72V256C72 249.635 69.4714 243.53 64.9706 239.029C60.4697 234.529 54.3652 232 48 232C41.6348 232 35.5303 234.529 31.0294 239.029C26.5286 243.53 24 249.635 24 256V448C24 458.609 28.2143 468.783 35.7157 476.284C43.2172 483.786 53.3913 488 64 488H448C458.609 488 468.783 483.786 476.284 476.284C483.786 468.783 488 458.609 488 448V256C488 249.635 485.471 243.53 480.971 239.029C476.47 234.529 470.365 232 464 232Z" fill="#696158"/>
</svg>
