<svg xmlns="http://www.w3.org/2000/svg" xmlns:xlink="http://www.w3.org/1999/xlink" width="72" height="72" viewBox="0 0 72 72">
    <defs>
        <path id="rbbutp8pra" d="M0 0L37.571 0 37.571 38.61 0 38.61z"/>
    </defs>
    <g fill="none" fill-rule="evenodd">
        <g>
            <g>
                <g>
                    <g>
                        <g stroke="#A5A09B" stroke-linecap="round" stroke-width="2">
                            <path d="M1.359 5.756L5.524 9.525 14.724 0.062" transform="translate(-768 -407) translate(768 407) translate(0 7.5) translate(36.509 22.326)"/>
                        </g>
                        <g>
                            <g transform="translate(-768 -407) translate(768 407) translate(0 7.5)">
                                <mask id="mz754gekpb" fill="#fff">
                                    <use xlink:href="#rbbutp8pra"/>
                                </mask>
                                <path fill="#A5A09B" fill-opacity=".2" d="M18.786 0C29.16 0 37.57 8.643 37.57 19.305c0 10.662-8.41 19.305-18.785 19.305S0 29.967 0 19.305C0 8.643 8.41 0 18.786 0" mask="url(#mz754gekpb)"/>
                            </g>
                            <path fill="#A5A09B" d="M59.745 12.053c.662 0 1.2-.538 1.2-1.2 0-.663-.538-1.2-1.2-1.2-.662 0-1.2.537-1.2 1.2 0 .662.538 1.2 1.2 1.2M64.245 12.053c.663 0 1.2-.538 1.2-1.2 0-.663-.537-1.2-1.2-1.2-.662 0-1.2.537-1.2 1.2 0 .662.538 1.2 1.2 1.2" transform="translate(-768 -407) translate(768 407) translate(0 7.5)"/>
                            <g fill="#A5A09B">
                                <path d="M39.455 40.552H17.17l2.936-4.498h16.41l2.938 4.498zm14.477-36.47c-.206.21-.322.496-.322.795v27.805c0 .298-.116.584-.322.794-.207.212-.486.33-.778.33H4.114c-.291 0-.57-.118-.777-.33-.207-.21-.323-.496-.323-.794V3.45c0-.298.116-.583.323-.795.206-.21.486-.329.777-.329h36.022c.292 0 .572-.119.778-.33.206-.21.322-.496.322-.794 0-.298-.116-.585-.322-.795-.206-.211-.486-.329-.778-.329H4.114c-.874 0-1.713.354-2.332.987-.62.633-.967 1.49-.967 2.385v29.232c0 .894.348 1.753.967 2.385.619.633 1.458.987 2.332.987h13.342l-2.937 4.498h-2.705c-.292 0-.571.118-.778.329-.206.21-.322.497-.322.796 0 .298.116.583.322.794.207.211.486.33.778.33H44.81c.292 0 .572.118.778.33.207.209.323.495.323.794v1.124H9.614c-.292 0-.571.119-.777.33-.207.21-.322.496-.322.794 0 .298.115.584.322.795.206.211.485.33.777.33H47.01c.291 0 .572-.119.778-.33.206-.21.322-.497.322-.795v-2.248c0-.896-.348-1.753-.967-2.386-.619-.633-1.458-.987-2.333-.987h-2.706l-2.937-4.498H52.51c.875 0 1.715-.354 2.334-.987.618-.632.965-1.49.965-2.385V4.877c0-.299-.115-.584-.322-.796-.206-.21-.485-.329-.777-.329-.291 0-.572.119-.778.33z" transform="translate(-768 -407) translate(768 407) translate(0 7.5) translate(14.45 9.653)"/>
                            </g>
                        </g>
                    </g>
                </g>
            </g>
        </g>
    </g>
</svg>
