<svg width="84" height="31" viewBox="0 0 84 31" fill="none" xmlns="http://www.w3.org/2000/svg">
<g clip-path="url(#clip0)">
<path d="M2.40684 25.05H4.45622L4.1226 27.1748C3.93196 28.2844 3.12174 28.3553 1.9779 28.3553C0.500431 28.3553 0 27.8123 0 26.6082C0 26.2777 0.0476601 25.8999 0.11915 25.475C0.452771 23.4446 1.04852 22.5947 2.9311 22.5947C3.57451 22.5947 4.17026 22.6419 4.74218 22.7836L4.45622 23.7988C3.97962 23.7279 3.45536 23.7043 2.95493 23.7043C1.78725 23.7043 1.62044 24.4598 1.45363 25.4986C1.40597 25.8291 1.35831 26.1124 1.35831 26.3721C1.35831 26.9387 1.57278 27.2929 2.38301 27.2929C2.88344 27.2929 2.97876 27.1512 3.02642 26.7971L3.14557 26.1124H2.24003L2.40684 25.05Z" fill="white"/>
<path d="M6.05322 28.2838H4.83789L5.33832 25.1674C5.38598 24.8605 5.43364 24.6008 5.50513 24.3175C6.02939 24.0106 6.7443 23.8926 7.34005 23.8926C7.50686 23.8926 7.67367 23.8926 7.81665 23.9162L7.55452 24.9314C7.48303 24.9314 7.36388 24.9078 7.26856 24.9078C7.05409 24.9078 6.76813 24.955 6.62515 25.0258C6.57749 25.1911 6.52982 25.4035 6.50599 25.616L6.05322 28.2838Z" fill="white"/>
<path d="M9.50717 23.9629L9.07823 26.6071C9.0544 26.7251 9.0544 26.8195 9.0544 26.914C9.0544 27.2209 9.19738 27.3625 9.65015 27.3625C9.8408 27.3625 10.0314 27.3389 10.1744 27.2681C10.2221 27.1029 10.2697 26.8904 10.2936 26.6779L10.7225 23.9629H11.9378L11.4374 27.0792C11.3898 27.3862 11.3421 27.6459 11.2706 27.9292C10.6987 28.2361 10.0076 28.3541 9.31653 28.3541C8.07737 28.3541 7.76758 27.9292 7.76758 27.2917C7.76758 27.1265 7.79141 26.914 7.81524 26.7251L8.24418 23.9865H9.50717V23.9629Z" fill="white"/>
<path d="M13.1786 29.8656H11.9395L12.6782 25.1675C12.7258 24.8605 12.7735 24.6008 12.845 24.3175C13.3693 24.0106 14.0842 23.8926 14.6799 23.8926C15.8952 23.8926 16.4672 24.2467 16.4672 25.3563C16.4672 25.5688 16.4433 25.8285 16.3957 26.1118C16.1335 27.788 15.4186 28.331 14.108 28.331C13.8935 28.331 13.6314 28.3074 13.4169 28.2602L13.1786 29.8656ZM15.1803 26.1118C15.2042 25.9229 15.2518 25.7341 15.2518 25.5688C15.2518 25.1911 15.1089 24.8841 14.5608 24.8841C14.3701 24.8841 14.1556 24.9078 14.0127 24.955C13.965 25.1202 13.9173 25.3327 13.8935 25.5452L13.6314 27.2686C13.7505 27.3158 13.9412 27.3395 14.0842 27.3395C14.942 27.3395 15.0612 26.8201 15.1803 26.1118Z" fill="white"/>
<path d="M16.9899 26.1118C17.2521 24.5064 17.8478 23.8926 19.2776 23.8926C20.4453 23.8926 20.9219 24.3175 20.9219 25.3327C20.9219 25.5688 20.8981 25.8285 20.8504 26.1118C20.5883 27.7172 19.9925 28.331 18.5627 28.331C17.395 28.331 16.9184 27.9297 16.9184 26.8909C16.8946 26.6784 16.9423 26.4187 16.9899 26.1118ZM18.7057 27.3395C19.2776 27.3395 19.4683 27.0798 19.6112 26.1354C19.6589 25.8757 19.6827 25.6632 19.6827 25.498C19.6827 25.073 19.5159 24.9314 19.1108 24.9314C18.5389 24.9314 18.3721 25.1911 18.2053 26.1354C18.1576 26.4187 18.1338 26.6312 18.1338 26.7965C18.1338 27.1978 18.3006 27.3395 18.7057 27.3395Z" fill="white"/>
<path d="M34.6009 28.3338C33.1235 28.3338 32.623 27.7908 32.623 26.5867C32.623 26.2562 32.6707 25.8785 32.7422 25.4535C33.0758 23.4468 33.6716 22.5732 35.5541 22.5732C36.1737 22.5732 36.698 22.6441 37.0554 22.7621L36.7695 23.8009C36.3882 23.7301 36.0069 23.7065 35.578 23.7065C34.4103 23.7065 34.2435 24.4619 34.0767 25.4771C34.029 25.8076 33.9814 26.0909 33.9814 26.3506C33.9814 26.8936 34.1958 27.2478 35.0061 27.2478C35.4112 27.2478 35.8401 27.2006 36.2214 27.1297L36.1737 28.1685C35.7686 28.263 35.2205 28.3338 34.6009 28.3338Z" fill="white"/>
<path d="M37.936 28.2848H36.7207L37.2211 25.1684C37.2688 24.8615 37.3165 24.6018 37.3879 24.3185C37.9122 24.0116 38.6271 23.8936 39.2229 23.8936C39.3897 23.8936 39.5565 23.8936 39.6995 23.9172L39.4373 24.9323C39.3658 24.9323 39.2467 24.9087 39.1514 24.9087C38.9369 24.9087 38.6509 24.9559 38.508 25.0268C38.4603 25.192 38.4126 25.4045 38.3888 25.617L37.936 28.2848Z" fill="white"/>
<path d="M41.9158 23.8937C43.155 23.8937 43.5363 24.4131 43.5363 25.2866C43.5363 25.5227 43.5124 25.7824 43.4648 26.0657C43.4409 26.1838 43.4171 26.3254 43.3933 26.4435C42.8929 26.5379 42.0111 26.6323 41.4154 26.6559L40.7481 26.7032C40.7481 26.7504 40.7481 26.7976 40.7481 26.8212C40.7481 27.2225 41.0103 27.3406 41.5345 27.3406C42.1303 27.3406 42.6546 27.2698 43.1073 27.2225L43.0597 28.1669C42.6069 28.2377 41.9635 28.3322 41.1294 28.3322C39.9618 28.3322 39.5566 27.7183 39.5566 26.8212C39.5566 26.6087 39.5805 26.349 39.6281 26.1129C39.8903 24.5548 40.486 23.8937 41.9158 23.8937ZM41.4631 25.806C41.7014 25.7824 42.0826 25.7588 42.2733 25.7352C42.2733 25.688 42.2971 25.6408 42.2971 25.5935C42.3209 25.5227 42.3209 25.4283 42.3209 25.3575C42.3209 25.0269 42.1541 24.8617 41.749 24.8617C41.0818 24.8617 40.9388 25.263 40.8435 25.8296L41.4631 25.806ZM42.4163 23.4451H41.4869L42.4401 22.123H43.6554L42.4163 23.4451Z" fill="white"/>
<path d="M47.2788 22.2881H48.5179L47.7554 27.0807C47.7077 27.3876 47.6601 27.6473 47.5886 27.9306C47.0643 28.2375 46.3494 28.3555 45.7537 28.3555C44.5383 28.3555 43.9902 28.0014 43.9902 26.8918C43.9902 26.6793 44.0141 26.4196 44.0617 26.1363C44.3239 24.4601 45.0149 23.9171 46.3494 23.9171C46.5639 23.9171 46.826 23.9407 47.0167 23.9879L47.2788 22.2881ZM45.2771 26.1127C45.2532 26.3016 45.2294 26.4904 45.2294 26.6793C45.2294 27.057 45.3724 27.364 45.9205 27.364C46.1111 27.364 46.3256 27.3404 46.4686 27.2695C46.5162 27.1043 46.5639 26.8918 46.5877 26.6793L46.8737 24.9559C46.7545 24.9087 46.5639 24.885 46.4209 24.885C45.4915 24.885 45.3724 25.428 45.2771 26.1127Z" fill="white"/>
<path d="M49.1618 23.9637H50.401L49.7099 28.2841H48.4707L49.1618 23.9637ZM50.6631 22.9013C50.5916 23.3735 50.3771 23.5623 49.8529 23.5623C49.4001 23.5623 49.2333 23.4443 49.2333 23.1138C49.2333 23.0429 49.2333 22.9721 49.2571 22.9013C49.3286 22.4291 49.5431 22.2402 50.0673 22.2402C50.5201 22.2402 50.6869 22.3819 50.6869 22.6888C50.6869 22.736 50.6869 22.8068 50.6631 22.9013Z" fill="white"/>
<path d="M53.0228 22.7354L52.8322 23.963H53.6662L53.5232 24.931H52.6892L52.3556 26.9613C52.3556 27.0085 52.3556 27.0558 52.3556 27.0794C52.3556 27.2918 52.4747 27.4099 52.7369 27.4099C52.856 27.4099 52.999 27.4099 53.142 27.3863L53.0943 28.2598C52.8322 28.307 52.5224 28.3542 52.2603 28.3542C51.45 28.3542 51.0926 28.0473 51.0926 27.4335C51.0926 27.3391 51.0926 27.221 51.1164 27.103L51.4739 24.931H50.8066L50.9496 23.963H51.6169L51.7837 22.9478L53.0228 22.7354Z" fill="white"/>
<path d="M53.7844 26.1128C54.0465 24.5074 54.6423 23.8936 56.072 23.8936C57.2397 23.8936 57.7163 24.3185 57.7163 25.3337C57.7163 25.5698 57.6925 25.8295 57.6448 26.1128C57.3827 27.7182 56.7869 28.332 55.3572 28.332C54.1895 28.332 53.7129 27.9307 53.7129 26.8919C53.7129 26.6794 53.7367 26.4197 53.7844 26.1128ZM55.524 27.3404C56.0959 27.3404 56.2865 27.0807 56.4295 26.1364C56.4772 25.8767 56.501 25.6642 56.501 25.499C56.501 25.074 56.3342 24.9323 55.9291 24.9323C55.3572 24.9323 55.1903 25.192 55.0235 26.1364C54.9759 26.4197 54.952 26.6322 54.952 26.7974C54.952 27.1988 55.1189 27.3404 55.524 27.3404Z" fill="white"/>
<path d="M26.0928 25.238C26.7124 23.7507 26.6647 22.0036 25.8307 21.4134C25.783 21.3898 25.7354 21.3426 25.6639 21.3189C24.7583 20.894 23.9243 21.7911 23.6622 22.1453C23.4 22.4994 23.1141 23.0424 23.0664 23.1368C23.6622 23.4201 24.9966 24.0576 26.0928 25.238Z" fill="white"/>
<path d="M29.7156 24.1007C29.8347 24.266 30.7641 25.4228 29.8824 26.7685C29.0007 28.1142 26.9275 29.6724 25.5453 30.2862C24.1632 30.9001 23.067 29.8613 22.5666 28.9878C22.5427 29.035 25.1879 27.8545 26.3555 26.0603C27.4279 24.4313 27.5232 22.0704 26.5224 21.3857C26.9513 21.6218 27.69 22.1648 28.262 22.637C28.9054 23.18 29.5964 23.9355 29.7156 24.1007Z" fill="white"/>
<path d="M0 0H5.67156C8.74564 0 10.8665 1.41653 10.8665 4.65092C10.8665 7.97976 9.05543 9.4435 5.81454 9.4435H3.71749V14.1416H0V0ZM3.71749 6.49241H4.33708C5.67156 6.49241 7.00604 6.49241 7.00604 4.76897C7.00604 2.99831 5.76688 2.9747 4.33708 2.9747H3.71749V6.49241Z" fill="white"/>
<path d="M24.2111 14.1426H19.5881L16.0851 8.71261H16.0374V14.1426H12.3438V0.000976562H17.8962C20.7081 0.000976562 22.8528 1.32307 22.8528 4.34499C22.8528 6.30451 21.7566 7.98073 19.7311 8.33487L24.2111 14.1426ZM16.0612 6.32812H16.4187C17.634 6.32812 18.9923 6.09203 18.9923 4.55747C18.9923 3.0229 17.634 2.78681 16.4187 2.78681H16.0612V6.32812Z" fill="white"/>
<path d="M29.3816 14.1426H25.6641V0.000976562H29.3816V14.1426Z" fill="white"/>
<path d="M33.4111 0.000976562H37.0571L39.9644 7.55578L43.0385 0.000976562H46.7083L48.8769 14.1426H45.1594L44.1109 5.9976H44.087L40.6555 14.1426H39.178L35.9133 5.9976H35.8656L34.6741 14.1426H30.9805L33.4111 0.000976562Z" fill="white"/>
<path d="M54.5945 11.6873L53.6175 14.1426H49.6855L55.1665 0.000976562H59.2176L64.5793 14.1426H60.6235L59.6942 11.6873H54.5945ZM57.1682 4.3686H57.1205L55.5954 8.87787H58.6695L57.1682 4.3686Z" fill="white"/>
<path d="M67.0346 5.83446L66.5341 7.06212H64.5801L67.3205 -0.0205078H69.3461L72.0389 7.06212H70.061L69.6082 5.83446H67.0346ZM68.3452 2.19872L67.5588 4.44155H69.1078L68.3452 2.19872Z" fill="white"/>
<path d="M74.6127 1.56013V2.74057H76.6382V4.29875H74.6127V7.08458H72.7539V0.00195312H76.8527V1.56013H74.6127Z" fill="white"/>
<path d="M78.0449 0.00195312H80.8807C82.4058 0.00195312 83.4782 0.710215 83.4782 2.33922C83.4782 4.01544 82.5726 4.74731 80.9522 4.74731H79.9037V7.08458H78.0449V0.00195312ZM79.9037 3.23635H80.2135C80.8807 3.23635 81.5479 3.23635 81.5479 2.36283C81.5479 1.4657 80.9284 1.4657 80.2135 1.4657H79.9037V3.23635Z" fill="white"/>
</g>
<defs>
<clipPath id="clip0">
<rect width="83.4767" height="30.4789" fill="white"/>
</clipPath>
</defs>
</svg>
