<svg xmlns="http://www.w3.org/2000/svg" xmlns:xlink="http://www.w3.org/1999/xlink" width="56" height="56" viewBox="0 0 56 56">
    <defs>
        <path id="iswf10w12a" d="M0 0.159L42.841 0.159 42.841 42.952 0 42.952z"/>
    </defs>
    <g fill="none" fill-rule="evenodd">
        <g>
            <g>
                <g>
                    <path fill="#FF4F00" d="M10.458 39.053c-3.59 0-6.511-2.92-6.511-6.51 0-1.501.524-2.967 1.474-4.126L4.302 27.5C3.14 28.917 2.5 30.708 2.5 32.542c0 4.388 3.57 7.958 7.958 7.958 1.834 0 3.625-.64 5.042-1.802l-.917-1.119c-1.16.95-2.625 1.474-4.125 1.474M5 26.802l.917 1.119c1.16-.95 2.625-1.474 4.125-1.474 3.59 0 6.51 2.92 6.51 6.51 0 1.501-.523 2.967-1.473 4.126l1.12.917C17.358 36.583 18 34.792 18 32.958 18 28.57 14.43 25 10.042 25c-1.834 0-3.625.64-5.042 1.802" transform="translate(-782 -452) translate(782 452) translate(7 7)"/>
                    <g transform="translate(-782 -452) translate(782 452) translate(7 7)">
                        <mask id="3th4s7uq2b" fill="#fff">
                            <use xlink:href="#iswf10w12a"/>
                        </mask>
                        <path fill="#FF4F00" d="M40.852 28.827c.391.392.607.912.607 1.465v9.21c0 .934-.627 1.716-1.48 1.973.058-.19.098-.386.098-.593v-1.38c0-.955-.653-1.753-1.534-1.991.096-.24.152-.498.152-.77v-1.38c0-.273-.056-.532-.152-.771.881-.239 1.534-1.036 1.534-1.99v-1.381c0-1.141-.93-2.07-2.073-2.07h-8.292c-1.143 0-2.073.929-2.073 2.07v1.38c0 .273.056.532.153.77-.882.239-1.535 1.036-1.535 1.991v1.38c0 .955.653 1.753 1.535 1.991-.097.239-.153.498-.153.77v1.381c0 .243.05.473.127.69h-.818c-1.142 0-2.072-.929-2.072-2.07v-9.21c0-.553.216-1.074.606-1.465l1.466-1.464v-2.356h12.438v2.356l1.466 1.464zm-11.14 12.745c-.381 0-.691-.31-.691-.69v-1.38c0-.382.31-.69.69-.69h.692v1.38h1.383v-1.38h1.381v1.38h1.382v-1.38h1.382v1.38h1.382v-1.38h.69c.382 0 .692.308.692.69v1.38c0 .38-.31.69-.691.69h-8.292zM28.33 34.67h.69v1.381h1.383v-1.38h1.383v1.38h1.381v-1.38h1.382v1.38h1.382v-1.38h.691c.381 0 .691.309.691.69v1.38c0 .381-.31.69-.69.69H28.33c-.381 0-.69-.309-.69-.69v-1.38c0-.381.309-.69.69-.69zm.69-2.07v-1.38c0-.38.31-.69.692-.69h.691v1.38h1.383v-1.38h1.381v1.38h1.382v-1.38h1.382v1.38h1.382v-1.38h.69c.382 0 .692.31.692.69v1.38c0 .381-.31.69-.691.69h-8.292c-.381 0-.691-.309-.691-.69zm-4.144-11.733h16.583l.002 2.76H24.876v-2.76zm-10.214 2.323c-.862-.394-1.787-.67-2.757-.816l2.907-2.903c3.188-.154 5.748-2.711 5.902-5.896l.706-.705 4.837 4.83 8.993-8.981-2.063-2.062 7.391-1.476-1.478 7.384-2.063-2.062-8.993 8.983h-3.168c-.124 0-.24.022-.353.051L21.42 16.44l-6.758 6.75zm4.686 9.41c0 4.948-4.03 8.973-8.983 8.973S1.382 37.547 1.382 32.6c0-4.947 4.03-8.973 8.983-8.973s8.983 4.026 8.983 8.973zm-6.505-13.114l-1.787 1.785v-1.785h1.787zm-6.624-5.522c-2.433 0-4.451-1.803-4.788-4.141h3.406c2.433 0 4.45 1.803 4.787 4.141H6.22zm0-8.282c-2.433 0-4.451-1.803-4.788-4.142h3.406c2.433 0 4.45 1.803 4.787 4.142H6.22zm9.674 0h3.405c-.336 2.338-2.354 4.14-4.788 4.14h-3.405c.336-2.338 2.355-4.14 4.788-4.14zm0 8.282h3.405c-.336 2.339-2.354 4.142-4.788 4.142h-3.405c.336-2.34 2.355-4.142 4.788-4.142zm25.566 11.044c.762 0 1.382-.62 1.382-1.38v-2.761c0-.762-.62-1.381-1.382-1.381H29.998l7.039-7.03 2.912 2.908L42.34 3.42 30.384 5.808l2.912 2.909-7.039 7.031-4.837-4.831-1.668 1.666h-3.86c-1.952 0-3.696.905-4.836 2.316v-3.696h3.454c3.43 0 6.22-2.788 6.22-6.213V4.3h-4.837c-1.953 0-3.697.906-4.837 2.316v-.245c0-3.425-2.79-6.212-6.219-6.212H0v.69C0 4.274 2.79 7.06 6.219 7.06h3.455v3.697C8.533 9.347 6.789 8.442 4.837 8.442H0v.69c0 3.424 2.79 6.212 6.219 6.212h3.455v6.937C4.28 22.638 0 27.123 0 32.599c0 5.71 4.65 10.353 10.365 10.353S20.729 38.308 20.729 32.6c0-3.664-1.92-6.88-4.802-8.721l5.493-5.488 2.125 2.123c-.03.113-.052.23-.052.353v2.76c0 .762.62 1.38 1.383 1.38h.69v1.785l-1.06 1.06c-.653.652-1.013 1.519-1.013 2.44v9.21c0 1.903 1.55 3.451 3.455 3.451h12.438c1.905 0 3.455-1.548 3.455-3.45v-9.21c0-.922-.36-1.789-1.012-2.44l-1.061-1.06v-1.785h.691z" mask="url(#3th4s7uq2b)"/>
                    </g>
                    <path fill="#FF4F00" d="M10 33.466c0 .254-.045.477-.135.668-.09.192-.212.352-.366.482-.153.126-.333.222-.539.287-.206.064-.426.097-.66.097-.159 0-.307-.013-.444-.041-.135-.028-.255-.06-.359-.097-.104-.04-.192-.081-.262-.124-.07-.041-.119-.079-.15-.111-.03-.033-.053-.079-.067-.139-.012-.061-.018-.15-.018-.265 0-.076.003-.14.007-.193.005-.053.012-.095.022-.127.011-.032.026-.054.042-.067.02-.015.04-.023.064-.023.033 0 .08.021.138.063.062.04.14.085.235.135.094.05.207.096.337.138.133.04.286.06.458.06.114 0 .215-.013.305-.041.09-.03.166-.071.227-.124.065-.052.113-.116.146-.194.033-.076.05-.163.05-.256 0-.11-.028-.204-.085-.28-.057-.08-.132-.15-.224-.21-.09-.062-.193-.119-.309-.171-.116-.055-.236-.112-.358-.172-.123-.06-.243-.127-.36-.202-.115-.077-.219-.168-.311-.272-.09-.107-.164-.232-.22-.376-.057-.145-.086-.318-.086-.52 0-.23.04-.433.121-.608.083-.176.193-.322.33-.436.14-.117.303-.204.49-.262.19-.057.39-.085.6-.085.11 0 .218.009.327.026.109.018.21.04.305.071.095.03.178.063.252.101.073.037.122.068.146.093.024.025.039.046.046.063.01.018.016.042.021.072.007.027.012.063.014.107.002.043.004.096.004.161 0 .072-.003.133-.007.182-.002.05-.008.092-.018.124-.007.033-.019.056-.035.07-.015.016-.035.023-.06.023-.027 0-.068-.017-.125-.052-.057-.035-.127-.073-.21-.112-.083-.042-.178-.08-.287-.112-.109-.035-.229-.052-.359-.052-.102 0-.19.014-.266.04-.076.026-.14.062-.192.11-.05.044-.087.1-.113.163-.024.065-.036.134-.036.206 0 .106.028.2.082.28.057.077.131.146.223.208.095.06.201.117.32.172.119.052.24.108.362.167.123.06.244.13.362.206.119.074.224.165.316.273.092.104.167.228.224.373.057.141.085.31.085.503M11.378 35.828c-.012.033-.027.06-.046.082-.019.021-.046.037-.081.05-.033.014-.075.023-.127.028-.05.008-.113.012-.191.012-.097 0-.176-.006-.237-.016s-.108-.026-.141-.047c-.03-.021-.049-.048-.053-.082-.005-.032 0-.069.014-.113l2.113-6.565c.01-.035.024-.062.042-.083.02-.023.045-.041.078-.054.033-.014.075-.022.127-.028.055-.008.12-.012.195-.012.098 0 .178.006.236.016.061.01.107.026.138.047.03.021.048.048.053.082.005.032.001.069-.01.114l-2.11 6.569z" transform="translate(-782 -452) translate(782 452) translate(7 7)"/>
                </g>
            </g>
        </g>
    </g>
</svg>
