<svg xmlns="http://www.w3.org/2000/svg" width="24" height="24" viewBox="0 0 24 24">
    <g fill="none" fill-rule="evenodd">
        <g fill="#FF4F00">
            <g>
                <g>
                    <g>
                        <path d="M12 4.07c-2.521 0-4.565 2.044-4.565 4.566 0 2.52 2.044 4.565 4.565 4.565 2.521 0 4.565-2.044 4.565-4.565 0-2.522-2.044-4.566-4.565-4.566m7.5 16.095v-.703c0-6.615-15-6.615-15 0v.703C2.295 18.14.913 15.231.913 12 .913 5.877 5.877.913 12 .913 18.124.913 23.087 5.877 23.087 12c0 3.23-1.382 6.139-3.587 8.165M12 0C5.383 0 0 5.36 0 12c0 3.415 1.43 6.585 3.883 8.838 4.585 4.213 11.641 4.22 16.235 0C22.568 18.585 24 15.417 24 12c0-6.63-5.373-12-12-12" transform="translate(-902 -381) translate(880 368) translate(22 13)"/>
                    </g>
                </g>
            </g>
        </g>
    </g>
</svg>
