<svg width="20" height="20" viewBox="0 0 20 20" fill="none" xmlns="http://www.w3.org/2000/svg">
<path fill-rule="evenodd" clip-rule="evenodd" d="M17.0746 2.92436C13.1748 -0.974161 6.82425 -0.975415 2.92441 2.92436C-0.97543 6.8254 -0.974176 13.1746 2.92441 17.0756C6.82425 20.9742 13.1736 20.9754 17.0746 17.0756C20.9757 13.1733 20.9745 6.8254 17.0746 2.92436ZM4.46504 15.535C1.4076 12.4789 1.40509 7.50858 4.45627 4.45745C7.50744 1.40507 12.4778 1.40883 15.5353 4.46497C18.5915 7.52111 18.5927 12.4927 15.5428 15.5438C12.4891 18.5949 7.51998 18.5912 4.46504 15.535Z" fill="#959595"/>
<path fill-rule="evenodd" clip-rule="evenodd" d="M12.711 13.8197C12.5322 13.8253 12.3581 13.762 12.2246 13.6429L10.0096 11.4304L7.88477 13.5552C7.73684 13.6799 7.54785 13.7451 7.35451 13.7382C7.21266 13.7365 7.07261 13.7062 6.94273 13.6491C6.81285 13.592 6.69582 13.5094 6.59861 13.406C6.32157 13.1302 6.26015 12.857 6.25889 12.679C6.24863 12.4952 6.31175 12.3148 6.43439 12.1776L8.59554 10.0152L6.48955 7.91174C6.29901 7.71994 6.13981 7.12576 6.63998 6.62685C6.92203 6.34481 7.19907 6.28589 7.38334 6.28589C7.61274 6.28589 7.78448 6.37614 7.86847 6.46264L10.0096 8.60119L12.1356 6.47517C12.284 6.35042 12.4734 6.2852 12.6671 6.29216C12.8093 6.29374 12.9497 6.3241 13.0798 6.3814C13.2099 6.43871 13.3271 6.52178 13.4243 6.6256C13.8981 7.10069 13.8028 7.64097 13.5885 7.85407L11.4248 10.0177L13.6023 12.1938C13.6863 12.2791 13.7853 12.4696 13.7853 12.7253C13.784 12.8671 13.7538 13.0071 13.6967 13.1368C13.6396 13.2665 13.5567 13.3833 13.4531 13.48C13.1711 13.7608 12.8953 13.8197 12.711 13.8197Z" fill="#959595"/>
</svg>

