<svg width="19" height="19" viewBox="0 0 19 19" fill="none" xmlns="http://www.w3.org/2000/svg">
<g clip-path="url(#clip0)">
<path d="M18.5252 8.22699C18.5246 8.22656 18.5242 8.22598 18.5238 8.22554L10.7732 0.47532C10.4429 0.144814 10.0037 -0.0371094 9.53646 -0.0371094C9.06926 -0.0371094 8.63003 0.144814 8.29953 0.47532L0.553075 8.22163C0.550466 8.22424 0.547712 8.22699 0.545247 8.2296C-0.13316 8.91192 -0.132 10.019 0.548582 10.6996C0.859518 11.0106 1.27004 11.1907 1.70912 11.2097C1.7271 11.2114 1.74507 11.2123 1.76319 11.2123H2.07195V16.9158C2.07195 18.0446 2.99041 18.9629 4.11921 18.9629H7.15145C7.45891 18.9629 7.7081 18.7136 7.7081 18.4063V13.9346C7.7081 13.4196 8.12717 13.0006 8.64221 13.0006H10.4307C10.9457 13.0006 11.3647 13.4196 11.3647 13.9346V18.4063C11.3647 18.7136 11.6139 18.9629 11.9213 18.9629H14.9536C16.0825 18.9629 17.0008 18.0446 17.0008 16.9158V11.2123H17.2873C17.7543 11.2123 18.1935 11.0303 18.5242 10.6997C19.2055 10.0181 19.2058 8.90902 18.5252 8.22699ZM17.7369 9.91257C17.6168 10.0327 17.457 10.099 17.2873 10.099H16.4442C16.1367 10.099 15.8875 10.3482 15.8875 10.6556V16.9158C15.8875 17.4307 15.4686 17.8496 14.9536 17.8496H12.478V13.9346C12.478 12.8058 11.5596 11.8873 10.4307 11.8873H8.64221C7.51327 11.8873 6.59481 12.8058 6.59481 13.9346V17.8496H4.11921C3.60431 17.8496 3.18524 17.4307 3.18524 16.9158V10.6556C3.18524 10.3482 2.93605 10.099 2.6286 10.099H1.80001C1.79131 10.0984 1.78276 10.098 1.77392 10.0978C1.60809 10.0949 1.45254 10.0291 1.336 9.91243C1.08812 9.66455 1.08812 9.26113 1.336 9.0131C1.33614 9.0131 1.33614 9.01296 1.33629 9.01281L1.33672 9.01238L9.08694 1.26245C9.20697 1.14228 9.36657 1.07617 9.53646 1.07617C9.70621 1.07617 9.86581 1.14228 9.98598 1.26245L17.7345 9.01078C17.7356 9.01194 17.7369 9.0131 17.7381 9.01426C17.9847 9.26258 17.9842 9.66513 17.7369 9.91257Z" fill="#FF4F00"/>
</g>
<defs>
<clipPath id="clip0">
<rect width="19" height="19" fill="white"/>
</clipPath>
</defs>
</svg>
